<?xml version="1.0" encoding="UTF-8"?>
<svg width="170px" height="170px" viewBox="0 0 170 170" version="1.1" xmlns="http://www.w3.org/2000/svg" xmlns:xlink="http://www.w3.org/1999/xlink">
    <!-- Generator: Sketch 51.3 (57544) - http://www.bohemiancoding.com/sketch -->
    <title>Auto-Bid_Buy_4</title>
    <desc>Created with Sketch.</desc>
    <defs></defs>
    <g id="Page-4" stroke="none" stroke-width="1" fill="none" fill-rule="evenodd">
        <g id="Auto-Bid_Proposal-Settings-2" transform="translate(-535.000000, -952.000000)" fill-rule="nonzero">
            <g id="Auto-Bid_Buy_4" transform="translate(535.000000, 952.000000)">
                <circle id="Oval" fill="#1283C6" cx="85" cy="85" r="85"></circle>
                <path d="M122.225,60.604 C121.129,60.604 120.243,59.716 120.243,58.622 L120.243,48.116 L116.817,44.437 C116.475,44.07 116.284,43.587 116.284,43.085 L116.284,30.561 L110.286,30.561 L110.286,35.465 C110.286,36.252 109.821,36.963 109.102,37.28 C108.379,37.595 107.543,37.459 106.963,36.929 L96.238,27.119 L72.328,47.516 L72.328,58.62 C72.328,59.715 71.439,60.602 70.344,60.602 C69.249,60.602 68.362,59.714 68.362,58.62 L68.362,46.604 C68.362,46.023 68.616,45.471 69.057,45.094 L94.996,22.965 C95.758,22.317 96.885,22.335 97.623,23.011 L106.318,30.963 L106.318,28.576 C106.318,27.481 107.205,26.594 108.3,26.594 L118.267,26.594 C119.363,26.594 120.249,27.482 120.249,28.576 L120.249,42.305 L123.675,45.984 C124.017,46.351 124.206,46.834 124.206,47.336 L124.206,58.621 C124.207,59.716 123.32,60.604 122.225,60.604 Z" id="Shape" fill="#FFFFFF"></path>
                <path d="M143.641,65.047 C142.246,63.084 139.993,61.912 137.612,61.912 L54.225,61.912 C53.129,61.912 52.241,62.801 52.241,63.896 C52.241,64.991 53.13,65.878 54.225,65.878 L137.612,65.878 C138.727,65.878 139.745,66.413 140.407,67.344 C141.04,68.234 141.208,69.303 140.862,70.3 L128.842,106.209 C128.381,107.589 127.076,108.516 125.594,108.516 L90.709,108.516 C90.997,109.814 91.222,111.136 91.36,112.483 L125.593,112.483 C128.786,112.483 131.605,110.465 132.603,107.466 L144.613,71.582 C145.371,69.412 145.006,66.969 143.641,65.047 Z" id="Shape" fill="#FFFFFF"></path>
                <circle id="Oval" fill="#FFFFFF" cx="56.561" cy="116.107" r="29.987"></circle>
                <path d="M122.371,147.511 C117.721,147.511 113.939,143.728 113.939,139.078 C113.939,134.428 117.72,130.645 122.371,130.645 C127.019,130.645 130.803,134.428 130.803,139.078 C130.803,143.728 127.02,147.511 122.371,147.511 Z M122.371,134.612 C119.91,134.612 117.906,136.615 117.906,139.078 C117.906,141.54 119.91,143.544 122.371,143.544 C124.834,143.544 126.836,141.54 126.836,139.078 C126.836,136.615 124.834,134.612 122.371,134.612 Z" id="Shape" fill="#FFFFFF"></path>
                <g id="Group" transform="translate(16.000000, 52.000000)" fill="#FFFFFF">
                    <path d="M23.514,6.691 L33.752,29.791 C35.09,29.526 36.457,29.344 37.845,29.236 L27.128,5.056 C25.901,2.398 23.238,0.679 20.344,0.679 L2.318,0.679 C1.223,0.679 0.336,1.568 0.336,2.662 C0.336,3.756 1.224,4.645 2.318,4.645 L20.343,4.645 C21.697,4.646 22.945,5.459 23.514,6.691 Z" id="Shape"></path>
                    <path d="M108.861,72.93 L74.419,72.93 C74.065,74.287 73.624,75.609 73.116,76.897 L108.861,76.897 C109.957,76.897 110.845,76.009 110.845,74.914 C110.845,73.819 109.957,72.93 108.861,72.93 Z" id="Shape"></path>
                </g>
                <path d="M78.638,119.374 L78.638,112.842 L73.354,111.543 C72.962,110.1 72.389,108.733 71.662,107.464 L74.482,102.807 L69.863,98.188 L65.206,101.008 C63.937,100.28 62.57,99.707 61.127,99.316 L59.828,94.031 L53.297,94.031 L51.998,99.316 C50.555,99.708 49.187,100.281 47.918,101.008 L43.262,98.187 L38.643,102.807 L41.463,107.464 C40.734,108.733 40.161,110.1 39.771,111.543 L34.486,112.841 L34.486,119.374 L39.771,120.672 C40.162,122.115 40.735,123.483 41.463,124.751 L38.642,129.409 L43.262,134.027 L47.918,131.208 C49.187,131.936 50.555,132.508 51.998,132.899 L53.296,138.184 L59.828,138.184 L61.127,132.899 C62.57,132.507 63.938,131.935 65.206,131.208 L69.863,134.028 L74.482,129.409 L71.662,124.751 C72.39,123.483 72.963,122.115 73.354,120.672 L78.638,119.374 Z M56.562,128.182 C49.894,128.182 44.488,122.775 44.488,116.108 C44.488,109.442 49.894,104.034 56.562,104.034 C63.228,104.034 68.636,109.442 68.636,116.108 C68.636,122.774 63.228,128.182 56.562,128.182 Z" id="Shape" fill="#1283C6"></path>
            </g>
        </g>
    </g>
</svg>