<?xml version="1.0" encoding="UTF-8"?>
<svg width="171px" height="170px" viewBox="0 0 171 170" version="1.1" xmlns="http://www.w3.org/2000/svg" xmlns:xlink="http://www.w3.org/1999/xlink">
    <!-- Generator: Sketch 51.3 (57544) - http://www.bohemiancoding.com/sketch -->
    <title>Auto-Bid_Sell_4</title>
    <desc>Created with Sketch.</desc>
    <defs></defs>
    <g id="Page-4" stroke="none" stroke-width="1" fill="none" fill-rule="evenodd">
        <g id="Auto-Bid_Proposal-Settings-2" transform="translate(-883.000000, -952.000000)" fill-rule="nonzero">
            <g id="Auto-Bid_Sell_4" transform="translate(883.000000, 951.000000)">
                <circle id="Oval" fill="#FEC416" cx="85.53" cy="85.995" r="85"></circle>
                <g id="Group" transform="translate(27.000000, 87.000000)">
                    <circle id="Oval" fill="#FFFFFF" cx="30.091" cy="30.103" r="29.987"></circle>
                    <path d="M52.168,33.369 L52.168,26.837 L46.884,25.538 C46.492,24.095 45.919,22.728 45.192,21.459 L48.012,16.802 L43.393,12.183 L38.736,15.003 C37.467,14.275 36.1,13.702 34.657,13.311 L33.358,8.026 L26.827,8.026 L25.528,13.311 C24.085,13.703 22.717,14.276 21.448,15.003 L16.792,12.182 L12.173,16.802 L14.993,21.459 C14.264,22.728 13.691,24.095 13.301,25.538 L8.016,26.836 L8.016,33.369 L13.301,34.667 C13.692,36.11 14.265,37.478 14.993,38.746 L12.172,43.404 L16.792,48.022 L21.448,45.203 C22.717,45.931 24.085,46.503 25.528,46.894 L26.826,52.179 L33.358,52.179 L34.657,46.894 C36.1,46.502 37.468,45.93 38.736,45.203 L43.393,48.023 L48.012,43.404 L45.192,38.746 C45.92,37.478 46.493,36.11 46.884,34.667 L52.168,33.369 Z M30.092,42.177 C23.424,42.177 18.018,36.77 18.018,30.103 C18.018,23.437 23.424,18.029 30.092,18.029 C36.758,18.029 42.166,23.437 42.166,30.103 C42.166,36.77 36.758,42.177 30.092,42.177 Z" id="Shape" fill="#FEC416"></path>
                </g>
                <path d="M85.193,96.287 C85.451,95.619 85.602,94.897 85.602,94.13 C85.602,91.492 84.43,89.585 81.498,88.561 C80.18,87.975 77.836,87.681 77.836,85.922 C77.836,84.749 78.568,83.87 79.594,83.87 C80.62,83.87 81.205,84.309 81.498,85.482 L85.016,85.482 C84.87,83.284 83.551,81.525 81.498,80.792 L81.498,77.275 L77.981,77.275 L77.981,80.792 C75.636,81.525 74.17,83.43 74.17,85.922 C74.17,86.161 74.196,86.388 74.221,86.614 C78.523,89.04 82.264,92.343 85.193,96.287 Z" id="Shape" fill="#FFFFFF"></path>
                <path d="M101.23,80.021 L98.491,77.16 L98.491,66.283 C98.491,65.316 97.708,64.533 96.741,64.533 L88.827,64.533 C87.86,64.533 87.077,65.316 87.077,66.283 L87.077,67.856 L80.489,61.773 C79.837,61.171 78.837,61.155 78.162,61.731 L57.498,79.464 C57.11,79.797 56.888,80.281 56.888,80.792 L56.888,82.121 C56.956,82.121 57.024,82.116 57.092,82.116 C58.204,82.116 59.302,82.174 60.388,82.276 L60.388,81.596 L79.259,65.402 L87.64,73.139 C88.152,73.609 88.893,73.734 89.53,73.456 C90.167,73.177 90.578,72.548 90.578,71.852 L90.578,68.032 L94.992,68.032 L94.992,77.861 C94.992,78.312 95.166,78.746 95.477,79.071 L98.216,81.932 L98.216,107.912 L90.846,107.912 C91.158,109.057 91.414,110.224 91.609,111.412 L99.966,111.412 C100.933,111.412 101.716,110.629 101.716,109.662 L101.716,81.231 C101.716,80.78 101.542,80.347 101.23,80.021 Z" id="Shape" fill="#FFFFFF"></path>
                <path d="M131.767,41.086 C129.756,41.086 127.796,41.434 125.949,42.077 L119.382,35.449 C119.053,35.117 118.606,34.93 118.139,34.93 L81.499,34.93 C81.031,34.93 80.583,35.118 80.254,35.451 L68.55,47.302 L60.917,54.788 L21.642,94.063 C20.959,94.746 20.958,95.851 21.639,96.535 L26.059,100.974 C26.619,99.901 27.23,98.861 27.894,97.856 L25.352,95.303 L63.38,57.274 L71.021,49.78 L82.231,38.43 L117.409,38.43 L122.584,43.653 C120.381,44.979 118.448,46.781 116.928,48.968 L115.273,47.313 C113.95,45.99 112.157,45.261 110.225,45.261 C108.292,45.261 106.5,45.99 105.178,47.313 L103.419,49.072 C102.096,50.395 101.367,52.188 101.367,54.12 C101.367,56.053 102.096,57.846 103.419,59.167 L110.349,66.098 C111.738,67.394 113.536,68.109 115.41,68.109 C116.05,68.109 116.673,68.019 117.272,67.859 C117.319,67.85 117.366,67.837 117.413,67.824 C117.473,67.806 117.531,67.787 117.59,67.767 C117.612,67.759 117.635,67.756 117.656,67.746 C117.661,67.744 117.664,67.741 117.669,67.739 C118.691,67.399 119.626,66.833 120.403,66.055 L122.162,64.296 C124.897,61.56 124.897,56.937 122.162,54.201 L119.453,51.492 C120.897,49.224 122.865,47.421 125.138,46.228 L132.198,53.353 L131.602,74.9 C131.511,75.138 131.466,75.398 131.491,75.669 C131.503,75.801 131.532,75.926 131.57,76.047 L131.21,89.134 L89.067,131.278 C88.034,133.6 86.731,135.77 85.24,137.794 C85.285,137.763 85.315,137.741 85.315,137.741 L86.48,138.814 L134.177,91.117 C134.493,90.801 134.677,90.375 134.689,89.928 L135.044,77.034 C143.515,75.484 149.932,67.975 149.932,59.25 C149.932,49.233 141.783,41.086 131.767,41.086 Z M114.536,64.497 C113.878,64.345 113.265,64.033 112.779,63.581 L105.892,56.691 C105.24,56.04 104.866,55.102 104.866,54.12 C104.866,53.138 105.24,52.199 105.892,51.547 L107.651,49.788 C108.303,49.136 109.241,48.762 110.223,48.762 C111.205,48.762 112.144,49.136 112.796,49.788 L115.15,52.142 C114.234,54.286 113.748,56.713 113.748,59.248 C113.749,61 114.025,62.757 114.536,64.497 Z M119.686,56.677 C121.056,58.047 121.056,60.451 119.686,61.823 L117.927,63.582 C117.923,63.586 117.917,63.589 117.913,63.593 C117.48,62.146 117.249,60.692 117.249,59.25 C117.249,57.738 117.489,56.26 117.899,54.892 L119.686,56.677 Z M135.144,73.425 L135.714,52.702 C135.728,52.224 135.545,51.762 135.208,51.423 L128.756,44.911 C129.735,44.698 130.743,44.586 131.767,44.586 C139.853,44.586 146.432,51.164 146.432,59.249 C146.432,66.033 141.614,71.892 135.144,73.425 Z" id="Shape" fill="#FFFFFF"></path>
            </g>
        </g>
    </g>
</svg>