<?xml version="1.0" encoding="utf-8"?>
<!-- Generator: Adobe Illustrator 16.0.0, SVG Export Plug-In . SVG Version: 6.00 Build 0)  -->
<!DOCTYPE svg PUBLIC "-//W3C//DTD SVG 1.1//EN" "http://www.w3.org/Graphics/SVG/1.1/DTD/svg11.dtd">
<svg version="1.1" id="Layer_1" xmlns="http://www.w3.org/2000/svg" xmlns:xlink="http://www.w3.org/1999/xlink" x="0px" y="0px"
	 width="11px" height="12.48px" viewBox="0 0 11 12.48" enable-background="new 0 0 11 12.48" xml:space="preserve">
<g>
	<g>
		<path fill="#D8D8D8" d="M1.677,2.123l6.14,5.771C8.41,8.412,7.595,9.3,7.004,8.78L0.936,2.937
			C0.345,2.422,1.159,1.607,1.677,2.123z"/>
		<path fill="#D8D8D8" d="M7.893,7.598l-5.92-5.548C5.669-0.761,10.48,3.826,7.893,7.598z"/>
		<path fill="#D8D8D8" d="M7.002,1.828l1.184-1.184c1.109-1.183,2.889-0.665,2.812,0.963V12.48H9.889V1.607
			c0-0.667-0.518-0.592-0.887-0.222L7.817,2.567C7.595,2.272,7.3,2.051,7.002,1.828z"/>
	</g>
	<g>
		<circle fill="#D8D8D8" cx="1.118" cy="4.228" r="0.292"/>
		<circle fill="#D8D8D8" cx="2.276" cy="5.323" r="0.292"/>
		<circle fill="#D8D8D8" cx="3.433" cy="6.417" r="0.291"/>
		<circle fill="#D8D8D8" cx="4.592" cy="7.513" r="0.292"/>
		<circle fill="#D8D8D8" cx="5.75" cy="8.609" r="0.292"/>
		<circle fill="#D8D8D8" cx="0.291" cy="5.102" r="0.291"/>
		<circle fill="#D8D8D8" cx="1.449" cy="6.197" r="0.291"/>
		<circle fill="#D8D8D8" cx="0.622" cy="7.073" r="0.291"/>
		<circle fill="#D8D8D8" cx="1.78" cy="8.167" r="0.292"/>
		<circle fill="#D8D8D8" cx="0.952" cy="9.043" r="0.291"/>
		<circle fill="#D8D8D8" cx="2.109" cy="10.137" r="0.292"/>
		<circle fill="#D8D8D8" cx="1.281" cy="11.011" r="0.291"/>
		<circle fill="#D8D8D8" cx="2.439" cy="12.106" r="0.291"/>
		<circle fill="#D8D8D8" cx="3.266" cy="11.232" r="0.291"/>
		<circle fill="#D8D8D8" cx="2.937" cy="9.261" r="0.291"/>
		<circle fill="#D8D8D8" cx="4.095" cy="10.355" r="0.292"/>
		<circle fill="#D8D8D8" cx="2.606" cy="7.293" r="0.292"/>
		<circle fill="#D8D8D8" cx="3.763" cy="8.388" r="0.292"/>
		<circle fill="#D8D8D8" cx="4.921" cy="9.483" r="0.292"/>
	</g>
</g>
</svg>
