<?xml version="1.0" encoding="UTF-8"?>
<svg width="15px" height="12px" viewBox="0 0 15 12" version="1.1" xmlns="http://www.w3.org/2000/svg" xmlns:xlink="http://www.w3.org/1999/xlink">
    <!-- Generator: Sketch 50.2 (55047) - http://www.bohemiancoding.com/sketch -->
    <title>bedroom_2</title>
    <desc>Created with Sketch.</desc>
    <defs></defs>
    <g id="Page-1" stroke="none" stroke-width="1" fill="none" fill-rule="evenodd">
        <g id="Map-Filter-Selected-List-Item" transform="translate(-207.000000, -319.000000)" fill="#272727" fill-rule="nonzero">
            <g id="Group-3" transform="translate(207.000000, 313.000000)">
                <g id="bedroom_2" transform="translate(0.000000, 5.000000)">
                    <path d="M13.926,4.675 C13.489,4.357 12.962,4.218 12.43,4.218 L7.359,4.218 C7.167,4.218 6.977,4.212 6.785,4.218 C6.764,4.218 6.741,4.219 6.72,4.223 C6.323,4.266 5.975,4.577 5.877,4.968 C5.839,5.118 5.845,5.267 5.845,5.418 L5.845,7.722 L1.422,7.722 L1.422,3.022 C1.422,2.596 1.427,2.168 1.422,1.741 C1.422,1.735 1.422,1.728 1.422,1.723 C1.422,1.345 1.095,0.982 0.711,1 C0.325,1.019 0,1.317 0,1.724 L0,10.977 C0,11.405 0,11.832 0,12.258 L0,12.278 C0,12.655 0.327,13.018 0.711,13.001 C1.097,12.983 1.422,12.683 1.422,12.278 L1.422,10.58 L13.578,10.58 L13.578,12.277 C13.578,12.654 13.904,13.017 14.289,13 C14.674,12.98 15,12.682 15,12.275 L15,8.662 L15,8.174 L15,8.084 L15,7.343 L15,6.756 C14.994,5.923 14.59,5.16 13.926,4.675 Z" id="Shape"></path>
                    <path d="M3.951,7.308 C4.653,7.174 5.156,6.527 5.172,5.827 C5.172,5.82 5.172,5.812 5.172,5.808 L5.172,5.804 C5.172,5.8 5.173,5.799 5.173,5.796 C5.165,5.142 4.754,4.583 4.146,4.354 C3.571,4.137 2.86,4.327 2.47,4.803 C2.057,5.308 1.973,6.021 2.314,6.589 C2.653,7.154 3.31,7.429 3.951,7.308 Z" id="Shape"></path>
                </g>
            </g>
        </g>
    </g>
</svg>