<?xml version="1.0" encoding="UTF-8"?>
<svg width="12px" height="11px" viewBox="0 0 12 11" version="1.1" xmlns="http://www.w3.org/2000/svg" xmlns:xlink="http://www.w3.org/1999/xlink">
    <!-- Generator: Sketch 50.2 (55047) - http://www.bohemiancoding.com/sketch -->
    <title>bedroom_2</title>
    <desc>Created with Sketch.</desc>
    <defs></defs>
    <g id="Page-1" stroke="none" stroke-width="1" fill="none" fill-rule="evenodd">
        <g id="Map-Filter-expanded" transform="translate(-685.000000, -315.000000)" fill="#D8D8D8" fill-rule="nonzero">
            <g id="bedroom_2" transform="translate(685.000000, 315.000000)">
                <path d="M11.1408,3.74 C10.7912,3.4856 10.3696,3.3744 9.944,3.3744 L5.8872,3.3744 C5.7336,3.3744 5.5816,3.3696 5.428,3.3744 C5.4112,3.3744 5.3928,3.3752 5.376,3.3784 C5.0584,3.4128 4.78,3.6616 4.7016,3.9744 C4.6712,4.0944 4.676,4.2136 4.676,4.3344 L4.676,6.1776 L1.1376,6.1776 L1.1376,2.4176 C1.1376,2.0768 1.1416,1.7344 1.1376,1.3928 C1.1376,1.076 0.876,0.7856 0.5688,0.8 C0.26,0.8152 0,1.0536 0,1.3792 L0,8.7816 C0,9.124 0,9.4656 0,9.8064 C0,10.124 0.2616,10.4144 0.5688,10.4008 C0.8776,10.3864 1.1376,10.1464 1.1376,9.8224 L1.1376,8.464 L10.8624,8.464 L10.8624,9.8216 C10.8624,10.1232 11.1232,10.4136 11.4312,10.4 C11.7392,10.384 12,10.1456 12,9.82 L12,6.9296 L12,6.5392 L12,6.4672 L12,5.8744 L12,5.4048 C11.9952,4.7384 11.672,4.128 11.1408,3.74 Z" id="Shape"></path>
                <path d="M3.1608,5.8464 C3.7224,5.7392 4.1248,5.2216 4.1376,4.6616 C4.1376,4.656 4.1376,4.6496 4.1376,4.6464 L4.1376,4.6432 C4.1376,4.64 4.1384,4.6392 4.1384,4.6368 C4.132,4.1136 3.8032,3.6664 3.3168,3.4832 C2.8568,3.3096 2.288,3.4616 1.976,3.8424 C1.6456,4.2464 1.5784,4.8168 1.8512,5.2712 C2.1224,5.7232 2.648,5.9432 3.1608,5.8464 Z" id="Shape"></path>
            </g>
        </g>
    </g>
</svg>