<?xml version="1.0" encoding="utf-8"?>
<!-- Generator: Adobe Illustrator 16.0.0, SVG Export Plug-In . SVG Version: 6.00 Build 0)  -->
<!DOCTYPE svg PUBLIC "-//W3C//DTD SVG 1.1//EN" "http://www.w3.org/Graphics/SVG/1.1/DTD/svg11.dtd">
<svg version="1.1" id="Layer_1" xmlns="http://www.w3.org/2000/svg" xmlns:xlink="http://www.w3.org/1999/xlink" x="0px" y="0px"
	 width="200px" height="200px" viewBox="0 0 200 200" enable-background="new 0 0 200 200" xml:space="preserve">
<path fill="none" stroke="#FEC40E" stroke-width="2.0441" stroke-linecap="round" stroke-linejoin="round" stroke-miterlimit="10" d="
	M41.164,73.232h15.905c1.94,0,3.621,1.164,4.397,2.845l25.732,58.061c0.776,1.68,2.457,2.844,4.397,2.844h43.578"/>
<path fill="none" stroke="#FEC40E" stroke-width="2.0441" stroke-linecap="round" stroke-linejoin="round" stroke-miterlimit="10" d="
	M72.845,81.379h73.578c3.232,0,5.561,3.233,4.525,6.207l-10.604,31.682c-0.646,1.939-2.456,3.232-4.526,3.232H82.025"/>
<polyline fill="none" stroke="#FEC40E" stroke-width="2.0441" stroke-linecap="round" stroke-linejoin="round" stroke-miterlimit="10" points="
	132.846,76.724 132.846,66.767 129.354,63.017 129.354,50.215 120.561,50.215 120.561,56.293 109.957,46.595 87.069,66.12 
	87.069,76.724 "/>
<g>
	
		<line fill="none" stroke="#FEC40E" stroke-width="2.0441" stroke-linecap="round" stroke-linejoin="round" stroke-miterlimit="10" x1="94.181" y1="88.362" x2="94.181" y2="113.189"/>
	
		<line fill="none" stroke="#FEC40E" stroke-width="2.0441" stroke-linecap="round" stroke-linejoin="round" stroke-miterlimit="10" x1="109.957" y1="88.362" x2="109.957" y2="113.189"/>
	
		<line fill="none" stroke="#FEC40E" stroke-width="2.0441" stroke-linecap="round" stroke-linejoin="round" stroke-miterlimit="10" x1="125.863" y1="88.362" x2="125.863" y2="113.189"/>
</g>
<line fill="none" stroke="#FEC40E" stroke-width="2.0441" stroke-linecap="round" stroke-linejoin="round" stroke-miterlimit="10" x1="82.672" y1="94.827" x2="137.241" y2="94.827"/>
<line fill="none" stroke="#FEC40E" stroke-width="2.0441" stroke-linecap="round" stroke-linejoin="round" stroke-miterlimit="10" x1="86.422" y1="106.854" x2="133.621" y2="106.854"/>
<circle fill="none" stroke="#FEC40E" stroke-width="2.0441" stroke-linecap="round" stroke-linejoin="round" stroke-miterlimit="10" cx="87.457" cy="147.716" r="5.69"/>
<circle fill="none" stroke="#FEC40E" stroke-width="2.0441" stroke-linecap="round" stroke-linejoin="round" stroke-miterlimit="10" cx="132.975" cy="147.716" r="5.69"/>
<circle fill="none" stroke="#FEC40E" stroke-width="6" stroke-linecap="round" stroke-linejoin="round" stroke-miterlimit="10" cx="100" cy="100" r="75"/>
</svg>
