<?xml version="1.0" encoding="utf-8"?>
<!-- Generator: Adobe Illustrator 22.1.0, SVG Export Plug-In . SVG Version: 6.00 Build 0)  -->
<svg version="1.1" id="Layer_1" xmlns="http://www.w3.org/2000/svg" xmlns:xlink="http://www.w3.org/1999/xlink" x="0px" y="0px"
	 viewBox="0 0 120 120" style="enable-background:new 0 0 120 120;" xml:space="preserve">
<style type="text/css">
	.st0{fill:#272727;}
	.st1{fill:#F1F1F1;}
	.st2{fill:#1283C6;}
	.st3{fill:#FBB94A;}
	.st4{fill:#1286C3;}
	.st5{opacity:0.8;}
	.st6{fill:#7C7C7C;}
	.st7{fill:#FFFFFF;stroke:#FFFFFF;stroke-miterlimit:10;}
	.st8{fill:none;stroke:#FFFFFF;stroke-width:5;stroke-linecap:round;stroke-linejoin:round;stroke-miterlimit:10;}
	.st9{fill:#FFFFFF;stroke:#FFFFFF;stroke-width:2;stroke-miterlimit:10;}
	.st10{fill:none;stroke:#FFC300;stroke-width:3.277;stroke-linecap:round;stroke-linejoin:round;stroke-miterlimit:10;}
	.st11{fill:none;stroke:#FFFFFF;stroke-width:3;stroke-linecap:round;stroke-linejoin:round;stroke-miterlimit:10;}
	.st12{fill:none;stroke:#FFC300;stroke-width:3.2968;stroke-linecap:round;stroke-linejoin:round;stroke-miterlimit:10;}
	.st13{fill:#FFC300;}
	.st14{fill:none;stroke:#FFC300;stroke-width:3;stroke-linecap:round;stroke-linejoin:round;stroke-miterlimit:10;}
	.st15{fill:#FFFFFF;}
	.st16{fill:none;stroke:#FFC300;stroke-width:2.0441;stroke-linecap:round;stroke-linejoin:round;stroke-miterlimit:10;}
	.st17{fill:none;stroke:#FFC300;stroke-width:2;stroke-linecap:round;stroke-linejoin:round;stroke-miterlimit:10;}
	.st18{fill:#1684C6;}
</style>
<g>
	<g>
		<path class="st18" d="M87.1,89.6H53.5c-1.9,0-3.5-1.1-4.3-2.8L29.2,41.9c-0.4-1-1.4-1.6-2.4-1.6H14.5c-0.6,0-1-0.5-1-1s0.5-1,1-1
			h12.3c1.9,0,3.5,1.1,4.3,2.8L51.1,86c0.4,1,1.4,1.6,2.4,1.6h33.7c0.6,0,1,0.5,1,1S87.7,89.6,87.1,89.6z"/>
	</g>
	<g>
		<path class="st18" d="M87.6,78.4H46.1c-0.6,0-1-0.5-1-1s0.5-1,1-1h41.5c1.1,0,2.2-0.7,2.5-1.8l8.2-24.5c0.3-0.8,0.1-1.7-0.4-2.4
			c-0.5-0.7-1.3-1.1-2.2-1.1H39c-0.6,0-1-0.5-1-1s0.5-1,1-1h56.9c1.5,0,2.9,0.7,3.8,2c0.9,1.2,1.1,2.8,0.6,4.2l-8.2,24.5
			C91.4,77.1,89.6,78.4,87.6,78.4z"/>
	</g>
	<g>
		<path class="st18" d="M85.4,43c-0.6,0-1-0.5-1-1v-7.3l-2.5-2.6c-0.2-0.2-0.3-0.4-0.3-0.7v-8.9h-4.7v3.7c0,0.4-0.2,0.8-0.6,0.9
			c-0.4,0.2-0.8,0.1-1.1-0.2L67.7,20L51,34.3V42c0,0.6-0.5,1-1,1s-1-0.5-1-1v-8.2c0-0.3,0.1-0.6,0.4-0.8L67,17.9
			c0.4-0.3,1-0.3,1.4,0l6.5,5.9v-2.4c0-0.6,0.5-1,1-1h6.8c0.6,0,1,0.5,1,1V31l2.5,2.6c0.2,0.2,0.3,0.4,0.3,0.7V42
			C86.5,42.6,86,43,85.4,43z"/>
	</g>
	<g>
		<g>
			<path class="st18" d="M55.5,71.2c-0.6,0-1-0.5-1-1V51c0-0.6,0.5-1,1-1s1,0.5,1,1v19.2C56.5,70.7,56,71.2,55.5,71.2z"/>
		</g>
		<g>
			<path class="st18" d="M67.7,71.2c-0.6,0-1-0.5-1-1V51c0-0.6,0.5-1,1-1s1,0.5,1,1v19.2C68.7,70.7,68.3,71.2,67.7,71.2z"/>
		</g>
		<g>
			<path class="st18" d="M80,71.2c-0.6,0-1-0.5-1-1V51c0-0.6,0.5-1,1-1s1,0.5,1,1v19.2C81,70.7,80.5,71.2,80,71.2z"/>
		</g>
	</g>
	<g>
		<path class="st18" d="M88.8,57H46.6c-0.6,0-1-0.5-1-1s0.5-1,1-1h42.2c0.6,0,1,0.5,1,1S89.4,57,88.8,57z"/>
	</g>
	<g>
		<path class="st18" d="M86,66.3H49.5c-0.6,0-1-0.5-1-1s0.5-1,1-1H86c0.6,0,1,0.5,1,1S86.5,66.3,86,66.3z"/>
	</g>
	<g>
		<path class="st18" d="M16.4,57h-1c-0.6,0-1-0.5-1-1s0.5-1,1-1h1c0.6,0,1,0.5,1,1S17,57,16.4,57z"/>
	</g>
	<g>
		<path class="st18" d="M30.4,57H20.2c-0.6,0-1-0.5-1-1s0.5-1,1-1h10.2c0.6,0,1,0.5,1,1S30.9,57,30.4,57z"/>
	</g>
	<g>
		<path class="st18" d="M45.4,66.3H21.8c-0.6,0-1-0.5-1-1s0.5-1,1-1h23.6c0.6,0,1,0.5,1,1S46,66.3,45.4,66.3z"/>
	</g>
	<g>
		<path class="st18" d="M33.4,75.6H16.9c-0.6,0-1-0.5-1-1s0.5-1,1-1h16.4c0.6,0,1,0.5,1,1S33.9,75.6,33.4,75.6z"/>
	</g>
	<g>
		<path class="st18" d="M50.3,102.3c-3,0-5.4-2.4-5.4-5.4s2.4-5.4,5.4-5.4s5.4,2.4,5.4,5.4S53.3,102.3,50.3,102.3z M50.3,93.5
			c-1.9,0-3.4,1.5-3.4,3.4s1.5,3.4,3.4,3.4s3.4-1.5,3.4-3.4S52.2,93.5,50.3,93.5z"/>
	</g>
	<g>
		<path class="st18" d="M85.5,102.3c-3,0-5.4-2.4-5.4-5.4s2.4-5.4,5.4-5.4s5.4,2.4,5.4,5.4S88.5,102.3,85.5,102.3z M85.5,93.5
			c-1.9,0-3.4,1.5-3.4,3.4s1.5,3.4,3.4,3.4s3.4-1.5,3.4-3.4S87.4,93.5,85.5,93.5z"/>
	</g>
</g>
</svg>
