<?xml version="1.0" encoding="utf-8"?>
<!-- Generator: Adobe Illustrator 16.0.0, SVG Export Plug-In . SVG Version: 6.00 Build 0)  -->
<!DOCTYPE svg PUBLIC "-//W3C//DTD SVG 1.1//EN" "http://www.w3.org/Graphics/SVG/1.1/DTD/svg11.dtd">
<svg version="1.1" id="Layer_1" xmlns="http://www.w3.org/2000/svg" xmlns:xlink="http://www.w3.org/1999/xlink" x="0px" y="0px"
	 width="50px" height="50px" viewBox="0 0 50 50" enable-background="new 0 0 50 50" xml:space="preserve">
<g>
	<circle fill="#D8D8D8" cx="25" cy="25" r="25"/>
	<line fill="none" x1="7.5" y1="36.71" x2="42.5" y2="36.71"/>
	<path fill="#A3A3A3" d="M15.014,38.875c-0.007-0.02-0.015-0.039-0.021-0.061c-0.047-0.129-0.104-0.256-0.169-0.375
		c-0.007-0.015-0.015-0.023-0.021-0.035c-0.069-0.119-0.146-0.234-0.233-0.342c-0.004-0.006-0.008-0.015-0.012-0.021
		c-0.089-0.104-0.187-0.205-0.289-0.297c-0.016-0.017-0.029-0.022-0.043-0.039c-0.103-0.086-0.211-0.164-0.324-0.231
		c-0.02-0.015-0.039-0.023-0.06-0.035c-0.114-0.068-0.233-0.127-0.36-0.176c-0.021-0.011-0.041-0.019-0.062-0.023
		c-0.128-0.047-0.261-0.086-0.398-0.111c-0.017-0.004-0.033-0.006-0.049-0.008c-0.146-0.025-0.296-0.041-0.447-0.041
		c-0.996,0-1.895,0.553-2.346,1.445c-0.051,0.1-0.141,0.174-0.248,0.205c-0.053,0.016-0.107,0.02-0.162,0.012
		c-0.056-0.008-0.107-0.025-0.156-0.055c-0.192-0.115-0.397-0.174-0.609-0.174c-0.518,0-0.959,0.332-1.125,0.793h7.242
		c-0.001-0.013-0.004-0.021-0.006-0.033C15.09,39.137,15.057,39.004,15.014,38.875z"/>
	<path fill="#A3A3A3" d="M40.969,37.984c-0.014,0.002-0.027,0.004-0.041,0.006l-0.066,0.008c-0.161,0.014-0.316-0.07-0.395-0.217
		c-0.279-0.545-0.705-0.98-1.211-1.275c-0.009-0.004-0.018-0.006-0.025-0.01c-0.354-0.205-0.744-0.336-1.141-0.391
		c-0.135-0.021-0.271-0.027-0.408-0.027c-1.147,0-2.205,0.627-2.755,1.639c-0.101,0.184-0.321,0.262-0.515,0.178
		c-0.252-0.108-0.518-0.166-0.787-0.166c-0.129,0-0.254,0.017-0.376,0.039c-0.04,0.006-0.078,0.021-0.117,0.031
		c-0.08,0.02-0.159,0.043-0.235,0.072c-0.043,0.018-0.084,0.039-0.127,0.059c-0.064,0.033-0.133,0.068-0.192,0.107
		c-0.041,0.025-0.08,0.053-0.119,0.082c-0.06,0.043-0.112,0.09-0.166,0.137c-0.036,0.033-0.069,0.066-0.104,0.102
		c-0.051,0.058-0.097,0.111-0.141,0.17c-0.027,0.037-0.058,0.074-0.083,0.113c-0.043,0.068-0.08,0.139-0.114,0.211
		c-0.019,0.037-0.039,0.07-0.055,0.107c-0.046,0.111-0.083,0.227-0.107,0.348h10.504c0.004-0.033,0.007-0.062,0.007-0.096
		C42.195,38.535,41.646,37.984,40.969,37.984z"/>
	<g>
		<rect x="14.156" y="31.736" fill="#A3A3A3" width="1.697" height="2.076"/>
		<rect x="16.658" y="31.736" fill="#A3A3A3" width="1.697" height="2.076"/>
		<rect x="30.621" y="31.736" fill="#A3A3A3" width="1.697" height="2.076"/>
		<rect x="33.122" y="31.736" fill="#A3A3A3" width="1.698" height="2.076"/>
		<rect x="22.389" y="31.736" fill="#A3A3A3" width="1.697" height="2.076"/>
		<rect x="24.891" y="31.736" fill="#A3A3A3" width="1.697" height="2.076"/>
	</g>
	<path fill="#D8D8D8" d="M31.825,37.586c0.028-0.023,0.06-0.047,0.089-0.07c0.038-0.029,0.074-0.059,0.115-0.086
		c0.031-0.021,0.062-0.043,0.096-0.062c0.04-0.025,0.08-0.054,0.122-0.074c0.034-0.021,0.067-0.037,0.103-0.058
		c0.043-0.021,0.086-0.043,0.131-0.062c0.033-0.016,0.068-0.03,0.104-0.047c0.047-0.019,0.095-0.035,0.142-0.051
		c0.037-0.013,0.069-0.025,0.105-0.035c0.051-0.017,0.104-0.026,0.152-0.039c0.033-0.01,0.066-0.019,0.104-0.024
		c0.061-0.011,0.116-0.019,0.178-0.023c0.028-0.006,0.061-0.012,0.09-0.016c0.09-0.008,0.182-0.015,0.271-0.015
		c0.265,0,0.521,0.037,0.771,0.109c0.729-1.095,1.955-1.761,3.283-1.761c0.146,0,0.293,0.013,0.438,0.027
		c0.054,0.006,0.108,0.014,0.161,0.021c0.086,0.016,0.17,0.029,0.254,0.051c0.15,0.033,0.299,0.076,0.443,0.127
		c0.017,0.006,0.029,0.01,0.047,0.018V24.494l-9.375,4.738h-0.002c-0.054,0.022-0.108,0.037-0.164,0.041
		c-0.006,0-0.01,0.002-0.019,0.002c-0.003,0-0.006,0-0.01-0.002c-0.021,0-0.041-0.004-0.062-0.008
		c-0.016-0.002-0.027-0.007-0.041-0.011c-0.035-0.008-0.066-0.021-0.101-0.041c-0.119-0.071-0.19-0.2-0.19-0.344v-4.379
		l-9.375,4.735c-0.055,0.027-0.11,0.037-0.168,0.041c-0.006,0-0.011,0.002-0.015,0.002c-0.003,0-0.006-0.002-0.01-0.002
		c-0.021,0-0.041-0.004-0.062-0.008c-0.015-0.002-0.029-0.004-0.041-0.008c-0.035-0.008-0.067-0.023-0.1-0.041
		c-0.119-0.074-0.191-0.203-0.191-0.344V24.51l-4.24,2.143l-4.916,2.484v8.297c0.08-0.092,0.166-0.178,0.255-0.26
		c0.002-0.002,0.004-0.004,0.006-0.006c0.096-0.086,0.196-0.166,0.3-0.242c0.035-0.025,0.071-0.047,0.105-0.07
		c0.074-0.051,0.147-0.098,0.227-0.141c0.043-0.025,0.088-0.047,0.133-0.07c0.073-0.037,0.147-0.069,0.223-0.104
		c0.049-0.02,0.097-0.039,0.146-0.057c0.077-0.027,0.156-0.053,0.235-0.074c0.048-0.016,0.097-0.029,0.146-0.041
		c0.089-0.021,0.177-0.037,0.267-0.051c0.043-0.006,0.084-0.019,0.129-0.021c0.133-0.016,0.269-0.023,0.404-0.023
		c0.114,0,0.229,0.006,0.34,0.019c0.037,0.004,0.072,0.013,0.11,0.019c0.073,0.01,0.146,0.02,0.218,0.03
		c0.045,0.013,0.086,0.021,0.129,0.031c0.063,0.017,0.127,0.028,0.189,0.049c0.045,0.017,0.089,0.029,0.135,0.045
		c0.057,0.021,0.114,0.041,0.172,0.062c0.045,0.021,0.088,0.037,0.131,0.062c0.055,0.021,0.108,0.05,0.16,0.076
		c0.043,0.021,0.086,0.047,0.127,0.067c0.051,0.031,0.102,0.062,0.149,0.095c0.042,0.024,0.081,0.055,0.121,0.082
		c0.047,0.03,0.094,0.065,0.14,0.104c0.037,0.03,0.075,0.062,0.112,0.096c0.044,0.037,0.086,0.076,0.129,0.115
		c0.035,0.032,0.069,0.065,0.103,0.102c0.041,0.043,0.08,0.086,0.119,0.131c0.031,0.035,0.062,0.07,0.092,0.109
		c0.039,0.045,0.074,0.094,0.108,0.143c0.027,0.037,0.056,0.074,0.08,0.113c0.036,0.053,0.066,0.104,0.099,0.162
		c0.022,0.037,0.047,0.074,0.066,0.108c0.033,0.062,0.062,0.128,0.092,0.193c0.016,0.028,0.032,0.062,0.047,0.098
		c0.041,0.103,0.08,0.201,0.111,0.308c0.002,0.008,0.004,0.016,0.008,0.021c0.028,0.101,0.055,0.193,0.074,0.293
		c0.008,0.037,0.012,0.072,0.018,0.106c0.013,0.064,0.024,0.13,0.033,0.193h14.934c0.004-0.029,0.011-0.059,0.016-0.086
		c0.01-0.039,0.016-0.078,0.021-0.117c0.013-0.049,0.022-0.096,0.037-0.145c0.012-0.035,0.021-0.072,0.03-0.109
		c0.019-0.049,0.034-0.096,0.054-0.143c0.016-0.035,0.024-0.068,0.041-0.102c0.021-0.054,0.047-0.103,0.071-0.15
		c0.015-0.027,0.025-0.055,0.041-0.082c0.041-0.074,0.084-0.146,0.132-0.217c0.014-0.021,0.025-0.035,0.039-0.053
		c0.036-0.056,0.073-0.104,0.113-0.152c0.021-0.027,0.045-0.051,0.066-0.076c0.033-0.039,0.068-0.078,0.104-0.115
		c0.024-0.025,0.054-0.049,0.079-0.074C31.753,37.652,31.788,37.619,31.825,37.586z M19.161,34.215c0,0.223-0.181,0.402-0.402,0.402
		h-5.005c-0.223,0-0.402-0.18-0.402-0.402v-2.883c0-0.223,0.181-0.402,0.402-0.402h5.004c0.223,0,0.402,0.182,0.403,0.402V34.215z
		 M27.393,34.215c0,0.223-0.18,0.402-0.399,0.402h-5.005c-0.223,0-0.401-0.18-0.401-0.402v-2.883c0-0.223,0.181-0.402,0.401-0.402
		h5.005c0.223,0,0.399,0.182,0.399,0.402V34.215z M30.219,34.617c-0.223,0-0.402-0.18-0.402-0.402v-2.881
		c0-0.223,0.183-0.402,0.402-0.402h5.004c0.223,0,0.402,0.18,0.402,0.402v2.881c0,0.223-0.18,0.402-0.402,0.402H30.219z"/>
	<polygon fill="#A3A3A3" points="19.105,23.609 19.105,22.998 16.129,24.502 16.128,24.502 9.949,27.625 9.949,28.236 
		14.189,26.094 	"/>
	<polygon fill="#A3A3A3" points="39.027,22.979 29.872,27.605 29.872,28.219 39.027,23.592 	"/>
	<polygon fill="#A3A3A3" points="19.91,28.219 29.066,23.592 29.066,22.979 19.91,27.605 	"/>
	<polygon fill="#A3A3A3" points="15.137,17.21 11.969,17.21 11.43,25.975 15.532,23.9 	"/>
	<path fill="#A3A3A3" d="M19.719,22c0.118,0.074,0.191,0.203,0.191,0.343v4.361l2.549-1.287l-0.654-10.938h-3.166l-0.467,8.088
		l1.154-0.582C19.45,21.92,19.6,21.926,19.719,22z"/>
	<circle fill="#7C7C7C" cx="13.754" cy="14.074" r="1.446"/>
	<circle fill="#7C7C7C" cx="13.754" cy="14.074" r="0.641"/>
	<path fill="#7C7C7C" d="M16.098,11.939c0.209,0,0.414-0.045,0.604-0.138c0.258,0.134,0.541,0.202,0.831,0.202
		c1.015,0,1.839-0.824,1.839-1.838s-0.825-1.838-1.839-1.838c-0.603,0-1.153,0.293-1.496,0.779
		c-0.753,0.031-1.356,0.654-1.356,1.416C14.68,11.305,15.314,11.939,16.098,11.939z"/>
	<path fill="#7C7C7C" d="M16.191,9.921c0.174,0.024,0.343-0.062,0.422-0.217c0.178-0.353,0.529-0.572,0.918-0.572
		c0.57,0,1.033,0.464,1.033,1.033s-0.463,1.033-1.033,1.033c-0.213,0-0.42-0.067-0.598-0.193c-0.07-0.049-0.15-0.075-0.232-0.075
		c-0.085,0-0.17,0.027-0.242,0.08c-0.075,0.057-0.199,0.125-0.361,0.125c-0.339,0-0.613-0.275-0.613-0.613
		C15.482,10.152,15.811,9.864,16.191,9.921z"/>
	<path fill="#7C7C7C" d="M23.792,12.15c0.216,0,0.431-0.024,0.64-0.071c0.399,0.371,0.92,0.58,1.465,0.58
		c0.693,0,1.346-0.341,1.75-0.904c0.89,0.041,1.771-0.229,2.485-0.753c0.292,0.118,0.595,0.178,0.896,0.178
		c1.354,0,2.453-1.1,2.453-2.451c0-1.195-0.873-2.205-2.03-2.406c-0.604-1.467-2.034-2.434-3.638-2.434s-3.056,0.995-3.647,2.461
		c-1.753-0.235-3.287,1.158-3.287,2.887C20.879,10.843,22.186,12.15,23.792,12.15z"/>
	<path fill="#7C7C7C" d="M24.327,7.201c0.21,0.057,0.426-0.065,0.487-0.274c0.395-1.315,1.627-2.233,3-2.233
		c1.345,0,2.533,0.854,2.963,2.129c0.056,0.154,0.193,0.262,0.355,0.273c0.864,0.055,1.542,0.771,1.542,1.633
		c0,0.908-0.737,1.646-1.646,1.646c-0.258,0-0.514-0.066-0.762-0.197c-0.146-0.076-0.322-0.058-0.447,0.047
		c-0.562,0.471-1.272,0.729-2.006,0.729c-0.112,0-0.229-0.007-0.336-0.019c-0.164-0.019-0.316,0.063-0.396,0.205
		c-0.242,0.439-0.695,0.713-1.188,0.713c-0.396,0-0.771-0.177-1.033-0.485c-0.078-0.093-0.191-0.142-0.309-0.142
		c-0.041,0-0.082,0.006-0.121,0.019c-0.209,0.067-0.425,0.101-0.644,0.101c-1.162,0-2.108-0.947-2.108-2.107
		C21.684,7.9,22.952,6.839,24.327,7.201z"/>
	<path fill="#7C7C7C" d="M18.758,30.93h-5.004c-0.223,0-0.402,0.18-0.402,0.402v2.883c0,0.223,0.181,0.402,0.402,0.402h5.005
		c0.222,0,0.402-0.18,0.402-0.402v-2.883C19.16,31.111,18.98,30.93,18.758,30.93z M15.854,33.812h-1.696v-2.076h1.696V33.812z
		 M18.355,33.812h-1.697v-2.076h1.697V33.812z"/>
	<path fill="#7C7C7C" d="M26.99,30.93h-5.006c-0.221,0-0.4,0.18-0.4,0.402v2.883c0,0.223,0.18,0.402,0.4,0.402h5.006
		c0.223,0,0.402-0.18,0.402-0.402v-2.883C27.393,31.111,27.213,30.93,26.99,30.93z M24.086,33.812h-1.697v-2.076h1.697V33.812z
		 M26.588,33.812h-1.697v-2.076h1.697V33.812z"/>
	<path fill="#7C7C7C" d="M35.223,30.932h-5.004c-0.223,0-0.402,0.18-0.402,0.402v2.881c0,0.223,0.183,0.402,0.402,0.402h5.004
		c0.223,0,0.402-0.18,0.402-0.402v-2.881C35.625,31.111,35.445,30.932,35.223,30.932z M32.318,33.812h-1.697v-2.076h1.697V33.812z
		 M34.82,33.812h-1.698v-2.076h1.698V33.812z"/>
	<path fill="#7C7C7C" d="M41.055,37.182c-0.312-0.518-0.734-0.938-1.223-1.262V23.842c0,0,0.001-0.002,0.001-0.004v-1.514
		c0-0.141-0.073-0.27-0.192-0.344c-0.119-0.072-0.268-0.078-0.393-0.016l-9.377,4.738v-4.378c0-0.142-0.072-0.271-0.191-0.343
		c-0.119-0.074-0.268-0.08-0.393-0.018l-6.046,3.057L22.585,14.05c-0.012-0.212-0.188-0.378-0.401-0.378h-3.926
		c-0.213,0-0.39,0.167-0.402,0.379l-0.513,8.936l-1.026,0.521l-0.398-6.722c-0.014-0.213-0.188-0.379-0.4-0.379h-3.926
		c-0.213,0-0.389,0.166-0.4,0.377L10.6,26.395l-1.232,0.623c-0.137,0.066-0.223,0.209-0.223,0.357v10.348
		c-0.047-0.006-0.095-0.016-0.144-0.016c-1.103,0-2,0.896-2,2c0,0.225,0.181,0.4,0.401,0.4h35.109c0.174,0,0.327-0.109,0.383-0.273
		C42.965,39.617,43,39.412,43,39.211C43,38.119,42.135,37.227,41.055,37.182z M29.872,27.605l9.155-4.627v0.612l-9.155,4.627V27.605
		z M29.066,22.979v0.613l-9.156,4.627v-0.613L29.066,22.979z M18.639,14.477h3.166l0.654,10.939l-2.549,1.287v-4.361
		c0-0.14-0.073-0.269-0.191-0.343c-0.119-0.073-0.269-0.079-0.393-0.017l-1.154,0.582L18.639,14.477z M11.969,17.21h3.168
		l0.396,6.69l-4.103,2.074L11.969,17.21z M9.949,27.625l6.179-3.123h0.001l2.977-1.504v0.611l-4.916,2.483L9.95,28.236L9.949,27.625
		L9.949,27.625z M7.875,39.307C8.041,38.846,8.482,38.514,9,38.514c0.212,0,0.417,0.062,0.609,0.174
		c0.049,0.029,0.102,0.047,0.156,0.058c0.053,0.008,0.109,0.004,0.162-0.015c0.107-0.028,0.197-0.104,0.248-0.205
		c0.451-0.893,1.35-1.442,2.346-1.442c0.151,0,0.302,0.019,0.446,0.041c0.017,0.002,0.033,0.004,0.05,0.008
		c0.139,0.022,0.271,0.062,0.398,0.111c0.021,0.008,0.043,0.016,0.062,0.021c0.127,0.049,0.246,0.107,0.36,0.176
		c0.021,0.015,0.04,0.023,0.06,0.035c0.113,0.07,0.223,0.148,0.324,0.234c0.014,0.014,0.027,0.025,0.043,0.039
		c0.104,0.092,0.2,0.191,0.289,0.297c0.004,0.006,0.008,0.012,0.012,0.018c0.088,0.107,0.164,0.226,0.233,0.342
		c0.007,0.015,0.015,0.023,0.021,0.035c0.066,0.119,0.123,0.246,0.17,0.375c0.008,0.021,0.016,0.041,0.021,0.062
		c0.043,0.129,0.076,0.264,0.1,0.396c0,0.014,0.004,0.022,0.005,0.033H7.875L7.875,39.307z M31.533,37.875
		c-0.021,0.025-0.047,0.049-0.067,0.076c-0.04,0.049-0.077,0.1-0.114,0.152c-0.013,0.018-0.023,0.035-0.039,0.053
		c-0.047,0.07-0.09,0.143-0.131,0.217c-0.016,0.027-0.027,0.055-0.041,0.082c-0.023,0.051-0.052,0.1-0.072,0.15
		c-0.016,0.033-0.024,0.063-0.041,0.102c-0.019,0.047-0.033,0.094-0.053,0.143c-0.011,0.037-0.021,0.074-0.031,0.109
		c-0.014,0.049-0.023,0.096-0.034,0.145c-0.011,0.039-0.019,0.078-0.022,0.117c-0.006,0.027-0.013,0.057-0.017,0.086H15.934
		c-0.008-0.063-0.021-0.129-0.031-0.19c-0.006-0.037-0.01-0.072-0.019-0.109c-0.021-0.098-0.046-0.192-0.075-0.293
		c-0.002-0.008-0.004-0.019-0.007-0.021c-0.032-0.104-0.069-0.205-0.11-0.308c-0.016-0.03-0.031-0.063-0.047-0.098
		c-0.029-0.063-0.06-0.134-0.093-0.192c-0.021-0.035-0.044-0.072-0.065-0.109c-0.032-0.057-0.062-0.109-0.1-0.162
		c-0.025-0.039-0.053-0.076-0.08-0.113c-0.035-0.049-0.07-0.098-0.107-0.143c-0.029-0.039-0.061-0.074-0.094-0.109
		c-0.037-0.045-0.076-0.088-0.117-0.131c-0.033-0.033-0.067-0.066-0.104-0.102c-0.043-0.039-0.085-0.078-0.129-0.115
		c-0.037-0.031-0.074-0.062-0.113-0.094c-0.045-0.035-0.092-0.07-0.139-0.104c-0.04-0.027-0.079-0.056-0.121-0.082
		c-0.049-0.031-0.099-0.062-0.148-0.093c-0.043-0.022-0.084-0.047-0.127-0.069c-0.053-0.026-0.106-0.054-0.16-0.076
		c-0.045-0.021-0.088-0.041-0.133-0.06c-0.057-0.022-0.113-0.045-0.172-0.062c-0.045-0.017-0.088-0.031-0.134-0.046
		c-0.062-0.019-0.126-0.032-0.188-0.049c-0.043-0.011-0.086-0.021-0.129-0.03c-0.071-0.015-0.146-0.022-0.219-0.033
		c-0.037-0.004-0.074-0.013-0.111-0.017c-0.11-0.01-0.225-0.017-0.338-0.017c-0.138,0-0.272,0.009-0.405,0.021
		c-0.044,0.008-0.086,0.018-0.13,0.021c-0.09,0.015-0.178,0.029-0.266,0.052c-0.049,0.012-0.098,0.024-0.146,0.041
		c-0.079,0.021-0.158,0.047-0.235,0.073c-0.049,0.019-0.097,0.037-0.145,0.058c-0.075,0.031-0.149,0.065-0.223,0.104
		c-0.045,0.021-0.091,0.045-0.134,0.068c-0.077,0.043-0.151,0.092-0.226,0.143c-0.035,0.021-0.071,0.045-0.106,0.07
		c-0.104,0.074-0.204,0.154-0.3,0.24c-0.002,0.002-0.004,0.004-0.006,0.006c-0.09,0.082-0.174,0.17-0.254,0.262v-8.297l4.914-2.484
		l4.242-2.143v4.361c0,0.141,0.071,0.27,0.19,0.344c0.031,0.019,0.063,0.033,0.099,0.041c0.014,0.004,0.027,0.006,0.041,0.008
		c0.021,0.004,0.041,0.008,0.062,0.008c0.004,0,0.007,0.002,0.01,0.002c0.004,0,0.01-0.002,0.014-0.002
		c0.059-0.004,0.114-0.014,0.168-0.041l9.377-4.735v4.379c0,0.144,0.072,0.271,0.189,0.345c0.031,0.021,0.062,0.032,0.102,0.041
		c0.013,0.006,0.024,0.008,0.041,0.01c0.021,0.004,0.041,0.008,0.062,0.008c0.004,0.002,0.007,0.002,0.011,0.002
		c0.006,0,0.01-0.002,0.016-0.002c0.058-0.004,0.111-0.018,0.164-0.041h0.002l9.375-4.738v11.021
		c-0.016-0.008-0.028-0.012-0.047-0.019c-0.146-0.051-0.293-0.094-0.441-0.127c-0.084-0.021-0.168-0.034-0.253-0.051
		c-0.056-0.011-0.108-0.019-0.162-0.021c-0.146-0.019-0.292-0.029-0.438-0.029c-1.328,0-2.559,0.666-3.283,1.762
		c-0.25-0.072-0.51-0.109-0.771-0.109c-0.092,0-0.183,0.008-0.271,0.017c-0.028,0.004-0.061,0.008-0.09,0.014
		c-0.061,0.009-0.117,0.017-0.177,0.024c-0.034,0.009-0.067,0.017-0.104,0.023c-0.051,0.014-0.104,0.021-0.152,0.039
		c-0.036,0.01-0.068,0.021-0.105,0.035c-0.047,0.016-0.094,0.031-0.142,0.051c-0.034,0.018-0.069,0.031-0.104,0.047
		c-0.045,0.021-0.088,0.041-0.131,0.062c-0.035,0.02-0.066,0.035-0.104,0.056c-0.042,0.022-0.082,0.05-0.122,0.074
		c-0.03,0.021-0.063,0.043-0.096,0.063c-0.04,0.025-0.077,0.057-0.115,0.086c-0.028,0.021-0.062,0.047-0.089,0.068
		c-0.037,0.033-0.072,0.065-0.107,0.102c-0.025,0.023-0.055,0.049-0.078,0.074C31.602,37.797,31.566,37.836,31.533,37.875z
		 M42.189,39.307H31.686c0.024-0.121,0.062-0.236,0.107-0.348c0.016-0.037,0.036-0.07,0.055-0.107
		c0.034-0.072,0.071-0.143,0.114-0.211c0.024-0.039,0.056-0.076,0.083-0.113c0.044-0.059,0.089-0.112,0.141-0.17
		c0.032-0.032,0.067-0.065,0.104-0.102c0.053-0.047,0.106-0.094,0.166-0.137c0.039-0.029,0.078-0.057,0.119-0.082
		c0.062-0.039,0.128-0.074,0.194-0.107c0.041-0.02,0.082-0.041,0.127-0.059c0.076-0.029,0.153-0.053,0.233-0.072
		c0.039-0.01,0.077-0.025,0.117-0.031c0.122-0.022,0.247-0.039,0.376-0.039c0.271,0,0.535,0.058,0.787,0.166
		c0.191,0.084,0.414,0.006,0.515-0.178c0.55-1.012,1.604-1.639,2.755-1.639c0.139,0,0.273,0.01,0.408,0.027
		c0.396,0.055,0.784,0.186,1.141,0.391c0.01,0.004,0.02,0.006,0.025,0.01c0.508,0.295,0.932,0.73,1.211,1.275
		c0.075,0.146,0.229,0.23,0.396,0.217l0.064-0.008c0.016-0.002,0.027-0.004,0.041-0.006c0.678,0,1.229,0.551,1.229,1.227
		C42.195,39.242,42.193,39.273,42.189,39.307z"/>
	<g>
		<path fill="#D8D8D8" d="M23.792,11.346c0.22,0,0.435-0.033,0.644-0.1c0.039-0.012,0.08-0.02,0.121-0.02
			c0.116,0,0.229,0.051,0.309,0.143c0.262,0.309,0.638,0.486,1.031,0.486c0.49,0,0.943-0.273,1.188-0.713
			c0.078-0.143,0.23-0.225,0.396-0.207c0.107,0.013,0.224,0.02,0.336,0.02c0.73,0,1.445-0.26,2.007-0.729
			c0.125-0.104,0.303-0.123,0.446-0.047c0.248,0.131,0.504,0.196,0.762,0.196c0.908,0,1.646-0.739,1.646-1.646
			c0-0.862-0.678-1.58-1.542-1.635c-0.162-0.011-0.303-0.117-0.355-0.272c-0.43-1.273-1.618-2.13-2.963-2.13
			c-1.373,0-2.604,0.92-3,2.234c-0.062,0.208-0.277,0.331-0.487,0.274c-1.375-0.362-2.644,0.7-2.644,2.038
			C21.684,10.4,22.63,11.346,23.792,11.346z"/>
		<path fill="#D8D8D8" d="M16.098,11.135c0.162,0,0.286-0.068,0.361-0.125c0.072-0.053,0.157-0.08,0.242-0.08
			c0.082,0,0.162,0.025,0.232,0.075c0.178,0.126,0.385,0.193,0.598,0.193c0.57,0,1.033-0.464,1.033-1.033s-0.463-1.033-1.033-1.033
			c-0.389,0-0.74,0.22-0.918,0.572c-0.079,0.155-0.248,0.241-0.422,0.217c-0.383-0.058-0.709,0.231-0.709,0.601
			C15.482,10.859,15.759,11.135,16.098,11.135z"/>
		<circle fill="#D8D8D8" cx="13.754" cy="14.074" r="0.641"/>
	</g>
</g>
</svg>
