<?xml version="1.0" encoding="utf-8"?>
<!-- Generator: Adobe Illustrator 16.0.0, SVG Export Plug-In . SVG Version: 6.00 Build 0)  -->
<!DOCTYPE svg PUBLIC "-//W3C//DTD SVG 1.1//EN" "http://www.w3.org/Graphics/SVG/1.1/DTD/svg11.dtd">
<svg version="1.1" id="Layer_1" xmlns="http://www.w3.org/2000/svg" xmlns:xlink="http://www.w3.org/1999/xlink" x="0px" y="0px"
	 width="50px" height="50px" viewBox="0 0 50 50" enable-background="new 0 0 50 50" xml:space="preserve">
<g>
	<circle fill="#8DD4F6" cx="25" cy="25" r="25"/>
	<rect x="15.534" y="6.604" fill="#8DD4F6" width="18.932" height="34.793"/>
	<rect x="17.643" y="13.716" fill="#1884C6" width="2.82" height="2.819"/>
	<rect x="23.59" y="13.716" fill="#1884C6" width="2.82" height="2.819"/>
	<rect x="29.537" y="13.716" fill="#1884C6" width="2.82" height="2.819"/>
	<rect x="17.643" y="18.566" fill="#1884C6" width="2.82" height="2.818"/>
	<rect x="23.59" y="18.566" fill="#1884C6" width="2.82" height="2.818"/>
	<rect x="29.537" y="18.566" fill="#1884C6" width="2.82" height="2.818"/>
	<rect x="17.643" y="18.566" fill="#1884C6" width="2.82" height="2.818"/>
	<rect x="23.59" y="18.566" fill="#1884C6" width="2.82" height="2.818"/>
	<rect x="29.537" y="18.566" fill="#1884C6" width="2.82" height="2.818"/>
	<rect x="17.643" y="23.418" fill="#1884C6" width="2.82" height="2.818"/>
	<rect x="23.59" y="23.418" fill="#1884C6" width="2.82" height="2.818"/>
	<rect x="29.537" y="23.418" fill="#1884C6" width="2.82" height="2.818"/>
	<rect x="17.643" y="23.418" fill="#1884C6" width="2.82" height="2.818"/>
	<rect x="23.59" y="23.418" fill="#1884C6" width="2.82" height="2.818"/>
	<rect x="29.537" y="23.418" fill="#1884C6" width="2.82" height="2.818"/>
	<rect x="17.643" y="28.27" fill="#1884C6" width="2.82" height="2.818"/>
	<rect x="23.59" y="28.27" fill="#1884C6" width="2.82" height="2.818"/>
	<rect x="29.537" y="28.27" fill="#1884C6" width="2.82" height="2.818"/>
	<rect x="17.643" y="28.27" fill="#1884C6" width="2.82" height="2.818"/>
	<rect x="23.59" y="28.27" fill="#1884C6" width="2.82" height="2.818"/>
	<rect x="29.537" y="28.27" fill="#1884C6" width="2.82" height="2.818"/>
	<rect x="17.643" y="33.119" fill="#1884C6" width="2.82" height="2.818"/>
	<rect x="29.537" y="33.119" fill="#1884C6" width="2.82" height="2.818"/>
	<polyline fill="#1884C6" points="22.633,41.396 22.633,33.119 27.365,33.119 27.365,41.396 	"/>
	<line fill="none" x1="10.561" y1="41.396" x2="39.439" y2="41.396"/>
	<path fill="#1884C6" d="M25.001,8.182c6.813,0,5.981,3.745,5.981,3.745h-5.981h-5.983C19.018,11.927,18.188,8.182,25.001,8.182z"/>
	<g>
		<path fill="#025680" d="M17.643,17.035h2.82c0.275,0,0.5-0.225,0.5-0.5v-2.819c0-0.276-0.225-0.5-0.5-0.5h-2.82
			c-0.275,0-0.5,0.224-0.5,0.5v2.819C17.143,16.812,17.366,17.035,17.643,17.035z M18.143,14.216h1.82v1.819h-1.82V14.216z"/>
		<path fill="#025680" d="M26.41,13.216h-2.82c-0.275,0-0.5,0.224-0.5,0.5v2.819c0,0.275,0.225,0.5,0.5,0.5h2.82
			c0.275,0,0.5-0.225,0.5-0.5v-2.819C26.91,13.439,26.688,13.216,26.41,13.216z M25.91,16.035h-1.82v-1.819h1.82V16.035z"/>
		<path fill="#025680" d="M29.037,13.716v2.819c0,0.275,0.225,0.5,0.5,0.5h2.82c0.274,0,0.5-0.225,0.5-0.5v-2.819
			c0-0.276-0.226-0.5-0.5-0.5h-2.82C29.262,13.216,29.037,13.439,29.037,13.716z M30.037,14.216h1.82v1.819h-1.82V14.216z"/>
		<path fill="#025680" d="M17.643,21.886h2.82c0.275,0,0.5-0.224,0.5-0.5v-2.819c0-0.275-0.225-0.5-0.5-0.5h-2.82
			c-0.275,0-0.5,0.225-0.5,0.5v2.819C17.143,21.662,17.366,21.886,17.643,21.886z M18.143,19.066h1.82v1.818h-1.82V19.066z"/>
		<path fill="#025680" d="M26.41,18.066h-2.82c-0.275,0-0.5,0.224-0.5,0.5v2.818c0,0.276,0.225,0.5,0.5,0.5h2.82
			c0.275,0,0.5-0.224,0.5-0.5v-2.818C26.91,18.29,26.688,18.066,26.41,18.066z M25.91,20.886h-1.82v-1.819h1.82V20.886z"/>
		<path fill="#025680" d="M32.357,18.066h-2.82c-0.275,0-0.5,0.224-0.5,0.5v2.818c0,0.276,0.225,0.5,0.5,0.5h2.82
			c0.274,0,0.5-0.224,0.5-0.5v-2.818C32.857,18.29,32.634,18.066,32.357,18.066z M31.857,20.886h-1.82v-1.819h1.82V20.886z"/>
		<path fill="#025680" d="M17.643,26.736h2.82c0.275,0,0.5-0.223,0.5-0.5v-2.818c0-0.275-0.225-0.5-0.5-0.5h-2.82
			c-0.275,0-0.5,0.225-0.5,0.5v2.818C17.143,26.514,17.366,26.736,17.643,26.736z M18.143,23.918h1.82v1.818h-1.82V23.918z"/>
		<path fill="#025680" d="M26.41,22.918h-2.82c-0.275,0-0.5,0.225-0.5,0.5v2.818c0,0.277,0.225,0.5,0.5,0.5h2.82
			c0.275,0,0.5-0.223,0.5-0.5v-2.818C26.91,23.143,26.688,22.918,26.41,22.918z M25.91,25.736h-1.82v-1.818h1.82V25.736z"/>
		<path fill="#025680" d="M32.357,22.918h-2.82c-0.275,0-0.5,0.225-0.5,0.5v2.818c0,0.277,0.225,0.5,0.5,0.5h2.82
			c0.274,0,0.5-0.223,0.5-0.5v-2.818C32.857,23.143,32.634,22.918,32.357,22.918z M31.857,25.736h-1.82v-1.818h1.82V25.736z"/>
		<path fill="#025680" d="M17.643,31.588h2.82c0.275,0,0.5-0.224,0.5-0.5V28.27c0-0.275-0.225-0.5-0.5-0.5h-2.82
			c-0.275,0-0.5,0.225-0.5,0.5v2.818C17.143,31.364,17.366,31.588,17.643,31.588z M18.143,28.77h1.82v1.818h-1.82V28.77z"/>
		<path fill="#025680" d="M26.41,27.77h-2.82c-0.275,0-0.5,0.225-0.5,0.5v2.818c0,0.276,0.225,0.5,0.5,0.5h2.82
			c0.275,0,0.5-0.224,0.5-0.5V28.27C26.91,27.992,26.688,27.77,26.41,27.77z M25.91,30.588h-1.82V28.77h1.82V30.588z"/>
		<path fill="#025680" d="M32.357,27.77h-2.82c-0.275,0-0.5,0.225-0.5,0.5v2.818c0,0.276,0.225,0.5,0.5,0.5h2.82
			c0.274,0,0.5-0.224,0.5-0.5V28.27C32.857,27.992,32.634,27.77,32.357,27.77z M31.857,30.588h-1.82V28.77h1.82V30.588z"/>
		<path fill="#025680" d="M17.643,36.438h2.82c0.275,0,0.5-0.224,0.5-0.5V33.12c0-0.276-0.225-0.5-0.5-0.5h-2.82
			c-0.275,0-0.5,0.224-0.5,0.5v2.817C17.143,36.215,17.366,36.438,17.643,36.438z M18.143,33.619h1.82v1.818h-1.82V33.619z"/>
		<path fill="#025680" d="M32.357,32.619h-2.82c-0.275,0-0.5,0.224-0.5,0.5v2.818c0,0.275,0.225,0.5,0.5,0.5h2.82
			c0.274,0,0.5-0.225,0.5-0.5v-2.818C32.857,32.843,32.634,32.619,32.357,32.619z M31.857,35.438h-1.82V33.62h1.82V35.438z"/>
		<path fill="#025680" d="M39.439,40.896h-4.477V6.604c0-0.275-0.224-0.5-0.5-0.5h-18.93c-0.276,0-0.5,0.225-0.5,0.5v34.293h-4.473
			c-0.276,0-0.5,0.224-0.5,0.5c0,0.274,0.224,0.5,0.5,0.5h28.879c0.274,0,0.5-0.226,0.5-0.5
			C39.939,41.12,39.716,40.896,39.439,40.896z M26.865,40.896h-3.732v-7.277h3.732V40.896z M33.965,40.896h-6.1v-7.777
			c0-0.276-0.225-0.5-0.5-0.5h-4.732c-0.275,0-0.5,0.224-0.5,0.5v7.777h-6.1V7.104h17.932V40.896z"/>
		<path fill="#025680" d="M19.018,12.427h11.967c0.232,0,0.438-0.163,0.488-0.392c0.012-0.053,0.272-1.299-0.658-2.46
			c-1.008-1.257-2.965-1.894-5.812-1.894c-2.85,0-4.807,0.637-5.812,1.894c-0.934,1.161-0.67,2.407-0.658,2.46
			C18.58,12.264,18.783,12.427,19.018,12.427z M19.968,10.201c0.798-0.994,2.538-1.52,5.033-1.52c2.479,0,4.216,0.52,5.021,1.502
			c0.371,0.455,0.475,0.924,0.492,1.242H19.488C19.509,11.111,19.609,10.646,19.968,10.201z"/>
	</g>
</g>
</svg>
