<?xml version="1.0" encoding="UTF-8"?>
<svg width="120px" height="120px" viewBox="0 0 120 120" version="1.1" xmlns="http://www.w3.org/2000/svg" xmlns:xlink="http://www.w3.org/1999/xlink">
    <!-- Generator: Sketch 50.2 (55047) - http://www.bohemiancoding.com/sketch -->
    <title>Group 11</title>
    <desc>Created with Sketch.</desc>
    <defs></defs>
    <g id="Page-1" stroke="none" stroke-width="1" fill="none" fill-rule="evenodd">
        <g id="My-Nobul---Proposal-Accepted-Modal" transform="translate(-581.000000, -643.000000)">
            <g id="Group-4">
                <g id="modal">
                    <g id="Group-7">
                        <g id="Group-11" transform="translate(581.000000, 643.000000)">
                            <circle id="Oval-13-Copy-2" fill="#F1F1F1" cx="60" cy="60" r="60"></circle>
                            <g id="confetti" transform="translate(59.500000, 60.000000) rotate(-5.000000) translate(-59.500000, -60.000000) translate(31.000000, 31.000000)" fill-rule="nonzero">
                                <path d="M50.8333333,49 L49.6666667,49 L49.6666667,48 C49.6666667,47.4480253 49.145201,47 48.5,47 C47.854799,47 47.3333333,47.4480253 47.3333333,48 L47.3333333,49 L46.1666667,49 C45.5214657,49 45,49.4480253 45,50 C45,50.5519747 45.5214657,51 46.1666667,51 L47.3333333,51 L47.3333333,52 C47.3333333,52.5519747 47.854799,53 48.5,53 C49.145201,53 49.6666667,52.5519747 49.6666667,52 L49.6666667,51 L50.8333333,51 C51.4785343,51 52,50.5519747 52,50 C52,49.4480253 51.4785343,49 50.8333333,49 Z" id="Shape" fill="#272727"></path>
                                <path d="M46.3421361,5.70704269 C46.5696117,5.90203508 46.86831,6 47.1668717,6 C47.4655701,6 47.7641318,5.90203508 47.9916073,5.70704269 L49.5,4.41404633 L51.0083927,5.70704269 C51.2358682,5.90203508 51.5345666,6 51.8331283,6 C52.1318267,6 52.4303883,5.90203508 52.6578639,5.70704269 C53.1140454,5.31612046 53.1140454,4.68403578 52.6578639,4.29311355 L51.1494712,3.00011718 L52.6578639,1.70712082 C53.1140454,1.3160814 53.1140454,0.684113902 52.6578639,0.293191672 C52.2018191,-0.0977305574 51.4644374,-0.0977305574 51.0083927,0.293191672 L49.5,1.58618804 L47.9916073,0.293191672 C47.5354259,-0.0977305574 46.7981809,-0.0977305574 46.3421361,0.293191672 C45.8859546,0.684231085 45.8859546,1.31619859 46.3421361,1.70712082 L47.8505288,3.00011718 L46.3421361,4.29311355 C45.8859546,4.68403578 45.8859546,5.31600328 46.3421361,5.70704269 Z" id="Shape" fill="#272727"></path>
                                <path d="M39,16 C39,16.5519747 39.4469706,17 40,17 C40.5530294,17 41,16.5519747 41,16 C41,15.4480253 40.5530294,15 40,15 C39.4469706,15 39,15.4480253 39,16 Z" id="Shape" fill="#000000"></path>
                                <path d="M32,9 C32.5530294,9 33,8.55197469 33,8 C33,7.44802531 32.5530294,7 32,7 C31.4469706,7 31,7.44802531 31,8 C31,8.55197469 31.4469706,9 32,9 Z" id="Shape" fill="#000000"></path>
                                <path d="M50,23 C50,23.5519747 50.4469706,24 51,24 C51.5530294,24 52,23.5519747 52,23 C52,22.4480253 51.5530294,22 51,22 C50.4469706,22 50,22.4480253 50,23 Z" id="Shape" fill="#000000"></path>
                                <path d="M40,28 C40,28.5519747 40.4469706,29 41,29 C41.5530294,29 42,28.5519747 42,28 C42,27.4480253 41.5530294,27 41,27 C40.4469706,27 40,27.4480253 40,28 Z" id="Shape" fill="#000000"></path>
                                <path d="M56,7 C55.4469706,7 55,7.44802531 55,8 C55,8.55197469 55.4469706,9 56,9 C56.5530294,9 57,8.55197469 57,8 C57,7.44802531 56.5530294,7 56,7 Z" id="Shape" fill="#000000"></path>
                                <path d="M54.0174369,15.6296046 C43.7724009,15.6296046 35.4450721,25.270494 33.8527375,27.2374467 L30.041608,23.5006879 C34.303218,20.6860159 35.2647187,17.9822741 35.3056924,17.8599461 C35.476608,17.3592364 35.2025676,16.821851 34.6928134,16.649531 C34.1830591,16.4791295 33.6262312,16.7438725 33.4464533,17.241761 C33.4371306,17.2673776 32.545147,19.61937 28.623872,22.1108435 L25.1239585,18.6792276 C26.9602938,16.5598163 27.4995123,10.7145926 27.4995123,6.96293789 C27.4995123,6.43142055 27.0605412,6 26.5174095,6 C25.9742778,6 25.5353068,6.43142055 25.5353068,6.96293789 C25.5353068,12.7692288 24.4726378,16.4583653 23.779768,17.3611549 L20.3368263,13.9853991 C20.1069823,13.7600403 19.7780417,13.6618619 19.4587692,13.7205432 C19.1376551,13.7812558 18.8694845,13.9920572 18.7408087,14.2847867 L8.52995577,37.4697761 C8.52834444,37.4735001 8.52650293,37.4772241 8.5250067,37.481061 L0.0802813453,56.6557464 C-0.0787794741,57.017765 0.00270754478,57.4395934 0.287566827,57.7178783 C0.475171122,57.9027244 0.726537858,58 0.981932907,58 C1.1134861,58 1.24607515,57.9749476 1.37187361,57.9210059 L15.1023212,52.1074927 C15.1127948,52.1034302 15.1230382,52.0986905 15.1335119,52.0942894 L20.9248449,49.6422002 C20.9323261,49.6392661 20.939577,49.6359935 20.946828,49.6328338 L29.7806884,45.8925767 C29.7889752,45.889417 29.7970318,45.885693 29.8052036,45.8821946 L35.5986083,43.4293155 C35.6105782,43.4246887 35.6222028,43.4193848 35.6340575,43.4143066 L44.5853145,39.6242833 C44.88387,39.4981185 45.0999027,39.2352939 45.1609028,38.9213488 C45.2217879,38.6084194 45.1206197,38.285785 44.8907757,38.0595233 L40.369282,33.6262625 C41.0155385,32.6027249 44.7406922,31.0370621 51.071474,31.0370621 C51.6146057,31.0370621 52.0535767,30.6056416 52.0535767,30.0741242 C52.0535767,29.5426069 51.6146057,29.1111863 51.071474,29.1111863 C45.9539051,29.1111863 40.7860397,30.1871986 38.9782479,32.2623732 L35.2527489,28.6095739 C36.1985968,27.4264682 44.3855101,17.5554803 54.0178973,17.5554803 C54.561029,17.5554803 55,17.1240598 55,16.5925424 C54.9996547,16.0610251 54.5605686,15.6296046 54.0174369,15.6296046 Z M29.6405031,43.8546422 L14.4271759,28.9372865 L16.102724,25.1327057 L33.521495,42.2115653 L29.6405031,43.8546422 Z M20.783854,47.6043785 L10.6024653,37.6216704 L13.589517,30.8392384 L27.7006977,44.6758421 L20.783854,47.6043785 Z M14.9637472,50.0685426 L8.08925832,43.3282031 L9.76480637,39.5237351 L18.8440486,48.4258042 L14.9637472,50.0685426 Z M7.25148429,45.2301549 L13.0238267,50.8898553 L2.86453625,55.1910832 L7.25148429,45.2301549 Z M35.4613004,41.3902525 L16.9403829,23.2307539 L19.9705951,16.350482 L22.8762749,19.1993472 C22.8762749,19.1993472 22.87639,19.1994601 22.87639,19.1994601 L27.8010603,24.0278042 C27.8016357,24.0283684 27.8023263,24.0290455 27.8029018,24.0296098 L38.5837034,34.5995825 C38.5885374,34.604435 38.5933714,34.6090617 38.5982054,34.6138014 L42.4791973,38.4189464 L35.4613004,41.3902525 Z" id="Shape" fill="#272727"></path>
                                <path d="M36.9910307,15 L37.000054,15 C37.5450799,15 37.99003,14.5588363 37.9999907,14.012628 C38.0019829,13.8705365 38.1109646,10.5021936 42.5148816,7.85896298 C42.987839,7.57489717 43.1418196,6.95963618 42.8568265,6.48634947 C42.5728881,6.01212487 41.9588404,5.85807515 41.4848284,6.1431961 C36.0629282,9.39852231 36,13.817428 36,14.0034835 C36.0001172,14.55274 36.4421378,14.9949588 36.9910307,15 Z" id="Shape" fill="#000000"></path>
                                <path d="M0.899978906,5.39997891 C2.3885881,5.39997891 3.60002109,6.6114119 3.60002109,8.10002109 C3.60002109,8.59678667 4.00228519,9 4.5,9 C4.99771481,9 5.39997891,8.59678667 5.39997891,8.10002109 C5.39997891,6.6114119 6.6114119,5.39997891 8.10002109,5.39997891 C8.5977359,5.39997891 9,4.99676557 9,4.5 C9,4.00323443 8.5977359,3.60002109 8.10002109,3.60002109 C6.6114119,3.60002109 5.39997891,2.3885881 5.39997891,0.899978906 C5.39997891,0.403213331 4.99771481,0 4.5,0 C4.00228519,0 3.60002109,0.403213331 3.60002109,0.899978906 C3.60002109,2.3885881 2.3885881,3.60002109 0.899978906,3.60002109 C0.402264098,3.60002109 0,4.00323443 0,4.5 C1.12411838e-15,4.99676557 0.402264098,5.39997891 0.899978906,5.39997891 Z M4.5,3.59727886 C4.75650401,3.93837013 5.06068064,4.24349599 5.40272114,4.5 C5.06068064,4.75650401 4.75650401,5.06162987 4.5,5.40272114 C4.24349599,5.06162987 3.93931936,4.75650401 3.59727886,4.5 C3.93931936,4.24349599 4.24349599,3.93837013 4.5,3.59727886 Z" id="Shape" fill="#272727"></path>
                            </g>
                        </g>
                    </g>
                </g>
            </g>
        </g>
    </g>
</svg>