<?xml version="1.0" encoding="UTF-8"?>
<svg width="140px" height="182px" viewBox="0 0 140 182" version="1.1" xmlns="http://www.w3.org/2000/svg" xmlns:xlink="http://www.w3.org/1999/xlink">
    <!-- Generator: Sketch 51.3 (57544) - http://www.bohemiancoding.com/sketch -->
    <title>recreational_sell</title>
    <desc>Created with Sketch.</desc>
    <defs>
        <circle id="path-1" cx="70" cy="70" r="55"></circle>
        <filter x="-12.7%" y="-9.1%" width="125.5%" height="125.5%" filterUnits="objectBoundingBox" id="filter-2">
            <feMorphology radius="0.5" operator="dilate" in="SourceAlpha" result="shadowSpreadOuter1"></feMorphology>
            <feOffset dx="0" dy="4" in="shadowSpreadOuter1" result="shadowOffsetOuter1"></feOffset>
            <feGaussianBlur stdDeviation="3.5" in="shadowOffsetOuter1" result="shadowBlurOuter1"></feGaussianBlur>
            <feColorMatrix values="0 0 0 0 0   0 0 0 0 0   0 0 0 0 0  0 0 0 0.2 0" type="matrix" in="shadowBlurOuter1"></feColorMatrix>
        </filter>
        <rect id="path-3" x="22" y="145" width="96" height="25" rx="4"></rect>
        <filter x="-14.6%" y="-40.0%" width="129.2%" height="212.0%" filterUnits="objectBoundingBox" id="filter-4">
            <feMorphology radius="0.5" operator="dilate" in="SourceAlpha" result="shadowSpreadOuter1"></feMorphology>
            <feOffset dx="0" dy="4" in="shadowSpreadOuter1" result="shadowOffsetOuter1"></feOffset>
            <feGaussianBlur stdDeviation="3.5" in="shadowOffsetOuter1" result="shadowBlurOuter1"></feGaussianBlur>
            <feComposite in="shadowBlurOuter1" in2="SourceAlpha" operator="out" result="shadowBlurOuter1"></feComposite>
            <feColorMatrix values="0 0 0 0 0   0 0 0 0 0   0 0 0 0 0  0 0 0 0.2 0" type="matrix" in="shadowBlurOuter1"></feColorMatrix>
        </filter>
    </defs>
    <g id="Page-3" stroke="none" stroke-width="1" fill="none" fill-rule="evenodd">
        <g id="recreational_sell">
            <circle id="Oval-9-Copy-4" fill="#FFFFFF" cx="70" cy="70" r="70"></circle>
            <g id="Oval-Copy-3" fill-rule="nonzero">
                <use fill="black" fill-opacity="1" filter="url(#filter-2)" xlink:href="#path-1"></use>
                <use fill="#FFFFFF" xlink:href="#path-1"></use>
            </g>
            <polygon id="Shape" fill="#FEC30E" fill-rule="nonzero" points="100.1862 70.7788 97.4054 77.381 106.0844 77.381 106.0844 85.719 108.8674 85.719 108.8674 77.381 117.2054 77.381 114.4246 70.7788 115.815 70.7788 113.0364 64.1788 114.4246 64.1788 111.6504 57.581 113.0364 57.581 110.2578 51.3308 111.6504 51.3308 107.4792 41.2592 103.3146 51.3308 104.353 51.3308 101.5788 57.581 102.9604 57.581 100.1862 64.1788 101.5788 64.1788 98.7958 70.7788"></polygon>
            <path d="M108.8674,86.7112 L106.0844,86.7112 C105.5388,86.7112 105.0944,86.2646 105.0944,85.719 L105.0944,78.3754 L97.4054,78.3754 C97.0754,78.3754 96.7652,78.2082 96.5804,77.9332 C96.3978,77.6538 96.3604,77.3062 96.4924,77.0004 L98.6968,71.7644 C98.402,71.7336 98.1358,71.5752 97.9708,71.3288 C97.7882,71.0494 97.753,70.7018 97.8828,70.396 L100.0894,65.1644 C99.7946,65.1336 99.5262,64.9752 99.3612,64.7288 C99.1808,64.4494 99.1434,64.1018 99.2754,63.796 L101.4754,58.5666 C101.1784,58.5358 100.9122,58.373 100.7494,58.1244 C100.569,57.8406 100.5382,57.4886 100.6768,57.1806 L102.8768,52.2174 C102.7272,52.1426 102.593,52.026 102.494,51.8808 C102.3092,51.6058 102.2718,51.2582 102.3994,50.9524 L106.5684,40.8808 C106.8742,40.146 108.0886,40.1372 108.3988,40.8808 L112.4688,50.7082 C112.6052,50.8798 112.6888,51.0976 112.6888,51.3308 C112.6888,51.8478 112.2928,52.2768 111.7868,52.3164 L113.846,56.943 C113.9912,57.1146 114.0792,57.3412 114.0792,57.5832 C114.0792,58.1112 113.6656,58.5446 113.1486,58.571 L115.2408,63.5518 C115.3794,63.7234 115.4674,63.9434 115.4674,64.1788 C115.4674,64.7046 115.0538,65.1402 114.5368,65.1666 L116.6334,70.1518 C116.7698,70.3234 116.8578,70.5434 116.8578,70.7788 C116.8578,71.3068 116.4442,71.7424 115.925,71.7666 L118.0238,76.7562 C118.1624,76.9278 118.2504,77.1478 118.2504,77.3832 C118.2504,77.9288 117.8082,78.3754 117.2582,78.3754 C117.2494,78.3754 117.2296,78.3754 117.2142,78.3754 L109.8662,78.3754 L109.8662,85.719 C109.8574,86.2646 109.413,86.7112 108.8674,86.7112 Z M107.0788,84.7246 L107.8774,84.7246 L107.8774,77.381 C107.8774,76.8354 108.3218,76.3888 108.8674,76.3888 L115.7138,76.3888 L113.5094,71.1594 C113.3796,70.8536 113.4148,70.506 113.5996,70.2266 C113.7624,69.9802 114.0286,69.8174 114.3256,69.7888 L112.1212,64.5594 C111.9914,64.2536 112.0266,63.906 112.2114,63.6266 C112.3742,63.3824 112.6404,63.2196 112.933,63.1932 L110.733,57.9638 C110.6032,57.658 110.6384,57.3104 110.8232,57.031 C110.9794,56.7956 111.2368,56.635 111.514,56.5998 L109.3492,51.729 C109.2128,51.4232 109.2414,51.0712 109.424,50.7874 C109.589,50.5344 109.864,50.3694 110.1654,50.3408 L107.4748,43.8442 L104.76,50.4288 C104.9294,50.5058 105.0812,50.6312 105.1824,50.794 C105.365,51.0734 105.3936,51.4254 105.255,51.7356 L103.0968,56.6064 C103.3762,56.6438 103.627,56.8 103.7854,57.0376 C103.9658,57.3126 104.0032,57.6602 103.8712,57.9704 L101.6712,63.1954 C101.9682,63.2262 102.2344,63.3846 102.4016,63.6332 C102.582,63.9082 102.6194,64.2602 102.4874,64.566 L100.283,69.7976 C100.5756,69.8262 100.8418,69.9846 101.009,70.2332 C101.1894,70.5082 101.2246,70.8602 101.0948,71.166 L98.8926,76.3954 L106.0844,76.3954 C106.63,76.3954 107.0722,76.8376 107.0722,77.3832 L107.0722,84.7268 L107.0788,84.7268 L107.0788,84.7246 Z" id="Shape" fill="#AA892F" fill-rule="nonzero"></path>
            <g id="Group" transform="translate(26.000000, 83.200000)" fill-rule="nonzero">
                <path d="M83.6,2.4112 L4.4,2.4112 C3.1834,2.4112 2.2,3.3946 2.2,4.6112 C2.2,5.8278 3.1834,6.8112 4.4,6.8112 L15.8048,6.8112 L15.8048,10.9626 C15.8048,12.1836 16.7882,13.1626 18.0048,13.1626 C19.2214,13.1626 20.2048,12.1836 20.2048,10.9626 L20.2048,6.8112 L67.7974,6.8112 L67.7974,10.9626 C67.7974,12.1836 68.7808,13.1626 69.9974,13.1626 C71.2184,13.1626 72.1974,12.1836 72.1974,10.9626 L72.1974,6.8112 L83.6,6.8112 C84.8166,6.8112 85.8,5.8278 85.8,4.6112 C85.8,3.3946 84.8166,2.4112 83.6,2.4112 Z" id="Shape" fill="#FEC30E"></path>
                <path d="M69.9952,14.2604 C68.1736,14.2604 66.6952,12.7776 66.6952,10.9604 L66.6952,7.909 L21.3048,7.909 L21.3048,10.9604 C21.3048,12.7776 19.8264,14.2604 18.0048,14.2604 C16.1876,14.2604 14.7048,12.7776 14.7048,10.9604 L14.7048,7.909 L4.4,7.909 C2.5806,7.909 1.1,6.424 1.1,4.609 C1.1,2.7874 2.5806,1.309 4.4,1.309 L83.6,1.309 C85.4194,1.309 86.9,2.7874 86.9,4.609 C86.9,6.424 85.4194,7.909 83.6,7.909 L73.2952,7.909 L73.2952,10.9604 C73.2952,12.7842 71.819,14.2604 69.9952,14.2604 Z M19.1048,5.7112 L68.8974,5.7112 L68.8974,10.9626 C68.8974,11.5676 69.3968,12.0626 69.9974,12.0626 C70.6024,12.0626 71.0974,11.5676 71.0974,10.9626 L71.0974,5.7112 L83.6,5.7112 C84.205,5.7112 84.7,5.2162 84.7,4.6112 C84.7,4.0062 84.205,3.5112 83.6,3.5112 L4.4,3.5112 C3.795,3.5112 3.3,4.0062 3.3,4.6112 C3.3,5.2162 3.795,5.7112 4.4,5.7112 L16.9048,5.7112 L16.9048,10.9626 C16.9048,11.5676 17.402,12.0626 18.0048,12.0626 C18.612,12.0626 19.1048,11.5676 19.1048,10.9626 L19.1048,5.7112 Z" id="Shape" fill="#AA892F"></path>
            </g>
            <g id="Group" transform="translate(56.800000, 21.600000)" fill-rule="nonzero">
                <path d="M5.7024,16.676 L20.57,16.676 C23.199,16.676 25.3396,14.5354 25.3396,11.9108 C25.3396,10.1112 24.3078,8.4766 22.7612,7.6736 C22.7392,4.6134 20.2466,2.1274 17.1842,2.1274 C16.3944,2.1274 15.6112,2.2946 14.9072,2.6158 C13.7324,1.6676 12.2628,1.1418 10.736,1.1418 C7.1962,1.1418 4.29,3.927 4.0964,7.4206 C2.244,8.0784 0.9328,9.8494 0.9328,11.9108 C0.9372,14.5354 3.0712,16.676 5.7024,16.676 Z M5.5902,9.9132 C5.9818,9.8912 6.3426,9.7064 6.5868,9.4094 C6.8354,9.108 6.9432,8.723 6.8926,8.338 C6.8662,8.162 6.8486,7.9772 6.8486,7.7924 C6.8486,5.6452 8.5888,3.9094 10.7294,3.9094 C11.8514,3.9094 12.9118,4.3978 13.651,5.2382 C14.1284,5.7794 14.9358,5.8696 15.5166,5.445 C16.0072,5.0886 16.577,4.8994 17.1842,4.8994 C18.7308,4.8994 19.9936,6.1578 19.9936,7.7044 C19.9936,7.9112 19.9716,8.1092 19.9298,8.3006 C19.8572,8.6614 19.921,9.0354 20.119,9.3456 C20.3258,9.6602 20.6338,9.8692 20.9902,9.9462 C21.9054,10.1442 22.572,10.9648 22.572,11.9064 C22.572,13.0064 21.6744,13.8996 20.57,13.8996 L5.7024,13.8996 C4.598,13.8996 3.7004,13.0064 3.7004,11.9064 C3.7004,10.8416 4.5342,9.9682 5.5902,9.9132 Z" id="Shape" fill="#AA892F"></path>
                <path d="M20.9902,9.955 C20.6338,9.878 20.3148,9.658 20.119,9.3522 C19.9254,9.0442 19.8528,8.6658 19.9298,8.305 C19.976,8.1114 19.9936,7.909 19.9936,7.7088 C19.9936,6.1622 18.7308,4.906 17.1842,4.906 C16.5814,4.906 16.0028,5.0952 15.5166,5.4472 C14.9336,5.874 14.124,5.7838 13.6488,5.2426 C12.9096,4.3956 11.847,3.9138 10.7272,3.9138 C8.5844,3.9138 6.8442,5.654 6.8442,7.799 C6.8442,7.9838 6.864,8.1686 6.8882,8.3446 C6.9388,8.7318 6.8376,9.119 6.5846,9.4138 C6.3426,9.7152 5.9818,9.9 5.588,9.9176 C4.5342,9.9682 3.7004,10.8526 3.7004,11.9108 C3.7004,13.0152 4.598,13.9084 5.698,13.9084 L20.57,13.9084 C21.6744,13.9084 22.572,13.0152 22.572,11.9108 C22.572,10.9692 21.9054,10.1508 20.9902,9.955 Z" id="Shape" fill="#FEC30E"></path>
            </g>
            <path d="M97.3284,114.7854 C93.518,114.7854 92.352,116.882 91.6524,118.1338 C91.1882,118.9676 91.1794,118.9874 90.4666,118.9874 C89.7582,118.9874 89.7582,118.9874 89.2808,118.1228 C88.5812,116.8776 87.4152,114.7766 83.6092,114.7766 C79.8054,114.7766 78.6372,116.8732 77.9332,118.1294 C77.469,118.9632 77.4602,118.9786 76.7474,118.9786 C76.0434,118.9786 76.0346,118.9632 75.5616,118.1228 C74.8708,116.8732 73.696,114.7766 69.8944,114.7766 C66.0818,114.7766 64.9136,116.8732 64.2184,118.125 C63.7542,118.9632 63.741,118.9786 63.0348,118.9786 C62.3242,118.9786 62.3154,118.9632 61.8446,118.1206 C61.1516,116.8732 59.9768,114.7744 56.1752,114.7744 C52.3692,114.7744 51.1988,116.871 50.5036,118.1228 C50.035,118.9566 50.0262,118.9764 49.3178,118.9764 C48.6094,118.9764 48.6094,118.9764 48.132,118.1118 C47.4324,116.8666 46.262,114.7656 42.4604,114.7656 C41.0172,114.7656 39.9502,115.0736 39.1516,115.5136 C43.3184,118.3406 47.901,120.6 52.774,122.2126 C53.4626,121.6032 53.8762,120.8816 54.16,120.3646 C54.6792,119.4274 54.8046,119.2096 56.1752,119.2096 C57.5458,119.2096 57.6712,119.4384 58.1904,120.3646 C58.7844,121.4272 59.88,123.4116 63.0348,123.4116 C66.1874,123.4116 67.2434,121.5086 67.877,120.3646 C68.394,119.4274 68.5238,119.2096 69.8944,119.2096 C71.265,119.2096 71.3882,119.4384 71.9118,120.369 C72.5036,121.4294 73.6036,123.4116 76.7474,123.4116 C79.9088,123.4116 81.0044,121.4338 81.594,120.3646 C82.111,119.4274 82.2386,119.2096 83.6092,119.2096 C84.9798,119.2096 85.103,119.4384 85.6244,120.369 C85.917,120.8926 86.335,121.645 87.0654,122.2676 C91.9626,120.666 96.5628,118.4132 100.7494,115.5862 C99.931,115.1264 98.8442,114.7854 97.3284,114.7854 Z" id="Shape" fill="#AA892F" fill-rule="nonzero"></path>
            <path d="M105.4244,108.3702 C104.9602,109.2106 104.9514,109.226 104.2386,109.226 C103.5346,109.226 103.5214,109.2106 103.0528,108.3658 C102.3576,107.1184 101.1872,105.0196 97.3812,105.0196 C93.5774,105.0196 92.4048,107.1162 91.714,108.3702 C91.241,109.204 91.2322,109.2216 90.5282,109.2216 C89.8154,109.2216 89.8154,109.2216 89.338,108.357 C88.6472,107.1118 87.468,105.013 83.6664,105.013 C79.8648,105.013 78.6944,107.1074 77.9948,108.3636 C77.5262,109.1974 77.5174,109.215 76.809,109.215 C76.1006,109.215 76.0918,109.1974 75.6276,108.3592 C74.928,107.1074 73.7576,105.013 69.9516,105.013 C66.1412,105.013 64.9708,107.1096 64.2756,108.3592 C63.8114,109.1974 63.8026,109.215 63.0942,109.215 C62.3836,109.215 62.3726,109.1974 61.904,108.3548 C61.2066,107.1074 60.034,105.0086 56.2324,105.0086 C52.4264,105.0086 51.256,107.1052 50.5608,108.3592 C50.0944,109.193 50.0834,109.2106 49.375,109.2106 C48.6644,109.2106 48.6644,109.2106 48.187,108.346 C47.4896,107.1008 46.3192,105.002 42.5154,105.002 C38.7072,105.002 37.539,107.0986 36.8416,108.3526 C36.3752,109.1864 36.3664,109.204 35.6602,109.204 C34.9474,109.204 34.9386,109.1864 34.47,108.3482 C33.7704,107.1008 32.6,105.0064 28.794,105.0064 C28.387,105.0064 28.0152,105.0328 27.661,105.0746 C30.2746,108.2316 33.2446,111.0784 36.494,113.5776 C39.0042,113.2564 39.9612,111.5624 40.4958,110.5988 C41.0172,109.6594 41.1426,109.446 42.511,109.446 C43.8816,109.446 44.0092,109.6704 44.5306,110.6076 C45.1224,111.6658 46.2268,113.6436 49.3706,113.6436 C52.5254,113.6436 53.6254,111.668 54.215,110.5988 C54.732,109.6638 54.8596,109.446 56.228,109.446 C57.5986,109.446 57.7262,109.6704 58.2432,110.601 C58.8372,111.6614 59.9328,113.6436 63.0898,113.6436 C66.238,113.6436 67.2962,111.745 67.932,110.601 C68.449,109.6638 68.5766,109.446 69.9472,109.446 C71.3222,109.446 71.4432,109.6704 71.9668,110.6032 C72.5608,111.6614 73.6608,113.6436 76.8046,113.6436 C79.9682,113.6436 81.0638,111.668 81.6468,110.5988 C82.1616,109.6638 82.2914,109.446 83.662,109.446 C85.0326,109.446 85.1624,109.6704 85.6816,110.6032 C86.2756,111.6614 87.3756,113.6436 90.5238,113.6436 C93.6698,113.6436 94.7786,111.6724 95.3616,110.6032 C95.8808,109.6638 96.0106,109.446 97.3768,109.446 C98.7474,109.446 98.8772,109.6704 99.392,110.601 C99.9376,111.5712 100.921,113.3004 103.4994,113.582 C106.7532,111.0806 109.7166,108.2316 112.3368,105.0856 C111.9584,105.035 111.5536,105.002 111.1004,105.002 C107.2878,105.024 106.124,107.1206 105.4244,108.3702 Z" id="Shape" fill="#AA892F" fill-rule="nonzero"></path>
            <path d="M111.0344,95.2604 C107.2262,95.2604 106.058,97.357 105.3606,98.6066 C104.8942,99.4448 104.8854,99.4646 104.1748,99.4646 C103.4664,99.4646 103.4576,99.4448 102.9868,98.6022 C102.2894,97.3548 101.1212,95.256 97.3174,95.256 C93.5092,95.256 92.3388,97.3526 91.6436,98.6066 C91.1772,99.4404 91.1684,99.458 90.4578,99.458 C89.7494,99.458 89.7494,99.458 89.2698,98.5956 C88.5724,97.3482 87.4042,95.2494 83.6004,95.2494 C79.7966,95.2494 78.6262,97.3416 77.9244,98.6 C77.4602,99.4338 77.4514,99.4514 76.7386,99.4514 C76.0324,99.4514 76.0214,99.4338 75.5528,98.5934 C74.8598,97.3416 73.6872,95.2472 69.8812,95.2472 C66.073,95.2472 64.9048,97.3438 64.2096,98.5934 C63.741,99.4316 63.7322,99.4514 63.026,99.4514 C62.3154,99.4514 62.3066,99.4316 61.8358,98.589 C61.1428,97.3416 59.968,95.2428 56.1664,95.2428 C52.3604,95.2428 51.19,97.3394 50.4926,98.5934 C50.0262,99.4272 50.0174,99.4426 49.3068,99.4426 C48.6006,99.4426 48.6006,99.4426 48.1188,98.5824 C47.4236,97.3328 46.2532,95.2362 42.4516,95.2362 C38.6412,95.2362 37.4708,97.3328 36.7756,98.5868 C36.3114,99.4206 36.3026,99.4382 35.5942,99.4382 C34.8814,99.4382 34.8726,99.4206 34.404,98.5802 C33.7088,97.3284 32.5384,95.234 28.7324,95.234 C24.9198,95.234 23.756,97.3284 23.063,98.5802 C23.052,98.6 23.0498,98.6044 23.0432,98.6132 C23.8418,99.9244 24.6998,101.1894 25.5996,102.417 C26.1276,101.8714 26.4708,101.2774 26.7128,100.8396 C27.2342,99.898 27.3596,99.678 28.728,99.678 C30.0986,99.678 30.2262,99.9046 30.7476,100.8374 C31.3394,101.8978 32.4394,103.8756 35.5898,103.8756 C38.7468,103.8756 39.8424,101.9022 40.432,100.833 C40.949,99.8958 41.0766,99.678 42.4472,99.678 C43.8178,99.678 43.9432,99.9046 44.4668,100.8418 C45.0586,101.9 46.1608,103.8756 49.3024,103.8756 C52.4594,103.8756 53.5594,101.9022 54.1468,100.833 C54.6616,99.8958 54.7914,99.678 56.162,99.678 C57.5326,99.678 57.658,99.9046 58.1772,100.833 C58.7712,101.8956 59.8668,103.8756 63.0216,103.8756 C66.1698,103.8756 67.2302,101.977 67.8616,100.833 C68.3808,99.8958 68.5106,99.678 69.8768,99.678 C71.2474,99.678 71.3772,99.9046 71.8964,100.8374 C72.4904,101.8978 73.5904,103.8756 76.7342,103.8756 C79.8978,103.8756 80.9934,101.9022 81.5808,100.833 C82.0978,99.8958 82.2254,99.678 83.596,99.678 C84.9666,99.678 85.0876,99.9046 85.6112,100.8374 C86.2074,101.8956 87.3074,103.8756 90.4534,103.8756 C93.6038,103.8756 94.7038,101.9044 95.2978,100.8374 C95.8148,99.8958 95.9424,99.678 97.313,99.678 C98.6814,99.678 98.8068,99.9002 99.3282,100.833 C99.92,101.8956 101.0156,103.8756 104.1704,103.8756 C107.3208,103.8756 108.3812,101.977 109.0148,100.833 C109.534,99.8958 109.6594,99.678 111.03,99.678 C112.4006,99.678 112.526,99.9046 113.0452,100.833 C113.3114,101.3104 113.6898,101.9726 114.2992,102.5512 C115.188,101.339 116.0328,100.0894 116.8248,98.8046 C116.7786,98.732 116.75,98.677 116.6906,98.5824 C116.0108,97.3592 114.847,95.2604 111.0344,95.2604 Z" id="Shape" fill="#AA892F" fill-rule="nonzero"></path>
            <circle id="Oval-Copy-3" stroke="#FFC300" stroke-width="2.5" fill-rule="nonzero" cx="70" cy="70" r="55"></circle>
            <path d="M89.5646,54.776 L87.1424,53.5682 C86.9246,53.456 86.6606,53.5462 86.5506,53.7662 L83.6774,59.5148 L83.673,59.5236 L82.1,62.6762 L82.0736,62.6762 L79.8604,67.03 L79.4468,67.8506 L55.7748,67.8506 C53.962,67.9232 52.5188,69.4544 52.5606,71.265 L52.5606,84.5112 C52.5606,84.7532 52.7586,84.9512 52.9984,84.9512 L55.7022,84.9512 C55.9464,84.9512 56.1444,84.7532 56.1444,84.5112 L56.1444,76.3954 L76.3602,76.3954 L76.3602,84.5112 C76.3602,84.7532 76.5582,84.9512 76.798,84.9512 L79.5018,84.9512 C79.746,84.9512 79.944,84.7532 79.944,84.5112 L79.944,74.972 L89.7494,55.37 C89.7978,55.2622 89.8066,55.1412 89.7714,55.0312 C89.7494,54.9212 89.6658,54.8288 89.5646,54.776 Z M77.0092,72.805 L56.1554,72.805 L56.1554,71.4344 L77.5592,71.4344 L77.0092,72.805 Z" id="Shape" fill="#AA892F" fill-rule="nonzero"></path>
            <g id="Group" transform="translate(30.400000, 37.000000)" fill-rule="nonzero">
                <path d="M4.3604,13.8534 L15.3428,13.8534 C17.4856,13.8534 19.228,12.1132 19.228,9.9726 C19.228,8.5756 18.4668,7.3172 17.3184,6.6286 C17.1864,4.2702 15.235,2.3848 12.8458,2.3848 C12.276,2.3848 11.7282,2.4882 11.22,2.6928 C10.318,2.024 9.2224,1.6544 8.0806,1.6544 C5.3548,1.6544 3.0998,3.7356 2.8358,6.3954 C1.4454,6.9916 0.4862,8.3666 0.4862,9.966 C0.4862,12.1132 2.2264,13.8534 4.3604,13.8534 Z M4.3054,8.855 C4.6948,8.8374 5.0556,8.6526 5.2998,8.3512 C5.5418,8.052 5.654,7.6648 5.6012,7.2842 C5.5858,7.1654 5.577,7.051 5.577,6.9278 C5.577,5.5484 6.7012,4.4242 8.0806,4.4242 C8.8,4.4242 9.493,4.741 9.9638,5.2866 C10.4346,5.8278 11.2442,5.9224 11.8272,5.4934 C12.1264,5.2734 12.4762,5.1634 12.8458,5.1634 C13.794,5.1634 14.5574,5.9334 14.5574,6.875 C14.5574,6.9982 14.5442,7.117 14.5134,7.238 C14.4364,7.5966 14.5046,7.9728 14.7026,8.283 C14.905,8.5976 15.2152,8.8088 15.5738,8.8836 C16.0798,8.9936 16.4538,9.4534 16.4538,9.9748 C16.4538,10.5886 15.95,11.088 15.3362,11.088 L4.356,11.088 C3.7444,11.088 3.2428,10.5886 3.2428,9.9748 C3.2538,9.3808 3.7136,8.8902 4.3054,8.855 Z" id="Shape" fill="#AA892F"></path>
                <path d="M15.5804,8.8814 C15.2218,8.8066 14.905,8.5888 14.7092,8.2808 C14.5112,7.9728 14.4386,7.5944 14.52,7.2358 C14.5464,7.1148 14.5618,6.996 14.5618,6.8728 C14.5618,5.9246 13.7896,5.1612 12.848,5.1612 C12.4784,5.1612 12.133,5.2778 11.8316,5.4912 C11.2464,5.9202 10.439,5.8256 9.966,5.2844 C9.4886,4.7388 8.8044,4.4242 8.0828,4.4242 C6.7034,4.4242 5.5814,5.5462 5.5814,6.9256 C5.5814,7.0488 5.5902,7.1632 5.6078,7.282 C5.6606,7.6648 5.555,8.0564 5.3042,8.349 C5.0578,8.6526 4.697,8.8374 4.3098,8.8528 C3.7136,8.888 3.256,9.372 3.256,9.9704 C3.256,10.5842 3.7576,11.0836 4.3692,11.0836 L15.3516,11.0836 C15.9654,11.0836 16.4692,10.5842 16.4692,9.9704 C16.4604,9.4512 16.0864,8.9914 15.5804,8.8814 Z" id="Shape" fill="#FEC30E"></path>
            </g>
            <g id="Rectangle-2-Copy-5">
                <use fill="black" fill-opacity="1" filter="url(#filter-4)" xlink:href="#path-3"></use>
                <rect stroke="#FFC300" stroke-width="2" stroke-linejoin="square" fill="#FFFFFF" fill-rule="evenodd" x="23" y="146" width="94" height="23" rx="4"></rect>
            </g>
            <text id="Recreational" font-family="OpenSans-SemiBold, Open Sans" font-size="14" font-weight="500" fill="#AA892F">
                <tspan x="27.4804688" y="163">Recreational</tspan>
            </text>
        </g>
    </g>
</svg>