<?xml version="1.0" encoding="UTF-8"?>
<svg width="364px" height="137px" viewBox="0 0 364 137" version="1.1" xmlns="http://www.w3.org/2000/svg" xmlns:xlink="http://www.w3.org/1999/xlink">
    <!-- Generator: Sketch 50.2 (55047) - http://www.bohemiancoding.com/sketch -->
    <title>Group 27</title>
    <desc>Created with Sketch.</desc>
    <defs></defs>
    <g id="Page-1" stroke="none" stroke-width="1" fill="none" fill-rule="evenodd">
        <g id="Map-Property-List-UPD" transform="translate(-770.000000, -336.000000)">
            <g id="Group-27" transform="translate(770.000000, 337.000000)">
                <g id="Group-18" transform="translate(0.000000, 108.000000)" fill="#000000" fill-rule="nonzero">
                    <g id="Group" transform="translate(0.000000, 0.914127)">
                        <polygon id="Shape" points="1.41163435 10.0831025 1.41163435 2.62160665 0.20166205 2.62160665 0.20166205 1.10914127 2.92409972 1.10914127 2.92409972 10.0831025"></polygon>
                        <polygon id="Shape" points="6.4531856 10.0831025 6.4531856 8.46980609 8.06648199 8.46980609 8.06648199 10.0831025"></polygon>
                        <path d="M16.9396122,3.52908587 C16.9396122,2.92409972 16.5362881,2.52077562 15.9313019,2.52077562 C15.4271468,2.52077562 15.0238227,2.92409972 15.0238227,3.42825485 C15.0238227,4.033241 15.4271468,4.33573407 16.132964,4.53739612 C18.0487535,5.14238227 18.8554017,5.94903047 18.8554017,7.36066482 C18.8554017,9.07479224 17.5445983,10.1839335 15.9313019,10.1839335 C14.4188366,10.1839335 13.1080332,9.07479224 13.0072022,7.46149584 L14.7213296,7.46149584 C14.8221607,8.16731302 15.2254848,8.67146814 15.9313019,8.67146814 C16.6371191,8.67146814 17.1412742,8.16731302 17.1412742,7.56232687 C17.1412742,6.95734072 16.7379501,6.55401662 16.032133,6.25152355 C14.6204986,5.74736842 13.3096953,5.34404432 13.3096953,3.42825485 C13.3096953,1.91578947 14.5196676,0.907479224 15.9313019,0.907479224 C17.3429363,0.907479224 18.4520776,1.91578947 18.5529086,3.42825485 L16.9396122,3.42825485 L16.9396122,3.52908587 Z" id="Shape"></path>
                        <path d="M21.7795014,7.46149584 C21.8803324,8.06648199 22.6869806,8.87313019 23.5944598,8.87313019 C24.300277,8.87313019 24.8044321,8.57063712 25.1069252,7.96565097 L26.8210526,7.96565097 C26.4177285,9.27645429 25.0060942,10.2847645 23.5944598,10.2847645 C21.5778393,10.2847645 20.065374,8.67146814 20.065374,6.75567867 C20.065374,4.8398892 21.5778393,3.12576177 23.5944598,3.12576177 C25.5102493,3.12576177 27.0227147,4.63822715 27.0227147,6.65484765 C27.0227147,6.95734072 27.0227147,7.15900277 26.9218837,7.46149584 L21.7795014,7.46149584 Z M25.4094183,6.15069252 C25.2077562,5.14238227 24.6027701,4.63822715 23.5944598,4.63822715 C22.6869806,4.63822715 21.9811634,5.14238227 21.6786704,6.15069252 L25.4094183,6.15069252 Z" id="Shape"></path>
                        <polygon id="Shape" points="28.333518 10.0831025 28.333518 1.10914127 29.9468144 1.10914127 29.9468144 10.0831025"></polygon>
                        <path d="M32.8709141,7.46149584 C32.9717452,8.06648199 33.7783934,8.87313019 34.6858726,8.87313019 C35.3916898,8.87313019 35.8958449,8.57063712 36.198338,7.96565097 L37.9124654,7.96565097 C37.5091413,9.27645429 36.0975069,10.2847645 34.6858726,10.2847645 C32.6692521,10.2847645 31.1567867,8.67146814 31.1567867,6.75567867 C31.1567867,4.8398892 32.6692521,3.12576177 34.6858726,3.12576177 C36.601662,3.12576177 38.1141274,4.63822715 38.1141274,6.65484765 C38.1141274,6.95734072 38.1141274,7.15900277 38.0132964,7.46149584 L32.8709141,7.46149584 Z M36.601662,6.15069252 C36.4,5.14238227 35.7950139,4.63822715 34.7867036,4.63822715 C33.8792244,4.63822715 33.1734072,5.14238227 32.8709141,6.15069252 L36.601662,6.15069252 Z" id="Shape"></path>
                        <path d="M46.1806094,7.96565097 C45.5756233,9.47811634 44.365651,10.3855956 42.8531856,10.3855956 C40.8365651,10.3855956 39.3240997,8.77229917 39.3240997,6.75567867 C39.3240997,4.8398892 40.9373961,3.2265928 42.8531856,3.2265928 C44.365651,3.2265928 45.6764543,4.13407202 46.1806094,5.6465374 L44.365651,5.6465374 C44.0631579,5.04155125 43.5590028,4.63822715 42.8531856,4.63822715 C41.7440443,4.63822715 40.9373961,5.54570637 40.9373961,6.75567867 C40.9373961,7.96565097 41.8448753,8.87313019 42.9540166,8.87313019 C43.6598338,8.87313019 44.0631579,8.46980609 44.466482,7.96565097 L46.1806094,7.96565097 Z" id="Shape"></path>
                        <polygon id="Shape" points="47.7939058 10.0831025 47.7939058 4.8398892 46.9872576 4.8398892 46.9872576 3.42825485 47.7939058 3.42825485 47.7939058 1.2099723 49.4072022 1.2099723 49.4072022 3.42825485 50.4155125 3.42825485 50.4155125 4.8398892 49.4072022 4.8398892 49.4072022 10.0831025"></polygon>
                        <path d="M58.3811634,3.52908587 C58.3811634,2.92409972 57.9778393,2.52077562 57.3728532,2.52077562 C56.8686981,2.52077562 56.465374,2.92409972 56.465374,3.42825485 C56.465374,4.033241 56.8686981,4.33573407 57.5745152,4.53739612 C59.4903047,5.14238227 60.2969529,5.94903047 60.2969529,7.36066482 C60.2969529,9.07479224 58.9861496,10.1839335 57.3728532,10.1839335 C55.8603878,10.1839335 54.5495845,9.07479224 54.4487535,7.46149584 L56.1628809,7.46149584 C56.2637119,8.16731302 56.667036,8.67146814 57.3728532,8.67146814 C58.0786704,8.67146814 58.5828255,8.16731302 58.5828255,7.56232687 C58.5828255,6.95734072 58.1795014,6.55401662 57.4736842,6.25152355 C56.0620499,5.74736842 54.7512465,5.34404432 54.7512465,3.42825485 C54.7512465,1.91578947 55.9612188,0.907479224 57.3728532,0.907479224 C58.7844875,0.907479224 59.8936288,1.91578947 59.9944598,3.42825485 L58.3811634,3.42825485 L58.3811634,3.52908587 Z" id="Shape"></path>
                        <path d="M63.2210526,7.46149584 C63.3218837,8.06648199 64.1285319,8.87313019 65.0360111,8.87313019 C65.7418283,8.87313019 66.2459834,8.57063712 66.5484765,7.96565097 L68.2626039,7.96565097 C67.8592798,9.27645429 66.4476454,10.2847645 65.0360111,10.2847645 C63.0193906,10.2847645 61.5069252,8.67146814 61.5069252,6.75567867 C61.5069252,4.8398892 63.0193906,3.12576177 65.0360111,3.12576177 C66.9518006,3.12576177 68.4642659,4.63822715 68.4642659,6.65484765 C68.4642659,6.95734072 68.4642659,7.15900277 68.3634349,7.46149584 L63.2210526,7.46149584 Z M66.8509695,6.15069252 C66.6493075,5.14238227 66.0443213,4.63822715 65.0360111,4.63822715 C64.1285319,4.63822715 63.4227147,5.14238227 63.1202216,6.15069252 L66.8509695,6.15069252 Z" id="Shape"></path>
                        <path d="M69.8759003,10.0831025 L69.8759003,3.32742382 L71.3883657,3.32742382 L71.3883657,3.93240997 C71.7916898,3.32742382 72.1950139,3.12576177 72.900831,3.12576177 L72.900831,4.63822715 C71.8925208,4.63822715 71.3883657,5.2432133 71.3883657,6.15069252 L71.3883657,9.98227147 L69.8759003,9.98227147 L69.8759003,10.0831025 Z" id="Shape"></path>
                        <polygon id="Shape" points="76.2282548 10.0831025 73.5058172 3.32742382 75.2199446 3.32742382 76.833241 7.76398892 76.833241 7.76398892 78.3457064 3.32742382 80.1606648 3.32742382 77.4382271 10.0831025"></polygon>
                        <path d="M81.1689751,2.62160665 L81.1689751,1.10914127 L82.7822715,1.10914127 L82.7822715,2.62160665 L81.1689751,2.62160665 Z M81.1689751,10.0831025 L81.1689751,3.32742382 L82.7822715,3.32742382 L82.7822715,10.0831025 L81.1689751,10.0831025 Z" id="Shape"></path>
                        <path d="M91.0504155,7.96565097 C90.4454294,9.47811634 89.2354571,10.3855956 87.7229917,10.3855956 C85.7063712,10.3855956 84.1939058,8.77229917 84.1939058,6.75567867 C84.1939058,4.8398892 85.8072022,3.2265928 87.7229917,3.2265928 C89.2354571,3.2265928 90.5462604,4.13407202 91.0504155,5.6465374 L89.2354571,5.6465374 C88.932964,5.04155125 88.4288089,4.63822715 87.7229917,4.63822715 C86.6138504,4.63822715 85.8072022,5.54570637 85.8072022,6.75567867 C85.8072022,7.96565097 86.7146814,8.87313019 87.8238227,8.87313019 C88.5296399,8.87313019 88.932964,8.46980609 89.3362881,7.96565097 L91.0504155,7.96565097 Z" id="Shape"></path>
                        <path d="M93.6720222,7.46149584 C93.7728532,8.06648199 94.5795014,8.87313019 95.4869806,8.87313019 C96.1927978,8.87313019 96.6969529,8.57063712 96.999446,7.96565097 L98.7135734,7.96565097 C98.3102493,9.27645429 96.898615,10.2847645 95.4869806,10.2847645 C93.4703601,10.2847645 91.9578947,8.67146814 91.9578947,6.75567867 C91.9578947,4.8398892 93.4703601,3.12576177 95.4869806,3.12576177 C97.4027701,3.12576177 98.9152355,4.63822715 98.9152355,6.65484765 C98.9152355,6.95734072 98.9152355,7.15900277 98.8144044,7.46149584 L93.6720222,7.46149584 Z M97.4027701,6.15069252 C97.201108,5.14238227 96.5961219,4.63822715 95.5878116,4.63822715 C94.6803324,4.63822715 93.9745152,5.14238227 93.6720222,6.15069252 L97.4027701,6.15069252 Z" id="Shape"></path>
                        <path d="M34.2825485,24.199446 L31.8626039,20.7711911 L31.8626039,24.199446 L30.2493075,24.199446 L30.2493075,15.2254848 L33.2742382,15.2254848 C35.0891967,15.2254848 36.198338,16.4354571 36.198338,18.0487535 C36.198338,18.8554017 35.7950139,20.5695291 33.8792244,20.8720222 L36.299169,24.199446 L34.2825485,24.199446 Z M33.0725762,19.5612188 C33.9800554,19.5612188 34.5850416,19.0570637 34.5850416,18.1495845 C34.5850416,17.2421053 33.8792244,16.8387812 33.0725762,16.8387812 L31.9634349,16.8387812 L31.9634349,19.5612188 L33.0725762,19.5612188 Z" id="Shape"></path>
                        <path d="M42.6515235,24.199446 L42.6515235,23.3927978 C42.1473684,23.9977839 41.1390582,24.401108 40.33241,24.401108 C38.4166205,24.401108 37.1058172,22.7878116 37.1058172,20.7711911 C37.1058172,18.8554017 38.5174515,17.2421053 40.433241,17.2421053 C41.3407202,17.2421053 42.3490305,17.8470914 42.6515235,18.3512465 L42.6515235,17.5445983 L44.1639889,17.5445983 L44.1639889,24.300277 L42.6515235,24.300277 L42.6515235,24.199446 Z M42.6515235,20.8720222 C42.6515235,19.6620499 41.8448753,18.7545706 40.634903,18.7545706 C39.5257618,18.7545706 38.6182825,19.6620499 38.6182825,20.8720222 C38.6182825,21.9811634 39.5257618,22.9894737 40.634903,22.9894737 C41.8448753,22.9894737 42.6515235,21.9811634 42.6515235,20.8720222 Z" id="Shape"></path>
                        <path d="M50.0121884,24.199446 L50.0121884,20.8720222 C50.0121884,19.4603878 49.6088643,18.7545706 48.701385,18.7545706 C48.1972299,18.7545706 47.2897507,19.0570637 47.2897507,20.5695291 L47.2897507,24.199446 L45.6764543,24.199446 L45.6764543,17.4437673 L47.1889197,17.4437673 L47.1889197,18.0487535 C47.6930748,17.5445983 48.2980609,17.2421053 49.0038781,17.2421053 C49.9113573,17.2421053 51.6254848,17.7462604 51.6254848,20.267036 L51.6254848,24.199446 L50.0121884,24.199446 Z" id="Shape"></path>
                        <path d="M58.4819945,23.3927978 C57.9778393,24.199446 57.1711911,24.5019391 56.2637119,24.5019391 C54.5495845,24.5019391 52.8354571,22.9894737 52.8354571,20.8720222 C52.8354571,18.9562327 54.3479224,17.3429363 56.2637119,17.3429363 C57.1711911,17.3429363 57.8770083,17.6454294 58.3811634,18.3512465 L58.3811634,17.5445983 L59.8936288,17.5445983 L59.8936288,23.1911357 C59.8936288,25.6110803 58.1795014,27.0227147 56.2637119,27.0227147 C54.7512465,27.0227147 53.4404432,26.1152355 52.9362881,24.8044321 L54.7512465,24.8044321 C55.1545706,25.3085873 55.7595568,25.5102493 56.3645429,25.5102493 C57.5745152,25.5102493 58.4819945,24.7036011 58.4819945,23.3927978 Z M58.3811634,20.7711911 C58.3811634,19.7628809 57.4736842,18.7545706 56.3645429,18.7545706 C55.3562327,18.7545706 54.4487535,19.6620499 54.4487535,20.7711911 C54.4487535,21.8803324 55.2554017,22.8886427 56.465374,22.8886427 C57.5745152,22.9894737 58.3811634,21.9811634 58.3811634,20.7711911 Z" id="Shape"></path>
                        <path d="M62.8177285,21.5778393 C62.9185596,22.1828255 63.7252078,22.9894737 64.632687,22.9894737 C65.3385042,22.9894737 65.8426593,22.6869806 66.1451524,22.0819945 L67.8592798,22.0819945 C67.4559557,23.3927978 66.0443213,24.401108 64.632687,24.401108 C62.6160665,24.401108 61.1036011,22.7878116 61.1036011,20.8720222 C61.1036011,18.9562327 62.6160665,17.2421053 64.632687,17.2421053 C66.5484765,17.2421053 68.0609418,18.7545706 68.0609418,20.7711911 C68.0609418,21.0736842 68.0609418,21.2753463 67.9601108,21.5778393 L62.8177285,21.5778393 Z M66.4476454,20.267036 C66.2459834,19.2587258 65.6409972,18.7545706 64.632687,18.7545706 C63.7252078,18.7545706 63.0193906,19.2587258 62.7168975,20.267036 L66.4476454,20.267036 Z" id="Shape"></path>
                    </g>
                    <g id="Group" transform="translate(141.163435, 1.922438)">
                        <path d="M0.504155125,9.07479224 L0.504155125,7.56232687 L3.73074792,4.53739612 C4.4365651,3.93240997 4.73905817,3.32742382 4.73905817,2.8232687 C4.73905817,2.0166205 4.23490305,1.51246537 3.42825485,1.51246537 C2.8232687,1.51246537 2.0166205,1.91578947 2.0166205,3.12576177 L2.0166205,3.2265928 L0.4033241,3.2265928 C0.4033241,3.12576177 0.4033241,3.02493075 0.4033241,3.02493075 C0.4033241,1.10914127 1.81495845,-1.42108547e-14 3.32742382,-1.42108547e-14 C5.04155125,-1.42108547e-14 6.25152355,1.31080332 6.25152355,2.92409972 C6.25152355,3.93240997 5.84819945,4.8398892 4.53739612,5.94903047 L2.72243767,7.56232687 L6.25152355,7.56232687 L6.25152355,9.07479224 L0.504155125,9.07479224 Z" id="Shape"></path>
                        <polygon id="Shape" points="7.86481994 9.07479224 7.86481994 7.46149584 9.47811634 7.46149584 9.47811634 9.07479224"></polygon>
                        <path d="M15.1246537,9.07479224 L15.1246537,0.100831025 L17.8470914,0.100831025 C19.8637119,0.100831025 20.8720222,1.31080332 20.8720222,2.8232687 C20.8720222,4.4365651 19.8637119,5.54570637 17.8470914,5.54570637 L16.7379501,5.54570637 L16.7379501,8.97396122 L15.1246537,8.97396122 L15.1246537,9.07479224 Z M17.3429363,4.13407202 C18.8554017,4.13407202 19.1578947,3.52908587 19.1578947,2.92409972 C19.1578947,2.21828255 18.8554017,1.71412742 17.3429363,1.71412742 L16.7379501,1.71412742 L16.7379501,4.13407202 L17.3429363,4.13407202 Z" id="Shape"></path>
                        <path d="M21.8803324,1.6132964 L21.8803324,0.100831025 L23.4936288,0.100831025 L23.4936288,1.6132964 L21.8803324,1.6132964 Z M21.8803324,9.07479224 L21.8803324,2.31911357 L23.4936288,2.31911357 L23.4936288,9.07479224 L21.8803324,9.07479224 Z" id="Shape"></path>
                        <path d="M31.7617729,6.95734072 C31.1567867,8.46980609 29.9468144,9.37728532 28.434349,9.37728532 C26.4177285,9.37728532 24.9052632,7.76398892 24.9052632,5.74736842 C24.9052632,3.83157895 26.5185596,2.21828255 28.434349,2.21828255 C29.9468144,2.21828255 31.2576177,3.12576177 31.7617729,4.63822715 L29.9468144,4.63822715 C29.6443213,4.033241 29.1401662,3.6299169 28.434349,3.6299169 C27.3252078,3.6299169 26.5185596,4.53739612 26.5185596,5.74736842 C26.5185596,6.95734072 27.4260388,7.86481994 28.5351801,7.86481994 C29.2409972,7.86481994 29.6443213,7.46149584 30.0476454,6.95734072 L31.7617729,6.95734072 Z" id="Shape"></path>
                        <polygon id="Shape" points="37.2066482 9.07479224 34.8875346 5.94903047 34.8875346 5.94903047 34.8875346 9.07479224 33.2742382 9.07479224 33.2742382 0.100831025 34.8875346 0.100831025 34.8875346 5.44487535 34.8875346 5.44487535 37.0049861 2.31911357 38.8199446 2.31911357 36.4 5.6465374 39.1224377 9.07479224"></polygon>
                        <path d="M50.3146814,9.07479224 L49.4072022,6.75567867 L46.1806094,6.75567867 L45.2731302,9.07479224 L43.3573407,9.07479224 L47.0880886,0.100831025 L48.398892,0.100831025 L52.1296399,9.07479224 L50.3146814,9.07479224 Z M47.6930748,2.52077562 L46.6847645,5.2432133 L48.701385,5.2432133 L47.6930748,2.52077562 Z" id="Shape"></path>
                        <path d="M58.4819945,8.26814404 C57.9778393,9.07479224 57.1711911,9.37728532 56.2637119,9.37728532 C54.5495845,9.37728532 52.8354571,7.86481994 52.8354571,5.74736842 C52.8354571,3.83157895 54.3479224,2.21828255 56.2637119,2.21828255 C57.1711911,2.21828255 57.8770083,2.52077562 58.3811634,3.2265928 L58.3811634,2.4199446 L59.8936288,2.4199446 L59.8936288,8.06648199 C59.8936288,10.4864266 58.1795014,11.8980609 56.2637119,11.8980609 C54.7512465,11.8980609 53.4404432,10.9905817 52.9362881,9.67977839 L54.7512465,9.67977839 C55.1545706,10.1839335 55.7595568,10.3855956 56.3645429,10.3855956 C57.5745152,10.3855956 58.3811634,9.57894737 58.4819945,8.26814404 Z M58.3811634,5.6465374 C58.3811634,4.63822715 57.4736842,3.6299169 56.3645429,3.6299169 C55.3562327,3.6299169 54.4487535,4.53739612 54.4487535,5.6465374 C54.4487535,6.75567867 55.2554017,7.76398892 56.465374,7.76398892 C57.5745152,7.86481994 58.3811634,6.8565097 58.3811634,5.6465374 Z" id="Shape"></path>
                        <path d="M62.7168975,6.4531856 C62.8177285,7.05817175 63.6243767,7.86481994 64.531856,7.86481994 C65.2376731,7.86481994 65.7418283,7.56232687 66.0443213,6.95734072 L67.7584488,6.95734072 C67.3551247,8.26814404 65.9434903,9.27645429 64.531856,9.27645429 C62.5152355,9.27645429 61.0027701,7.66315789 61.0027701,5.74736842 C61.0027701,3.83157895 62.5152355,2.11745152 64.531856,2.11745152 C66.4476454,2.11745152 67.9601108,3.6299169 67.9601108,5.6465374 C67.9601108,5.94903047 67.9601108,6.15069252 67.8592798,6.4531856 L62.7168975,6.4531856 Z M66.4476454,5.14238227 C66.2459834,4.13407202 65.6409972,3.6299169 64.632687,3.6299169 C63.7252078,3.6299169 63.0193906,4.13407202 62.7168975,5.14238227 L66.4476454,5.14238227 Z" id="Shape"></path>
                        <path d="M73.7074792,9.07479224 L73.7074792,5.74736842 C73.7074792,4.33573407 73.3041551,3.6299169 72.3966759,3.6299169 C71.8925208,3.6299169 70.9850416,3.93240997 70.9850416,5.44487535 L70.9850416,9.07479224 L69.3717452,9.07479224 L69.3717452,2.31911357 L70.8842105,2.31911357 L70.8842105,2.92409972 C71.3883657,2.4199446 71.9933518,2.11745152 72.699169,2.11745152 C73.6066482,2.11745152 75.3207756,2.62160665 75.3207756,5.14238227 L75.3207756,9.07479224 L73.7074792,9.07479224 Z" id="Shape"></path>
                        <polygon id="Shape" points="77.2365651 9.07479224 77.2365651 3.83157895 76.4299169 3.83157895 76.4299169 2.4199446 77.2365651 2.4199446 77.2365651 0.20166205 78.8498615 0.20166205 78.8498615 2.4199446 79.8581717 2.4199446 79.8581717 3.83157895 78.8498615 3.83157895 78.8498615 9.07479224"></polygon>
                        <path d="M18.6537396,16.6371191 C18.6537396,16.032133 18.2504155,15.6288089 17.6454294,15.6288089 C17.1412742,15.6288089 16.7379501,16.032133 16.7379501,16.5362881 C16.7379501,17.1412742 17.1412742,17.4437673 17.8470914,17.6454294 C19.7628809,18.2504155 20.5695291,19.0570637 20.5695291,20.4686981 C20.5695291,22.1828255 19.2587258,23.2919668 17.6454294,23.2919668 C16.132964,23.2919668 14.8221607,22.1828255 14.7213296,20.5695291 L16.4354571,20.5695291 C16.5362881,21.2753463 16.9396122,21.7795014 17.6454294,21.7795014 C18.3512465,21.7795014 18.8554017,21.2753463 18.8554017,20.6703601 C18.8554017,20.065374 18.4520776,19.6620499 17.7462604,19.3595568 C16.334626,18.8554017 15.0238227,18.4520776 15.0238227,16.5362881 C15.0238227,15.0238227 16.233795,14.0155125 17.6454294,14.0155125 C19.0570637,14.0155125 20.166205,15.0238227 20.267036,16.5362881 L18.6537396,16.5362881 L18.6537396,16.6371191 Z" id="Shape"></path>
                        <path d="M23.4936288,20.5695291 C23.5944598,21.1745152 24.401108,21.9811634 25.3085873,21.9811634 C26.0144044,21.9811634 26.5185596,21.6786704 26.8210526,21.0736842 L28.5351801,21.0736842 C28.131856,22.3844875 26.7202216,23.3927978 25.3085873,23.3927978 C23.2919668,23.3927978 21.7795014,21.7795014 21.7795014,19.8637119 C21.7795014,17.9479224 23.2919668,16.233795 25.3085873,16.233795 C27.2243767,16.233795 28.7368421,17.7462604 28.7368421,19.7628809 C28.7368421,20.065374 28.7368421,20.267036 28.6360111,20.5695291 L23.4936288,20.5695291 Z M27.1235457,19.2587258 C26.9218837,18.2504155 26.3168975,17.7462604 25.3085873,17.7462604 C24.401108,17.7462604 23.6952909,18.2504155 23.3927978,19.2587258 L27.1235457,19.2587258 Z" id="Shape"></path>
                        <path d="M30.1484765,23.1911357 L30.1484765,16.4354571 L31.6609418,16.4354571 L31.6609418,17.0404432 C32.0642659,16.4354571 32.46759,16.233795 33.1734072,16.233795 L33.1734072,17.7462604 C32.165097,17.7462604 31.6609418,18.3512465 31.6609418,19.2587258 L31.6609418,23.0903047 L30.1484765,23.0903047 L30.1484765,23.1911357 Z" id="Shape"></path>
                        <polygon id="Shape" points="36.500831 23.1911357 33.7783934 16.4354571 35.4925208 16.4354571 37.1058172 20.8720222 37.1058172 20.8720222 38.6182825 16.4354571 40.433241 16.4354571 37.7108033 23.1911357"></polygon>
                        <path d="M41.4415512,15.7296399 L41.4415512,14.2171745 L43.0548476,14.2171745 L43.0548476,15.7296399 L41.4415512,15.7296399 Z M41.4415512,23.1911357 L41.4415512,16.4354571 L43.0548476,16.4354571 L43.0548476,23.1911357 L41.4415512,23.1911357 Z" id="Shape"></path>
                        <path d="M51.3229917,21.0736842 C50.7180055,22.5861496 49.5080332,23.4936288 47.9955679,23.4936288 C45.9789474,23.4936288 44.466482,21.8803324 44.466482,19.8637119 C44.466482,17.9479224 46.0797784,16.334626 47.9955679,16.334626 C49.5080332,16.334626 50.8188366,17.2421053 51.3229917,18.7545706 L49.5080332,18.7545706 C49.2055402,18.1495845 48.701385,17.7462604 47.9955679,17.7462604 C46.8864266,17.7462604 46.0797784,18.6537396 46.0797784,19.8637119 C46.0797784,21.0736842 46.9872576,21.9811634 48.0963989,21.9811634 C48.8022161,21.9811634 49.2055402,21.5778393 49.6088643,21.0736842 L51.3229917,21.0736842 Z" id="Shape"></path>
                        <path d="M53.9445983,20.5695291 C54.0454294,21.1745152 54.8520776,21.9811634 55.7595568,21.9811634 C56.465374,21.9811634 56.9695291,21.6786704 57.2720222,21.0736842 L58.9861496,21.0736842 C58.5828255,22.3844875 57.1711911,23.3927978 55.7595568,23.3927978 C53.7429363,23.3927978 52.2304709,21.7795014 52.2304709,19.8637119 C52.2304709,17.9479224 53.7429363,16.233795 55.7595568,16.233795 C57.6753463,16.233795 59.1878116,17.7462604 59.1878116,19.7628809 C59.1878116,20.065374 59.1878116,20.267036 59.0869806,20.5695291 L53.9445983,20.5695291 Z M57.5745152,19.2587258 C57.3728532,18.2504155 56.767867,17.7462604 55.7595568,17.7462604 C54.8520776,17.7462604 54.1462604,18.2504155 53.8437673,19.2587258 L57.5745152,19.2587258 Z" id="Shape"></path>
                        <path d="M63.2210526,18.3512465 C63.1202216,18.0487535 62.9185596,17.7462604 62.6160665,17.7462604 C62.3135734,17.7462604 62.0110803,17.9479224 62.0110803,18.3512465 C62.0110803,18.6537396 62.1119114,18.8554017 63.1202216,19.0570637 C64.733518,19.5612188 65.0360111,20.267036 65.0360111,21.0736842 C65.0360111,22.3844875 64.0277008,23.3927978 62.7168975,23.3927978 C61.5069252,23.3927978 60.2969529,22.6869806 60.1961219,21.0736842 L61.8094183,21.0736842 C61.9102493,21.6786704 62.2127424,21.9811634 62.7168975,21.9811634 C63.1202216,21.9811634 63.4227147,21.6786704 63.4227147,21.2753463 C63.4227147,20.7711911 63.1202216,20.6703601 62.1119114,20.367867 C60.801108,19.9645429 60.3977839,19.1578947 60.3977839,18.3512465 C60.3977839,17.1412742 61.4060942,16.233795 62.6160665,16.233795 C63.7252078,16.233795 64.733518,17.0404432 64.834349,18.2504155 L63.2210526,18.2504155 L63.2210526,18.3512465 Z" id="Shape"></path>
                    </g>
                    <g id="Group" transform="translate(261.152355, 1.922438)">
                        <path d="M3.2265928,4.8398892 L3.2265928,3.32742382 L3.52908587,3.32742382 C4.33573407,3.32742382 4.63822715,2.92409972 4.63822715,2.4199446 C4.63822715,1.91578947 4.33573407,1.6132964 3.83157895,1.6132964 C3.42825485,1.6132964 3.02493075,1.91578947 3.02493075,2.4199446 L1.41163435,2.4199446 C1.51246537,0.907479224 2.62160665,0.100831025 3.83157895,0.100831025 C5.14238227,0.100831025 6.25152355,1.2099723 6.25152355,2.52077562 C6.25152355,3.2265928 6.0498615,3.73074792 5.44487535,4.13407202 C6.35235457,4.53739612 6.8565097,5.34404432 6.8565097,6.4531856 C6.8565097,8.16731302 5.44487535,9.47811634 3.83157895,9.47811634 C2.21828255,9.47811634 0.907479224,8.26814404 0.806648199,6.55401662 L2.4199446,6.55401662 C2.52077562,7.36066482 3.12576177,7.86481994 3.83157895,7.86481994 C4.63822715,7.86481994 5.2432133,7.15900277 5.2432133,6.4531856 C5.2432133,5.54570637 4.63822715,4.94072022 3.42825485,4.94072022 L3.2265928,4.94072022 L3.2265928,4.8398892 Z" id="Shape"></path>
                        <polygon id="Shape" points="8.36897507 9.07479224 8.36897507 7.46149584 9.98227147 7.46149584 9.98227147 9.07479224"></polygon>
                        <path d="M23.9977839,6.65484765 C23.2919668,8.26814404 21.5778393,9.37728532 19.8637119,9.37728532 C17.3429363,9.37728532 15.2254848,7.2598338 15.2254848,4.63822715 C15.2254848,2.11745152 17.3429363,-1.42108547e-14 19.8637119,-1.42108547e-14 C21.6786704,-1.42108547e-14 23.3927978,1.00831025 24.098615,2.72243767 L22.1828255,2.72243767 C21.5778393,2.0166205 20.7711911,1.51246537 19.7628809,1.51246537 C18.1495845,1.51246537 16.8387812,3.02493075 16.8387812,4.63822715 C16.8387812,6.25152355 18.1495845,7.76398892 19.8637119,7.76398892 C20.6703601,7.76398892 21.3761773,7.46149584 22.0819945,6.65484765 L23.9977839,6.65484765 Z" id="Shape"></path>
                        <path d="M25.2077562,9.07479224 L25.2077562,2.31911357 L26.7202216,2.31911357 L26.7202216,2.92409972 C27.1235457,2.31911357 27.5268698,2.11745152 28.232687,2.11745152 L28.232687,3.6299169 C27.2243767,3.6299169 26.7202216,4.23490305 26.7202216,5.14238227 L26.7202216,8.97396122 L25.2077562,8.97396122 L25.2077562,9.07479224 Z" id="Shape"></path>
                        <path d="M30.3501385,6.4531856 C30.4509695,7.05817175 31.2576177,7.86481994 32.165097,7.86481994 C32.8709141,7.86481994 33.3750693,7.56232687 33.6775623,6.95734072 L35.3916898,6.95734072 C34.9883657,8.26814404 33.5767313,9.27645429 32.165097,9.27645429 C30.1484765,9.27645429 28.6360111,7.66315789 28.6360111,5.74736842 C28.6360111,3.83157895 30.1484765,2.11745152 32.165097,2.11745152 C34.0808864,2.11745152 35.5933518,3.6299169 35.5933518,5.6465374 C35.5933518,5.94903047 35.5933518,6.15069252 35.4925208,6.4531856 L30.3501385,6.4531856 Z M33.9800554,5.14238227 C33.7783934,4.13407202 33.1734072,3.6299169 32.165097,3.6299169 C31.2576177,3.6299169 30.5518006,4.13407202 30.2493075,5.14238227 L33.9800554,5.14238227 Z" id="Shape"></path>
                        <path d="M42.1473684,9.07479224 L42.1473684,8.26814404 C41.6432133,8.87313019 40.634903,9.27645429 39.8282548,9.27645429 C37.9124654,9.27645429 36.601662,7.66315789 36.601662,5.6465374 C36.601662,3.73074792 38.0132964,2.11745152 39.9290859,2.11745152 C40.8365651,2.11745152 41.8448753,2.72243767 42.1473684,3.2265928 L42.1473684,2.4199446 L43.6598338,2.4199446 L43.6598338,9.17562327 L42.1473684,9.17562327 L42.1473684,9.07479224 Z M42.1473684,5.74736842 C42.1473684,4.53739612 41.3407202,3.6299169 40.1307479,3.6299169 C39.0216066,3.6299169 38.1141274,4.53739612 38.1141274,5.74736842 C38.1141274,6.8565097 39.0216066,7.86481994 40.1307479,7.86481994 C41.3407202,7.86481994 42.1473684,6.8565097 42.1473684,5.74736842 Z" id="Shape"></path>
                        <polygon id="Shape" points="45.4747922 9.07479224 45.4747922 3.83157895 44.668144 3.83157895 44.668144 2.4199446 45.4747922 2.4199446 45.4747922 0.20166205 47.0880886 0.20166205 47.0880886 2.4199446 48.0963989 2.4199446 48.0963989 3.83157895 47.0880886 3.83157895 47.0880886 9.07479224"></polygon>
                        <path d="M50.4155125,6.4531856 C50.5163435,7.05817175 51.3229917,7.86481994 52.2304709,7.86481994 C52.9362881,7.86481994 53.4404432,7.56232687 53.7429363,6.95734072 L55.4570637,6.95734072 C55.0537396,8.26814404 53.6421053,9.27645429 52.2304709,9.27645429 C50.2138504,9.27645429 48.701385,7.66315789 48.701385,5.74736842 C48.701385,3.83157895 50.2138504,2.11745152 52.2304709,2.11745152 C54.1462604,2.11745152 55.6587258,3.6299169 55.6587258,5.6465374 C55.6587258,5.94903047 55.6587258,6.15069252 55.5578947,6.4531856 L50.4155125,6.4531856 Z M54.0454294,5.14238227 C53.8437673,4.13407202 53.2387812,3.6299169 52.2304709,3.6299169 C51.3229917,3.6299169 50.6171745,4.13407202 50.3146814,5.14238227 L54.0454294,5.14238227 Z" id="Shape"></path>
                        <path d="M60.801108,9.07479224 L60.801108,0.100831025 L63.5235457,0.100831025 C65.5401662,0.100831025 66.5484765,1.31080332 66.5484765,2.8232687 C66.5484765,4.4365651 65.5401662,5.54570637 63.5235457,5.54570637 L62.5152355,5.54570637 L62.5152355,8.97396122 L60.801108,8.97396122 L60.801108,9.07479224 Z M63.0193906,4.13407202 C64.531856,4.13407202 64.834349,3.52908587 64.834349,2.92409972 C64.834349,2.21828255 64.531856,1.71412742 63.0193906,1.71412742 L62.5152355,1.71412742 L62.5152355,4.13407202 L63.0193906,4.13407202 Z" id="Shape"></path>
                        <path d="M67.2542936,5.74736842 C67.2542936,3.83157895 68.766759,2.11745152 70.7833795,2.11745152 C72.8,2.11745152 74.3124654,3.73074792 74.3124654,5.6465374 C74.3124654,7.66315789 72.8,9.27645429 70.7833795,9.27645429 C68.86759,9.27645429 67.2542936,7.66315789 67.2542936,5.74736842 Z M72.8,5.74736842 C72.8,4.63822715 71.9933518,3.6299169 70.8842105,3.6299169 C69.7750693,3.6299169 68.9684211,4.63822715 68.9684211,5.74736842 C68.9684211,6.8565097 69.7750693,7.86481994 70.9850416,7.86481994 C71.9933518,7.86481994 72.8,6.8565097 72.8,5.74736842 Z" id="Shape"></path>
                        <path d="M78.2448753,4.23490305 C78.1440443,3.93240997 77.9423823,3.6299169 77.6398892,3.6299169 C77.3373961,3.6299169 77.034903,3.83157895 77.034903,4.23490305 C77.034903,4.53739612 77.1357341,4.73905817 78.1440443,4.94072022 C79.7573407,5.44487535 80.0598338,6.15069252 80.0598338,6.95734072 C80.0598338,8.26814404 79.0515235,9.27645429 77.7407202,9.27645429 C76.5307479,9.27645429 75.3207756,8.57063712 75.2199446,6.95734072 L76.833241,6.95734072 C76.934072,7.56232687 77.2365651,7.86481994 77.7407202,7.86481994 C78.1440443,7.86481994 78.4465374,7.56232687 78.4465374,7.15900277 C78.4465374,6.65484765 78.1440443,6.55401662 77.1357341,6.25152355 C75.8249307,5.84819945 75.4216066,5.04155125 75.4216066,4.23490305 C75.4216066,3.02493075 76.4299169,2.11745152 77.6398892,2.11745152 C78.7490305,2.11745152 79.7573407,2.92409972 79.8581717,4.13407202 L78.2448753,4.13407202 L78.2448753,4.23490305 Z" id="Shape"></path>
                        <polygon id="Shape" points="81.5722992 9.07479224 81.5722992 3.83157895 80.765651 3.83157895 80.765651 2.4199446 81.5722992 2.4199446 81.5722992 0.20166205 83.1855956 0.20166205 83.1855956 2.4199446 84.1939058 2.4199446 84.1939058 3.83157895 83.1855956 3.83157895 83.1855956 9.07479224"></polygon>
                        <path d="M85.000554,1.6132964 L85.000554,0.100831025 L86.6138504,0.100831025 L86.6138504,1.6132964 L85.000554,1.6132964 Z M85.000554,9.07479224 L85.000554,2.31911357 L86.6138504,2.31911357 L86.6138504,9.07479224 L85.000554,9.07479224 Z" id="Shape"></path>
                        <path d="M92.5628809,9.07479224 L92.5628809,5.74736842 C92.5628809,4.33573407 92.1595568,3.6299169 91.2520776,3.6299169 C90.7479224,3.6299169 89.8404432,3.93240997 89.8404432,5.44487535 L89.8404432,9.07479224 L88.2271468,9.07479224 L88.2271468,2.31911357 L89.7396122,2.31911357 L89.7396122,2.92409972 C90.2437673,2.4199446 90.8487535,2.11745152 91.5545706,2.11745152 C92.4620499,2.11745152 94.1761773,2.62160665 94.1761773,5.14238227 L94.1761773,9.07479224 L92.5628809,9.07479224 Z" id="Shape"></path>
                        <path d="M101.032687,8.26814404 C100.528532,9.07479224 99.7218837,9.37728532 98.8144044,9.37728532 C97.100277,9.37728532 95.3861496,7.86481994 95.3861496,5.74736842 C95.3861496,3.83157895 96.898615,2.21828255 98.8144044,2.21828255 C99.7218837,2.21828255 100.427701,2.52077562 100.931856,3.2265928 L100.931856,2.4199446 L102.444321,2.4199446 L102.444321,8.06648199 C102.444321,10.4864266 100.730194,11.8980609 98.8144044,11.8980609 C97.3019391,11.8980609 95.9911357,10.9905817 95.4869806,9.67977839 L97.3019391,9.67977839 C97.7052632,10.1839335 98.3102493,10.3855956 98.9152355,10.3855956 C100.125208,10.3855956 101.032687,9.57894737 101.032687,8.26814404 Z M100.931856,5.6465374 C100.931856,4.63822715 100.024377,3.6299169 98.9152355,3.6299169 C97.9069252,3.6299169 96.999446,4.53739612 96.999446,5.6465374 C96.999446,6.75567867 97.8060942,7.76398892 99.0160665,7.76398892 C100.125208,7.86481994 100.931856,6.8565097 100.931856,5.6465374 Z" id="Shape"></path>
                    </g>
                </g>
                <g id="Find-the-Right-Agent-Steps-08" opacity="0.65" transform="translate(4.000000, 0.000000)">
                    <g id="Group" transform="translate(0.025001, 1.011151)">
                        <circle id="Oval" stroke="#025680" stroke-width="2.7" fill="#8DD4F6" fill-rule="nonzero" cx="45.9062354" cy="45.5017752" r="45.5017752"></circle>
                        <path d="M76.5440974,55.4110507 L15.2683735,55.4110507 C9.70704537,55.4110507 5.25798291,50.9619882 5.25798291,45.4006601 C5.25798291,39.8393321 9.70704537,35.3902696 15.2683735,35.3902696 L76.5440974,35.3902696 C82.1054255,35.3902696 86.5544879,39.8393321 86.5544879,45.4006601 C86.655603,50.9619882 82.1054255,55.4110507 76.5440974,55.4110507 Z" id="Shape" stroke="#7C7C7C" stroke-width="1.125" fill="#D8D8D8" fill-rule="nonzero" stroke-linecap="round" stroke-linejoin="round"></path>
                        <path d="M19.0096305,45.4006601 L74.4206812,45.4006601" id="Shape" stroke="#7C7C7C" stroke-width="1.6875"></path>
                        <path d="M55.916626,69.4660435 L55.916626,54.8043603 C55.916626,54.8043603 55.916626,51.8720237 57.837812,51.8720237 C59.7589981,51.8720237 59.7589981,54.8043603 59.7589981,54.8043603 L59.7589981,63.6013702 L69.3649284,68.8593531 C70.2749639,69.3649284 70.9827693,70.2749639 71.0838844,71.3872295 C71.1849994,71.9939199 71.1849994,72.7017253 71.0838844,73.5106457 C70.6794241,76.1396372 69.9716187,80.3864695 69.9716187,80.3864695 L55.2088206,80.3864695 L48.0296516,68.4548929 C48.0296516,68.4548929 47.5240763,66.0281316 49.9508377,66.1292466 C52.2764839,66.2303617 55.916626,69.4660435 55.916626,69.4660435 Z" id="Shape" stroke="#AA892F" stroke-width="1.125" fill="#FEC30E" fill-rule="nonzero" stroke-linecap="round" stroke-linejoin="round"></path>
                        <path d="M53.3887496,90.3968601 C60.1634583,89.2845944 66.5337068,86.655603 71.8928048,82.8132309 L71.8928048,80.3864695 L53.3887496,80.3864695 L53.3887496,90.3968601 Z" id="Shape" stroke="#025680" stroke-width="1.125" fill="#1884C6" fill-rule="nonzero" stroke-linecap="round" stroke-linejoin="round"></path>
                        <g transform="translate(11.122656, 38.423721)" fill-rule="nonzero">
                            <circle id="Oval" stroke="#AA892F" stroke-width="1.125" fill="#FFDA72" stroke-linecap="round" stroke-linejoin="round" cx="7.28028403" cy="6.97693886" r="6.97693886"></circle>
                            <path d="M6.57247864,11.9315766 L6.57247864,10.819311 C5.25798291,10.6170809 4.75240763,9.60593032 4.75240763,8.59477976 L6.6735937,8.59477976 C6.6735937,9.10035504 6.97693886,9.40370021 7.38139909,9.40370021 C7.68474426,9.40370021 7.98808942,9.10035504 7.98808942,8.69589481 C7.98808942,8.19031953 7.68474426,7.98808942 6.77470875,7.68474426 C5.0557528,7.07805392 4.85352269,6.26913347 4.85352269,5.35909797 C4.85352269,4.24683235 5.46021302,3.4379119 6.6735937,3.13456674 L6.6735937,2.02230112 L8.08920448,2.02230112 L8.08920448,3.13456674 C8.99923998,3.33679685 9.60593032,4.1457173 9.60593032,5.25798291 L7.88697437,5.25798291 C7.88697437,4.85352269 7.68474426,4.55017752 7.28028403,4.55017752 C6.97693886,4.55017752 6.6735937,4.85352269 6.6735937,5.15686786 C6.6735937,5.66244314 7.07805392,5.9657883 7.88697437,6.16801842 C9.20147009,6.57247864 9.80816043,7.48251414 9.80816043,8.39254965 C9.80816043,9.40370021 9.10035504,10.3137357 8.08920448,10.6170809 L8.08920448,11.8304616 L6.57247864,11.8304616 L6.57247864,11.9315766 Z" id="Shape" fill="#AA892F"></path>
                        </g>
                        <circle id="Oval" stroke="#7C7C7C" stroke-width="1.125" fill="#7C7C7C" fill-rule="nonzero" cx="46.917386" cy="45.4006601" r="4.95463774"></circle>
                        <g transform="translate(42.468324, 41.457173)" fill="#D8D8D8" fill-rule="nonzero" id="Shape">
                            <polygon points="5.25798291 6.87582381 8.29143459 3.84237213 5.25798291 0.808920448"></polygon>
                            <polygon points="3.64014202 6.87582381 0.606690336 3.84237213 3.64014202 0.808920448"></polygon>
                        </g>
                        <g transform="translate(65.724786, 37.412571)" fill-rule="nonzero">
                            <g>
                                <circle id="Oval" stroke="#025680" stroke-width="1.125" fill="#8DD4F6" stroke-linecap="round" stroke-linejoin="round" cx="7.78585931" cy="7.78585931" r="6.97693886"></circle>
                                <path d="M9.40370021,3.53902696 C9.40370021,3.4379119 9.30258515,3.4379119 9.30258515,3.4379119 L8.39254965,3.33679685 L7.98808942,2.42676134 C7.98808942,2.42676134 7.88697437,2.32564629 7.88697437,2.32564629 C7.78585931,2.32564629 7.78585931,2.32564629 7.78585931,2.42676134 L7.38139909,3.33679685 L6.47136358,3.4379119 C6.37024853,3.4379119 6.37024853,3.4379119 6.37024853,3.53902696 C6.37024853,3.64014202 6.37024853,3.64014202 6.37024853,3.64014202 L7.17916898,4.24683235 L6.87582381,5.15686786 C6.87582381,5.25798291 6.87582381,5.25798291 6.97693886,5.35909797 C6.97693886,5.35909797 7.07805392,5.35909797 7.17916898,5.35909797 L7.98808942,4.85352269 L8.79700987,5.35909797 C8.79700987,5.35909797 8.79700987,5.35909797 8.89812493,5.35909797 C8.89812493,5.35909797 8.99923998,5.35909797 8.99923998,5.35909797 C8.99923998,5.35909797 9.10035504,5.25798291 9.10035504,5.15686786 L8.79700987,4.24683235 L9.60593032,3.64014202 C9.40370021,3.64014202 9.40370021,3.64014202 9.40370021,3.53902696 Z" id="Shape" fill="#025680"></path>
                                <path d="M12.8416121,5.46021302 C12.8416121,5.35909797 12.7404971,5.35909797 12.7404971,5.35909797 L11.8304616,5.25798291 L11.4260013,4.34794741 C11.4260013,4.34794741 11.3248863,4.24683235 11.3248863,4.24683235 C11.2237712,4.24683235 11.2237712,4.24683235 11.2237712,4.34794741 L10.819311,5.25798291 L9.90927549,5.35909797 C9.80816043,5.35909797 9.80816043,5.35909797 9.80816043,5.46021302 C9.80816043,5.56132808 9.80816043,5.56132808 9.80816043,5.56132808 L10.6170809,6.16801842 L10.3137357,7.07805392 C10.3137357,7.17916898 10.3137357,7.17916898 10.4148508,7.28028403 C10.4148508,7.28028403 10.5159658,7.28028403 10.6170809,7.28028403 L11.4260013,6.77470875 L12.2349218,7.28028403 C12.2349218,7.28028403 12.2349218,7.28028403 12.3360368,7.28028403 C12.3360368,7.28028403 12.4371519,7.28028403 12.4371519,7.28028403 C12.4371519,7.28028403 12.5382669,7.17916898 12.5382669,7.07805392 L12.2349218,6.16801842 L13.0438422,5.56132808 C12.8416121,5.56132808 12.8416121,5.56132808 12.8416121,5.46021302 Z" id="Shape" fill="#025680"></path>
                                <path d="M5.86467325,5.46021302 C5.86467325,5.35909797 5.76355819,5.35909797 5.76355819,5.35909797 L4.85352269,5.25798291 L4.44906246,4.34794741 C4.44906246,4.34794741 4.34794741,4.24683235 4.34794741,4.24683235 C4.34794741,4.24683235 4.24683235,4.24683235 4.24683235,4.34794741 L3.84237213,5.25798291 L2.93233662,5.35909797 C2.83122157,5.35909797 2.83122157,5.35909797 2.83122157,5.46021302 C2.83122157,5.56132808 2.83122157,5.56132808 2.83122157,5.56132808 L3.64014202,6.16801842 L3.33679685,7.07805392 C3.33679685,7.17916898 3.33679685,7.17916898 3.4379119,7.28028403 C3.4379119,7.28028403 3.53902696,7.28028403 3.64014202,7.28028403 L4.44906246,6.77470875 L5.25798291,7.28028403 C5.25798291,7.28028403 5.25798291,7.28028403 5.35909797,7.28028403 C5.35909797,7.28028403 5.46021302,7.28028403 5.46021302,7.28028403 C5.46021302,7.28028403 5.56132808,7.17916898 5.56132808,7.07805392 L5.0557528,6.26913347 L5.86467325,5.66244314 C5.86467325,5.56132808 5.86467325,5.56132808 5.86467325,5.46021302 Z" id="Shape" fill="#025680"></path>
                                <path d="M10.920426,11.7293465 C10.4148508,11.3248863 9.80816043,11.1226562 9.20147009,11.1226562 L6.16801842,11.1226562 C5.56132808,11.1226562 4.95463774,11.3248863 4.44906246,11.7293465 C4.1457173,12.0326917 3.84237213,12.4371519 3.74125707,13.0438422 L3.74125707,13.4483024 C4.75240763,14.459453 6.16801842,15.0661433 7.68474426,15.0661433 C9.20147009,15.0661433 10.6170809,14.459453 11.6282314,13.4483024 L11.6282314,13.0438422 C11.5271164,12.4371519 11.2237712,12.0326917 10.920426,11.7293465 Z" id="Shape" fill="#025680"></path>
                                <circle id="Oval" fill="#025680" cx="7.78585931" cy="8.59477976" r="2.12341618"></circle>
                            </g>
                            <polyline id="Shape" fill="#8DD4F6" points="7.48251414 11.6282314 7.17916898 13.7516476 7.78585931 14.358338 8.39254965 13.7516476 8.08920448 11.6282314"></polyline>
                            <rect id="Rectangle-path" fill="#8DD4F6" x="7.38139909" y="11.1226562" width="1" height="1"></rect>
                        </g>
                    </g>
                    <g id="Group" transform="translate(132.485724, 1.011151)">
                        <circle id="Oval" stroke="#025680" stroke-width="2.7" fill="#8DD4F6" fill-rule="nonzero" cx="46.2095806" cy="45.5017752" r="45.5017752"></circle>
                        <path d="M66.2303617,76.0385221 L26.7954898,76.0385221 C25.0765339,76.0385221 23.7620382,74.7240264 23.7620382,73.0050704 L23.7620382,20.5263564 C23.7620382,18.8074004 25.0765339,17.4929047 26.7954898,17.4929047 L66.2303617,17.4929047 C67.9493176,17.4929047 69.2638134,18.8074004 69.2638134,20.5263564 L69.2638134,73.0050704 C69.2638134,74.6229113 67.9493176,76.0385221 66.2303617,76.0385221 Z" id="Shape" stroke="#025680" stroke-width="1.1107" fill="#1884C6" fill-rule="nonzero" stroke-linecap="round" stroke-linejoin="round"></path>
                        <path d="M62.7924498,72.19615 L30.2334017,72.19615 C28.5144458,72.19615 27.1999501,70.8816542 27.1999501,69.1626983 L27.1999501,24.2676134 C27.1999501,22.5486575 28.5144458,21.2341618 30.2334017,21.2341618 L62.7924498,21.2341618 C64.5114057,21.2341618 65.8259014,22.5486575 65.8259014,24.2676134 L65.8259014,69.1626983 C65.8259014,70.8816542 64.5114057,72.19615 62.7924498,72.19615 Z" id="Shape" stroke="#025680" stroke-width="1.1107" fill="#FFDA72" fill-rule="nonzero" stroke-linecap="round" stroke-linejoin="round"></path>
                        <rect id="Rectangle-path" stroke="#7C7C7C" stroke-width="1.125" fill="#D8D8D8" fill-rule="nonzero" stroke-linecap="round" stroke-linejoin="round" x="31.0423222" y="28.3122157" width="9.70704537" height="9.70704537"></rect>
                        <path d="M44.0861644,28.817791 L61.9835293,28.817791" id="Shape" stroke="#7C7C7C" stroke-width="1.125" stroke-linecap="round" stroke-linejoin="round"></path>
                        <path d="M44.0861644,32.1545878 L61.9835293,32.1545878" id="Shape" stroke="#7C7C7C" stroke-width="1.125" stroke-linecap="round" stroke-linejoin="round"></path>
                        <rect id="Rectangle-path" stroke="#025680" stroke-width="1.125" fill="#1884C6" fill-rule="nonzero" stroke-linecap="round" stroke-linejoin="round" x="31.0423222" y="42.9738988" width="9.70704537" height="9.70704537"></rect>
                        <path d="M44.0861644,43.4794741 L61.9835293,43.4794741" id="Shape" stroke="#025680" stroke-width="1.125" stroke-linecap="round" stroke-linejoin="round"></path>
                        <path d="M44.0861644,46.7151559 L61.9835293,46.7151559" id="Shape" stroke="#025680" stroke-width="1.125" stroke-linecap="round" stroke-linejoin="round"></path>
                        <path d="M44.0861644,58.1411572 L61.9835293,58.1411572" id="Shape" stroke="#7C7C7C" stroke-width="1.125" stroke-linecap="round" stroke-linejoin="round"></path>
                        <path d="M44.0861644,61.376839 L61.9835293,61.376839" id="Shape" stroke="#7C7C7C" stroke-width="1.125" stroke-linecap="round" stroke-linejoin="round"></path>
                        <rect id="Rectangle-path" stroke="#7C7C7C" stroke-width="1.125" fill="#D8D8D8" fill-rule="nonzero" stroke-linecap="round" stroke-linejoin="round" x="31.0423222" y="57.5344669" width="9.70704537" height="9.70704537"></rect>
                        <polyline id="Shape" stroke="#FFC300" stroke-width="1.125" stroke-linecap="round" stroke-linejoin="round" points="33.1657384 47.8274215 35.4913847 49.6474925 38.8281815 45.4006601"></polyline>
                        <path d="M50.0519527,14.9650283 C50.0519527,14.9650283 50.0519527,14.8639132 50.0519527,14.8639132 C50.0519527,12.639382 48.3329968,10.819311 46.2095806,10.819311 C44.0861644,10.819311 42.3672085,12.639382 42.3672085,14.8639132 C42.3672085,14.8639132 42.3672085,14.9650283 42.3672085,14.9650283 L34.7835793,14.9650283 C34.1768889,14.9650283 33.6713136,15.4706036 33.6713136,16.0772939 L33.6713136,19.5152058 C33.6713136,20.1218961 34.1768889,20.6274714 34.7835793,20.6274714 L57.6355819,20.6274714 C58.2422722,20.6274714 58.7478475,20.1218961 58.7478475,19.5152058 L58.7478475,16.178409 C58.7478475,15.5717186 58.2422722,15.0661433 57.6355819,15.0661433 L50.0519527,15.0661433 L50.0519527,14.9650283 Z" id="Shape" fill="#025680" fill-rule="nonzero"></path>
                        <circle id="Oval" fill="#8DD4F6" fill-rule="nonzero" cx="46.2095806" cy="14.6616831" r="1.6178409"></circle>
                        <path d="M57.5344669,20.7285865 C58.1411572,20.7285865 58.6467325,20.2230112 58.6467325,19.6163209 L58.6467325,18.6051703 L33.7724287,18.6051703 L33.7724287,19.6163209 C33.7724287,20.2230112 34.278004,20.7285865 34.8846943,20.7285865" id="Shape" fill="#8DD4F6" fill-rule="nonzero"></path>
                    </g>
                    <circle id="Oval" stroke="#025680" stroke-width="2.7" fill="#8DD4F6" fill-rule="nonzero" cx="310.852683" cy="45.8051204" r="44.8950849"></circle>
                    <path d="M330.570119,75.937407 L291.741937,75.937407 C290.022982,75.937407 288.708486,74.6229113 288.708486,72.9039554 L288.708486,21.2341618 C288.708486,19.5152058 290.022982,18.2007101 291.741937,18.2007101 L330.570119,18.2007101 C332.289075,18.2007101 333.603571,19.5152058 333.603571,21.2341618 L333.603571,72.9039554 C333.603571,74.5217963 332.289075,75.937407 330.570119,75.937407 Z" id="Shape" stroke="#025680" stroke-width="1.1107" fill="#1884C6" fill-rule="nonzero" stroke-linecap="round" stroke-linejoin="round"></path>
                    <path d="M327.233322,72.19615 L295.179849,72.19615 C293.460893,72.19615 292.146398,70.8816542 292.146398,69.1626983 L292.146398,24.9754188 C292.146398,23.2564629 293.460893,21.9419671 295.179849,21.9419671 L327.233322,21.9419671 C328.952278,21.9419671 330.266774,23.2564629 330.266774,24.9754188 L330.266774,69.1626983 C330.266774,70.7805392 328.851163,72.19615 327.233322,72.19615 Z" id="Shape" stroke="#025680" stroke-width="1.1107" fill="#FFDA72" fill-rule="nonzero" stroke-linecap="round" stroke-linejoin="round"></path>
                    <path d="M314.59394,15.6728337 C314.59394,15.6728337 314.59394,15.5717186 314.59394,15.5717186 C314.59394,13.3471874 312.874984,11.6282314 310.852683,11.6282314 C308.830382,11.6282314 307.111426,13.4483024 307.111426,15.5717186 C307.111426,15.5717186 307.111426,15.6728337 307.111426,15.6728337 L299.628912,15.6728337 C299.022222,15.6728337 298.516646,16.178409 298.516646,16.7850993 L298.516646,20.2230112 C298.516646,20.8297015 299.022222,21.3352768 299.628912,21.3352768 L322.076454,21.3352768 C322.683145,21.3352768 323.18872,20.8297015 323.18872,20.2230112 L323.18872,16.7850993 C323.18872,16.178409 322.683145,15.6728337 322.076454,15.6728337 L314.59394,15.6728337 Z" id="Shape" fill="#025680" fill-rule="nonzero"></path>
                    <circle id="Oval" fill="#8DD4F6" fill-rule="nonzero" cx="310.852683" cy="15.3694885" r="1.6178409"></circle>
                    <path d="M323.18872,19.2118606 L298.617761,19.2118606 L298.617761,19.3129757 C298.617761,20.4252413 299.527797,21.3352768 300.640062,21.3352768 L321.166419,21.3352768 C322.278684,21.3352768 323.18872,20.4252413 323.18872,19.3129757 L323.18872,19.2118606 Z" id="Shape" fill="#8DD4F6" fill-rule="nonzero"></path>
                    <rect id="Rectangle-path" stroke="#025680" stroke-width="1.1107" fill="#1884C6" fill-rule="nonzero" stroke-linecap="round" stroke-linejoin="round" x="295.887655" y="28.817791" width="9.60593032" height="9.60593032"></rect>
                    <path d="M308.729267,29.4244813 L326.424402,29.4244813" id="Shape" stroke="#025680" stroke-width="1.1107" stroke-linecap="round" stroke-linejoin="round"></path>
                    <path d="M308.729267,32.559048 L326.424402,32.559048" id="Shape" stroke="#025680" stroke-width="1.1107" stroke-linecap="round" stroke-linejoin="round"></path>
                    <rect id="Rectangle-path" stroke="#025680" stroke-width="1.1107" fill="#1884C6" fill-rule="nonzero" stroke-linecap="round" stroke-linejoin="round" x="295.887655" y="43.277244" width="9.60593032" height="9.60593032"></rect>
                    <path d="M308.729267,43.7828192 L326.424402,43.7828192" id="Shape" stroke="#025680" stroke-width="1.1107" stroke-linecap="round" stroke-linejoin="round"></path>
                    <path d="M308.729267,47.018501 L326.424402,47.018501" id="Shape" stroke="#025680" stroke-width="1.1107" stroke-linecap="round" stroke-linejoin="round"></path>
                    <path d="M308.729267,58.2422722 L326.424402,58.2422722" id="Shape" stroke="#025680" stroke-width="1.1107" stroke-linecap="round" stroke-linejoin="round"></path>
                    <path d="M308.729267,61.477954 L326.424402,61.477954" id="Shape" stroke="#025680" stroke-width="1.1107" stroke-linecap="round" stroke-linejoin="round"></path>
                    <rect id="Rectangle-path" stroke="#025680" stroke-width="1.1107" fill="#1884C6" fill-rule="nonzero" stroke-linecap="round" stroke-linejoin="round" x="295.887655" y="57.736697" width="9.60593032" height="9.60593032"></rect>
                    <polyline id="Shape" stroke="#FFC300" stroke-width="1.1107" stroke-linecap="round" stroke-linejoin="round" points="297.909956 48.0296516 300.235602 49.9508377 303.572399 45.7040053"></polyline>
                    <polyline id="Shape" stroke="#FFC300" stroke-width="1.1107" stroke-linecap="round" stroke-linejoin="round" points="297.909956 33.8735438 300.235602 35.7947298 303.572399 31.5478975"></polyline>
                    <polyline id="Shape" stroke="#FFC300" stroke-width="1.1107" stroke-linecap="round" stroke-linejoin="round" points="297.909956 62.7924498 300.235602 64.7136358 303.572399 60.4668035"></polyline>
                    <polyline id="Shape" stroke="#025680" stroke-width="2.7" stroke-linecap="round" stroke-linejoin="round" points="107.611421 37.1092255 117.015121 46.5129258 107.611421 55.916626"></polyline>
                    <polyline id="Shape" stroke="#025680" stroke-width="2.7" stroke-linecap="round" stroke-linejoin="round" points="240.375489 37.1092255 249.779189 46.5129258 240.375489 55.916626"></polyline>
                </g>
            </g>
        </g>
    </g>
</svg>