<?xml version="1.0" encoding="UTF-8"?>
<svg width="140px" height="182px" viewBox="0 0 140 182" version="1.1" xmlns="http://www.w3.org/2000/svg" xmlns:xlink="http://www.w3.org/1999/xlink">
    <!-- Generator: Sketch 51.3 (57544) - http://www.bohemiancoding.com/sketch -->
    <title>Group 14</title>
    <desc>Created with Sketch.</desc>
    <defs>
        <circle id="path-1" cx="70" cy="70" r="55"></circle>
        <filter x="-13.9%" y="-10.2%" width="127.7%" height="127.7%" filterUnits="objectBoundingBox" id="filter-2">
            <feMorphology radius="1.75" operator="dilate" in="SourceAlpha" result="shadowSpreadOuter1"></feMorphology>
            <feOffset dx="0" dy="4" in="shadowSpreadOuter1" result="shadowOffsetOuter1"></feOffset>
            <feGaussianBlur stdDeviation="3.5" in="shadowOffsetOuter1" result="shadowBlurOuter1"></feGaussianBlur>
            <feComposite in="shadowBlurOuter1" in2="SourceAlpha" operator="out" result="shadowBlurOuter1"></feComposite>
            <feColorMatrix values="0 0 0 0 0   0 0 0 0 0   0 0 0 0 0  0 0 0 0.2 0" type="matrix" in="shadowBlurOuter1"></feColorMatrix>
        </filter>
        <rect id="path-3" x="24" y="145" width="92" height="25" rx="4"></rect>
        <filter x="-15.2%" y="-40.0%" width="130.4%" height="212.0%" filterUnits="objectBoundingBox" id="filter-4">
            <feMorphology radius="0.5" operator="dilate" in="SourceAlpha" result="shadowSpreadOuter1"></feMorphology>
            <feOffset dx="0" dy="4" in="shadowSpreadOuter1" result="shadowOffsetOuter1"></feOffset>
            <feGaussianBlur stdDeviation="3.5" in="shadowOffsetOuter1" result="shadowBlurOuter1"></feGaussianBlur>
            <feComposite in="shadowBlurOuter1" in2="SourceAlpha" operator="out" result="shadowBlurOuter1"></feComposite>
            <feColorMatrix values="0 0 0 0 0   0 0 0 0 0   0 0 0 0 0  0 0 0 0.2 0" type="matrix" in="shadowBlurOuter1"></feColorMatrix>
        </filter>
    </defs>
    <g id="Page-3" stroke="none" stroke-width="1" fill="none" fill-rule="evenodd">
        <g id="Group-14">
            <circle id="Oval-9-Copy-4" fill="#FFFFFF" cx="70" cy="70" r="70"></circle>
            <g id="Oval-Copy-3" fill-rule="nonzero">
                <use fill="black" fill-opacity="1" filter="url(#filter-2)" xlink:href="#path-1"></use>
                <use stroke="#FFC300" stroke-width="2.5" fill="#FFFFFF" xlink:href="#path-1"></use>
            </g>
            <path d="M31.5,95.762 L108.5,95.762" id="Shape"></path>
            <path d="M48.0308,100.525 C48.0154,100.481 47.9978,100.4392 47.9846,100.3908 C47.8812,100.107 47.7558,99.8276 47.6128,99.5658 C47.5974,99.535 47.5798,99.5152 47.5666,99.4888 C47.4148,99.227 47.2454,98.974 47.054,98.7364 C47.0452,98.7232 47.0364,98.7056 47.0276,98.6924 C46.8318,98.4636 46.6162,98.2414 46.3918,98.039 C46.3566,98.0038 46.328,97.9884 46.2972,97.9532 C46.0706,97.764 45.833,97.5924 45.5844,97.4428 C45.5404,97.412 45.4986,97.3922 45.4524,97.3658 C45.2016,97.2162 44.9398,97.0864 44.6604,96.9786 C44.6142,96.9566 44.5702,96.939 44.524,96.928 C44.2424,96.8246 43.9498,96.7388 43.6484,96.6838 C43.611,96.675 43.5758,96.6706 43.5406,96.6662 C43.2194,96.6112 42.8894,96.576 42.5572,96.576 C40.366,96.576 38.3882,97.7926 37.396,99.755 C37.2838,99.975 37.0858,100.1378 36.8504,100.206 C36.7338,100.2412 36.615,100.25 36.494,100.2324 C36.3708,100.2148 36.2586,100.1774 36.1508,100.1114 C35.7284,99.8584 35.2774,99.7286 34.811,99.7286 C33.6714,99.7286 32.7012,100.459 32.336,101.4732 L48.2684,101.4732 C48.2662,101.4468 48.2596,101.427 48.2552,101.4006 C48.198,101.1014 48.1254,100.8088 48.0308,100.525 Z" id="Shape" fill="#FEC30E" fill-rule="nonzero"></path>
            <path d="M105.1318,98.5648 C105.101,98.5692 105.0724,98.5736 105.0416,98.578 L104.8964,98.5956 C104.54,98.6264 104.199,98.4416 104.0274,98.1182 C103.4136,96.9192 102.4764,95.9622 101.3632,95.3132 C101.3434,95.3044 101.3236,95.3 101.3082,95.2912 C100.5294,94.8402 99.6714,94.552 98.798,94.431 C98.501,94.387 98.2018,94.3716 97.9004,94.3716 C95.3748,94.3716 93.0494,95.751 91.8394,97.9774 C91.6172,98.3822 91.1332,98.5538 90.7064,98.369 C90.152,98.1292 89.5668,98.0038 88.975,98.0038 C88.6912,98.0038 88.4162,98.039 88.1478,98.0896 C88.0598,98.1028 87.9762,98.1358 87.8904,98.1578 C87.7144,98.2018 87.5406,98.2524 87.3734,98.3162 C87.2788,98.3558 87.1886,98.402 87.094,98.446 C86.951,98.5186 86.8014,98.5956 86.6694,98.6814 C86.5792,98.7364 86.4934,98.798 86.4076,98.8618 C86.2778,98.9564 86.159,99.0598 86.0424,99.1632 C85.9632,99.2358 85.8884,99.3084 85.8136,99.3876 C85.7014,99.513 85.6002,99.6318 85.5034,99.7616 C85.444,99.843 85.3758,99.9244 85.3208,100.0102 C85.2262,100.1598 85.1448,100.316 85.07,100.4744 C85.0282,100.5558 84.9842,100.6284 84.949,100.7098 C84.8478,100.954 84.7664,101.2092 84.7136,101.4754 L107.8224,101.4754 C107.8312,101.4028 107.8356,101.339 107.8356,101.2642 C107.829,99.777 106.6212,98.5648 105.1318,98.5648 Z" id="Shape" fill="#FEC30E" fill-rule="nonzero"></path>
            <g id="Group" transform="translate(45.800000, 83.200000)" fill="#FEC30E" fill-rule="nonzero">
                <rect id="Rectangle-path" x="0.3432" y="1.6192" width="3.7334" height="4.5672"></rect>
                <rect id="Rectangle-path" x="5.8476" y="1.6192" width="3.7334" height="4.5672"></rect>
                <rect id="Rectangle-path" x="36.5662" y="1.6192" width="3.7334" height="4.5672"></rect>
                <rect id="Rectangle-path" x="42.0684" y="1.6192" width="3.7356" height="4.5672"></rect>
                <rect id="Rectangle-path" x="18.4558" y="1.6192" width="3.7334" height="4.5672"></rect>
                <rect id="Rectangle-path" x="23.9602" y="1.6192" width="3.7334" height="4.5672"></rect>
            </g>
            <path d="M85.015,97.6892 C85.0766,97.6386 85.147,97.5858 85.2108,97.5352 C85.2944,97.4714 85.3736,97.4054 85.4638,97.346 C85.532,97.2998 85.6002,97.2514 85.675,97.2096 C85.763,97.1546 85.851,97.093 85.9434,97.0468 C86.0182,97.0006 86.0908,96.9654 86.17,96.9214 C86.2646,96.8752 86.3592,96.8268 86.4582,96.785 C86.5308,96.7498 86.6078,96.719 86.687,96.6816 C86.7904,96.6398 86.896,96.6046 86.9994,96.5694 C87.0808,96.5408 87.1512,96.5144 87.2304,96.4924 C87.3426,96.455 87.4592,96.4352 87.5648,96.4066 C87.6374,96.3846 87.7122,96.3648 87.7936,96.3538 C87.9256,96.3296 88.0488,96.312 88.183,96.301 C88.2468,96.2878 88.3172,96.2768 88.381,96.268 C88.579,96.2504 88.7814,96.235 88.9772,96.235 C89.558,96.235 90.1234,96.3164 90.6734,96.4748 C92.275,94.0658 94.9744,92.6006 97.896,92.6006 C98.2172,92.6006 98.5406,92.6292 98.8596,92.6622 C98.9784,92.6732 99.0972,92.6908 99.216,92.7084 C99.403,92.7436 99.5878,92.7744 99.7726,92.8206 C100.1026,92.8932 100.4304,92.9878 100.7472,93.1 C100.7846,93.1132 100.8132,93.122 100.8506,93.1374 L100.8506,68.8868 L80.2256,79.3104 L80.2212,79.3104 C80.1046,79.361 79.9836,79.3918 79.8604,79.4006 C79.8472,79.4006 79.8384,79.405 79.8208,79.405 C79.8142,79.405 79.8076,79.405 79.7988,79.4006 C79.7526,79.4006 79.7086,79.3918 79.6624,79.383 C79.6294,79.3786 79.603,79.3698 79.5722,79.361 C79.4952,79.3434 79.427,79.3148 79.3522,79.2708 C79.0904,79.1124 78.932,78.8286 78.932,78.514 L78.932,68.8802 L58.307,79.2994 C58.186,79.3588 58.065,79.3808 57.9374,79.3896 C57.9242,79.3896 57.9132,79.394 57.9044,79.394 C57.8978,79.394 57.8912,79.3896 57.8824,79.3896 C57.8362,79.3896 57.7922,79.3808 57.746,79.372 C57.713,79.3676 57.6822,79.3632 57.6558,79.3544 C57.5788,79.3368 57.5084,79.3038 57.4358,79.2642 C57.174,79.1014 57.0156,78.8176 57.0156,78.5074 L57.0156,68.922 L47.6876,73.6366 L36.8724,79.1014 L36.8724,97.3548 C37.0484,97.1524 37.2376,96.9632 37.4334,96.7828 C37.4378,96.7784 37.4422,96.774 37.4466,96.7696 C37.6578,96.5804 37.8778,96.4044 38.1066,96.2372 C38.1836,96.1822 38.2628,96.1338 38.3376,96.0832 C38.5004,95.971 38.661,95.8676 38.837,95.773 C38.9316,95.718 39.0306,95.6696 39.1296,95.619 C39.2902,95.5376 39.453,95.465 39.6202,95.3902 C39.728,95.3462 39.8336,95.3044 39.9414,95.2648 C40.1108,95.2054 40.2846,95.1482 40.4584,95.102 C40.564,95.0668 40.6718,95.0382 40.7796,95.0118 C40.9732,94.9656 41.1668,94.9304 41.3648,94.8996 C41.4594,94.8864 41.5496,94.86 41.6486,94.8534 C41.9412,94.8182 42.2404,94.8028 42.5374,94.8028 C42.7882,94.8028 43.0412,94.816 43.2854,94.8424 C43.3668,94.8512 43.4438,94.8688 43.5296,94.882 C43.688,94.904 43.8508,94.926 44.007,94.9502 C44.106,94.9766 44.1962,94.9964 44.2908,95.0184 C44.4294,95.0536 44.5702,95.0822 44.7066,95.1262 C44.8056,95.1614 44.9046,95.19 45.0036,95.2252 C45.1312,95.2714 45.2544,95.3154 45.382,95.3616 C45.481,95.4056 45.5756,95.443 45.6702,95.4958 C45.7912,95.542 45.9078,95.6036 46.0222,95.663 C46.1168,95.7092 46.2114,95.7664 46.3016,95.8126 C46.416,95.8808 46.526,95.949 46.6294,96.0194 C46.7218,96.0744 46.8076,96.1404 46.8956,96.1998 C46.999,96.268 47.1046,96.345 47.2036,96.4286 C47.285,96.4968 47.3686,96.565 47.45,96.6398 C47.5468,96.7212 47.6392,96.807 47.7338,96.8928 C47.8108,96.9654 47.8856,97.038 47.9604,97.1172 C48.0506,97.2118 48.1364,97.3064 48.2222,97.4054 C48.2904,97.4824 48.3586,97.5594 48.4246,97.6452 C48.5104,97.7442 48.5874,97.852 48.6644,97.9598 C48.7216,98.0412 48.7854,98.1226 48.8382,98.2084 C48.9174,98.325 48.9834,98.4394 49.056,98.5648 C49.1044,98.6462 49.1594,98.7276 49.2012,98.8046 C49.2738,98.941 49.3376,99.084 49.4036,99.2292 C49.441,99.293 49.474,99.3656 49.507,99.4448 C49.5972,99.6692 49.683,99.887 49.7512,100.1202 C49.7556,100.1378 49.76,100.1554 49.7688,100.1664 C49.8304,100.3864 49.8898,100.591 49.9316,100.811 C49.9492,100.8924 49.958,100.9694 49.9712,101.0464 C49.9998,101.1872 50.024,101.3302 50.0438,101.471 L82.8986,101.471 C82.9074,101.4072 82.9228,101.3412 82.9338,101.2818 C82.9558,101.196 82.969,101.1102 82.98,101.0244 C83.0086,100.9166 83.0306,100.8132 83.0614,100.7054 C83.0878,100.6284 83.1076,100.547 83.1296,100.4656 C83.1692,100.3578 83.2044,100.2544 83.2462,100.151 C83.2814,100.074 83.3012,100.0014 83.3364,99.9266 C83.3826,99.81 83.4398,99.7022 83.4948,99.5966 C83.5256,99.5372 83.5498,99.4756 83.585,99.4162 C83.6752,99.2534 83.7698,99.095 83.8732,98.9388 C83.9062,98.8948 83.9304,98.8618 83.959,98.8222 C84.0404,98.7012 84.1218,98.5934 84.2098,98.4878 C84.256,98.4284 84.3088,98.3756 84.3572,98.3206 C84.4298,98.2348 84.5068,98.149 84.586,98.0676 C84.641,98.0126 84.7026,97.9598 84.7598,97.9048 C84.8566,97.8344 84.9336,97.7618 85.015,97.6892 Z M57.1542,90.273 C57.1542,90.7636 56.756,91.1574 56.2698,91.1574 L45.2588,91.1574 C44.7682,91.1574 44.3744,90.7614 44.3744,90.273 L44.3744,83.9304 C44.3744,83.4398 44.7726,83.046 45.2588,83.046 L56.2676,83.046 C56.7582,83.046 57.152,83.4464 57.1542,83.9304 L57.1542,90.273 Z M75.2646,90.273 C75.2646,90.7636 74.8686,91.1574 74.3846,91.1574 L63.3714,91.1574 C62.8852,91.1574 62.4914,90.7614 62.4914,90.273 L62.4914,83.9304 C62.4914,83.4398 62.8874,83.046 63.3714,83.046 L74.3846,83.046 C74.8752,83.046 75.2646,83.4464 75.2646,83.9304 L75.2646,90.273 Z M81.4818,91.1574 C80.9912,91.1574 80.5974,90.7614 80.5974,90.273 L80.5974,83.9348 C80.5974,83.4442 80.9978,83.0504 81.4818,83.0504 L92.4906,83.0504 C92.9812,83.0504 93.375,83.4464 93.375,83.9348 L93.375,90.273 C93.375,90.7636 92.979,91.1574 92.4906,91.1574 L81.4818,91.1574 Z" id="Shape" fill="#FFDA72" fill-rule="nonzero"></path>
            <polygon id="Shape" fill="#FEC30E" fill-rule="nonzero" points="57.031 66.9398 57.031 65.5956 50.4838 68.9044 50.4816 68.9044 36.8878 75.775 36.8878 77.1192 46.2158 72.4068"></polygon>
            <polygon id="Shape" fill="#FEC30E" fill-rule="nonzero" points="100.8594 65.5538 80.7184 75.731 80.7184 77.0818 100.8594 66.9024"></polygon>
            <polygon id="Shape" fill="#FEC30E" fill-rule="nonzero" points="58.802 77.0818 78.9452 66.9024 78.9452 65.5538 58.802 75.731"></polygon>
            <polygon id="Shape" fill="#FEC30E" fill-rule="nonzero" points="48.3014 52.862 41.3318 52.862 40.146 72.145 49.1704 67.58"></polygon>
            <path d="M58.3818,63.4 C58.6414,63.5628 58.802,63.8466 58.802,64.1546 L58.802,73.7488 L64.4098,70.9174 L62.971,46.8538 L56.0058,46.8538 L54.9784,64.6474 L57.5172,63.367 C57.79,63.224 58.12,63.2372 58.3818,63.4 Z" id="Shape" fill="#FEC30E" fill-rule="nonzero"></path>
            <circle id="Oval" fill="#AA892F" fill-rule="nonzero" cx="45.2588" cy="45.9628" r="3.1812"></circle>
            <circle id="Oval" fill="#AA892F" fill-rule="nonzero" cx="45.2588" cy="45.9628" r="1.4102"></circle>
            <path d="M50.4156,41.2658 C50.8754,41.2658 51.3264,41.1668 51.7444,40.9622 C52.312,41.257 52.9346,41.4066 53.5726,41.4066 C55.8056,41.4066 57.6184,39.5938 57.6184,37.363 C57.6184,35.1322 55.8034,33.3194 53.5726,33.3194 C52.246,33.3194 51.036,33.964 50.2814,35.0332 C48.6248,35.1014 47.2982,36.472 47.2982,38.1484 C47.296,39.871 48.6908,41.2658 50.4156,41.2658 Z" id="Shape" fill="#AA892F" fill-rule="nonzero"></path>
            <path d="M50.6202,36.8262 C51.003,36.879 51.3748,36.6898 51.5486,36.3488 C51.9402,35.5722 52.7124,35.0904 53.5682,35.0904 C54.8222,35.0904 55.8408,36.1112 55.8408,37.363 C55.8408,38.6148 54.8222,39.6356 53.5682,39.6356 C53.0996,39.6356 52.6442,39.4882 52.2526,39.211 C52.0986,39.1032 51.9226,39.046 51.7422,39.046 C51.5552,39.046 51.3682,39.1054 51.2098,39.222 C51.0448,39.3474 50.772,39.497 50.4156,39.497 C49.6698,39.497 49.067,38.892 49.067,38.1484 C49.0604,37.3344 49.7842,36.7008 50.6202,36.8262 Z" id="Shape" fill="#AA892F" fill-rule="nonzero"></path>
            <path d="M67.3424,41.73 C67.8176,41.73 68.2906,41.6772 68.7504,41.5738 C69.6282,42.39 70.7744,42.8498 71.9734,42.8498 C73.5002,42.8498 74.9346,42.0996 75.8234,40.861 C77.7814,40.9512 79.7196,40.3572 81.2926,39.2044 C81.935,39.464 82.5994,39.596 83.2638,39.596 C86.2404,39.596 88.6604,37.176 88.6604,34.2038 C88.6604,31.5748 86.7398,29.3528 84.1922,28.9106 C82.8634,25.6832 79.7174,23.5558 76.1908,23.5558 C72.662,23.5558 69.4676,25.7448 68.1652,28.97 C64.3086,28.453 60.9338,31.5176 60.9338,35.3214 C60.9338,38.8546 63.8092,41.73 67.3424,41.73 Z" id="Shape" fill="#AA892F" fill-rule="nonzero"></path>
            <path d="M68.5194,30.8422 C68.9814,30.9676 69.4566,30.6992 69.5908,30.2394 C70.4598,27.3464 73.1702,25.3268 76.1908,25.3268 C79.1476,25.3268 81.7634,27.2056 82.7094,30.0106 C82.8304,30.3494 83.134,30.587 83.4904,30.6112 C85.3912,30.7322 86.8828,32.3074 86.8828,34.2038 C86.8828,36.2014 85.2614,37.825 83.2616,37.825 C82.694,37.825 82.1308,37.6798 81.5852,37.3916 C81.264,37.2244 80.8768,37.264 80.6018,37.495 C79.3654,38.5312 77.8034,39.0988 76.1886,39.0988 C75.9422,39.0988 75.687,39.0834 75.4494,39.057 C75.0886,39.0152 74.7542,39.1956 74.5782,39.508 C74.0458,40.4738 73.0492,41.0766 71.9646,41.0766 C71.0934,41.0766 70.2684,40.6872 69.692,40.0096 C69.5226,39.805 69.274,39.6972 69.0166,39.6972 C68.9264,39.6972 68.8362,39.7104 68.746,39.739 C68.2906,39.8864 67.8132,39.9612 67.3314,39.9612 C64.775,39.9612 62.696,37.8778 62.696,35.3258 C62.7048,32.38 65.4944,30.0458 68.5194,30.8422 Z" id="Shape" fill="#AA892F" fill-rule="nonzero"></path>
            <path d="M56.2676,83.046 L45.2588,83.046 C44.7682,83.046 44.3744,83.442 44.3744,83.9304 L44.3744,90.273 C44.3744,90.7636 44.7726,91.1574 45.2588,91.1574 L56.2698,91.1574 C56.7582,91.1574 57.1542,90.7614 57.1542,90.273 L57.1542,83.9304 C57.152,83.4442 56.756,83.046 56.2676,83.046 Z M49.8788,89.3864 L46.1476,89.3864 L46.1476,84.8192 L49.8788,84.8192 L49.8788,89.3864 Z M55.381,89.3864 L51.6476,89.3864 L51.6476,84.8192 L55.381,84.8192 L55.381,89.3864 Z" id="Shape" fill="#AA892F" fill-rule="nonzero"></path>
            <path d="M74.378,83.046 L63.3648,83.046 C62.8786,83.046 62.4848,83.442 62.4848,83.9304 L62.4848,90.273 C62.4848,90.7636 62.8808,91.1574 63.3648,91.1574 L74.378,91.1574 C74.8686,91.1574 75.2624,90.7614 75.2624,90.273 L75.2624,83.9304 C75.2646,83.4442 74.8686,83.046 74.378,83.046 Z M67.9892,89.3864 L64.2558,89.3864 L64.2558,84.8192 L67.9892,84.8192 L67.9892,89.3864 Z M73.4936,89.3864 L69.7602,89.3864 L69.7602,84.8192 L73.4936,84.8192 L73.4936,89.3864 Z" id="Shape" fill="#AA892F" fill-rule="nonzero"></path>
            <path d="M92.4906,83.0504 L81.4818,83.0504 C80.9912,83.0504 80.5974,83.4464 80.5974,83.9348 L80.5974,90.273 C80.5974,90.7636 80.9978,91.1574 81.4818,91.1574 L92.4906,91.1574 C92.9812,91.1574 93.375,90.7614 93.375,90.273 L93.375,83.9348 C93.375,83.4442 92.979,83.0504 92.4906,83.0504 Z M86.0996,89.3864 L82.3662,89.3864 L82.3662,84.8192 L86.0996,84.8192 L86.0996,89.3864 Z M91.604,89.3864 L87.8684,89.3864 L87.8684,84.8192 L91.604,84.8192 L91.604,89.3864 Z" id="Shape" fill="#AA892F" fill-rule="nonzero"></path>
            <path d="M105.321,96.8004 C104.6346,95.6608 103.7062,94.7346 102.6304,94.024 L102.6304,67.4524 C102.6304,67.4524 102.6326,67.448 102.6326,67.4436 L102.6326,64.1128 C102.6326,63.8026 102.472,63.5188 102.2102,63.356 C101.9484,63.1976 101.6206,63.1844 101.3456,63.3208 L80.7162,73.7444 L80.7162,64.1128 C80.7162,63.8004 80.5578,63.5166 80.296,63.3582 C80.0342,63.1954 79.7064,63.1822 79.4314,63.3186 L66.1302,70.044 L64.687,45.91 C64.6606,45.4436 64.2734,45.0784 63.8048,45.0784 L55.1676,45.0784 C54.699,45.0784 54.3096,45.4458 54.2832,45.9122 L53.1546,65.5714 L50.8974,66.7176 L50.0218,51.9292 C49.991,51.4606 49.6082,51.0954 49.1418,51.0954 L40.5046,51.0954 C40.036,51.0954 39.6488,51.4606 39.6246,51.9248 L38.32,73.069 L35.6096,74.4396 C35.3082,74.587 35.119,74.8994 35.119,75.2272 L35.119,97.9906 C35.0156,97.9796 34.91,97.9576 34.8022,97.9576 C32.3756,97.9576 30.4022,99.9288 30.4022,102.3576 C30.4022,102.8504 30.8004,103.2398 31.2844,103.2398 L108.5242,103.2398 C108.907,103.2398 109.2436,102.9978 109.3668,102.637 C109.523,102.1574 109.6,101.7064 109.6,101.2642 C109.6,98.8618 107.697,96.8994 105.321,96.8004 Z M80.7184,75.731 L100.8594,65.5516 L100.8594,66.898 L80.7184,77.0774 L80.7184,75.731 Z M78.9452,65.5538 L78.9452,66.9024 L58.802,77.0818 L58.802,75.7332 L78.9452,65.5538 Z M56.0058,46.8494 L62.971,46.8494 L64.4098,70.9152 L58.802,73.7466 L58.802,64.1524 C58.802,63.8444 58.6414,63.5606 58.3818,63.3978 C58.12,63.2372 57.79,63.224 57.5172,63.3604 L54.9784,64.6408 L56.0058,46.8494 Z M41.3318,52.862 L48.3014,52.862 L49.1726,67.58 L40.146,72.1428 L41.3318,52.862 Z M36.8878,75.775 L50.4816,68.9044 L50.4838,68.9044 L57.0332,65.5956 L57.0332,66.9398 L46.218,72.4024 L36.89,77.1192 L36.8878,75.775 Z M32.325,101.4754 C32.6902,100.4612 33.6604,99.7308 34.8,99.7308 C35.2664,99.7308 35.7174,99.865 36.1398,100.1136 C36.2476,100.1774 36.3642,100.217 36.483,100.239 C36.5996,100.2566 36.7228,100.2478 36.8394,100.2082 C37.0748,100.1444 37.2728,99.9794 37.385,99.7572 C38.3772,97.7926 40.355,96.5826 42.5462,96.5826 C42.8784,96.5826 43.2106,96.6222 43.5274,96.6728 C43.5648,96.6772 43.6,96.6816 43.6374,96.6904 C43.9432,96.741 44.2336,96.8268 44.513,96.9346 C44.5592,96.9522 44.6076,96.9698 44.6494,96.9808 C44.9288,97.0886 45.1906,97.2162 45.4414,97.368 C45.4876,97.3988 45.5294,97.4186 45.5734,97.445 C45.822,97.599 46.064,97.7706 46.2862,97.9598 C46.317,97.9906 46.3456,98.0148 46.3808,98.0456 C46.6096,98.248 46.8208,98.4658 47.0166,98.699 C47.0254,98.7122 47.0342,98.7254 47.043,98.7386 C47.2366,98.974 47.4038,99.2336 47.5556,99.491 C47.571,99.5218 47.5886,99.5416 47.6018,99.568 C47.747,99.8298 47.8724,100.1092 47.9758,100.393 C47.9934,100.4392 48.011,100.4832 48.022,100.5294 C48.1166,100.8132 48.1892,101.1102 48.242,101.4006 C48.242,101.4314 48.2508,101.4512 48.253,101.4732 L32.325,101.4732 L32.325,101.4754 Z M84.3726,98.325 C84.3264,98.38 84.2692,98.4328 84.2252,98.4922 C84.1372,98.6 84.0558,98.7122 83.9744,98.8266 C83.9458,98.8662 83.9216,98.9036 83.8886,98.9432 C83.7852,99.0972 83.6906,99.2578 83.6004,99.4206 C83.5652,99.48 83.541,99.5416 83.5102,99.601 C83.4574,99.7132 83.3958,99.821 83.3518,99.931 C83.3166,100.0036 83.2968,100.0718 83.2616,100.1554 C83.2198,100.2588 83.1868,100.3622 83.145,100.47 C83.1208,100.5514 83.0988,100.6328 83.0768,100.7098 C83.046,100.8176 83.024,100.921 82.9998,101.0288 C82.9778,101.1146 82.9602,101.2004 82.9492,101.2862 C82.9382,101.3456 82.9228,101.4116 82.914,101.4754 L50.0548,101.4754 C50.0372,101.3346 50.0086,101.1916 49.9866,101.0552 C49.9734,100.9738 49.9646,100.8968 49.9448,100.8154 C49.8986,100.5998 49.8436,100.3908 49.7798,100.1708 C49.7754,100.1532 49.771,100.1312 49.7644,100.1246 C49.694,99.8958 49.6126,99.6736 49.5224,99.4492 C49.4872,99.381 49.4542,99.3084 49.419,99.2336 C49.3552,99.0928 49.287,98.941 49.2144,98.809 C49.1682,98.732 49.1176,98.6506 49.0714,98.5692 C49.001,98.4438 48.935,98.3294 48.8514,98.2128 C48.7964,98.127 48.7348,98.0456 48.6754,97.9642 C48.5984,97.8564 48.5214,97.7486 48.44,97.6496 C48.3762,97.5638 48.3058,97.4868 48.2332,97.4098 C48.1518,97.3108 48.066,97.2162 47.9758,97.1216 C47.9032,97.049 47.8284,96.9764 47.747,96.8972 C47.6524,96.8114 47.56,96.7256 47.4632,96.6442 C47.3818,96.576 47.3004,96.5078 47.2146,96.4374 C47.1156,96.3604 47.0122,96.2834 46.9088,96.2086 C46.8208,96.1492 46.735,96.0854 46.6426,96.0282 C46.5348,95.96 46.4248,95.8918 46.317,95.8236 C46.2224,95.7752 46.1322,95.7202 46.0376,95.6718 C45.921,95.6146 45.8044,95.553 45.6856,95.5046 C45.5866,95.4584 45.492,95.4144 45.393,95.3726 C45.2676,95.3242 45.1444,95.2736 45.0146,95.234 C44.9156,95.1988 44.821,95.168 44.7198,95.135 C44.5834,95.0932 44.4426,95.0646 44.3062,95.0272 C44.2116,95.003 44.117,94.981 44.0224,94.959 C43.8662,94.9282 43.7012,94.9106 43.5406,94.8886 C43.4592,94.8798 43.3778,94.86 43.2964,94.8512 C43.0544,94.8292 42.8014,94.8138 42.5528,94.8138 C42.2492,94.8138 41.9544,94.8336 41.6618,94.8622 C41.565,94.8776 41.4726,94.8996 41.3758,94.9084 C41.1778,94.9414 40.9842,94.9722 40.7906,95.0228 C40.6828,95.0492 40.575,95.0756 40.4694,95.113 C40.2956,95.1592 40.1218,95.2164 39.9524,95.2736 C39.8446,95.3154 39.739,95.355 39.6334,95.4012 C39.4684,95.4694 39.3056,95.5442 39.1428,95.63 C39.0438,95.6784 38.9426,95.729 38.848,95.7818 C38.6786,95.8764 38.5158,95.982 38.3508,96.0942 C38.2738,96.1426 38.1946,96.1932 38.1176,96.2482 C37.8888,96.4132 37.6688,96.5892 37.4576,96.7784 C37.4532,96.7828 37.4488,96.7872 37.4444,96.7916 C37.2464,96.972 37.0616,97.1634 36.8856,97.3658 L36.8856,79.1124 L47.6964,73.6476 L57.0288,68.933 L57.0288,78.5272 C57.0288,78.8374 57.185,79.1212 57.4468,79.284 C57.515,79.3236 57.5854,79.3566 57.6646,79.3742 C57.6954,79.383 57.724,79.3874 57.7548,79.3918 C57.801,79.4006 57.845,79.4094 57.8912,79.4094 C57.9,79.4094 57.9066,79.4138 57.9132,79.4138 C57.922,79.4138 57.9352,79.4094 57.944,79.4094 C58.0738,79.4006 58.1948,79.3786 58.3136,79.3192 L78.943,68.9 L78.943,78.5338 C78.943,78.8484 79.1014,79.13 79.361,79.2906 C79.4292,79.3368 79.4996,79.3632 79.5832,79.3808 C79.6118,79.394 79.6382,79.3984 79.6734,79.4028 C79.7196,79.4116 79.7636,79.4204 79.8098,79.4204 C79.8186,79.4248 79.8252,79.4248 79.834,79.4248 C79.8472,79.4248 79.856,79.4204 79.8692,79.4204 C79.9946,79.4116 80.1134,79.3808 80.23,79.3302 L80.2344,79.3302 L100.8594,68.9066 L100.8594,93.1528 C100.8242,93.1352 100.7956,93.1264 100.756,93.1132 C100.4348,93.001 100.1114,92.9064 99.7836,92.8338 C99.5988,92.7876 99.414,92.7568 99.227,92.7216 C99.106,92.6996 98.9894,92.682 98.8706,92.6754 C98.5494,92.6358 98.2282,92.6116 97.907,92.6116 C94.9854,92.6116 92.2772,94.0768 90.6844,96.488 C90.1344,96.3296 89.5624,96.2482 88.986,96.2482 C88.7836,96.2482 88.5834,96.2658 88.3876,96.2834 C88.326,96.2922 88.2556,96.301 88.1896,96.3142 C88.0576,96.3318 87.9322,96.3494 87.8024,96.3692 C87.7254,96.3868 87.6528,96.4044 87.5736,96.4198 C87.4614,96.4506 87.3448,96.466 87.237,96.5056 C87.1578,96.5276 87.0852,96.5518 87.0038,96.5826 C86.9004,96.6178 86.797,96.6508 86.6936,96.6948 C86.6166,96.7344 86.5396,96.763 86.4648,96.7982 C86.3658,96.8444 86.2712,96.8884 86.1766,96.9346 C86.0996,96.9764 86.0292,97.0116 85.9478,97.0578 C85.8554,97.1062 85.7674,97.1678 85.6794,97.2206 C85.6134,97.2668 85.5408,97.3152 85.4682,97.3592 C85.3802,97.4164 85.2988,97.4846 85.2152,97.5484 C85.1536,97.5968 85.0788,97.6518 85.0194,97.7002 C84.938,97.7728 84.861,97.8432 84.784,97.9224 C84.729,97.9752 84.663,98.0302 84.6124,98.0852 C84.5244,98.1534 84.4452,98.2392 84.3726,98.325 Z M107.8158,101.4754 L84.7092,101.4754 C84.762,101.2092 84.8456,100.9562 84.9446,100.7098 C84.9798,100.6284 85.0238,100.5558 85.0656,100.4744 C85.1404,100.316 85.2218,100.1598 85.3164,100.0102 C85.3692,99.9244 85.4396,99.843 85.499,99.7616 C85.5958,99.6318 85.6948,99.513 85.8092,99.3876 C85.8796,99.315 85.9566,99.2424 86.038,99.1632 C86.1546,99.0598 86.2712,98.9564 86.4032,98.8618 C86.489,98.798 86.5748,98.7364 86.665,98.6814 C86.8014,98.5956 86.9466,98.5186 87.0918,98.446 C87.182,98.402 87.2722,98.3558 87.3712,98.3162 C87.5384,98.2524 87.71,98.1996 87.886,98.1578 C87.9718,98.1358 88.0554,98.1028 88.1434,98.0896 C88.4118,98.039 88.6868,98.0038 88.9706,98.0038 C89.5668,98.0038 90.1476,98.1292 90.702,98.369 C91.1244,98.5538 91.6128,98.3822 91.835,97.9774 C93.0428,95.751 95.3638,94.3716 97.8938,94.3716 C98.1996,94.3716 98.4966,94.3936 98.7936,94.431 C99.6648,94.552 100.5184,94.8402 101.3016,95.2912 C101.3236,95.3 101.3456,95.3044 101.3588,95.3132 C102.4742,95.9622 103.407,96.9192 104.023,98.1182 C104.188,98.4394 104.5268,98.6242 104.8942,98.5956 L105.0372,98.578 C105.0702,98.5736 105.0966,98.5692 105.1274,98.5648 C106.6168,98.5648 107.829,99.777 107.829,101.2642 C107.829,101.3324 107.8246,101.4006 107.8158,101.4754 Z" id="Shape" fill="#AA892F" fill-rule="nonzero"></path>
            <g id="Group" transform="translate(43.600000, 23.800000)" fill="#FFDA72" fill-rule="nonzero">
                <path d="M23.7424,16.1612 C24.2264,16.1612 24.6994,16.0886 25.1592,15.9412 C25.245,15.9148 25.3352,15.8972 25.4254,15.8972 C25.6806,15.8972 25.9292,16.0094 26.1052,16.2118 C26.6816,16.8916 27.5088,17.281 28.3734,17.281 C29.4514,17.281 30.4502,16.6804 30.987,15.7124 C31.1586,15.3978 31.493,15.2174 31.8582,15.257 C32.0958,15.2856 32.351,15.301 32.5974,15.301 C34.2056,15.301 35.7764,14.729 37.0128,13.6972 C37.2878,13.4684 37.6794,13.4266 37.994,13.5938 C38.5396,13.882 39.1028,14.025 39.6704,14.025 C41.668,14.025 43.2916,12.3992 43.2916,10.4038 C43.2916,8.5074 41.8,6.9278 39.8992,6.8068 C39.5428,6.7826 39.2326,6.5494 39.1182,6.2084 C38.1722,3.4078 35.5564,1.5224 32.5996,1.5224 C29.579,1.5224 26.8708,3.5464 25.9996,6.4372 C25.8632,6.8948 25.3902,7.1654 24.9282,7.04 C21.9032,6.2436 19.1114,8.58 19.1114,11.5236 C19.1048,14.08 21.186,16.1612 23.7424,16.1612 Z" id="Shape"></path>
                <path d="M6.8156,15.697 C7.172,15.697 7.4448,15.5474 7.6098,15.422 C7.7682,15.3054 7.9552,15.246 8.1422,15.246 C8.3226,15.246 8.4986,15.301 8.6526,15.411 C9.0442,15.6882 9.4996,15.8356 9.9682,15.8356 C11.2222,15.8356 12.2408,14.8148 12.2408,13.563 C12.2408,12.3112 11.2222,11.2904 9.9682,11.2904 C9.1124,11.2904 8.3402,11.7744 7.9486,12.5488 C7.7748,12.8898 7.403,13.079 7.0202,13.0262 C6.1776,12.8986 5.4604,13.5344 5.4604,14.3484 C5.4604,15.0898 6.0698,15.697 6.8156,15.697 Z" id="Shape"></path>
                <circle id="Oval" cx="1.6588" cy="22.1628" r="1.4102"></circle>
            </g>
            <g id="Rectangle-2">
                <use fill="black" fill-opacity="1" filter="url(#filter-4)" xlink:href="#path-3"></use>
                <rect stroke="#FFC300" stroke-width="2" stroke-linejoin="square" fill="#FFFFFF" fill-rule="evenodd" x="25" y="146" width="90" height="23" rx="4"></rect>
            </g>
            <text id="Commercial" font-family="OpenSans-SemiBold, Open Sans" font-size="14" font-weight="500" fill="#AA892F">
                <tspan x="29.421875" y="163">Commercial</tspan>
            </text>
        </g>
    </g>
</svg>