<svg height="167" viewBox="0 0 395 167" width="395" xmlns="http://www.w3.org/2000/svg"><g fill="none" fill-rule="evenodd" transform=""><path d="m0 0h395v166.540541h-395z" fill="#ffc300" fill-rule="nonzero"/><path d="m10.035135 10.141892h375.036486v146.15h-375.036486z" stroke="#1684c6" stroke-linecap="round" stroke-linejoin="round" stroke-width="2"/><g fill-rule="nonzero"><g><g transform="translate(88.608108 107.824324)"><g fill="#000"><path d="m.53378378 24.4472973v-22.95270271h2.2418919v22.95270271z"/><path d="m20.4972973 24.4472973v-9.5013514c0-3.8432432-2.2418919-5.97837833-5.2310811-5.97837833-3.3094594 0-5.33783782 2.45540543-5.33783782 5.87162163v9.6081081h-2.13513514v-16.97432433h2.13513514v2.13513514h.10675672c1.0675676-1.60135135 2.9891892-2.56216216 5.2310811-2.56216216 4.6972973 0 7.472973 3.20270265 7.472973 7.89999995v9.3945946h-2.2418919z"/><path d="m44.6243243 1.49459459h2.2418919v16.86756761c0 4.377027-2.8824324 6.4054054-6.0851351 6.4054054-3.3094595 0-5.9783784-2.2418919-6.1918919-5.8716217h2.2418919c.2135135 2.3486487 1.8148648 3.7364865 3.95 3.7364865 2.4554054 0 3.7364865-1.3878378 3.7364865-5.3378378v-15.80000001z"/><path d="m64.6945946 24.4472973v-2.6689189h-.1067568c-.9608108 1.9216216-2.9891892 2.9891892-5.3378378 2.9891892-3.6297297 0-7.3662162-1.9216217-7.3662162-7.6864865v-9.60810813h2.1351351v9.39459463c0 3.8432432 1.6013514 5.9783783 5.1243243 5.9783783 2.8824325 0 5.3378379-2.0283783 5.3378379-6.0851351v-9.28783783h2.1351351v16.97432433z"/><path d="m77.9324324 11.6364865c-.1067567-1.6013514-1.1743243-2.66891893-2.5621621-2.66891893-1.3878379 0-2.5621622 1.06756753-2.5621622 2.56216213 0 1.2810811.8540541 2.1351352 2.9891892 2.7756757 4.1635135 1.3878378 4.9108108 2.9891892 4.9108108 5.4445946 0 3.0959459-2.0283784 5.1243243-5.3378378 5.1243243-2.8824325 0-5.2310811-2.0283784-5.2310811-5.3378378v-.1067568h2.1351351c0 2.2418919 1.1743243 3.4162162 2.9891892 3.4162162 1.9216216 0 3.2027027-1.0675675 3.2027027-2.9891891 0-1.6013514-1.0675676-2.5621622-2.9891892-3.2027027-2.9891892-1.0675676-4.9108108-1.9216217-4.9108108-4.8040541 0-2.77567568 2.0283784-4.6972973 4.8040541-4.6972973 2.5621621 0 4.5905405 1.92162162 4.5905405 4.5905405h-2.0283784z"/><path d="m86.0459459 24.4472973v-14.94594595h-3.5229729v-2.02837838h3.5229729v-5.97837838h2.1351352v5.97837838h4.0567567v1.92162162h-4.0567567v14.94594591h-2.1351352z"/></g><path d="m149.245946 7.36621622c0-2.34864865-1.921622-4.16351352-4.056757-4.16351352-2.348648 0-4.163513 1.81486487-4.163513 3.95 0 1.92162162 1.174324 3.2027027 4.377027 3.95 4.910811 1.2810811 6.618919 3.8432432 6.618919 6.9391892 0 3.7364865-3.095946 6.7256757-6.93919 6.7256757-4.056756 0-7.045946-2.7756757-7.045946-6.8324325h2.241892c.106757 2.9891892 2.028379 4.6972973 4.804054 4.6972973 2.562163 0 4.590541-2.0283783 4.590541-4.5905405 0-2.4554054-1.601351-3.8432433-4.697297-4.6972973-3.30946-.9608108-6.405406-2.0283784-6.405406-6.1918919 0-3.62972973 2.882433-6.19189189 6.405406-6.19189189s6.298648 2.66891892 6.298648 6.19189189h-2.028378z" fill="#272727"/><path d="m157.466216 24.4472973v-14.94594595h-3.522973v-2.02837838h3.522973v-5.97837838h2.135135v5.97837838h4.056757v1.92162162h-4.056757v14.94594591h-2.135135z" fill="#272727"/><path d="m167.928378 16.7608108c.213514 3.4162162 3.30946 6.0851351 6.512163 6.0851351 2.668918 0 5.124324-1.4945945 6.085135-3.95h2.241892c-1.281082 3.6297298-4.697298 5.9783784-8.327027 5.9783784-4.804055 0-8.860811-3.95-8.860811-8.8608108s4.056756-8.96756755 8.754054-8.96756755c5.124324 0 8.860811 4.37702705 8.860811 9.07432435v.6405405zm13.237838-1.9216216c-.64054-3.4162162-3.309459-5.76486488-6.618919-5.76486488-3.202702 0-5.978378 2.24189188-6.512162 5.76486488z" fill="#272727"/><path d="m187.251351 30.4256757v-22.95270273h2.135135v2.98918923h.106757c1.601352-2.24189193 3.95-3.41621625 6.618919-3.41621625 5.124324 0 9.074324 3.94999995 9.074324 8.86081085 0 5.0175675-3.95 8.9675675-9.074324 8.9675675-2.668919 0-5.124324-1.1743243-6.618919-3.4162162h-.106757v8.9675676zm8.860811-21.45810813c-3.62973 0-6.725676 3.09594593-6.725676 6.93918923 0 3.7364864 2.98919 6.9391891 6.832433 6.9391891 4.056757 0 6.939189-2.9891891 6.939189-6.8324324-.106757-3.8432432-2.989189-7.04594593-7.045946-7.04594593z" fill="#272727"/><path d="m215.541892 11.6364865c-.106757-1.6013514-1.174324-2.66891893-2.562162-2.66891893s-2.562162 1.06756753-2.562162 2.56216213c0 1.2810811.854054 2.1351352 2.989189 2.7756757 4.163513 1.3878378 4.910811 2.9891892 4.910811 5.4445946 0 3.0959459-2.028379 5.1243243-5.337838 5.1243243-2.882433 0-5.231081-2.0283784-5.231081-5.3378378v-.1067568h2.135135c0 2.2418919 1.174324 3.4162162 2.989189 3.4162162 1.921622 0 3.202703-1.0675675 3.202703-2.9891891 0-1.6013514-1.067568-2.5621622-2.98919-3.2027027-2.989189-1.0675676-4.91081-1.9216217-4.91081-4.8040541 0-2.77567568 2.028378-4.6972973 4.804054-4.6972973 2.562162 0 4.59054 1.92162162 4.59054 4.5905405h-2.028378z" fill="#272727"/></g><g fill="#272727" transform="translate(36.297297 37.364865)"><path d="m.64054054 22.2054054v-22.09864864h12.06351356v4.91081081h-6.61891896v3.73648648h6.40540536v4.91081085h-6.40540536v8.4337837h-5.4445946z"/><path d="m16.1202703 3.84324324v-3.73648648h4.9108108v3.73648648zm0 18.36216216v-16.54729729h4.9108108v16.54729729z"/><path d="m35.7635135 22.2054054v-9.1810811c0-2.2418919-.7472973-3.30945944-2.5621621-3.30945944-2.0283784 0-2.8824325 1.06756754-2.8824325 3.30945944v9.1810811h-4.9108108v-16.54729729h4.5905405v1.81486486h.1067568c1.0675676-1.70810811 2.5621622-2.34864865 4.4837838-2.34864865 2.9891892 0 6.1918919 1.70810811 6.1918919 6.61891888v10.568919h-5.0175676z"/><path d="m57.3283784 22.2054054v-1.8148649h-.1067568c-.9608108 1.4945946-2.5621621 2.3486487-4.9108108 2.3486487-5.0175676 0-8.327027-3.8432433-8.327027-8.8608108 0-4.91081083 3.4162162-8.86081083 8.2202703-8.86081083 1.9216216 0 3.4162162.53378378 4.9108108 1.92162162v-6.93918919h4.9108108v22.0986486h-4.6972973zm.1067567-8.327027c0-2.3486487-1.8148648-4.16351354-4.1635135-4.16351354-2.3486486 0-4.1635135 1.70810814-4.1635135 4.16351354 0 2.5621621 1.8148649 4.2702702 4.1635135 4.2702702 2.2418919 0 4.1635135-1.8148648 4.1635135-4.2702702z"/><path d="m78.2527027 22.2054054v-17.18783783h-4.377027v-4.91081081h14.3054054v4.91081081h-4.377027v17.18783783z"/><path d="m101.312162 22.2054054v-9.0743243c0-2.1351352-.854054-3.41621624-2.6689188-3.41621624-1.9216216 0-2.7756756 1.06756754-2.7756756 3.20270274v9.2878378h-4.9108108v-22.09864864h4.9108108v7.1527027c.7472973-1.38783784 2.3486486-2.13513514 4.2702704-2.13513514 3.843243 0 6.085135 2.34864865 6.085135 6.72567568v10.4621622h-4.910811z"/><path d="m114.336486 15.372973c.320271 1.9216216 1.814865 3.0959459 3.843244 3.0959459 1.387838 0 2.241892-.5337838 2.989189-1.6013513h5.124324c-1.601351 3.6297297-4.59054 5.7648648-8.113513 5.7648648-4.804054 0-8.754054-3.8432432-8.754054-8.754054 0-4.80405408 3.843243-8.86081083 8.647297-8.86081083 4.910811 0 8.754054 3.95 8.754054 9.07432433 0 .427027 0 .854054-.106757 1.2810811zm7.57973-3.3094595c-.427027-1.7081081-1.921621-2.88243242-3.843243-2.88243242-1.814865 0-3.309459 1.06756752-3.736487 2.88243242z"/><path d="m150.847297 22.2054054-5.124324-7.1527027h-.106757v7.1527027h-5.444594v-22.09864864h7.259459c2.348649 0 4.056757.32027027 5.231081.85405405 2.348649 1.06756757 4.056757 3.62972973 4.056757 6.83243243 0 3.52297296-2.135135 6.40540536-5.551351 6.93918916l5.978378 7.5797298h-6.298649zm-2.989189-10.9959459c2.241892 0 3.62973-1.0675676 3.62973-3.20270274 0-1.92162162-1.387838-2.98918919-3.522973-2.98918919h-2.135135v6.19189193z"/><path d="m160.241892 3.84324324v-3.73648648h4.910811v3.73648648zm0 18.36216216v-16.54729729h4.910811v16.54729729z"/><path d="m181.593243 20.2837838c-.747297 1.6013513-2.562162 2.4554054-4.59054 2.4554054-4.804054 0-8.327027-3.7364865-8.327027-8.7540541 0-5.12432429 3.522973-8.96756753 8.327027-8.96756753 2.135135 0 3.843243.85405405 4.59054 2.13513513h.106757v-1.60135135h4.910811v14.83918915c0 2.2418919-.32027 3.95-.854054 5.1243244-1.174325 2.3486486-4.483784 4.0567567-8.647298 4.0567567-4.697297 0-7.793243-2.6689189-8.113513-5.8716216h5.764865c.533784 1.1743243 1.708108 1.6013514 2.882432 1.6013514 2.562162 0 4.056757-1.6013514 4.056757-4.6972973v-.3202703zm0-6.2986487c0-2.4554054-1.601351-4.27027024-4.056757-4.27027024-2.241891 0-3.95 1.81486484-3.95 4.16351354 0 2.3486486 1.601352 4.2702702 3.95 4.2702702 2.455406 0 4.056757-1.8148648 4.056757-4.1635135z"/><path d="m201.12973 22.2054054v-9.0743243c0-2.1351352-.854054-3.41621624-2.668919-3.41621624-1.921622 0-2.775676 1.06756754-2.775676 3.20270274v9.2878378h-4.910811v-22.09864864h4.910811v7.1527027c.747297-1.38783784 2.348649-2.13513514 4.27027-2.13513514 3.843244 0 6.085136 2.34864865 6.085136 6.72567568v10.4621622h-4.910811z"/><path d="m211.164865 22.2054054v-12.81081081h-2.455406v-3.73648648h2.455406v-5.55135135h4.910811v5.55135135h2.348648v3.73648648h-2.348648v12.81081081z"/><path d="m245.006757 22.2054054-1.067568-3.2027027h-7.686486l-1.174325 3.2027027h-6.085135l8.860811-22.09864864h4.483784l8.754054 22.09864864zm-4.910811-15.26621621-2.348649 7.57972971h4.590541z"/><path d="m265.931081 20.2837838c-.747297 1.6013513-2.562162 2.4554054-4.59054 2.4554054-4.804055 0-8.327027-3.7364865-8.327027-8.7540541 0-5.12432429 3.522972-8.96756753 8.327027-8.96756753 2.135135 0 3.843243.85405405 4.59054 2.13513513h.106757v-1.60135135h4.910811v14.83918915c0 2.2418919-.320271 3.95-.854054 5.1243244-1.174325 2.3486486-4.483784 4.0567567-8.647298 4.0567567-4.697297 0-7.793243-2.6689189-8.113513-5.8716216h5.764865c.533783 1.1743243 1.708108 1.6013514 2.882432 1.6013514 2.562162 0 4.056757-1.6013514 4.056757-4.6972973v-.3202703zm0-6.2986487c0-2.4554054-1.601351-4.27027024-4.056757-4.27027024-2.241892 0-3.95 1.81486484-3.95 4.16351354 0 2.3486486 1.601352 4.2702702 3.95 4.2702702 2.455406 0 4.056757-1.8148648 4.056757-4.1635135z"/><path d="m279.062162 15.372973c.32027 1.9216216 1.814865 3.0959459 3.843243 3.0959459 1.387838 0 2.241892-.5337838 2.98919-1.6013513h5.124324c-1.601351 3.6297297-4.590541 5.7648648-8.113514 5.7648648-4.804054 0-8.754054-3.8432432-8.754054-8.754054 0-4.80405408 3.843244-8.86081083 8.647298-8.86081083 4.91081 0 8.754054 3.95 8.754054 9.07432433 0 .427027 0 .854054-.106757 1.2810811zm7.57973-3.3094595c-.427027-1.7081081-1.921622-2.88243242-3.843243-2.88243242-1.814865 0-3.30946 1.06756752-3.736487 2.88243242z"/><path d="m305.324324 22.2054054v-9.1810811c0-2.2418919-.747297-3.30945944-2.562162-3.30945944-2.028378 0-2.882432 1.06756754-2.882432 3.30945944v9.1810811h-4.910811v-16.54729729h4.59054v1.81486486h.106757c1.067568-1.70810811 2.562162-2.34864865 4.483784-2.34864865 2.989189 0 6.191892 1.70810811 6.191892 6.61891888v10.568919h-5.017568z"/><path d="m315.466216 22.2054054v-12.81081081h-2.455405v-3.73648648h2.455405v-5.55135135h4.910811v5.55135135h2.348649v3.73648648h-2.348649v12.81081081z"/></g><g fill="#000" transform="translate(58.716216 74.72973)"><path d="m4.16351351 14.5189189v-12.91756755h-3.30945946v-1.28108108h7.9v1.28108108h-3.2027027v12.91756755z"/><path d="m9.18108108 9.39459459c0-3.09594594 2.45540542-5.55135135 5.44459462-5.55135135 3.0959459 0 5.5513513 2.56216217 5.5513513 5.55135135 0 3.09594591-2.5621621 5.55135131-5.5513513 5.55135131-2.9891892-.1067567-5.44459462-2.6689189-5.44459462-5.55135131zm9.60810812-.10675675c0-2.24189189-1.8148649-4.27027027-4.1635135-4.27027027-2.2418919 0-4.1635135 2.02837838-4.1635135 4.37702702 0 2.34864861 1.8148648 4.27027031 4.1635135 4.27027031 2.4554054-.1067568 4.1635135-2.0283784 4.1635135-4.37702706z"/><path d="m37.2581081 14.5189189v-6.6189189h-7.3662162v6.6189189h-1.3878378v-14.19864863h1.3878378v6.29864865h7.3662162v-6.29864865h1.3878378v14.19864863z"/><path d="m42.7027027 9.82162162c.1067568 2.13513518 2.0283784 3.84324328 4.0567568 3.84324328 1.6013513 0 3.2027027-.9608108 3.7364864-2.4554054h1.3878379c-.8540541 2.2418919-2.8824324 3.7364864-5.1243243 3.7364864-2.9891892 0-5.4445946-2.4554054-5.4445946-5.44459455 0-3.09594594 2.5621621-5.55135135 5.4445946-5.55135135 3.2027027 0 5.5513513 2.66891892 5.5513513 5.65810811v.42702699h-9.6081081zm8.2202703-1.28108108c-.4270271-2.13513513-2.0283784-3.62972973-4.1635135-3.62972973-1.9216217 0-3.7364865 1.38783784-4.0567568 3.62972973z"/><path d="m54.6594595 14.5189189v-14.19864863h1.3878378v14.19864863z"/><path d="m58.9297297 18.2554054v-14.19864864h1.3878379v1.81486486c.9608108-1.38783784 2.4554054-2.13513513 4.0567567-2.13513513 3.2027027 0 5.6581081 2.4554054 5.6581081 5.44459459 0 3.09594592-2.4554054 5.55135132-5.6581081 5.55135132-1.6013513 0-3.2027027-.7472973-4.0567567-2.1351351v5.5513513h-1.3878379zm5.4445946-13.23783783c-2.2418919 0-4.1635135 1.92162162-4.1635135 4.37702702 0 2.34864861 1.8148649 4.27027031 4.1635135 4.27027031 2.4554054 0 4.2702703-1.8148649 4.2702703-4.27027031 0-2.4554054-1.7081081-4.37702702-4.2702703-4.37702702z"/><path d="m81.7756757 14.5189189v-4.69729728l-4.9108108-9.50135135h1.6013513l4.0567568 8.00675676 4.1635135-8.00675676h1.6013513l-5.0175675 9.50135135v4.69729728z"/><path d="m87.6472973 9.39459459c0-3.09594594 2.4554054-5.55135135 5.4445946-5.55135135 3.0959459 0 5.5513513 2.56216217 5.5513513 5.55135135 0 3.09594591-2.5621621 5.55135131-5.5513513 5.55135131-2.9891892-.1067567-5.4445946-2.6689189-5.4445946-5.55135131zm9.6081081-.10675675c0-2.24189189-1.8148649-4.27027027-4.1635135-4.27027027-2.2418919 0-4.1635135 2.02837838-4.1635135 4.37702702 0 2.34864861 1.8148648 4.27027031 4.1635135 4.27027031 2.3486486-.1067568 4.1635135-2.0283784 4.1635135-4.37702706z"/><path d="m108.891892 14.5189189v-1.6013513c-.640541 1.1743243-1.814865 1.9216216-3.30946 1.9216216-2.241891 0-4.59054-1.1743243-4.59054-4.6972973v-5.97837839h1.387838v5.87162159c0 2.3486487 1.067567 3.7364865 3.202702 3.7364865 1.814865 0 3.30946-1.2810811 3.30946-3.7364865v-5.76486483h1.387838v10.46216213h-1.387838z"/><path d="m119.033784 14.5189189v-14.19864863h3.62973c2.989189 0 4.59054 1.60135135 4.59054 3.73648649 0 1.17432432-.427027 1.92162162-1.601351 2.88243243 1.494594.64054054 2.348648 2.02837838 2.348648 3.52297301 0 1.9216216-1.067567 4.0567567-4.804054 4.0567567zm3.62973-8.00675674c2.775675 0 3.095945-1.60135135 3.095945-2.4554054 0-1.06756757-.64054-2.45540541-3.202702-2.45540541h-2.135135v4.80405406h2.241892zm.427027 6.72567564c1.814864 0 3.522973-.7472973 3.522973-2.7756756 0-1.60135139-1.387838-2.77567571-3.522973-2.77567571h-2.668919v5.55135131z"/><path d="m138.143243 14.5189189v-1.6013513c-.64054 1.1743243-1.814865 1.9216216-3.309459 1.9216216-2.241892 0-4.590541-1.1743243-4.590541-4.6972973v-5.97837839h1.387838v5.87162159c0 2.3486487 1.067568 3.7364865 3.202703 3.7364865 1.814865 0 3.309459-1.2810811 3.309459-3.7364865v-5.76486483h1.387838v10.46216213h-1.387838z"/><path d="m143.587838 18.2554054 1.814865-4.0567568-4.056757-10.14189184h1.387838l3.309459 8.43378374 3.522973-8.43378374h1.387838l-6.085135 14.19864864z"/><path d="m160.775676 14.5189189v-12.91756755h-3.30946v-1.28108108h7.9v1.28108108h-3.202702v12.91756755z"/><path d="m175.081081 14.5189189v-5.8716216c0-2.34864865-1.387838-3.73648649-3.309459-3.73648649-2.028379 0-3.30946 1.60135135-3.30946 3.62972973v5.97837836h-1.387838v-14.19864863h1.387838v5.01756757c.640541-1.06756757 1.814865-1.60135135 3.202703-1.60135135 2.882432 0 4.59054 2.02837837 4.59054 4.91081081v5.8716216z"/><path d="m179.351351 2.77567568v-2.45540541h1.387838v2.45540541zm0 11.74324322v-10.46216214h1.387838v10.46216214z"/><path d="m187.678378 6.61891892c-.106756-1.06756757-.747297-1.60135135-1.601351-1.60135135s-1.601351.64054054-1.601351 1.60135135c0 .7472973.533783 1.28108108 1.814865 1.70810811 2.562162.85405405 3.095945 1.81486487 3.095945 3.41621617 0 1.9216217-1.281081 3.2027027-3.309459 3.2027027-1.814865 0-3.202703-1.281081-3.202703-3.3094594v-.1067568h1.387838c0 1.3878379.747297 2.1351352 1.921622 2.1351352 1.174324 0 1.921621-.6405406 1.921621-1.9216217 0-1.0675675-.64054-1.6013513-1.814864-2.02837834-1.814865-.64054054-2.98919-1.17432432-2.98919-2.98918918 0-1.70810811 1.281081-2.88243244 2.98919-2.88243244 1.601351 0 2.882432 1.17432433 2.882432 2.88243244h-1.494595z"/><path d="m197.286486 14.5189189v-14.19864863h4.270271c3.95 0 5.124324 2.34864865 5.124324 4.27027027s-1.281081 4.16351351-5.124324 4.16351351h-2.882433v5.76486485zm4.590541-6.93918917c2.028378 0 3.416216-1.17432432 3.416216-2.98918919 0-1.38783784-.854054-2.98918919-3.736486-2.98918919h-2.882433v5.87162162h3.202703z"/><path d="m208.922973 14.5189189v-10.46216214h1.387838v1.49459459c.427027-1.06756757 1.281081-1.70810811 2.989189-1.81486486v1.38783783c-1.921622.21351352-2.989189 1.4945946-2.989189 3.20270271v6.19189187z"/><path d="m214.474324 9.39459459c0-3.09594594 2.455406-5.55135135 5.444595-5.55135135 3.095946 0 5.551351 2.56216217 5.551351 5.55135135 0 3.09594591-2.562162 5.55135131-5.551351 5.55135131-2.882433-.1067567-5.444595-2.6689189-5.444595-5.55135131zm9.714865-.10675675c0-2.24189189-1.814865-4.27027027-4.163513-4.27027027-2.241892 0-4.163514 2.02837838-4.163514 4.37702702 0 2.34864861 1.814865 4.27027031 4.163514 4.27027031 2.348648-.1067568 4.163513-2.0283784 4.163513-4.37702706z"/><path d="m227.925676 18.2554054v-14.19864864h1.387838v1.81486486c.96081-1.38783784 2.455405-2.13513513 4.056756-2.13513513 3.202703 0 5.658108 2.4554054 5.658108 5.44459459 0 3.09594592-2.455405 5.55135132-5.658108 5.55135132-1.601351 0-3.202702-.7472973-4.056756-2.1351351v5.5513513h-1.387838zm5.444594-13.23783783c-2.241892 0-4.163513 1.92162162-4.163513 4.37702702 0 2.34864861 1.814865 4.27027031 4.163513 4.27027031 2.455406 0 4.270271-1.8148649 4.270271-4.27027031 0-2.4554054-1.708109-4.37702702-4.270271-4.37702702z"/><path d="m242.231081 9.82162162c.106757 2.13513518 2.028378 3.84324328 4.056757 3.84324328 1.601351 0 3.202703-.9608108 3.736486-2.4554054h1.387838c-.854054 2.2418919-2.882432 3.7364864-5.124324 3.7364864-2.989189 0-5.444595-2.4554054-5.444595-5.44459455 0-3.09594594 2.562162-5.55135135 5.444595-5.55135135 3.202703 0 5.551351 2.66891892 5.551351 5.65810811v.42702699h-9.608108zm8.22027-1.28108108c-.427027-2.13513513-2.028378-3.62972973-4.163513-3.62972973-1.921622 0-3.736487 1.38783784-4.056757 3.62972973z"/><path d="m254.294595 14.5189189v-10.46216214h1.387837v1.49459459c.427027-1.06756757 1.281082-1.70810811 2.98919-1.81486486v1.38783783c-1.921622.21351352-2.98919 1.4945946-2.98919 3.20270271v6.19189187z"/><path d="m261.660811 14.5189189v-9.28783782h-2.241892v-1.17432432h2.241892v-3.73648649h1.387838v3.73648649h2.562162v1.17432432h-2.562162v9.28783782z"/><path d="m268.6 18.2554054 1.814865-4.0567568-4.056757-10.14189184h1.387838l3.309459 8.43378374 3.522973-8.43378374h1.387838l-5.871621 14.19864864z"/></g></g><path d="m199.741892 119.354054v-6.191892h.533784c3.95 0 5.017567-1.174324 5.017567-3.309459 0-1.708108-.854054-2.882433-2.348648-2.882433-1.601352 0-2.562163.854054-2.562163 2.882433h-8.327027c0-6.191892 4.804054-10.3554057 11.316217-10.3554057 5.764864 0 10.355405 3.6297297 10.355405 9.0743247 0 3.309459-1.601351 5.444594-4.377027 6.939189 4.163514 1.387838 6.191892 4.163513 6.191892 8.006757 0 5.871621-5.871622 10.355405-12.277027 10.355405-5.017568 0-11.85-2.562162-12.17027-10.568919h8.54054c.533784 2.028378 1.708108 3.095946 3.843243 3.095946 2.241892 0 3.62973-1.387838 3.62973-3.736486 0-2.241892-1.281081-3.416217-5.444594-3.416217h-1.921622z" fill="#1684c6" stroke="#1684c6" stroke-linecap="round" stroke-width="2"/><path d="m198.674324 118.286486v-6.191891h.533784c3.95 0 5.017568-1.174325 5.017568-3.30946 0-1.708108-.854054-2.882432-2.348649-2.882432-1.601351 0-2.562162.854054-2.562162 2.882432h-8.327027c0-6.191892 4.804054-10.3554053 11.316216-10.3554053 5.764865 0 10.355405 3.6297293 10.355405 9.0743243 0 3.30946-1.601351 5.444595-4.377027 6.939189 4.163514 1.387838 6.191892 4.163514 6.191892 8.006757 0 5.871622-5.871621 10.355405-12.277027 10.355405-5.017567 0-11.85-2.562162-12.17027-10.568919h8.540541c.533783 2.028379 1.708108 3.095946 3.843243 3.095946 2.241892 0 3.62973-1.387837 3.62973-3.736486 0-2.241892-1.281082-3.416216-5.444595-3.416216h-1.921622z" fill="#fff"/></g></g></svg>