<?xml version="1.0" encoding="UTF-8"?>
<svg width="140px" height="182px" viewBox="0 0 140 182" version="1.1" xmlns="http://www.w3.org/2000/svg" xmlns:xlink="http://www.w3.org/1999/xlink">
    <!-- Generator: Sketch 51.3 (57544) - http://www.bohemiancoding.com/sketch -->
    <title>Group 13</title>
    <desc>Created with Sketch.</desc>
    <defs>
        <circle id="path-1" cx="70" cy="70" r="55"></circle>
        <filter x="-12.7%" y="-9.1%" width="125.5%" height="125.5%" filterUnits="objectBoundingBox" id="filter-2">
            <feMorphology radius="0.5" operator="dilate" in="SourceAlpha" result="shadowSpreadOuter1"></feMorphology>
            <feOffset dx="0" dy="4" in="shadowSpreadOuter1" result="shadowOffsetOuter1"></feOffset>
            <feGaussianBlur stdDeviation="3.5" in="shadowOffsetOuter1" result="shadowBlurOuter1"></feGaussianBlur>
            <feColorMatrix values="0 0 0 0 0   0 0 0 0 0   0 0 0 0 0  0 0 0 0.2 0" type="matrix" in="shadowBlurOuter1"></feColorMatrix>
        </filter>
        <rect id="path-3" x="24" y="145" width="92" height="25" rx="4"></rect>
        <filter x="-15.2%" y="-40.0%" width="130.4%" height="212.0%" filterUnits="objectBoundingBox" id="filter-4">
            <feMorphology radius="0.5" operator="dilate" in="SourceAlpha" result="shadowSpreadOuter1"></feMorphology>
            <feOffset dx="0" dy="4" in="shadowSpreadOuter1" result="shadowOffsetOuter1"></feOffset>
            <feGaussianBlur stdDeviation="3.5" in="shadowOffsetOuter1" result="shadowBlurOuter1"></feGaussianBlur>
            <feColorMatrix values="0 0 0 0 0   0 0 0 0 0   0 0 0 0 0  0 0 0 0.2 0" type="matrix" in="shadowBlurOuter1"></feColorMatrix>
        </filter>
    </defs>
    <g id="Page-3" stroke="none" stroke-width="1" fill="none" fill-rule="evenodd">
        <g id="Group-13">
            <circle id="Oval-9-Copy-4" fill="#FFFFFF" cx="70" cy="70" r="70"></circle>
            <g id="Oval-Copy-3" fill-rule="nonzero">
                <use fill="black" fill-opacity="1" filter="url(#filter-2)" xlink:href="#path-1"></use>
                <use fill="#FFFFFF" xlink:href="#path-1"></use>
            </g>
            <path d="M31.5,95.762 L108.5,95.762" id="Shape"></path>
            <path d="M48.0308,100.525 C48.0154,100.481 47.9978,100.4392 47.9846,100.3908 C47.8812,100.107 47.7558,99.8276 47.6128,99.5658 C47.5974,99.5328 47.5798,99.5152 47.5666,99.4888 C47.4148,99.227 47.2454,98.974 47.054,98.7364 C47.0452,98.7232 47.0364,98.7034 47.0276,98.6902 C46.8318,98.4614 46.6162,98.2392 46.3918,98.0368 C46.3566,97.9994 46.328,97.9884 46.2972,97.951 C46.0706,97.7618 45.833,97.5902 45.5844,97.4428 C45.5404,97.4098 45.4986,97.3922 45.4524,97.3658 C45.2016,97.2162 44.9398,97.0864 44.6604,96.9786 C44.6142,96.9544 44.5702,96.9368 44.524,96.928 C44.2424,96.8246 43.9498,96.7388 43.6484,96.6838 C43.611,96.675 43.5758,96.6706 43.5406,96.6662 C43.2194,96.6112 42.8894,96.576 42.5572,96.576 C40.366,96.576 38.3882,97.7926 37.396,99.755 C37.2838,99.975 37.0858,100.1378 36.8504,100.206 C36.7338,100.2412 36.615,100.25 36.494,100.2324 C36.3708,100.2148 36.2586,100.1774 36.1508,100.1114 C35.7284,99.8584 35.2774,99.7286 34.811,99.7286 C33.6714,99.7286 32.7012,100.459 32.336,101.4732 L48.2684,101.4732 C48.2662,101.4446 48.2596,101.427 48.2552,101.4006 C48.198,101.1014 48.1254,100.8088 48.0308,100.525 Z" id="Shape" fill="#A3A3A3" fill-rule="nonzero"></path>
            <path d="M105.1318,98.5648 C105.101,98.5692 105.0724,98.5736 105.0416,98.578 L104.8964,98.5956 C104.5422,98.6264 104.2012,98.4416 104.0274,98.1182 C103.4136,96.9192 102.4764,95.9622 101.3632,95.3132 C101.3434,95.3044 101.3236,95.3 101.3082,95.2912 C100.5294,94.8402 99.6714,94.552 98.798,94.431 C98.501,94.3848 98.2018,94.3716 97.9004,94.3716 C95.377,94.3716 93.0494,95.751 91.8394,97.9774 C91.6172,98.3822 91.1332,98.5538 90.7064,98.369 C90.152,98.1314 89.5668,98.0038 88.975,98.0038 C88.6912,98.0038 88.4162,98.0412 88.1478,98.0896 C88.0598,98.1028 87.9762,98.1358 87.8904,98.1578 C87.7144,98.2018 87.5406,98.2524 87.3734,98.3162 C87.2788,98.3558 87.1886,98.402 87.094,98.446 C86.9532,98.5186 86.8014,98.5956 86.6716,98.6814 C86.5814,98.7364 86.4956,98.798 86.4098,98.8618 C86.2778,98.9564 86.1634,99.0598 86.0446,99.1632 C85.9654,99.2358 85.8928,99.3084 85.8158,99.3876 C85.7036,99.5152 85.6024,99.6318 85.5056,99.7616 C85.4462,99.843 85.378,99.9244 85.323,100.0102 C85.2284,100.1598 85.147,100.316 85.0722,100.4744 C85.0304,100.5558 84.9864,100.6284 84.9512,100.7098 C84.85,100.954 84.7686,101.2092 84.7158,101.4754 L107.8246,101.4754 C107.8334,101.4028 107.84,101.339 107.84,101.2642 C107.829,99.777 106.6212,98.5648 105.1318,98.5648 Z" id="Shape" fill="#A3A3A3" fill-rule="nonzero"></path>
            <g id="Group" transform="translate(45.800000, 83.200000)" fill="#A3A3A3" fill-rule="nonzero">
                <rect id="Rectangle-path" x="0.3432" y="1.6192" width="3.7334" height="4.5672"></rect>
                <rect id="Rectangle-path" x="5.8476" y="1.6192" width="3.7334" height="4.5672"></rect>
                <rect id="Rectangle-path" x="36.5662" y="1.6192" width="3.7334" height="4.5672"></rect>
                <rect id="Rectangle-path" x="42.0684" y="1.6192" width="3.7356" height="4.5672"></rect>
                <rect id="Rectangle-path" x="18.4558" y="1.6192" width="3.7334" height="4.5672"></rect>
                <rect id="Rectangle-path" x="23.9602" y="1.6192" width="3.7334" height="4.5672"></rect>
            </g>
            <path d="M85.015,97.6892 C85.0766,97.6386 85.147,97.5858 85.2108,97.5352 C85.2944,97.4714 85.3736,97.4054 85.4638,97.346 C85.532,97.2998 85.6002,97.2514 85.675,97.2096 C85.763,97.1546 85.851,97.0908 85.9434,97.0468 C86.0182,97.0006 86.0908,96.9654 86.17,96.9192 C86.2646,96.873 86.3592,96.8246 86.4582,96.7828 C86.5308,96.7476 86.6078,96.7168 86.687,96.6794 C86.7904,96.6376 86.896,96.6024 86.9994,96.5672 C87.0808,96.5386 87.1512,96.5122 87.2304,96.4902 C87.3426,96.4528 87.4592,96.433 87.5648,96.4044 C87.6374,96.3824 87.71,96.3626 87.7936,96.3516 C87.9278,96.3274 88.0488,96.3098 88.1852,96.301 C88.2468,96.2878 88.3194,96.2746 88.3832,96.2658 C88.5812,96.2482 88.7836,96.2328 88.9794,96.2328 C89.5624,96.2328 90.1256,96.3142 90.6756,96.4726 C92.2794,94.0636 94.9766,92.5984 97.8982,92.5984 C98.2194,92.5984 98.5428,92.627 98.8618,92.6578 C98.9806,92.671 99.0994,92.6886 99.216,92.704 C99.4052,92.7392 99.59,92.7678 99.7748,92.8162 C100.1048,92.8888 100.4326,92.9834 100.7494,93.0956 C100.7868,93.1088 100.8132,93.1176 100.8528,93.1352 L100.8528,68.8868 L80.2278,79.3104 L80.2234,79.3104 C80.1046,79.3588 79.9858,79.3918 79.8626,79.4006 C79.8494,79.4006 79.8406,79.405 79.8208,79.405 C79.8142,79.405 79.8076,79.405 79.7988,79.4006 C79.7526,79.4006 79.7086,79.3918 79.6624,79.383 C79.6272,79.3786 79.603,79.3676 79.5722,79.3588 C79.4952,79.3412 79.427,79.3126 79.35,79.2686 C79.0882,79.1124 78.932,78.8286 78.932,78.5118 L78.932,68.878 L58.307,79.295 C58.186,79.3544 58.065,79.3764 57.9374,79.3852 C57.9242,79.3852 57.9132,79.3896 57.9044,79.3896 C57.8978,79.3896 57.8912,79.3852 57.8824,79.3852 C57.8362,79.3852 57.7922,79.3764 57.746,79.3676 C57.713,79.3632 57.6822,79.3588 57.6558,79.35 C57.5788,79.3324 57.5084,79.2994 57.4358,79.2598 C57.174,79.097 57.0156,78.8132 57.0156,78.503 L57.0156,68.922 L47.6876,73.6366 L36.8724,79.1014 L36.8724,97.3548 C37.0484,97.1524 37.2376,96.9632 37.4334,96.7828 C37.4378,96.7784 37.4422,96.774 37.4466,96.7696 C37.6578,96.5804 37.8778,96.4044 38.1066,96.2372 C38.1836,96.1822 38.2628,96.1338 38.3376,96.0832 C38.5004,95.971 38.661,95.8676 38.837,95.773 C38.9316,95.718 39.0306,95.6696 39.1296,95.619 C39.2902,95.5376 39.453,95.4672 39.6202,95.3902 C39.728,95.3462 39.8336,95.3044 39.9414,95.2648 C40.1108,95.2054 40.2846,95.1482 40.4584,95.102 C40.564,95.0668 40.6718,95.0382 40.7796,95.0118 C40.9754,94.9656 41.169,94.9304 41.367,94.8996 C41.4616,94.8864 41.5518,94.8578 41.6508,94.8534 C41.9434,94.8182 42.2426,94.8028 42.5396,94.8028 C42.7904,94.8028 43.0434,94.816 43.2876,94.8446 C43.369,94.8534 43.446,94.8732 43.5296,94.8864 C43.6902,94.9084 43.8508,94.9304 44.0092,94.9524 C44.1082,94.981 44.1984,94.9986 44.293,95.0206 C44.4316,95.058 44.5724,95.0822 44.7088,95.1284 C44.8078,95.1658 44.9046,95.1922 45.0058,95.2274 C45.1312,95.2736 45.2566,95.3176 45.3842,95.3638 C45.4832,95.41 45.5778,95.4452 45.6724,95.5002 C45.7934,95.5464 45.91,95.6102 46.0244,95.6674 C46.119,95.7136 46.2136,95.7708 46.3038,95.8148 C46.416,95.883 46.5282,95.9512 46.6316,96.0238 C46.724,96.0766 46.8098,96.1448 46.8978,96.2042 C47.0012,96.2702 47.1046,96.3472 47.2058,96.433 C47.2872,96.499 47.3708,96.5694 47.4522,96.6442 C47.549,96.7256 47.6414,96.8114 47.736,96.8972 C47.813,96.9676 47.8878,97.0402 47.9626,97.1216 C48.0528,97.2162 48.1386,97.3108 48.2244,97.4098 C48.2926,97.4868 48.3608,97.5638 48.4268,97.6496 C48.5126,97.7486 48.5896,97.8564 48.6644,97.9642 C48.7238,98.0456 48.7876,98.127 48.8404,98.2128 C48.9196,98.3294 48.9856,98.4416 49.0582,98.5692 C49.1066,98.6506 49.1616,98.732 49.2034,98.8068 C49.276,98.9432 49.3398,99.0884 49.4058,99.2314 C49.441,99.293 49.4762,99.3678 49.5092,99.447 C49.5994,99.6736 49.6852,99.8892 49.7534,100.1246 C49.7578,100.1422 49.7622,100.1598 49.771,100.1708 C49.8326,100.393 49.892,100.5954 49.9338,100.8154 C49.9514,100.8968 49.9602,100.9738 49.9734,101.0486 C50.002,101.1894 50.0262,101.3346 50.046,101.4732 L82.9008,101.4732 C82.9096,101.4094 82.925,101.3434 82.936,101.284 C82.958,101.1982 82.9712,101.1124 82.9822,101.0266 C83.0108,100.9188 83.0306,100.8154 83.0636,100.7076 C83.09,100.6306 83.1098,100.5492 83.1296,100.4678 C83.1714,100.36 83.2044,100.2566 83.2484,100.1532 C83.2836,100.0762 83.3012,100.0036 83.3386,99.9288 C83.3848,99.81 83.442,99.7022 83.4948,99.5988 C83.5278,99.5394 83.5498,99.4778 83.585,99.4184 C83.6752,99.2556 83.7698,99.0972 83.8754,98.941 C83.9062,98.8948 83.9304,98.864 83.9612,98.8244 C84.0404,98.7012 84.1218,98.5956 84.2098,98.49 C84.256,98.4306 84.3088,98.3778 84.355,98.3228 C84.4276,98.237 84.5046,98.1512 84.5838,98.0698 C84.6366,98.0148 84.7026,97.962 84.7576,97.907 C84.8566,97.8344 84.9336,97.7618 85.015,97.6892 Z M57.1542,90.273 C57.1542,90.7636 56.756,91.1574 56.2698,91.1574 L45.2588,91.1574 C44.7682,91.1574 44.3744,90.7614 44.3744,90.273 L44.3744,83.9304 C44.3744,83.4398 44.7726,83.046 45.2588,83.046 L56.2676,83.046 C56.7582,83.046 57.152,83.4464 57.1542,83.9304 L57.1542,90.273 Z M75.2646,90.273 C75.2646,90.7636 74.8686,91.1574 74.3868,91.1574 L63.3758,91.1574 C62.8852,91.1574 62.4936,90.7614 62.4936,90.273 L62.4936,83.9304 C62.4936,83.4398 62.8918,83.046 63.3758,83.046 L74.3868,83.046 C74.8774,83.046 75.2646,83.4464 75.2646,83.9304 L75.2646,90.273 Z M81.4818,91.1574 C80.9912,91.1574 80.5974,90.7614 80.5974,90.273 L80.5974,83.9348 C80.5974,83.4442 81,83.0504 81.4818,83.0504 L92.4906,83.0504 C92.9812,83.0504 93.375,83.4464 93.375,83.9348 L93.375,90.273 C93.375,90.7636 92.979,91.1574 92.4906,91.1574 L81.4818,91.1574 Z" id="Shape" fill="#D8D8D8" fill-rule="nonzero"></path>
            <polygon id="Shape" fill="#A3A3A3" fill-rule="nonzero" points="57.031 66.9398 57.031 65.5956 50.4838 68.9044 50.4816 68.9044 36.8878 75.775 36.8878 77.1192 46.2158 72.4068"></polygon>
            <polygon id="Shape" fill="#A3A3A3" fill-rule="nonzero" points="100.8594 65.5538 80.7184 75.731 80.7184 77.0818 100.8594 66.9024"></polygon>
            <polygon id="Shape" fill="#A3A3A3" fill-rule="nonzero" points="58.802 77.0818 78.9452 66.9024 78.9452 65.5538 58.802 75.731"></polygon>
            <polygon id="Shape" fill="#A3A3A3" fill-rule="nonzero" points="48.3014 52.862 41.3318 52.862 40.146 72.145 49.1704 67.58"></polygon>
            <path d="M58.3818,63.4 C58.6414,63.5628 58.802,63.8466 58.802,64.1546 L58.802,73.7488 L64.4098,70.9174 L62.971,46.8538 L56.0058,46.8538 L54.9784,64.6474 L57.5172,63.367 C57.79,63.224 58.12,63.2372 58.3818,63.4 Z" id="Shape" fill="#A3A3A3" fill-rule="nonzero"></path>
            <circle id="Oval" fill="#7C7C7C" fill-rule="nonzero" cx="45.2588" cy="45.9628" r="3.1812"></circle>
            <circle id="Oval" fill="#7C7C7C" fill-rule="nonzero" cx="45.2588" cy="45.9628" r="1.4102"></circle>
            <path d="M50.4156,41.2658 C50.8754,41.2658 51.3264,41.1668 51.7444,40.9622 C52.312,41.257 52.9346,41.4066 53.5726,41.4066 C55.8056,41.4066 57.6184,39.5938 57.6184,37.363 C57.6184,35.1322 55.8034,33.3194 53.5726,33.3194 C52.246,33.3194 51.036,33.964 50.2814,35.0332 C48.6248,35.1014 47.2982,36.472 47.2982,38.1484 C47.296,39.871 48.6908,41.2658 50.4156,41.2658 Z" id="Shape" fill="#7C7C7C" fill-rule="nonzero"></path>
            <path d="M50.6202,36.8262 C51.003,36.879 51.3748,36.6898 51.5486,36.3488 C51.9402,35.5722 52.7124,35.0904 53.5682,35.0904 C54.8222,35.0904 55.8408,36.1112 55.8408,37.363 C55.8408,38.6148 54.8222,39.6356 53.5682,39.6356 C53.0996,39.6356 52.6442,39.4882 52.2526,39.211 C52.0986,39.1032 51.9226,39.046 51.7422,39.046 C51.5552,39.046 51.3682,39.1054 51.2098,39.222 C51.0448,39.3474 50.772,39.497 50.4156,39.497 C49.6698,39.497 49.067,38.892 49.067,38.1484 C49.0604,37.3344 49.7842,36.7008 50.6202,36.8262 Z" id="Shape" fill="#7C7C7C" fill-rule="nonzero"></path>
            <path d="M67.3424,41.73 C67.8176,41.73 68.2906,41.6772 68.7504,41.5738 C69.6282,42.39 70.7744,42.8498 71.9734,42.8498 C73.498,42.8498 74.9346,42.0996 75.8234,40.861 C77.7814,40.9512 79.7196,40.3572 81.2904,39.2044 C81.9328,39.464 82.5994,39.596 83.2616,39.596 C86.2404,39.596 88.6582,37.176 88.6582,34.2038 C88.6582,31.5748 86.7376,29.3528 84.1922,28.9106 C82.8634,25.6832 79.7174,23.5558 76.1886,23.5558 C72.6598,23.5558 69.4654,25.7448 68.1652,28.97 C64.3086,28.453 60.9338,31.5176 60.9338,35.3214 C60.9338,38.8546 63.8092,41.73 67.3424,41.73 Z" id="Shape" fill="#7C7C7C" fill-rule="nonzero"></path>
            <path d="M68.5194,30.8422 C68.9814,30.9676 69.4566,30.6992 69.5908,30.2394 C70.4598,27.3464 73.1702,25.3268 76.1908,25.3268 C79.1498,25.3268 81.7634,27.2056 82.7094,30.0106 C82.8326,30.3494 83.134,30.587 83.4904,30.6112 C85.3912,30.7322 86.8828,32.3074 86.8828,34.2038 C86.8828,36.2014 85.2614,37.825 83.2616,37.825 C82.694,37.825 82.1308,37.6798 81.5852,37.3916 C81.264,37.2244 80.8768,37.264 80.6018,37.495 C79.3654,38.5312 77.8034,39.0988 76.1886,39.0988 C75.9422,39.0988 75.6848,39.0834 75.4494,39.057 C75.0886,39.0152 74.7542,39.1956 74.5782,39.508 C74.0458,40.4738 73.0492,41.0766 71.9646,41.0766 C71.0934,41.0766 70.2684,40.6872 69.692,40.0096 C69.5204,39.805 69.2718,39.6972 69.0122,39.6972 C68.922,39.6972 68.8318,39.7104 68.746,39.739 C68.2862,39.8864 67.811,39.9612 67.3292,39.9612 C64.7728,39.9612 62.6916,37.8778 62.6916,35.3258 C62.7048,32.38 65.4944,30.0458 68.5194,30.8422 Z" id="Shape" fill="#7C7C7C" fill-rule="nonzero"></path>
            <path d="M56.2676,83.046 L45.2588,83.046 C44.7682,83.046 44.3744,83.442 44.3744,83.9304 L44.3744,90.273 C44.3744,90.7636 44.7726,91.1574 45.2588,91.1574 L56.2698,91.1574 C56.7582,91.1574 57.1542,90.7614 57.1542,90.273 L57.1542,83.9304 C57.152,83.4442 56.756,83.046 56.2676,83.046 Z M49.8788,89.3864 L46.1476,89.3864 L46.1476,84.8192 L49.8788,84.8192 L49.8788,89.3864 Z M55.381,89.3864 L51.6476,89.3864 L51.6476,84.8192 L55.381,84.8192 L55.381,89.3864 Z" id="Shape" fill="#7C7C7C" fill-rule="nonzero"></path>
            <path d="M74.378,83.046 L63.3648,83.046 C62.8786,83.046 62.4848,83.442 62.4848,83.9304 L62.4848,90.273 C62.4848,90.7636 62.8808,91.1574 63.3648,91.1574 L74.378,91.1574 C74.8686,91.1574 75.2624,90.7614 75.2624,90.273 L75.2624,83.9304 C75.2646,83.4442 74.8686,83.046 74.378,83.046 Z M67.9892,89.3864 L64.2558,89.3864 L64.2558,84.8192 L67.9892,84.8192 L67.9892,89.3864 Z M73.4936,89.3864 L69.7602,89.3864 L69.7602,84.8192 L73.4936,84.8192 L73.4936,89.3864 Z" id="Shape" fill="#7C7C7C" fill-rule="nonzero"></path>
            <path d="M92.4906,83.0504 L81.4818,83.0504 C80.9912,83.0504 80.5974,83.4464 80.5974,83.9348 L80.5974,90.273 C80.5974,90.7636 81,91.1574 81.4818,91.1574 L92.4906,91.1574 C92.9812,91.1574 93.375,90.7614 93.375,90.273 L93.375,83.9348 C93.375,83.4442 92.979,83.0504 92.4906,83.0504 Z M86.0996,89.3864 L82.3662,89.3864 L82.3662,84.8192 L86.0996,84.8192 L86.0996,89.3864 Z M91.604,89.3864 L87.8684,89.3864 L87.8684,84.8192 L91.604,84.8192 L91.604,89.3864 Z" id="Shape" fill="#7C7C7C" fill-rule="nonzero"></path>
            <path d="M105.321,96.8004 C104.6346,95.6608 103.7062,94.7368 102.6304,94.024 L102.6304,67.4524 C102.6304,67.4524 102.6326,67.448 102.6326,67.4436 L102.6326,64.1128 C102.6326,63.8026 102.472,63.5188 102.2102,63.356 C101.9484,63.1976 101.6206,63.1844 101.3456,63.3208 L80.7162,73.7444 L80.7162,64.1128 C80.7162,63.8004 80.5578,63.5166 80.296,63.3582 C80.0342,63.1954 79.7064,63.1822 79.4314,63.3186 L66.1302,70.044 L64.687,45.91 C64.6606,45.4436 64.2734,45.0784 63.8048,45.0784 L55.1676,45.0784 C54.699,45.0784 54.3096,45.4458 54.2832,45.9122 L53.1546,65.5714 L50.8974,66.7176 L50.0218,51.9292 C49.991,51.4606 49.6082,51.0954 49.1418,51.0954 L40.5046,51.0954 C40.036,51.0954 39.6488,51.4606 39.6246,51.9248 L38.32,73.069 L35.6096,74.4396 C35.3082,74.5848 35.119,74.8994 35.119,75.225 L35.119,97.9906 C35.0156,97.9774 34.91,97.9554 34.8022,97.9554 C32.3756,97.9554 30.4022,99.9266 30.4022,102.3554 C30.4022,102.8504 30.8004,103.2354 31.2844,103.2354 L108.5242,103.2354 C108.907,103.2354 109.2436,102.9956 109.3668,102.6348 C109.523,102.1574 109.6,101.7064 109.6,101.2642 C109.6,98.8618 107.697,96.8994 105.321,96.8004 Z M80.7184,75.731 L100.8594,65.5516 L100.8594,66.898 L80.7184,77.0774 L80.7184,75.731 Z M78.9452,65.5538 L78.9452,66.9024 L58.802,77.0818 L58.802,75.7332 L78.9452,65.5538 Z M56.0058,46.8494 L62.971,46.8494 L64.4098,70.9152 L58.802,73.7466 L58.802,64.1524 C58.802,63.8444 58.6414,63.5606 58.3818,63.3978 C58.12,63.2372 57.79,63.224 57.5172,63.3604 L54.9784,64.6408 L56.0058,46.8494 Z M41.3318,52.862 L48.3014,52.862 L49.1726,67.58 L40.146,72.1428 L41.3318,52.862 Z M36.8878,75.775 L50.4816,68.9044 L50.4838,68.9044 L57.0332,65.5956 L57.0332,66.9398 L46.218,72.4024 L36.89,77.1192 L36.8878,75.775 Z M32.325,101.4754 C32.6902,100.4612 33.6604,99.7308 34.8,99.7308 C35.2664,99.7308 35.7174,99.8672 36.1398,100.1136 C36.2476,100.1774 36.3642,100.217 36.483,100.2412 C36.5996,100.2588 36.7228,100.25 36.8394,100.2082 C37.0748,100.1466 37.2728,99.9794 37.385,99.7572 C38.3772,97.7926 40.355,96.5848 42.5462,96.5848 C42.8784,96.5848 43.2106,96.6266 43.5274,96.675 C43.5648,96.6794 43.6,96.6838 43.6374,96.6926 C43.9432,96.741 44.2336,96.829 44.513,96.9368 C44.5592,96.9544 44.6076,96.972 44.6494,96.983 C44.9288,97.0908 45.1906,97.2184 45.4414,97.3702 C45.4876,97.4032 45.5294,97.4208 45.5734,97.4472 C45.822,97.6012 46.064,97.7728 46.2862,97.962 C46.317,97.9928 46.3456,98.017 46.3808,98.0478 C46.6096,98.2502 46.8208,98.468 47.0166,98.7012 C47.0254,98.7144 47.0342,98.7276 47.043,98.7408 C47.2366,98.9762 47.4038,99.238 47.5556,99.4932 C47.571,99.5262 47.5886,99.5438 47.6018,99.5702 C47.747,99.832 47.8724,100.1114 47.9758,100.3952 C47.9934,100.4414 48.011,100.4854 48.022,100.5316 C48.1166,100.8154 48.1892,101.1124 48.242,101.4028 C48.242,101.4336 48.2508,101.4512 48.253,101.4754 L32.325,101.4754 Z M84.3726,98.325 C84.3264,98.38 84.2692,98.4328 84.2252,98.4922 C84.1372,98.6 84.0558,98.7122 83.9744,98.8266 C83.9458,98.8662 83.9238,98.9036 83.8886,98.9432 C83.7852,99.0972 83.6906,99.2578 83.6004,99.4206 C83.5652,99.48 83.541,99.5416 83.5102,99.601 C83.4596,99.7132 83.3958,99.821 83.3518,99.931 C83.3166,100.0036 83.299,100.0696 83.2616,100.1554 C83.2198,100.2588 83.189,100.3622 83.145,100.47 C83.1208,100.5514 83.0988,100.6328 83.0768,100.7098 C83.046,100.8176 83.0262,100.921 83.002,101.0288 C82.9778,101.1146 82.9602,101.2004 82.9536,101.2862 C82.9404,101.3456 82.925,101.4116 82.9162,101.4754 L50.0548,101.4754 C50.0372,101.3368 50.0086,101.1916 49.9866,101.0574 C49.9734,100.976 49.9646,100.899 49.9448,100.8176 C49.8986,100.602 49.8436,100.3952 49.7798,100.173 C49.7754,100.1554 49.771,100.1312 49.7644,100.1268 C49.694,99.898 49.6126,99.6758 49.5224,99.4492 C49.4872,99.3832 49.4542,99.3106 49.419,99.2336 C49.3552,99.095 49.287,98.9388 49.2144,98.8112 C49.1682,98.7342 49.1176,98.6528 49.0714,98.5714 C49.001,98.446 48.935,98.3316 48.8514,98.215 C48.7964,98.1292 48.7348,98.0478 48.6754,97.9664 C48.5984,97.8586 48.5214,97.7508 48.44,97.6518 C48.3762,97.566 48.3058,97.489 48.2332,97.412 C48.1518,97.313 48.066,97.2184 47.9758,97.1238 C47.9032,97.0512 47.8284,96.9786 47.747,96.8994 C47.6524,96.8136 47.56,96.7278 47.4632,96.6464 C47.3818,96.5782 47.3004,96.51 47.2146,96.4396 C47.1156,96.3626 47.0122,96.2856 46.9088,96.2108 C46.8208,96.1514 46.735,96.0876 46.6426,96.0304 C46.5348,95.9622 46.4248,95.894 46.317,95.8258 C46.2224,95.7774 46.1322,95.7224 46.0376,95.674 C45.921,95.6168 45.8044,95.5552 45.6856,95.5068 C45.5866,95.4606 45.492,95.4166 45.393,95.3748 C45.2676,95.3264 45.1444,95.2758 45.0146,95.2384 C44.9156,95.201 44.821,95.1702 44.7198,95.1372 C44.5834,95.0954 44.4426,95.0668 44.3062,95.0294 C44.2116,95.0052 44.117,94.9832 44.0224,94.9634 C43.8662,94.9304 43.7012,94.915 43.5406,94.8908 C43.4592,94.882 43.3778,94.8622 43.2964,94.8534 C43.0544,94.8314 42.8014,94.816 42.5528,94.816 C42.2492,94.816 41.9544,94.8358 41.6618,94.8622 C41.565,94.8798 41.4726,94.9018 41.3758,94.9084 C41.1778,94.9414 40.9842,94.9722 40.7906,95.0228 C40.6828,95.0492 40.575,95.0756 40.4694,95.113 C40.2956,95.1592 40.1218,95.2164 39.9524,95.2736 C39.8446,95.3154 39.739,95.355 39.6334,95.4012 C39.4684,95.4694 39.3056,95.5442 39.1428,95.63 C39.0438,95.6762 38.9426,95.729 38.848,95.7796 C38.6786,95.8742 38.5158,95.982 38.3508,96.0942 C38.2738,96.1404 38.1946,96.1932 38.1176,96.2482 C37.8888,96.411 37.6688,96.587 37.4576,96.7762 C37.4532,96.7806 37.4488,96.785 37.4444,96.7894 C37.2464,96.9698 37.0616,97.1634 36.8856,97.3658 L36.8856,79.1124 L47.6964,73.6476 L57.0288,68.933 L57.0288,78.5272 C57.0288,78.8374 57.185,79.1212 57.4468,79.284 C57.515,79.3258 57.5854,79.3566 57.6646,79.3742 C57.6954,79.383 57.724,79.3874 57.7548,79.3918 C57.801,79.4006 57.845,79.4094 57.8912,79.4094 C57.9,79.4094 57.9066,79.4138 57.9132,79.4138 C57.922,79.4138 57.9352,79.4094 57.944,79.4094 C58.0738,79.4006 58.1948,79.3786 58.3136,79.3192 L78.943,68.9022 L78.943,78.536 C78.943,78.8528 79.1014,79.1322 79.3588,79.295 C79.427,79.3412 79.4952,79.3654 79.5832,79.3852 C79.6118,79.3984 79.636,79.4028 79.6734,79.4072 C79.7196,79.416 79.7636,79.4248 79.8098,79.4248 C79.8186,79.4292 79.8252,79.4292 79.834,79.4292 C79.8472,79.4292 79.856,79.4248 79.8692,79.4248 C79.9968,79.416 80.1134,79.3852 80.23,79.3346 L80.2344,79.3346 L100.8594,68.911 L100.8594,93.1572 C100.8242,93.1396 100.7978,93.1308 100.756,93.1154 C100.4348,93.0032 100.1114,92.9086 99.7858,92.836 C99.601,92.7898 99.4162,92.7612 99.2292,92.7238 C99.106,92.6996 98.9916,92.682 98.8728,92.6776 C98.5516,92.6358 98.2304,92.6138 97.9092,92.6138 C94.9876,92.6138 92.2794,94.079 90.6866,96.4902 C90.1366,96.3318 89.5646,96.2504 88.9904,96.2504 C88.788,96.2504 88.5878,96.268 88.3942,96.2878 C88.3326,96.2966 88.26,96.3054 88.1962,96.3186 C88.062,96.3384 87.9388,96.356 87.8068,96.3714 C87.732,96.3912 87.6594,96.4088 87.578,96.422 C87.4658,96.4528 87.3492,96.4682 87.2436,96.5078 C87.1644,96.5298 87.094,96.554 87.0126,96.5848 C86.9092,96.62 86.8058,96.653 86.7002,96.697 C86.6254,96.7366 86.5484,96.7652 86.4714,96.8004 C86.3724,96.8466 86.2778,96.8906 86.1832,96.9368 C86.1062,96.9808 86.038,97.0138 85.9544,97.06 C85.862,97.1084 85.774,97.17 85.686,97.2228 C85.62,97.269 85.5474,97.3174 85.4748,97.3614 C85.3868,97.4164 85.3054,97.4868 85.2218,97.5506 C85.1602,97.5968 85.0854,97.654 85.026,97.7002 C84.9446,97.7728 84.8676,97.8432 84.7906,97.9246 C84.7356,97.9752 84.6696,98.0324 84.619,98.0874 C84.5244,98.1534 84.4452,98.2392 84.3726,98.325 Z M107.8158,101.4754 L84.7092,101.4754 C84.762,101.2092 84.8456,100.9562 84.9446,100.7098 C84.9798,100.6284 85.0238,100.5558 85.0656,100.4744 C85.1404,100.316 85.2218,100.1598 85.3164,100.0102 C85.3692,99.9244 85.4396,99.843 85.499,99.7616 C85.5958,99.6318 85.6948,99.5152 85.8092,99.3876 C85.8796,99.3172 85.9566,99.2446 86.038,99.1632 C86.1546,99.0598 86.2712,98.9564 86.4032,98.8618 C86.489,98.798 86.5748,98.7364 86.665,98.6814 C86.8014,98.5956 86.9466,98.5186 87.0918,98.446 C87.182,98.402 87.2722,98.3558 87.3712,98.3162 C87.5384,98.2524 87.7078,98.1996 87.8838,98.1578 C87.9696,98.1358 88.0532,98.1028 88.1412,98.0896 C88.4096,98.0412 88.6846,98.0038 88.9684,98.0038 C89.5646,98.0038 90.1454,98.1314 90.6998,98.369 C91.12,98.5538 91.6106,98.3822 91.8328,97.9774 C93.0428,95.751 95.3616,94.3716 97.8938,94.3716 C98.1996,94.3716 98.4944,94.3936 98.7914,94.431 C99.6626,94.552 100.5162,94.8402 101.3016,95.2912 C101.3236,95.3 101.3456,95.3044 101.3566,95.3132 C102.4742,95.9622 103.407,96.9192 104.0208,98.1182 C104.1858,98.4394 104.5246,98.6242 104.892,98.5956 L105.0328,98.578 C105.068,98.5736 105.0922,98.5692 105.123,98.5648 C106.6146,98.5648 107.8268,99.777 107.8268,101.2642 C107.829,101.3324 107.8246,101.4006 107.8158,101.4754 Z" id="Shape" fill="#7C7C7C" fill-rule="nonzero"></path>
            <g id="Group" transform="translate(43.600000, 23.800000)" fill="#D8D8D8" fill-rule="nonzero">
                <path d="M23.7424,16.1612 C24.2264,16.1612 24.6994,16.0886 25.1592,15.9412 C25.245,15.9148 25.3352,15.8972 25.4254,15.8972 C25.6806,15.8972 25.9292,16.0094 26.1052,16.2118 C26.6816,16.8916 27.5088,17.281 28.3734,17.281 C29.4514,17.281 30.448,16.6804 30.987,15.7124 C31.1586,15.3978 31.493,15.2174 31.8582,15.257 C32.0936,15.2856 32.351,15.301 32.5974,15.301 C34.2034,15.301 35.7764,14.729 37.0128,13.6972 C37.2878,13.4684 37.6794,13.4266 37.994,13.5938 C38.5396,13.882 39.1028,14.025 39.6704,14.025 C41.668,14.025 43.2916,12.3992 43.2916,10.4038 C43.2916,8.5074 41.8,6.9278 39.8992,6.8068 C39.5428,6.7826 39.2326,6.5494 39.1182,6.2084 C38.1722,3.4078 35.5586,1.5224 32.5996,1.5224 C29.579,1.5224 26.8708,3.5464 25.9996,6.4372 C25.8632,6.8948 25.3902,7.1654 24.9282,7.04 C21.9032,6.2436 19.1114,8.58 19.1114,11.5236 C19.1048,14.08 21.186,16.1612 23.7424,16.1612 Z" id="Shape"></path>
                <path d="M6.8156,15.697 C7.172,15.697 7.4448,15.5474 7.6098,15.422 C7.7682,15.3054 7.9552,15.246 8.1422,15.246 C8.3226,15.246 8.4986,15.301 8.6526,15.411 C9.0442,15.6882 9.4996,15.8356 9.9682,15.8356 C11.2222,15.8356 12.2408,14.8148 12.2408,13.563 C12.2408,12.3112 11.2222,11.2904 9.9682,11.2904 C9.1124,11.2904 8.3402,11.7744 7.9486,12.5488 C7.7748,12.8898 7.403,13.079 7.0202,13.0262 C6.1776,12.8986 5.4604,13.5344 5.4604,14.3484 C5.4604,15.0898 6.0698,15.697 6.8156,15.697 Z" id="Shape"></path>
                <circle id="Oval" cx="1.6588" cy="22.1628" r="1.4102"></circle>
            </g>
            <g id="Rectangle-2-Copy-2">
                <use fill="black" fill-opacity="1" filter="url(#filter-4)" xlink:href="#path-3"></use>
                <use fill="#FFFFFF" fill-rule="evenodd" xlink:href="#path-3"></use>
            </g>
            <text id="Commercial" font-family="OpenSans-Regular, Open Sans" font-size="12" font-weight="normal" fill="#7C7C7C">
                <tspan x="36.3847656" y="162">Commercial</tspan>
            </text>
        </g>
    </g>
</svg>