<?xml version="1.0" encoding="UTF-8"?>
<svg width="156px" height="182px" viewBox="0 0 156 182" version="1.1" xmlns="http://www.w3.org/2000/svg" xmlns:xlink="http://www.w3.org/1999/xlink">
    <!-- Generator: Sketch 51.3 (57544) - http://www.bohemiancoding.com/sketch -->
    <title>Group 7</title>
    <desc>Created with Sketch.</desc>
    <defs>
        <rect id="path-1" x="0" y="0" width="140" height="25" rx="4"></rect>
        <filter x="-10.0%" y="-40.0%" width="120.0%" height="212.0%" filterUnits="objectBoundingBox" id="filter-2">
            <feMorphology radius="0.5" operator="dilate" in="SourceAlpha" result="shadowSpreadOuter1"></feMorphology>
            <feOffset dx="0" dy="4" in="shadowSpreadOuter1" result="shadowOffsetOuter1"></feOffset>
            <feGaussianBlur stdDeviation="3.5" in="shadowOffsetOuter1" result="shadowBlurOuter1"></feGaussianBlur>
            <feColorMatrix values="0 0 0 0 0   0 0 0 0 0   0 0 0 0 0  0 0 0 0.2 0" type="matrix" in="shadowBlurOuter1"></feColorMatrix>
        </filter>
        <circle id="path-3" cx="70" cy="70" r="55"></circle>
        <filter x="-12.7%" y="-9.1%" width="125.5%" height="125.5%" filterUnits="objectBoundingBox" id="filter-4">
            <feMorphology radius="0.5" operator="dilate" in="SourceAlpha" result="shadowSpreadOuter1"></feMorphology>
            <feOffset dx="0" dy="4" in="shadowSpreadOuter1" result="shadowOffsetOuter1"></feOffset>
            <feGaussianBlur stdDeviation="3.5" in="shadowOffsetOuter1" result="shadowBlurOuter1"></feGaussianBlur>
            <feColorMatrix values="0 0 0 0 0   0 0 0 0 0   0 0 0 0 0  0 0 0 0.2 0" type="matrix" in="shadowBlurOuter1"></feColorMatrix>
        </filter>
    </defs>
    <g id="icons" stroke="none" stroke-width="1" fill="none" fill-rule="evenodd">
        <g id="Group-7" transform="translate(8.000000, 0.000000)">
            <g id="Group-9-Copy" transform="translate(0.000000, 145.000000)">
                <g id="Rectangle-2-Copy">
                    <use fill="black" fill-opacity="1" filter="url(#filter-2)" xlink:href="#path-1"></use>
                    <use fill="#FFFFFF" fill-rule="evenodd" xlink:href="#path-1"></use>
                </g>
                <text id="Condo-/-Apartment" font-family="OpenSans-Regular, Open Sans" font-size="12" font-weight="normal" fill="#7C7C7C">
                    <tspan x="16.1611328" y="17">Condo / Apartment</tspan>
                </text>
            </g>
            <circle id="Oval-9-Copy-2" fill="#FFFFFF" cx="70" cy="70" r="70"></circle>
            <g id="Oval-Copy" fill-rule="nonzero">
                <use fill="black" fill-opacity="1" filter="url(#filter-4)" xlink:href="#path-3"></use>
                <use fill="#FFFFFF" xlink:href="#path-3"></use>
            </g>
            <g id="Group-2" transform="translate(37.000000, 30.000000)">
                <rect id="Rectangle-path" fill="#D8D8D8" fill-rule="nonzero" x="12.1748" y="0.5288" width="41.6504" height="76.5446"></rect>
                <rect id="Rectangle-path" fill="#A3A3A3" fill-rule="nonzero" x="16.8146" y="16.1752" width="6.204" height="6.2018"></rect>
                <rect id="Rectangle-path" fill="#A3A3A3" fill-rule="nonzero" x="29.898" y="16.1752" width="6.204" height="6.2018"></rect>
                <rect id="Rectangle-path" fill="#A3A3A3" fill-rule="nonzero" x="42.9814" y="16.1752" width="6.204" height="6.2018"></rect>
                <rect id="Rectangle-path" fill="#A3A3A3" fill-rule="nonzero" x="16.8146" y="26.8452" width="6.204" height="6.1996"></rect>
                <rect id="Rectangle-path" fill="#A3A3A3" fill-rule="nonzero" x="29.898" y="26.8452" width="6.204" height="6.1996"></rect>
                <rect id="Rectangle-path" fill="#A3A3A3" fill-rule="nonzero" x="42.9814" y="26.8452" width="6.204" height="6.1996"></rect>
                <rect id="Rectangle-path" fill="#A3A3A3" fill-rule="nonzero" x="16.8146" y="26.8452" width="6.204" height="6.1996"></rect>
                <rect id="Rectangle-path" fill="#A3A3A3" fill-rule="nonzero" x="29.898" y="26.8452" width="6.204" height="6.1996"></rect>
                <rect id="Rectangle-path" fill="#A3A3A3" fill-rule="nonzero" x="42.9814" y="26.8452" width="6.204" height="6.1996"></rect>
                <rect id="Rectangle-path" fill="#A3A3A3" fill-rule="nonzero" x="16.8146" y="37.5196" width="6.204" height="6.1996"></rect>
                <rect id="Rectangle-path" fill="#A3A3A3" fill-rule="nonzero" x="29.898" y="37.5196" width="6.204" height="6.1996"></rect>
                <rect id="Rectangle-path" fill="#A3A3A3" fill-rule="nonzero" x="42.9814" y="37.5196" width="6.204" height="6.1996"></rect>
                <rect id="Rectangle-path" fill="#A3A3A3" fill-rule="nonzero" x="16.8146" y="37.5196" width="6.204" height="6.1996"></rect>
                <rect id="Rectangle-path" fill="#A3A3A3" fill-rule="nonzero" x="29.898" y="37.5196" width="6.204" height="6.1996"></rect>
                <rect id="Rectangle-path" fill="#A3A3A3" fill-rule="nonzero" x="42.9814" y="37.5196" width="6.204" height="6.1996"></rect>
                <rect id="Rectangle-path" fill="#A3A3A3" fill-rule="nonzero" x="16.8146" y="48.194" width="6.204" height="6.1996"></rect>
                <rect id="Rectangle-path" fill="#A3A3A3" fill-rule="nonzero" x="29.898" y="48.194" width="6.204" height="6.1996"></rect>
                <rect id="Rectangle-path" fill="#A3A3A3" fill-rule="nonzero" x="42.9814" y="48.194" width="6.204" height="6.1996"></rect>
                <rect id="Rectangle-path" fill="#A3A3A3" fill-rule="nonzero" x="16.8146" y="48.194" width="6.204" height="6.1996"></rect>
                <rect id="Rectangle-path" fill="#A3A3A3" fill-rule="nonzero" x="29.898" y="48.194" width="6.204" height="6.1996"></rect>
                <rect id="Rectangle-path" fill="#A3A3A3" fill-rule="nonzero" x="42.9814" y="48.194" width="6.204" height="6.1996"></rect>
                <rect id="Rectangle-path" fill="#A3A3A3" fill-rule="nonzero" x="16.8146" y="58.8618" width="6.204" height="6.1996"></rect>
                <rect id="Rectangle-path" fill="#A3A3A3" fill-rule="nonzero" x="42.9814" y="58.8618" width="6.204" height="6.1996"></rect>
                <polyline id="Shape" fill="#A3A3A3" fill-rule="nonzero" points="27.7926 77.0712 27.7926 58.8618 38.203 58.8618 38.203 77.0712"></polyline>
                <path d="M1.2342,77.0712 L64.7658,77.0712" id="Shape"></path>
                <path d="M33.0022,4.0004 C47.9908,4.0004 46.1604,12.2394 46.1604,12.2394 L33.0022,12.2394 L19.8396,12.2394 C19.8396,12.2394 18.0136,4.0004 33.0022,4.0004 Z" id="Shape" fill="#A3A3A3" fill-rule="nonzero"></path>
                <g id="Group" transform="translate(0.000000, 0.200000)" fill="#7C7C7C" fill-rule="nonzero">
                    <path d="M23.0186,15.8752 L16.8146,15.8752 C16.2096,15.8752 15.7146,16.368 15.7146,16.9752 L15.7146,23.177 C15.7146,23.782 16.2096,24.277 16.8146,24.277 L23.0186,24.277 C23.6236,24.277 24.1186,23.782 24.1186,23.177 L24.1186,16.9752 C24.1186,16.3658 23.6236,15.8752 23.0186,15.8752 Z M21.9186,22.077 L17.9146,22.077 L17.9146,18.0752 L21.9186,18.0752 L21.9186,22.077 Z" id="Shape"></path>
                    <path d="M36.102,15.8752 L29.898,15.8752 C29.293,15.8752 28.798,16.368 28.798,16.9752 L28.798,23.177 C28.798,23.782 29.293,24.277 29.898,24.277 L36.102,24.277 C36.707,24.277 37.202,23.782 37.202,23.177 L37.202,16.9752 C37.202,16.3658 36.7136,15.8752 36.102,15.8752 Z M35.002,22.077 L30.998,22.077 L30.998,18.0752 L35.002,18.0752 L35.002,22.077 Z" id="Shape"></path>
                    <path d="M41.8814,16.9752 L41.8814,23.177 C41.8814,23.782 42.3764,24.277 42.9814,24.277 L49.1854,24.277 C49.786,24.277 50.2854,23.782 50.2854,23.177 L50.2854,16.9752 C50.2854,16.368 49.786,15.8752 49.1854,15.8752 L42.9814,15.8752 C42.3764,15.8752 41.8814,16.3658 41.8814,16.9752 Z M44.0814,18.0752 L48.0854,18.0752 L48.0854,22.077 L44.0814,22.077 L44.0814,18.0752 Z" id="Shape"></path>
                    <path d="M23.0186,26.5452 L16.8146,26.5452 C16.2096,26.5452 15.7146,27.038 15.7146,27.6452 L15.7146,33.8448 C15.7146,34.452 16.2096,34.9448 16.8146,34.9448 L23.0186,34.9448 C23.6236,34.9448 24.1186,34.452 24.1186,33.8448 L24.1186,27.6452 C24.1186,27.038 23.6236,26.5452 23.0186,26.5452 Z M21.9186,32.7492 L17.9146,32.7492 L17.9146,28.7474 L21.9186,28.7474 L21.9186,32.7492 Z" id="Shape"></path>
                    <path d="M36.102,26.5452 L29.898,26.5452 C29.293,26.5452 28.798,27.038 28.798,27.6452 L28.798,33.8448 C28.798,34.452 29.293,34.9448 29.898,34.9448 L36.102,34.9448 C36.707,34.9448 37.202,34.452 37.202,33.8448 L37.202,27.6452 C37.202,27.038 36.7136,26.5452 36.102,26.5452 Z M35.002,32.7492 L30.998,32.7492 L30.998,28.7474 L35.002,28.7474 L35.002,32.7492 Z" id="Shape"></path>
                    <path d="M49.1854,26.5452 L42.9814,26.5452 C42.3764,26.5452 41.8814,27.038 41.8814,27.6452 L41.8814,33.8448 C41.8814,34.452 42.3764,34.9448 42.9814,34.9448 L49.1854,34.9448 C49.786,34.9448 50.2854,34.452 50.2854,33.8448 L50.2854,27.6452 C50.2854,27.038 49.7948,26.5452 49.1854,26.5452 Z M48.0854,32.7492 L44.0814,32.7492 L44.0814,28.7474 L48.0854,28.7474 L48.0854,32.7492 Z" id="Shape"></path>
                    <path d="M23.0186,37.2196 L16.8146,37.2196 C16.2096,37.2196 15.7146,37.7146 15.7146,38.3196 L15.7146,44.5192 C15.7146,45.1286 16.2096,45.6192 16.8146,45.6192 L23.0186,45.6192 C23.6236,45.6192 24.1186,45.1286 24.1186,44.5192 L24.1186,38.3196 C24.1186,37.7146 23.6236,37.2196 23.0186,37.2196 Z M21.9186,43.4192 L17.9146,43.4192 L17.9146,39.4196 L21.9186,39.4196 L21.9186,43.4192 Z" id="Shape"></path>
                    <path d="M36.102,37.2196 L29.898,37.2196 C29.293,37.2196 28.798,37.7146 28.798,38.3196 L28.798,44.5192 C28.798,45.1286 29.293,45.6192 29.898,45.6192 L36.102,45.6192 C36.707,45.6192 37.202,45.1286 37.202,44.5192 L37.202,38.3196 C37.202,37.7146 36.7136,37.2196 36.102,37.2196 Z M35.002,43.4192 L30.998,43.4192 L30.998,39.4196 L35.002,39.4196 L35.002,43.4192 Z" id="Shape"></path>
                    <path d="M49.1854,37.2196 L42.9814,37.2196 C42.3764,37.2196 41.8814,37.7146 41.8814,38.3196 L41.8814,44.5192 C41.8814,45.1286 42.3764,45.6192 42.9814,45.6192 L49.1854,45.6192 C49.786,45.6192 50.2854,45.1286 50.2854,44.5192 L50.2854,38.3196 C50.2854,37.7146 49.7948,37.2196 49.1854,37.2196 Z M48.0854,43.4192 L44.0814,43.4192 L44.0814,39.4196 L48.0854,39.4196 L48.0854,43.4192 Z" id="Shape"></path>
                    <path d="M23.0186,47.894 L16.8146,47.894 C16.2096,47.894 15.7146,48.3912 15.7146,48.994 L15.7146,55.1936 C15.7146,55.8008 16.2096,56.2936 16.8146,56.2936 L23.0186,56.2936 C23.6236,56.2936 24.1186,55.8008 24.1186,55.1936 L24.1186,48.994 C24.1186,48.3824 23.6236,47.894 23.0186,47.894 Z M21.9186,54.0936 L17.9146,54.0936 L17.9146,50.094 L21.9186,50.094 L21.9186,54.0936 Z" id="Shape"></path>
                    <path d="M36.102,47.894 L29.898,47.894 C29.293,47.894 28.798,48.3912 28.798,48.994 L28.798,55.1936 C28.798,55.8008 29.293,56.2936 29.898,56.2936 L36.102,56.2936 C36.707,56.2936 37.202,55.8008 37.202,55.1936 L37.202,48.994 C37.202,48.3824 36.7136,47.894 36.102,47.894 Z M35.002,54.0936 L30.998,54.0936 L30.998,50.094 L35.002,50.094 L35.002,54.0936 Z" id="Shape"></path>
                    <path d="M49.1854,47.894 L42.9814,47.894 C42.3764,47.894 41.8814,48.3912 41.8814,48.994 L41.8814,55.1936 C41.8814,55.8008 42.3764,56.2936 42.9814,56.2936 L49.1854,56.2936 C49.786,56.2936 50.2854,55.8008 50.2854,55.1936 L50.2854,48.994 C50.2854,48.3824 49.7948,47.894 49.1854,47.894 Z M48.0854,54.0936 L44.0814,54.0936 L44.0814,50.094 L48.0854,50.094 L48.0854,54.0936 Z" id="Shape"></path>
                    <path d="M23.0186,58.5618 L16.8146,58.5618 C16.2096,58.5618 15.7146,59.0546 15.7146,59.6618 L15.7146,65.8614 C15.7146,66.4642 16.2096,66.9614 16.8146,66.9614 L23.0186,66.9614 C23.6236,66.9614 24.1186,66.4642 24.1186,65.8614 L24.1186,59.6618 C24.1186,59.0546 23.6236,58.5618 23.0186,58.5618 Z M21.9186,64.7636 L17.9146,64.7636 L17.9146,60.764 L21.9186,60.764 L21.9186,64.7636 Z" id="Shape"></path>
                    <path d="M49.1854,58.5618 L42.9814,58.5618 C42.3764,58.5618 41.8814,59.0546 41.8814,59.6618 L41.8814,65.8614 C41.8814,66.4642 42.3764,66.9614 42.9814,66.9614 L49.1854,66.9614 C49.786,66.9614 50.2854,66.4642 50.2854,65.8614 L50.2854,59.6618 C50.2854,59.0546 49.7948,58.5618 49.1854,58.5618 Z M48.0854,64.7636 L44.0814,64.7636 L44.0814,60.764 L48.0854,60.764 L48.0854,64.7636 Z" id="Shape"></path>
                    <path d="M64.7658,76.7712 L54.9142,76.7712 L54.9142,1.3288 C54.9142,0.7238 54.4214,0.2288 53.8142,0.2288 L12.1682,0.2288 C11.561,0.2288 11.0682,0.7238 11.0682,1.3288 L11.0682,76.7734 L1.2298,76.7734 C0.6226,76.7734 0.1298,77.2662 0.1298,77.8734 C0.1298,78.474 0.6226,78.9734 1.2298,78.9734 L64.7636,78.9734 C65.3642,78.9734 65.8636,78.474 65.8636,77.8734 C65.8658,77.264 65.3752,76.7712 64.7658,76.7712 Z M13.2726,2.4288 L52.723,2.4288 L52.723,76.7734 L39.303,76.7734 L39.303,59.664 C39.303,59.0568 38.808,58.564 38.203,58.564 L27.7926,58.564 C27.1876,58.564 26.6926,59.0568 26.6926,59.664 L26.6926,76.7734 L13.2726,76.7734 L13.2726,2.4288 Z M37.103,76.7712 L28.8926,76.7712 L28.8926,60.7618 L37.103,60.7618 L37.103,76.7712 Z" id="Shape"></path>
                    <path d="M19.8396,14.1394 L46.167,14.1394 C46.6752,14.1394 47.1306,13.7808 47.2406,13.277 C47.267,13.1604 47.8368,10.4192 45.793,7.865 C43.5754,5.0996 39.27,3.6982 33.0066,3.6982 C26.7366,3.6982 22.4312,5.0996 20.2202,7.865 C18.1654,10.4192 18.7462,13.1604 18.7726,13.277 C18.876,13.7808 19.3226,14.1394 19.8396,14.1394 Z M21.9296,9.2422 C23.6852,7.0554 27.5132,5.8982 33.0022,5.8982 C38.456,5.8982 42.2774,7.0422 44.0484,9.2026 C44.8646,10.2036 45.0956,11.2354 45.1308,11.935 L20.8736,11.935 C20.9198,11.2442 21.1398,10.2212 21.9296,9.2422 Z" id="Shape"></path>
                </g>
            </g>
        </g>
    </g>
</svg>