<?xml version="1.0" encoding="UTF-8"?>
<svg width="160px" height="182px" viewBox="0 0 160 182" version="1.1" xmlns="http://www.w3.org/2000/svg" xmlns:xlink="http://www.w3.org/1999/xlink">
    <!-- Generator: Sketch 51.3 (57544) - http://www.bohemiancoding.com/sketch -->
    <title>Group 18</title>
    <desc>Created with Sketch.</desc>
    <defs>
        <circle id="path-1" cx="70" cy="70" r="55"></circle>
        <filter x="-13.9%" y="-10.2%" width="127.7%" height="127.7%" filterUnits="objectBoundingBox" id="filter-2">
            <feMorphology radius="1.75" operator="dilate" in="SourceAlpha" result="shadowSpreadOuter1"></feMorphology>
            <feOffset dx="0" dy="4" in="shadowSpreadOuter1" result="shadowOffsetOuter1"></feOffset>
            <feGaussianBlur stdDeviation="3.5" in="shadowOffsetOuter1" result="shadowBlurOuter1"></feGaussianBlur>
            <feComposite in="shadowBlurOuter1" in2="SourceAlpha" operator="out" result="shadowBlurOuter1"></feComposite>
            <feColorMatrix values="0 0 0 0 0   0 0 0 0 0   0 0 0 0 0  0 0 0 0.2 0" type="matrix" in="shadowBlurOuter1"></feColorMatrix>
        </filter>
        <rect id="path-3" x="0" y="145" width="144" height="25" rx="4"></rect>
        <filter x="-9.7%" y="-40.0%" width="119.4%" height="212.0%" filterUnits="objectBoundingBox" id="filter-4">
            <feMorphology radius="0.5" operator="dilate" in="SourceAlpha" result="shadowSpreadOuter1"></feMorphology>
            <feOffset dx="0" dy="4" in="shadowSpreadOuter1" result="shadowOffsetOuter1"></feOffset>
            <feGaussianBlur stdDeviation="3.5" in="shadowOffsetOuter1" result="shadowBlurOuter1"></feGaussianBlur>
            <feComposite in="shadowBlurOuter1" in2="SourceAlpha" operator="out" result="shadowBlurOuter1"></feComposite>
            <feColorMatrix values="0 0 0 0 0   0 0 0 0 0   0 0 0 0 0  0 0 0 0.2 0" type="matrix" in="shadowBlurOuter1"></feColorMatrix>
        </filter>
    </defs>
    <g id="Page-3" stroke="none" stroke-width="1" fill="none" fill-rule="evenodd">
        <g id="Group-18" transform="translate(8.000000, 0.000000)">
            <g id="Group-5" transform="translate(2.000000, 0.000000)">
                <circle id="Oval-9-Copy-3" fill="#FFFFFF" cx="70" cy="70" r="70"></circle>
                <g id="Oval-Copy-2" fill-rule="nonzero">
                    <use fill="black" fill-opacity="1" filter="url(#filter-2)" xlink:href="#path-1"></use>
                    <use stroke="#FFC300" stroke-width="2.5" fill="#FFFFFF" xlink:href="#path-1"></use>
                </g>
                <g id="home_sell" transform="translate(30.000000, 32.000000)" fill-rule="nonzero">
                    <polyline id="Shape" fill="#FEC30E" points="32.872 64.906 32.872 44.2282 32.872 44.1996 47.1434 44.1996 47.1434 44.2282 47.1434 64.906"></polyline>
                    <rect id="Rectangle-path" fill="#FEC30E" x="18.4334" y="30.3154" width="8.3094" height="8.3116"></rect>
                    <rect id="Rectangle-path" fill="#FEC30E" x="35.8552" y="30.3154" width="8.2984" height="8.3116"></rect>
                    <rect id="Rectangle-path" fill="#FEC30E" x="35.8552" y="30.3154" width="8.2984" height="8.3116"></rect>
                    <rect id="Rectangle-path" fill="#FEC30E" x="53.2792" y="30.3154" width="8.2984" height="8.3116"></rect>
                    <rect id="Rectangle-path" fill="#FEC30E" x="18.4334" y="44.4108" width="8.3094" height="8.3006"></rect>
                    <rect id="Rectangle-path" fill="#FEC30E" x="53.2792" y="44.4108" width="8.2984" height="8.3006"></rect>
                    <polygon id="Shape" fill="#FEC30E" points="9.5476 30.9864 40 10.1942 70.4546 30.9864 74.045 25.5348 40 2.294 5.955 25.5348"></polygon>
                    <polygon id="Shape" fill="#FEC30E" points="16.6844 18.2066 16.6844 6.2364 23.5836 6.2364 23.5836 13.6834"></polygon>
                    <g id="Group" transform="translate(0.400000, 0.600000)" fill="#AA892F">
                        <path d="M26.345,28.6154 L18.0378,28.6154 C17.4306,28.6154 16.9378,29.1082 16.9378,29.7154 L16.9378,38.027 C16.9378,38.632 17.4306,39.127 18.0378,39.127 L26.345,39.127 C26.9522,39.127 27.445,38.632 27.445,38.027 L27.445,29.7154 C27.445,29.106 26.9522,28.6154 26.345,28.6154 Z M25.245,36.927 L19.1378,36.927 L19.1378,30.8154 L25.245,30.8154 L25.245,36.927 Z" id="Shape"></path>
                        <path d="M34.3552,29.7154 L34.3552,38.027 C34.3552,38.632 34.848,39.127 35.4552,39.127 L43.7536,39.127 C44.3564,39.127 44.8536,38.632 44.8536,38.027 L44.8536,29.7154 C44.8536,29.1082 44.3564,28.6154 43.7536,28.6154 L35.4552,28.6154 C34.848,28.6154 34.3552,29.106 34.3552,29.7154 Z M36.5552,30.8154 L42.6536,30.8154 L42.6536,36.927 L36.5552,36.927 L36.5552,30.8154 Z" id="Shape"></path>
                        <path d="M52.8792,39.127 L61.1776,39.127 C61.7804,39.127 62.2776,38.632 62.2776,38.027 L62.2776,29.7154 C62.2776,29.1082 61.7804,28.6154 61.1776,28.6154 L52.8792,28.6154 C52.272,28.6154 51.7792,29.1082 51.7792,29.7154 L51.7792,38.027 C51.7792,38.6364 52.272,39.127 52.8792,39.127 Z M53.9792,30.8154 L60.0776,30.8154 L60.0776,36.927 L53.9792,36.927 L53.9792,30.8154 Z" id="Shape"></path>
                        <path d="M26.345,42.7108 L18.0378,42.7108 C17.4306,42.7108 16.9378,43.2058 16.9378,43.8108 L16.9378,52.1114 C16.9378,52.7142 17.4306,53.2114 18.0378,53.2114 L26.345,53.2114 C26.9522,53.2114 27.445,52.7142 27.445,52.1114 L27.445,43.8108 C27.445,43.2058 26.9522,42.7108 26.345,42.7108 Z M25.245,51.0136 L19.1378,51.0136 L19.1378,44.9174 L25.245,44.9174 L25.245,51.0136 Z" id="Shape"></path>
                        <path d="M52.8792,53.2136 L61.1776,53.2136 C61.7804,53.2136 62.2776,52.7208 62.2776,52.1136 L62.2776,43.8174 C62.2776,43.2168 61.7804,42.7174 61.1776,42.7174 L52.8792,42.7174 C52.272,42.7174 51.7792,43.2168 51.7792,43.8174 L51.7792,52.1136 C51.7792,52.723 52.272,53.2136 52.8792,53.2136 Z M53.9792,44.9108 L60.0776,44.9108 L60.0776,51.0114 L53.9792,51.0114 L53.9792,44.9108 Z" id="Shape"></path>
                        <path d="M78.1,63.206 L67.8656,63.206 L67.8656,30.2236 L69.4298,31.2884 C69.4342,31.2928 69.4386,31.2972 69.443,31.3016 C69.4672,31.3148 69.4892,31.3104 69.498,31.3192 C69.6454,31.405 69.8082,31.4512 69.9754,31.46 C70.0018,31.4622 70.0216,31.482 70.048,31.482 C70.0788,31.482 70.1052,31.4622 70.136,31.46 C70.1822,31.4556 70.224,31.4688 70.268,31.46 C70.3406,31.4468 70.4044,31.4094 70.466,31.3786 C70.5122,31.3588 70.5562,31.3478 70.6024,31.328 C70.752,31.2444 70.8884,31.1344 70.9874,30.9914 L74.58,25.5398 C74.9012,25.036 74.7736,24.365 74.2742,24.0262 L40.2204,0.781 C39.8442,0.5302 39.3492,0.5302 38.9796,0.781 L24.2836,10.8174 L24.2836,5.6386 C24.2836,5.0314 23.7908,4.5386 23.1836,4.5386 L16.2844,4.5386 C15.6794,4.5386 15.1844,5.0314 15.1844,5.6386 L15.1844,17.0302 L4.9346,24.0306 C4.4374,24.3694 4.3076,25.0426 4.6354,25.5442 L8.228,30.998 C8.3908,31.2422 8.6438,31.4138 8.932,31.471 C9.0024,31.4886 9.0728,31.493 9.1476,31.493 C9.3676,31.493 9.581,31.4292 9.7658,31.3038 L11.2596,30.2852 L11.2596,63.206 L1.1,63.206 C0.495,63.206 0,63.6988 0,64.306 C0,64.9066 0.495,65.406 1.1,65.406 L78.1,65.406 C78.705,65.406 79.2,64.9066 79.2,64.306 C79.2,63.6988 78.705,63.206 78.1,63.206 Z M17.3844,6.7364 L22.0836,6.7364 L22.0836,12.32 L17.3844,15.5254 L17.3844,6.7364 Z M9.4512,28.8442 L7.0708,25.2296 L16.995,18.4536 L23.7886,14.003 C23.9558,13.8908 24.0812,13.739 24.167,13.5652 L39.6,3.025 L72.1248,25.2296 L69.7444,28.8464 L40.2204,8.6922 C39.8442,8.4392 39.3492,8.4392 38.9796,8.6922 L9.4512,28.8442 Z M45.6434,63.206 L33.572,63.206 L33.572,44.6996 L45.6434,44.6996 L45.6434,63.206 Z M65.6656,63.206 L47.8434,63.206 L47.8434,43.5996 C47.8434,42.9924 47.3506,42.4996 46.7434,42.4996 L32.472,42.4996 C31.867,42.4996 31.372,43.0188 31.372,43.6282 L31.372,63.206 L13.4596,63.206 L13.4596,28.7738 L39.6,10.9296 L65.6656,28.7254 L65.6656,63.206 Z" id="Shape"></path>
                    </g>
                    <path d="M13.8596,29.3738 L13.8596,63.806 L31.772,63.806 L31.772,44.2282 C31.772,43.621 32.267,43.0996 32.872,43.0996 L47.1434,43.0996 C47.7506,43.0996 48.2434,43.5924 48.2434,44.1996 L48.2434,63.806 L66.0656,63.806 L66.0656,29.3254 L40,11.5296 L13.8596,29.3738 Z M27.845,52.7136 C27.845,53.3208 27.3522,53.8136 26.745,53.8136 L18.4378,53.8136 C17.8306,53.8136 17.3378,53.3208 17.3378,52.7136 L17.3378,44.4174 C17.3378,43.8168 17.8306,43.3174 18.4378,43.3174 L26.745,43.3174 C27.3522,43.3174 27.845,43.8168 27.845,44.4174 L27.845,52.7136 Z M27.845,38.627 C27.845,39.232 27.3522,39.727 26.745,39.727 L18.4378,39.727 C17.8306,39.727 17.3378,39.232 17.3378,38.627 L17.3378,30.3154 C17.3378,29.7082 17.8306,29.2154 18.4378,29.2154 L26.745,29.2154 C27.3522,29.2154 27.845,29.7082 27.845,30.3154 L27.845,38.627 Z M52.1792,30.3154 C52.1792,29.7082 52.672,29.2154 53.2792,29.2154 L61.5776,29.2154 C62.1804,29.2154 62.6776,29.7082 62.6776,30.3154 L62.6776,38.627 C62.6776,39.232 62.1804,39.727 61.5776,39.727 L53.2792,39.727 C52.672,39.727 52.1792,39.2364 52.1792,38.627 L52.1792,30.3154 Z M52.1792,44.4108 C52.1792,43.8058 52.672,43.3108 53.2792,43.3108 L61.5776,43.3108 C62.1804,43.3108 62.6776,43.8058 62.6776,44.4108 L62.6776,52.7114 C62.6776,53.3142 62.1804,53.8114 61.5776,53.8114 L53.2792,53.8114 C52.672,53.8114 52.1792,53.3164 52.1792,52.7114 L52.1792,44.4108 Z M45.2558,30.3154 L45.2558,38.627 C45.2558,39.232 44.763,39.727 44.1558,39.727 L35.8596,39.727 C35.2524,39.727 34.7596,39.232 34.7596,38.627 L34.7596,30.3154 C34.7596,29.7082 35.2524,29.2154 35.8596,29.2154 L44.1558,29.2154 C44.763,29.2154 45.2558,29.706 45.2558,30.3154 Z" id="Shape" fill="#FFDA72"></path>
                </g>
            </g>
            <g id="Rectangle-2">
                <use fill="black" fill-opacity="1" filter="url(#filter-4)" xlink:href="#path-3"></use>
                <rect stroke="#FFC300" stroke-width="2" stroke-linejoin="square" fill="#FFFFFF" fill-rule="evenodd" x="1" y="146" width="142" height="23" rx="4"></rect>
            </g>
            <text id="House-/-Townhouse" font-family="OpenSans-SemiBold, Open Sans" font-size="14" font-weight="500" fill="#AA892F">
                <tspan x="5.21289062" y="163">House / Townhouse</tspan>
            </text>
        </g>
    </g>
</svg>