<?xml version="1.0" encoding="UTF-8"?>
<svg width="140px" height="182px" viewBox="0 0 140 182" version="1.1" xmlns="http://www.w3.org/2000/svg" xmlns:xlink="http://www.w3.org/1999/xlink">
    <!-- Generator: Sketch 51.3 (57544) - http://www.bohemiancoding.com/sketch -->
    <title>Group 15</title>
    <desc>Created with Sketch.</desc>
    <defs>
        <circle id="path-1" cx="70" cy="70" r="55"></circle>
        <filter x="-13.9%" y="-10.2%" width="127.7%" height="127.7%" filterUnits="objectBoundingBox" id="filter-2">
            <feMorphology radius="1.75" operator="dilate" in="SourceAlpha" result="shadowSpreadOuter1"></feMorphology>
            <feOffset dx="0" dy="4" in="shadowSpreadOuter1" result="shadowOffsetOuter1"></feOffset>
            <feGaussianBlur stdDeviation="3.5" in="shadowOffsetOuter1" result="shadowBlurOuter1"></feGaussianBlur>
            <feComposite in="shadowBlurOuter1" in2="SourceAlpha" operator="out" result="shadowBlurOuter1"></feComposite>
            <feColorMatrix values="0 0 0 0 0   0 0 0 0 0   0 0 0 0 0  0 0 0 0.2 0" type="matrix" in="shadowBlurOuter1"></feColorMatrix>
        </filter>
        <rect id="path-3" x="24" y="145" width="92" height="25" rx="4"></rect>
        <filter x="-15.2%" y="-40.0%" width="130.4%" height="212.0%" filterUnits="objectBoundingBox" id="filter-4">
            <feMorphology radius="0.5" operator="dilate" in="SourceAlpha" result="shadowSpreadOuter1"></feMorphology>
            <feOffset dx="0" dy="4" in="shadowSpreadOuter1" result="shadowOffsetOuter1"></feOffset>
            <feGaussianBlur stdDeviation="3.5" in="shadowOffsetOuter1" result="shadowBlurOuter1"></feGaussianBlur>
            <feComposite in="shadowBlurOuter1" in2="SourceAlpha" operator="out" result="shadowBlurOuter1"></feComposite>
            <feColorMatrix values="0 0 0 0 0   0 0 0 0 0   0 0 0 0 0  0 0 0 0.2 0" type="matrix" in="shadowBlurOuter1"></feColorMatrix>
        </filter>
    </defs>
    <g id="Page-3" stroke="none" stroke-width="1" fill="none" fill-rule="evenodd">
        <g id="Group-15">
            <circle id="Oval-9-Copy-4" fill="#FFFFFF" cx="70" cy="70" r="70"></circle>
            <g id="Oval-Copy-3" fill-rule="nonzero">
                <use fill="black" fill-opacity="1" filter="url(#filter-2)" xlink:href="#path-1"></use>
                <use stroke="#1283C6" stroke-width="2.5" fill="#FFFFFF" xlink:href="#path-1"></use>
            </g>
            <g id="Group-16" transform="translate(30.000000, 23.000000)">
                <path d="M1.5,72.762 L78.5,72.762" id="Shape"></path>
                <path d="M18.0308,77.525 C18.0154,77.481 17.9978,77.4392 17.9846,77.3908 C17.8812,77.107 17.7558,76.8276 17.6128,76.5658 C17.5974,76.535 17.5798,76.5152 17.5666,76.4888 C17.4148,76.227 17.2454,75.974 17.054,75.7364 C17.0452,75.7232 17.0364,75.7056 17.0276,75.6924 C16.8318,75.4636 16.6162,75.2414 16.3918,75.039 C16.3566,75.0038 16.328,74.9884 16.2972,74.9532 C16.0706,74.764 15.833,74.5924 15.5844,74.4428 C15.5404,74.412 15.4986,74.3922 15.4524,74.3658 C15.2016,74.2162 14.9398,74.0864 14.6604,73.9786 C14.6142,73.9566 14.5702,73.939 14.524,73.928 C14.2424,73.8246 13.9498,73.7388 13.6484,73.6838 C13.611,73.675 13.5758,73.6706 13.5406,73.6662 C13.2194,73.6112 12.8894,73.576 12.5572,73.576 C10.366,73.576 8.3882,74.7926 7.396,76.755 C7.2838,76.975 7.0858,77.1378 6.8504,77.206 C6.7338,77.2412 6.615,77.25 6.494,77.2324 C6.3708,77.2148 6.2586,77.1774 6.1508,77.1114 C5.7284,76.8584 5.2774,76.7286 4.811,76.7286 C3.6714,76.7286 2.7012,77.459 2.336,78.4732 L18.2684,78.4732 C18.2662,78.4468 18.2596,78.427 18.2552,78.4006 C18.198,78.1014 18.1254,77.8088 18.0308,77.525 Z" id="Shape" fill="#1884C6" fill-rule="nonzero"></path>
                <path d="M75.1318,75.5648 C75.101,75.5692 75.0724,75.5736 75.0416,75.578 L74.8964,75.5956 C74.54,75.6264 74.199,75.4416 74.0274,75.1182 C73.4136,73.9192 72.4764,72.9622 71.3632,72.3132 C71.3434,72.3044 71.3236,72.3 71.3082,72.2912 C70.5294,71.8402 69.6714,71.552 68.798,71.431 C68.501,71.387 68.2018,71.3716 67.9004,71.3716 C65.3748,71.3716 63.0494,72.751 61.8394,74.9774 C61.6172,75.3822 61.1332,75.5538 60.7064,75.369 C60.152,75.1292 59.5668,75.0038 58.975,75.0038 C58.6912,75.0038 58.4162,75.039 58.1478,75.0896 C58.0598,75.1028 57.9762,75.1358 57.8904,75.1578 C57.7144,75.2018 57.5406,75.2524 57.3734,75.3162 C57.2788,75.3558 57.1886,75.402 57.094,75.446 C56.951,75.5186 56.8014,75.5956 56.6694,75.6814 C56.5792,75.7364 56.4934,75.798 56.4076,75.8618 C56.2778,75.9564 56.159,76.0598 56.0424,76.1632 C55.9632,76.2358 55.8884,76.3084 55.8136,76.3876 C55.7014,76.513 55.6002,76.6318 55.5034,76.7616 C55.444,76.843 55.3758,76.9244 55.3208,77.0102 C55.2262,77.1598 55.1448,77.316 55.07,77.4744 C55.0282,77.5558 54.9842,77.6284 54.949,77.7098 C54.8478,77.954 54.7664,78.2092 54.7136,78.4754 L77.8224,78.4754 C77.8312,78.4028 77.8356,78.339 77.8356,78.2642 C77.829,76.777 76.6212,75.5648 75.1318,75.5648 Z" id="Shape" fill="#1884C6" fill-rule="nonzero"></path>
                <g id="Group" transform="translate(15.800000, 60.200000)" fill="#1884C6" fill-rule="nonzero">
                    <rect id="Rectangle-path" x="0.3432" y="1.6192" width="3.7334" height="4.5672"></rect>
                    <rect id="Rectangle-path" x="5.8476" y="1.6192" width="3.7334" height="4.5672"></rect>
                    <rect id="Rectangle-path" x="36.5662" y="1.6192" width="3.7334" height="4.5672"></rect>
                    <rect id="Rectangle-path" x="42.0684" y="1.6192" width="3.7356" height="4.5672"></rect>
                    <rect id="Rectangle-path" x="18.4558" y="1.6192" width="3.7334" height="4.5672"></rect>
                    <rect id="Rectangle-path" x="23.9602" y="1.6192" width="3.7334" height="4.5672"></rect>
                </g>
                <path d="M55.015,74.6892 C55.0766,74.6386 55.147,74.5858 55.2108,74.5352 C55.2944,74.4714 55.3736,74.4054 55.4638,74.346 C55.532,74.2998 55.6002,74.2514 55.675,74.2096 C55.763,74.1546 55.851,74.093 55.9434,74.0468 C56.0182,74.0006 56.0908,73.9654 56.17,73.9214 C56.2646,73.8752 56.3592,73.8268 56.4582,73.785 C56.5308,73.7498 56.6078,73.719 56.687,73.6816 C56.7904,73.6398 56.896,73.6046 56.9994,73.5694 C57.0808,73.5408 57.1512,73.5144 57.2304,73.4924 C57.3426,73.455 57.4592,73.4352 57.5648,73.4066 C57.6374,73.3846 57.7122,73.3648 57.7936,73.3538 C57.9256,73.3296 58.0488,73.312 58.183,73.301 C58.2468,73.2878 58.3172,73.2768 58.381,73.268 C58.579,73.2504 58.7814,73.235 58.9772,73.235 C59.558,73.235 60.1234,73.3164 60.6734,73.4748 C62.275,71.0658 64.9744,69.6006 67.896,69.6006 C68.2172,69.6006 68.5406,69.6292 68.8596,69.6622 C68.9784,69.6732 69.0972,69.6908 69.216,69.7084 C69.403,69.7436 69.5878,69.7744 69.7726,69.8206 C70.1026,69.8932 70.4304,69.9878 70.7472,70.1 C70.7846,70.1132 70.8132,70.122 70.8506,70.1374 L70.8506,45.8868 L50.2256,56.3104 L50.2212,56.3104 C50.1046,56.361 49.9836,56.3918 49.8604,56.4006 C49.8472,56.4006 49.8384,56.405 49.8208,56.405 C49.8142,56.405 49.8076,56.405 49.7988,56.4006 C49.7526,56.4006 49.7086,56.3918 49.6624,56.383 C49.6294,56.3786 49.603,56.3698 49.5722,56.361 C49.4952,56.3434 49.427,56.3148 49.3522,56.2708 C49.0904,56.1124 48.932,55.8286 48.932,55.514 L48.932,45.8802 L28.307,56.2994 C28.186,56.3588 28.065,56.3808 27.9374,56.3896 C27.9242,56.3896 27.9132,56.394 27.9044,56.394 C27.8978,56.394 27.8912,56.3896 27.8824,56.3896 C27.8362,56.3896 27.7922,56.3808 27.746,56.372 C27.713,56.3676 27.6822,56.3632 27.6558,56.3544 C27.5788,56.3368 27.5084,56.3038 27.4358,56.2642 C27.174,56.1014 27.0156,55.8176 27.0156,55.5074 L27.0156,45.922 L17.6876,50.6366 L6.8724,56.1014 L6.8724,74.3548 C7.0484,74.1524 7.2376,73.9632 7.4334,73.7828 C7.4378,73.7784 7.4422,73.774 7.4466,73.7696 C7.6578,73.5804 7.8778,73.4044 8.1066,73.2372 C8.1836,73.1822 8.2628,73.1338 8.3376,73.0832 C8.5004,72.971 8.661,72.8676 8.837,72.773 C8.9316,72.718 9.0306,72.6696 9.1296,72.619 C9.2902,72.5376 9.453,72.465 9.6202,72.3902 C9.728,72.3462 9.8336,72.3044 9.9414,72.2648 C10.1108,72.2054 10.2846,72.1482 10.4584,72.102 C10.564,72.0668 10.6718,72.0382 10.7796,72.0118 C10.9732,71.9656 11.1668,71.9304 11.3648,71.8996 C11.4594,71.8864 11.5496,71.86 11.6486,71.8534 C11.9412,71.8182 12.2404,71.8028 12.5374,71.8028 C12.7882,71.8028 13.0412,71.816 13.2854,71.8424 C13.3668,71.8512 13.4438,71.8688 13.5296,71.882 C13.688,71.904 13.8508,71.926 14.007,71.9502 C14.106,71.9766 14.1962,71.9964 14.2908,72.0184 C14.4294,72.0536 14.5702,72.0822 14.7066,72.1262 C14.8056,72.1614 14.9046,72.19 15.0036,72.2252 C15.1312,72.2714 15.2544,72.3154 15.382,72.3616 C15.481,72.4056 15.5756,72.443 15.6702,72.4958 C15.7912,72.542 15.9078,72.6036 16.0222,72.663 C16.1168,72.7092 16.2114,72.7664 16.3016,72.8126 C16.416,72.8808 16.526,72.949 16.6294,73.0194 C16.7218,73.0744 16.8076,73.1404 16.8956,73.1998 C16.999,73.268 17.1046,73.345 17.2036,73.4286 C17.285,73.4968 17.3686,73.565 17.45,73.6398 C17.5468,73.7212 17.6392,73.807 17.7338,73.8928 C17.8108,73.9654 17.8856,74.038 17.9604,74.1172 C18.0506,74.2118 18.1364,74.3064 18.2222,74.4054 C18.2904,74.4824 18.3586,74.5594 18.4246,74.6452 C18.5104,74.7442 18.5874,74.852 18.6644,74.9598 C18.7216,75.0412 18.7854,75.1226 18.8382,75.2084 C18.9174,75.325 18.9834,75.4394 19.056,75.5648 C19.1044,75.6462 19.1594,75.7276 19.2012,75.8046 C19.2738,75.941 19.3376,76.084 19.4036,76.2292 C19.441,76.293 19.474,76.3656 19.507,76.4448 C19.5972,76.6692 19.683,76.887 19.7512,77.1202 C19.7556,77.1378 19.76,77.1554 19.7688,77.1664 C19.8304,77.3864 19.8898,77.591 19.9316,77.811 C19.9492,77.8924 19.958,77.9694 19.9712,78.0464 C19.9998,78.1872 20.024,78.3302 20.0438,78.471 L52.8986,78.471 C52.9074,78.4072 52.9228,78.3412 52.9338,78.2818 C52.9558,78.196 52.969,78.1102 52.98,78.0244 C53.0086,77.9166 53.0306,77.8132 53.0614,77.7054 C53.0878,77.6284 53.1076,77.547 53.1296,77.4656 C53.1692,77.3578 53.2044,77.2544 53.2462,77.151 C53.2814,77.074 53.3012,77.0014 53.3364,76.9266 C53.3826,76.81 53.4398,76.7022 53.4948,76.5966 C53.5256,76.5372 53.5498,76.4756 53.585,76.4162 C53.6752,76.2534 53.7698,76.095 53.8732,75.9388 C53.9062,75.8948 53.9304,75.8618 53.959,75.8222 C54.0404,75.7012 54.1218,75.5934 54.2098,75.4878 C54.256,75.4284 54.3088,75.3756 54.3572,75.3206 C54.4298,75.2348 54.5068,75.149 54.586,75.0676 C54.641,75.0126 54.7026,74.9598 54.7598,74.9048 C54.8566,74.8344 54.9336,74.7618 55.015,74.6892 Z M27.1542,67.273 C27.1542,67.7636 26.756,68.1574 26.2698,68.1574 L15.2588,68.1574 C14.7682,68.1574 14.3744,67.7614 14.3744,67.273 L14.3744,60.9304 C14.3744,60.4398 14.7726,60.046 15.2588,60.046 L26.2676,60.046 C26.7582,60.046 27.152,60.4464 27.1542,60.9304 L27.1542,67.273 Z M45.2646,67.273 C45.2646,67.7636 44.8686,68.1574 44.3846,68.1574 L33.3714,68.1574 C32.8852,68.1574 32.4914,67.7614 32.4914,67.273 L32.4914,60.9304 C32.4914,60.4398 32.8874,60.046 33.3714,60.046 L44.3846,60.046 C44.8752,60.046 45.2646,60.4464 45.2646,60.9304 L45.2646,67.273 Z M51.4818,68.1574 C50.9912,68.1574 50.5974,67.7614 50.5974,67.273 L50.5974,60.9348 C50.5974,60.4442 50.9978,60.0504 51.4818,60.0504 L62.4906,60.0504 C62.9812,60.0504 63.375,60.4464 63.375,60.9348 L63.375,67.273 C63.375,67.7636 62.979,68.1574 62.4906,68.1574 L51.4818,68.1574 Z" id="Shape" fill="#8DD4F6" fill-rule="nonzero"></path>
                <polygon id="Shape" fill="#1884C6" fill-rule="nonzero" points="27.031 43.9398 27.031 42.5956 20.4838 45.9044 20.4816 45.9044 6.8878 52.775 6.8878 54.1192 16.2158 49.4068"></polygon>
                <polygon id="Shape" fill="#1884C6" fill-rule="nonzero" points="70.8594 42.5538 50.7184 52.731 50.7184 54.0818 70.8594 43.9024"></polygon>
                <polygon id="Shape" fill="#1884C6" fill-rule="nonzero" points="28.802 54.0818 48.9452 43.9024 48.9452 42.5538 28.802 52.731"></polygon>
                <polygon id="Shape" fill="#1884C6" fill-rule="nonzero" points="18.3014 29.862 11.3318 29.862 10.146 49.145 19.1704 44.58"></polygon>
                <path d="M28.3818,40.4 C28.6414,40.5628 28.802,40.8466 28.802,41.1546 L28.802,50.7488 L34.4098,47.9174 L32.971,23.8538 L26.0058,23.8538 L24.9784,41.6474 L27.5172,40.367 C27.79,40.224 28.12,40.2372 28.3818,40.4 Z" id="Shape" fill="#1884C6" fill-rule="nonzero"></path>
                <circle id="Oval" fill="#025680" fill-rule="nonzero" cx="15.2588" cy="22.9628" r="3.1812"></circle>
                <circle id="Oval" fill="#025680" fill-rule="nonzero" cx="15.2588" cy="22.9628" r="1.4102"></circle>
                <path d="M20.4156,18.2658 C20.8754,18.2658 21.3264,18.1668 21.7444,17.9622 C22.312,18.257 22.9346,18.4066 23.5726,18.4066 C25.8056,18.4066 27.6184,16.5938 27.6184,14.363 C27.6184,12.1322 25.8034,10.3194 23.5726,10.3194 C22.246,10.3194 21.036,10.964 20.2814,12.0332 C18.6248,12.1014 17.2982,13.472 17.2982,15.1484 C17.296,16.871 18.6908,18.2658 20.4156,18.2658 Z" id="Shape" fill="#025680" fill-rule="nonzero"></path>
                <path d="M20.6202,13.8262 C21.003,13.879 21.3748,13.6898 21.5486,13.3488 C21.9402,12.5722 22.7124,12.0904 23.5682,12.0904 C24.8222,12.0904 25.8408,13.1112 25.8408,14.363 C25.8408,15.6148 24.8222,16.6356 23.5682,16.6356 C23.0996,16.6356 22.6442,16.4882 22.2526,16.211 C22.0986,16.1032 21.9226,16.046 21.7422,16.046 C21.5552,16.046 21.3682,16.1054 21.2098,16.222 C21.0448,16.3474 20.772,16.497 20.4156,16.497 C19.6698,16.497 19.067,15.892 19.067,15.1484 C19.0604,14.3344 19.7842,13.7008 20.6202,13.8262 Z" id="Shape" fill="#025680" fill-rule="nonzero"></path>
                <path d="M37.3424,18.73 C37.8176,18.73 38.2906,18.6772 38.7504,18.5738 C39.6282,19.39 40.7744,19.8498 41.9734,19.8498 C43.5002,19.8498 44.9346,19.0996 45.8234,17.861 C47.7814,17.9512 49.7196,17.3572 51.2926,16.2044 C51.935,16.464 52.5994,16.596 53.2638,16.596 C56.2404,16.596 58.6604,14.176 58.6604,11.2038 C58.6604,8.5748 56.7398,6.3528 54.1922,5.9106 C52.8634,2.6832 49.7174,0.5558 46.1908,0.5558 C42.662,0.5558 39.4676,2.7448 38.1652,5.97 C34.3086,5.453 30.9338,8.5176 30.9338,12.3214 C30.9338,15.8546 33.8092,18.73 37.3424,18.73 Z" id="Shape" fill="#025680" fill-rule="nonzero"></path>
                <path d="M38.5194,7.8422 C38.9814,7.9676 39.4566,7.6992 39.5908,7.2394 C40.4598,4.3464 43.1702,2.3268 46.1908,2.3268 C49.1476,2.3268 51.7634,4.2056 52.7094,7.0106 C52.8304,7.3494 53.134,7.587 53.4904,7.6112 C55.3912,7.7322 56.8828,9.3074 56.8828,11.2038 C56.8828,13.2014 55.2614,14.825 53.2616,14.825 C52.694,14.825 52.1308,14.6798 51.5852,14.3916 C51.264,14.2244 50.8768,14.264 50.6018,14.495 C49.3654,15.5312 47.8034,16.0988 46.1886,16.0988 C45.9422,16.0988 45.687,16.0834 45.4494,16.057 C45.0886,16.0152 44.7542,16.1956 44.5782,16.508 C44.0458,17.4738 43.0492,18.0766 41.9646,18.0766 C41.0934,18.0766 40.2684,17.6872 39.692,17.0096 C39.5226,16.805 39.274,16.6972 39.0166,16.6972 C38.9264,16.6972 38.8362,16.7104 38.746,16.739 C38.2906,16.8864 37.8132,16.9612 37.3314,16.9612 C34.775,16.9612 32.696,14.8778 32.696,12.3258 C32.7048,9.38 35.4944,7.0458 38.5194,7.8422 Z" id="Shape" fill="#025680" fill-rule="nonzero"></path>
                <path d="M26.2676,60.046 L15.2588,60.046 C14.7682,60.046 14.3744,60.442 14.3744,60.9304 L14.3744,67.273 C14.3744,67.7636 14.7726,68.1574 15.2588,68.1574 L26.2698,68.1574 C26.7582,68.1574 27.1542,67.7614 27.1542,67.273 L27.1542,60.9304 C27.152,60.4442 26.756,60.046 26.2676,60.046 Z M19.8788,66.3864 L16.1476,66.3864 L16.1476,61.8192 L19.8788,61.8192 L19.8788,66.3864 Z M25.381,66.3864 L21.6476,66.3864 L21.6476,61.8192 L25.381,61.8192 L25.381,66.3864 Z" id="Shape" fill="#025680" fill-rule="nonzero"></path>
                <path d="M44.378,60.046 L33.3648,60.046 C32.8786,60.046 32.4848,60.442 32.4848,60.9304 L32.4848,67.273 C32.4848,67.7636 32.8808,68.1574 33.3648,68.1574 L44.378,68.1574 C44.8686,68.1574 45.2624,67.7614 45.2624,67.273 L45.2624,60.9304 C45.2646,60.4442 44.8686,60.046 44.378,60.046 Z M37.9892,66.3864 L34.2558,66.3864 L34.2558,61.8192 L37.9892,61.8192 L37.9892,66.3864 Z M43.4936,66.3864 L39.7602,66.3864 L39.7602,61.8192 L43.4936,61.8192 L43.4936,66.3864 Z" id="Shape" fill="#025680" fill-rule="nonzero"></path>
                <path d="M62.4906,60.0504 L51.4818,60.0504 C50.9912,60.0504 50.5974,60.4464 50.5974,60.9348 L50.5974,67.273 C50.5974,67.7636 50.9978,68.1574 51.4818,68.1574 L62.4906,68.1574 C62.9812,68.1574 63.375,67.7614 63.375,67.273 L63.375,60.9348 C63.375,60.4442 62.979,60.0504 62.4906,60.0504 Z M56.0996,66.3864 L52.3662,66.3864 L52.3662,61.8192 L56.0996,61.8192 L56.0996,66.3864 Z M61.604,66.3864 L57.8684,66.3864 L57.8684,61.8192 L61.604,61.8192 L61.604,66.3864 Z" id="Shape" fill="#025680" fill-rule="nonzero"></path>
                <path d="M75.321,73.8004 C74.6346,72.6608 73.7062,71.7346 72.6304,71.024 L72.6304,44.4524 C72.6304,44.4524 72.6326,44.448 72.6326,44.4436 L72.6326,41.1128 C72.6326,40.8026 72.472,40.5188 72.2102,40.356 C71.9484,40.1976 71.6206,40.1844 71.3456,40.3208 L50.7162,50.7444 L50.7162,41.1128 C50.7162,40.8004 50.5578,40.5166 50.296,40.3582 C50.0342,40.1954 49.7064,40.1822 49.4314,40.3186 L36.1302,47.044 L34.687,22.91 C34.6606,22.4436 34.2734,22.0784 33.8048,22.0784 L25.1676,22.0784 C24.699,22.0784 24.3096,22.4458 24.2832,22.9122 L23.1546,42.5714 L20.8974,43.7176 L20.0218,28.9292 C19.991,28.4606 19.6082,28.0954 19.1418,28.0954 L10.5046,28.0954 C10.036,28.0954 9.6488,28.4606 9.6246,28.9248 L8.32,50.069 L5.6096,51.4396 C5.3082,51.587 5.119,51.8994 5.119,52.2272 L5.119,74.9906 C5.0156,74.9796 4.91,74.9576 4.8022,74.9576 C2.3756,74.9576 0.4022,76.9288 0.4022,79.3576 C0.4022,79.8504 0.8004,80.2398 1.2844,80.2398 L78.5242,80.2398 C78.907,80.2398 79.2436,79.9978 79.3668,79.637 C79.523,79.1574 79.6,78.7064 79.6,78.2642 C79.6,75.8618 77.697,73.8994 75.321,73.8004 Z M50.7184,52.731 L70.8594,42.5516 L70.8594,43.898 L50.7184,54.0774 L50.7184,52.731 Z M48.9452,42.5538 L48.9452,43.9024 L28.802,54.0818 L28.802,52.7332 L48.9452,42.5538 Z M26.0058,23.8494 L32.971,23.8494 L34.4098,47.9152 L28.802,50.7466 L28.802,41.1524 C28.802,40.8444 28.6414,40.5606 28.3818,40.3978 C28.12,40.2372 27.79,40.224 27.5172,40.3604 L24.9784,41.6408 L26.0058,23.8494 Z M11.3318,29.862 L18.3014,29.862 L19.1726,44.58 L10.146,49.1428 L11.3318,29.862 Z M6.8878,52.775 L20.4816,45.9044 L20.4838,45.9044 L27.0332,42.5956 L27.0332,43.9398 L16.218,49.4024 L6.89,54.1192 L6.8878,52.775 Z M2.325,78.4754 C2.6902,77.4612 3.6604,76.7308 4.8,76.7308 C5.2664,76.7308 5.7174,76.865 6.1398,77.1136 C6.2476,77.1774 6.3642,77.217 6.483,77.239 C6.5996,77.2566 6.7228,77.2478 6.8394,77.2082 C7.0748,77.1444 7.2728,76.9794 7.385,76.7572 C8.3772,74.7926 10.355,73.5826 12.5462,73.5826 C12.8784,73.5826 13.2106,73.6222 13.5274,73.6728 C13.5648,73.6772 13.6,73.6816 13.6374,73.6904 C13.9432,73.741 14.2336,73.8268 14.513,73.9346 C14.5592,73.9522 14.6076,73.9698 14.6494,73.9808 C14.9288,74.0886 15.1906,74.2162 15.4414,74.368 C15.4876,74.3988 15.5294,74.4186 15.5734,74.445 C15.822,74.599 16.064,74.7706 16.2862,74.9598 C16.317,74.9906 16.3456,75.0148 16.3808,75.0456 C16.6096,75.248 16.8208,75.4658 17.0166,75.699 C17.0254,75.7122 17.0342,75.7254 17.043,75.7386 C17.2366,75.974 17.4038,76.2336 17.5556,76.491 C17.571,76.5218 17.5886,76.5416 17.6018,76.568 C17.747,76.8298 17.8724,77.1092 17.9758,77.393 C17.9934,77.4392 18.011,77.4832 18.022,77.5294 C18.1166,77.8132 18.1892,78.1102 18.242,78.4006 C18.242,78.4314 18.2508,78.4512 18.253,78.4732 L2.325,78.4732 L2.325,78.4754 Z M54.3726,75.325 C54.3264,75.38 54.2692,75.4328 54.2252,75.4922 C54.1372,75.6 54.0558,75.7122 53.9744,75.8266 C53.9458,75.8662 53.9216,75.9036 53.8886,75.9432 C53.7852,76.0972 53.6906,76.2578 53.6004,76.4206 C53.5652,76.48 53.541,76.5416 53.5102,76.601 C53.4574,76.7132 53.3958,76.821 53.3518,76.931 C53.3166,77.0036 53.2968,77.0718 53.2616,77.1554 C53.2198,77.2588 53.1868,77.3622 53.145,77.47 C53.1208,77.5514 53.0988,77.6328 53.0768,77.7098 C53.046,77.8176 53.024,77.921 52.9998,78.0288 C52.9778,78.1146 52.9602,78.2004 52.9492,78.2862 C52.9382,78.3456 52.9228,78.4116 52.914,78.4754 L20.0548,78.4754 C20.0372,78.3346 20.0086,78.1916 19.9866,78.0552 C19.9734,77.9738 19.9646,77.8968 19.9448,77.8154 C19.8986,77.5998 19.8436,77.3908 19.7798,77.1708 C19.7754,77.1532 19.771,77.1312 19.7644,77.1246 C19.694,76.8958 19.6126,76.6736 19.5224,76.4492 C19.4872,76.381 19.4542,76.3084 19.419,76.2336 C19.3552,76.0928 19.287,75.941 19.2144,75.809 C19.1682,75.732 19.1176,75.6506 19.0714,75.5692 C19.001,75.4438 18.935,75.3294 18.8514,75.2128 C18.7964,75.127 18.7348,75.0456 18.6754,74.9642 C18.5984,74.8564 18.5214,74.7486 18.44,74.6496 C18.3762,74.5638 18.3058,74.4868 18.2332,74.4098 C18.1518,74.3108 18.066,74.2162 17.9758,74.1216 C17.9032,74.049 17.8284,73.9764 17.747,73.8972 C17.6524,73.8114 17.56,73.7256 17.4632,73.6442 C17.3818,73.576 17.3004,73.5078 17.2146,73.4374 C17.1156,73.3604 17.0122,73.2834 16.9088,73.2086 C16.8208,73.1492 16.735,73.0854 16.6426,73.0282 C16.5348,72.96 16.4248,72.8918 16.317,72.8236 C16.2224,72.7752 16.1322,72.7202 16.0376,72.6718 C15.921,72.6146 15.8044,72.553 15.6856,72.5046 C15.5866,72.4584 15.492,72.4144 15.393,72.3726 C15.2676,72.3242 15.1444,72.2736 15.0146,72.234 C14.9156,72.1988 14.821,72.168 14.7198,72.135 C14.5834,72.0932 14.4426,72.0646 14.3062,72.0272 C14.2116,72.003 14.117,71.981 14.0224,71.959 C13.8662,71.9282 13.7012,71.9106 13.5406,71.8886 C13.4592,71.8798 13.3778,71.86 13.2964,71.8512 C13.0544,71.8292 12.8014,71.8138 12.5528,71.8138 C12.2492,71.8138 11.9544,71.8336 11.6618,71.8622 C11.565,71.8776 11.4726,71.8996 11.3758,71.9084 C11.1778,71.9414 10.9842,71.9722 10.7906,72.0228 C10.6828,72.0492 10.575,72.0756 10.4694,72.113 C10.2956,72.1592 10.1218,72.2164 9.9524,72.2736 C9.8446,72.3154 9.739,72.355 9.6334,72.4012 C9.4684,72.4694 9.3056,72.5442 9.1428,72.63 C9.0438,72.6784 8.9426,72.729 8.848,72.7818 C8.6786,72.8764 8.5158,72.982 8.3508,73.0942 C8.2738,73.1426 8.1946,73.1932 8.1176,73.2482 C7.8888,73.4132 7.6688,73.5892 7.4576,73.7784 C7.4532,73.7828 7.4488,73.7872 7.4444,73.7916 C7.2464,73.972 7.0616,74.1634 6.8856,74.3658 L6.8856,56.1124 L17.6964,50.6476 L27.0288,45.933 L27.0288,55.5272 C27.0288,55.8374 27.185,56.1212 27.4468,56.284 C27.515,56.3236 27.5854,56.3566 27.6646,56.3742 C27.6954,56.383 27.724,56.3874 27.7548,56.3918 C27.801,56.4006 27.845,56.4094 27.8912,56.4094 C27.9,56.4094 27.9066,56.4138 27.9132,56.4138 C27.922,56.4138 27.9352,56.4094 27.944,56.4094 C28.0738,56.4006 28.1948,56.3786 28.3136,56.3192 L48.943,45.9 L48.943,55.5338 C48.943,55.8484 49.1014,56.13 49.361,56.2906 C49.4292,56.3368 49.4996,56.3632 49.5832,56.3808 C49.6118,56.394 49.6382,56.3984 49.6734,56.4028 C49.7196,56.4116 49.7636,56.4204 49.8098,56.4204 C49.8186,56.4248 49.8252,56.4248 49.834,56.4248 C49.8472,56.4248 49.856,56.4204 49.8692,56.4204 C49.9946,56.4116 50.1134,56.3808 50.23,56.3302 L50.2344,56.3302 L70.8594,45.9066 L70.8594,70.1528 C70.8242,70.1352 70.7956,70.1264 70.756,70.1132 C70.4348,70.001 70.1114,69.9064 69.7836,69.8338 C69.5988,69.7876 69.414,69.7568 69.227,69.7216 C69.106,69.6996 68.9894,69.682 68.8706,69.6754 C68.5494,69.6358 68.2282,69.6116 67.907,69.6116 C64.9854,69.6116 62.2772,71.0768 60.6844,73.488 C60.1344,73.3296 59.5624,73.2482 58.986,73.2482 C58.7836,73.2482 58.5834,73.2658 58.3876,73.2834 C58.326,73.2922 58.2556,73.301 58.1896,73.3142 C58.0576,73.3318 57.9322,73.3494 57.8024,73.3692 C57.7254,73.3868 57.6528,73.4044 57.5736,73.4198 C57.4614,73.4506 57.3448,73.466 57.237,73.5056 C57.1578,73.5276 57.0852,73.5518 57.0038,73.5826 C56.9004,73.6178 56.797,73.6508 56.6936,73.6948 C56.6166,73.7344 56.5396,73.763 56.4648,73.7982 C56.3658,73.8444 56.2712,73.8884 56.1766,73.9346 C56.0996,73.9764 56.0292,74.0116 55.9478,74.0578 C55.8554,74.1062 55.7674,74.1678 55.6794,74.2206 C55.6134,74.2668 55.5408,74.3152 55.4682,74.3592 C55.3802,74.4164 55.2988,74.4846 55.2152,74.5484 C55.1536,74.5968 55.0788,74.6518 55.0194,74.7002 C54.938,74.7728 54.861,74.8432 54.784,74.9224 C54.729,74.9752 54.663,75.0302 54.6124,75.0852 C54.5244,75.1534 54.4452,75.2392 54.3726,75.325 Z M77.8158,78.4754 L54.7092,78.4754 C54.762,78.2092 54.8456,77.9562 54.9446,77.7098 C54.9798,77.6284 55.0238,77.5558 55.0656,77.4744 C55.1404,77.316 55.2218,77.1598 55.3164,77.0102 C55.3692,76.9244 55.4396,76.843 55.499,76.7616 C55.5958,76.6318 55.6948,76.513 55.8092,76.3876 C55.8796,76.315 55.9566,76.2424 56.038,76.1632 C56.1546,76.0598 56.2712,75.9564 56.4032,75.8618 C56.489,75.798 56.5748,75.7364 56.665,75.6814 C56.8014,75.5956 56.9466,75.5186 57.0918,75.446 C57.182,75.402 57.2722,75.3558 57.3712,75.3162 C57.5384,75.2524 57.71,75.1996 57.886,75.1578 C57.9718,75.1358 58.0554,75.1028 58.1434,75.0896 C58.4118,75.039 58.6868,75.0038 58.9706,75.0038 C59.5668,75.0038 60.1476,75.1292 60.702,75.369 C61.1244,75.5538 61.6128,75.3822 61.835,74.9774 C63.0428,72.751 65.3638,71.3716 67.8938,71.3716 C68.1996,71.3716 68.4966,71.3936 68.7936,71.431 C69.6648,71.552 70.5184,71.8402 71.3016,72.2912 C71.3236,72.3 71.3456,72.3044 71.3588,72.3132 C72.4742,72.9622 73.407,73.9192 74.023,75.1182 C74.188,75.4394 74.5268,75.6242 74.8942,75.5956 L75.0372,75.578 C75.0702,75.5736 75.0966,75.5692 75.1274,75.5648 C76.6168,75.5648 77.829,76.777 77.829,78.2642 C77.829,78.3324 77.8246,78.4006 77.8158,78.4754 Z" id="Shape" fill="#025680" fill-rule="nonzero"></path>
                <g id="Group" transform="translate(13.600000, 0.800000)" fill="#8DD4F6" fill-rule="nonzero">
                    <path d="M23.7424,16.1612 C24.2264,16.1612 24.6994,16.0886 25.1592,15.9412 C25.245,15.9148 25.3352,15.8972 25.4254,15.8972 C25.6806,15.8972 25.9292,16.0094 26.1052,16.2118 C26.6816,16.8916 27.5088,17.281 28.3734,17.281 C29.4514,17.281 30.4502,16.6804 30.987,15.7124 C31.1586,15.3978 31.493,15.2174 31.8582,15.257 C32.0958,15.2856 32.351,15.301 32.5974,15.301 C34.2056,15.301 35.7764,14.729 37.0128,13.6972 C37.2878,13.4684 37.6794,13.4266 37.994,13.5938 C38.5396,13.882 39.1028,14.025 39.6704,14.025 C41.668,14.025 43.2916,12.3992 43.2916,10.4038 C43.2916,8.5074 41.8,6.9278 39.8992,6.8068 C39.5428,6.7826 39.2326,6.5494 39.1182,6.2084 C38.1722,3.4078 35.5564,1.5224 32.5996,1.5224 C29.579,1.5224 26.8708,3.5464 25.9996,6.4372 C25.8632,6.8948 25.3902,7.1654 24.9282,7.04 C21.9032,6.2436 19.1114,8.58 19.1114,11.5236 C19.1048,14.08 21.186,16.1612 23.7424,16.1612 Z" id="Shape"></path>
                    <path d="M6.8156,15.697 C7.172,15.697 7.4448,15.5474 7.6098,15.422 C7.7682,15.3054 7.9552,15.246 8.1422,15.246 C8.3226,15.246 8.4986,15.301 8.6526,15.411 C9.0442,15.6882 9.4996,15.8356 9.9682,15.8356 C11.2222,15.8356 12.2408,14.8148 12.2408,13.563 C12.2408,12.3112 11.2222,11.2904 9.9682,11.2904 C9.1124,11.2904 8.3402,11.7744 7.9486,12.5488 C7.7748,12.8898 7.403,13.079 7.0202,13.0262 C6.1776,12.8986 5.4604,13.5344 5.4604,14.3484 C5.4604,15.0898 6.0698,15.697 6.8156,15.697 Z" id="Shape"></path>
                    <circle id="Oval" cx="1.6588" cy="22.1628" r="1.4102"></circle>
                </g>
            </g>
            <g id="Rectangle-2-Copy-3">
                <use fill="black" fill-opacity="1" filter="url(#filter-4)" xlink:href="#path-3"></use>
                <rect stroke="#1283C6" stroke-width="2" stroke-linejoin="square" fill="#FFFFFF" fill-rule="evenodd" x="25" y="146" width="90" height="23" rx="4"></rect>
            </g>
            <text id="Commercial" font-family="OpenSans-SemiBold, Open Sans" font-size="14" font-weight="500" fill="#025680">
                <tspan x="29.421875" y="163">Commercial</tspan>
            </text>
        </g>
    </g>
</svg>