<?xml version="1.0" encoding="UTF-8"?>
<svg width="160px" height="182px" viewBox="0 0 160 182" version="1.1" xmlns="http://www.w3.org/2000/svg" xmlns:xlink="http://www.w3.org/1999/xlink">
    <!-- Generator: Sketch 51.3 (57544) - http://www.bohemiancoding.com/sketch -->
    <title>Group 17</title>
    <desc>Created with Sketch.</desc>
    <defs>
        <rect id="path-1" x="0" y="145" width="144" height="25" rx="4"></rect>
        <filter x="-9.7%" y="-40.0%" width="119.4%" height="212.0%" filterUnits="objectBoundingBox" id="filter-2">
            <feMorphology radius="0.5" operator="dilate" in="SourceAlpha" result="shadowSpreadOuter1"></feMorphology>
            <feOffset dx="0" dy="4" in="shadowSpreadOuter1" result="shadowOffsetOuter1"></feOffset>
            <feGaussianBlur stdDeviation="3.5" in="shadowOffsetOuter1" result="shadowBlurOuter1"></feGaussianBlur>
            <feColorMatrix values="0 0 0 0 0   0 0 0 0 0   0 0 0 0 0  0 0 0 0.2 0" type="matrix" in="shadowBlurOuter1"></feColorMatrix>
        </filter>
        <circle id="path-3" cx="70" cy="70" r="55"></circle>
        <filter x="-12.7%" y="-9.1%" width="125.5%" height="125.5%" filterUnits="objectBoundingBox" id="filter-4">
            <feMorphology radius="0.5" operator="dilate" in="SourceAlpha" result="shadowSpreadOuter1"></feMorphology>
            <feOffset dx="0" dy="4" in="shadowSpreadOuter1" result="shadowOffsetOuter1"></feOffset>
            <feGaussianBlur stdDeviation="3.5" in="shadowOffsetOuter1" result="shadowBlurOuter1"></feGaussianBlur>
            <feColorMatrix values="0 0 0 0 0   0 0 0 0 0   0 0 0 0 0  0 0 0 0.2 0" type="matrix" in="shadowBlurOuter1"></feColorMatrix>
        </filter>
    </defs>
    <g id="Page-3" stroke="none" stroke-width="1" fill="none" fill-rule="evenodd">
        <g id="Group-17" transform="translate(8.000000, 0.000000)">
            <g id="Rectangle-2-Copy-2">
                <use fill="black" fill-opacity="1" filter="url(#filter-2)" xlink:href="#path-1"></use>
                <use fill="#FFFFFF" fill-rule="evenodd" xlink:href="#path-1"></use>
            </g>
            <g id="Group-3" transform="translate(2.000000, 0.000000)">
                <circle id="Oval-9-Copy-4" fill="#FFFFFF" cx="70" cy="70" r="70"></circle>
                <g id="Oval-Copy-3" fill-rule="nonzero">
                    <use fill="black" fill-opacity="1" filter="url(#filter-4)" xlink:href="#path-3"></use>
                    <use fill="#FFFFFF" xlink:href="#path-3"></use>
                </g>
                <polyline id="Shape" fill="#A3A3A3" fill-rule="nonzero" points="62.872 96.906 62.872 76.2282 62.872 76.1996 77.1434 76.1996 77.1434 76.2282 77.1434 96.906"></polyline>
                <rect id="Rectangle-path" fill="#A3A3A3" fill-rule="nonzero" x="48.4334" y="62.3154" width="8.3094" height="8.3116"></rect>
                <rect id="Rectangle-path" fill="#A3A3A3" fill-rule="nonzero" x="65.8552" y="62.3154" width="8.2984" height="8.3116"></rect>
                <rect id="Rectangle-path" fill="#A3A3A3" fill-rule="nonzero" x="65.8552" y="62.3154" width="8.2984" height="8.3116"></rect>
                <rect id="Rectangle-path" fill="#A3A3A3" fill-rule="nonzero" x="83.2792" y="62.3154" width="8.2984" height="8.3116"></rect>
                <rect id="Rectangle-path" fill="#A3A3A3" fill-rule="nonzero" x="48.4334" y="76.4108" width="8.3094" height="8.3006"></rect>
                <rect id="Rectangle-path" fill="#A3A3A3" fill-rule="nonzero" x="83.2792" y="76.4108" width="8.2984" height="8.3006"></rect>
                <polygon id="Shape" fill="#A3A3A3" fill-rule="nonzero" points="39.5476 62.9864 70 42.1942 100.4546 62.9864 104.045 57.5348 70 34.294 35.955 57.5348"></polygon>
                <polygon id="Shape" fill="#A3A3A3" fill-rule="nonzero" points="46.6844 50.2066 46.6844 38.2364 53.5836 38.2364 53.5836 45.6834"></polygon>
                <g id="Group" transform="translate(30.400000, 32.600000)" fill="#7C7C7C" fill-rule="nonzero">
                    <path d="M26.345,28.6154 L18.0378,28.6154 C17.4306,28.6154 16.9378,29.1082 16.9378,29.7154 L16.9378,38.027 C16.9378,38.632 17.4306,39.127 18.0378,39.127 L26.345,39.127 C26.9522,39.127 27.445,38.632 27.445,38.027 L27.445,29.7154 C27.445,29.106 26.9522,28.6154 26.345,28.6154 Z M25.245,36.927 L19.1378,36.927 L19.1378,30.8154 L25.245,30.8154 L25.245,36.927 Z" id="Shape"></path>
                    <path d="M34.3552,29.7154 L34.3552,38.027 C34.3552,38.632 34.848,39.127 35.4552,39.127 L43.7536,39.127 C44.3542,39.127 44.8536,38.632 44.8536,38.027 L44.8536,29.7154 C44.8536,29.1082 44.3542,28.6154 43.7536,28.6154 L35.4552,28.6154 C34.848,28.6154 34.3552,29.106 34.3552,29.7154 Z M36.5552,30.8154 L42.6536,30.8154 L42.6536,36.927 L36.5552,36.927 L36.5552,30.8154 Z" id="Shape"></path>
                    <path d="M52.8792,39.127 L61.1776,39.127 C61.7782,39.127 62.2776,38.632 62.2776,38.027 L62.2776,29.7154 C62.2776,29.1082 61.7782,28.6154 61.1776,28.6154 L52.8792,28.6154 C52.272,28.6154 51.7792,29.1082 51.7792,29.7154 L51.7792,38.027 C51.7792,38.6364 52.272,39.127 52.8792,39.127 Z M53.9792,30.8154 L60.0776,30.8154 L60.0776,36.927 L53.9792,36.927 L53.9792,30.8154 Z" id="Shape"></path>
                    <path d="M26.345,42.7108 L18.0378,42.7108 C17.4306,42.7108 16.9378,43.2058 16.9378,43.8108 L16.9378,52.1114 C16.9378,52.712 17.4306,53.2114 18.0378,53.2114 L26.345,53.2114 C26.9522,53.2114 27.445,52.712 27.445,52.1114 L27.445,43.8108 C27.445,43.2058 26.9522,42.7108 26.345,42.7108 Z M25.245,51.0136 L19.1378,51.0136 L19.1378,44.9174 L25.245,44.9174 L25.245,51.0136 Z" id="Shape"></path>
                    <path d="M52.8792,53.2136 L61.1776,53.2136 C61.7782,53.2136 62.2776,52.7208 62.2776,52.1136 L62.2776,43.8174 C62.2776,43.219 61.7782,42.7174 61.1776,42.7174 L52.8792,42.7174 C52.272,42.7174 51.7792,43.219 51.7792,43.8174 L51.7792,52.1136 C51.7792,52.723 52.272,53.2136 52.8792,53.2136 Z M53.9792,44.9108 L60.0776,44.9108 L60.0776,51.0114 L53.9792,51.0114 L53.9792,44.9108 Z" id="Shape"></path>
                    <path d="M78.1,63.206 L67.8656,63.206 L67.8656,30.2236 L69.4298,31.2884 C69.4342,31.2928 69.4386,31.2972 69.443,31.3016 C69.4694,31.3148 69.4892,31.3104 69.498,31.3192 C69.6454,31.405 69.8082,31.4512 69.9754,31.46 C70.0018,31.4622 70.0216,31.482 70.048,31.482 C70.0788,31.482 70.1052,31.4622 70.136,31.46 C70.1822,31.4556 70.224,31.4688 70.268,31.46 C70.3406,31.4468 70.4044,31.4094 70.466,31.3786 C70.5122,31.3588 70.5562,31.3478 70.6024,31.328 C70.752,31.2444 70.8906,31.1344 70.9896,30.9914 L74.5822,25.5398 C74.9034,25.036 74.7758,24.365 74.2764,24.0262 L40.2204,0.781 C39.8442,0.5302 39.3492,0.5302 38.9796,0.781 L24.2836,10.8174 L24.2836,5.6386 C24.2836,5.0314 23.7908,4.5386 23.1836,4.5386 L16.2844,4.5386 C15.6794,4.5386 15.1844,5.0314 15.1844,5.6386 L15.1844,17.0302 L4.9346,24.0306 C4.4374,24.3694 4.3076,25.0426 4.6354,25.5442 L8.228,30.998 C8.3908,31.2422 8.6438,31.4138 8.932,31.471 C9.0024,31.4886 9.0728,31.493 9.1476,31.493 C9.3676,31.493 9.581,31.4292 9.7658,31.3038 L11.2596,30.2852 L11.2596,63.206 L1.1,63.206 C0.495,63.206 0,63.6988 0,64.306 C0,64.9044 0.495,65.406 1.1,65.406 L78.1,65.406 C78.705,65.406 79.2,64.9044 79.2,64.306 C79.2,63.6988 78.705,63.206 78.1,63.206 Z M17.3844,6.7364 L22.0836,6.7364 L22.0836,12.32 L17.3844,15.5254 L17.3844,6.7364 Z M9.4512,28.8442 L7.0708,25.2296 L16.995,18.4536 L23.7886,14.003 C23.9558,13.8908 24.0812,13.739 24.167,13.5652 L39.6,3.025 L72.1248,25.2296 L69.7444,28.8464 L40.2204,8.6922 C39.8442,8.4392 39.3492,8.4392 38.9796,8.6922 L9.4512,28.8442 Z M45.6434,63.206 L33.572,63.206 L33.572,44.6996 L45.6434,44.6996 L45.6434,63.206 Z M65.6656,63.206 L47.8434,63.206 L47.8434,43.5996 C47.8434,42.9924 47.3506,42.4996 46.7434,42.4996 L32.472,42.4996 C31.867,42.4996 31.372,43.0188 31.372,43.6282 L31.372,63.206 L13.4596,63.206 L13.4596,28.7738 L39.6,10.9296 L65.6656,28.7254 L65.6656,63.206 Z" id="Shape"></path>
                </g>
                <path d="M43.8596,61.3738 L43.8596,95.806 L61.772,95.806 L61.772,76.2282 C61.772,75.621 62.267,75.0996 62.872,75.0996 L77.1434,75.0996 C77.7506,75.0996 78.2434,75.5924 78.2434,76.1996 L78.2434,95.806 L96.0656,95.806 L96.0656,61.3254 L70,43.5296 L43.8596,61.3738 Z M57.845,84.7136 C57.845,85.3208 57.3522,85.8136 56.745,85.8136 L48.4378,85.8136 C47.8306,85.8136 47.3378,85.3208 47.3378,84.7136 L47.3378,76.4174 C47.3378,75.819 47.8306,75.3174 48.4378,75.3174 L56.745,75.3174 C57.3522,75.3174 57.845,75.819 57.845,76.4174 L57.845,84.7136 Z M57.845,70.627 C57.845,71.232 57.3522,71.727 56.745,71.727 L48.4378,71.727 C47.8306,71.727 47.3378,71.232 47.3378,70.627 L47.3378,62.3154 C47.3378,61.7082 47.8306,61.2154 48.4378,61.2154 L56.745,61.2154 C57.3522,61.2154 57.845,61.7082 57.845,62.3154 L57.845,70.627 Z M82.1792,62.3154 C82.1792,61.7082 82.672,61.2154 83.2792,61.2154 L91.5776,61.2154 C92.1782,61.2154 92.6776,61.7082 92.6776,62.3154 L92.6776,70.627 C92.6776,71.232 92.1782,71.727 91.5776,71.727 L83.2792,71.727 C82.672,71.727 82.1792,71.2364 82.1792,70.627 L82.1792,62.3154 Z M82.1792,76.4108 C82.1792,75.8058 82.672,75.3108 83.2792,75.3108 L91.5776,75.3108 C92.1782,75.3108 92.6776,75.8058 92.6776,76.4108 L92.6776,84.7114 C92.6776,85.312 92.1782,85.8114 91.5776,85.8114 L83.2792,85.8114 C82.672,85.8114 82.1792,85.3142 82.1792,84.7114 L82.1792,76.4108 Z M75.2558,62.3154 L75.2558,70.627 C75.2558,71.232 74.763,71.727 74.1558,71.727 L65.8596,71.727 C65.2524,71.727 64.7596,71.232 64.7596,70.627 L64.7596,62.3154 C64.7596,61.7082 65.2524,61.2154 65.8596,61.2154 L74.1558,61.2154 C74.763,61.2154 75.2558,61.706 75.2558,62.3154 Z" id="Shape" fill="#D8D8D8" fill-rule="nonzero"></path>
            </g>
            <text id="House-/-Townhouse" font-family="OpenSans-Regular, Open Sans" font-size="12" font-weight="normal" fill="#7C7C7C">
                <tspan x="16.2070312" y="162">House / Townhouse</tspan>
            </text>
        </g>
    </g>
</svg>