<?xml version="1.0" encoding="UTF-8"?>
<svg width="156px" height="182px" viewBox="0 0 156 182" version="1.1" xmlns="http://www.w3.org/2000/svg" xmlns:xlink="http://www.w3.org/1999/xlink">
    <!-- Generator: Sketch 51.3 (57544) - http://www.bohemiancoding.com/sketch -->
    <title>Group 8</title>
    <desc>Created with Sketch.</desc>
    <defs>
        <rect id="path-1" x="0" y="0" width="140" height="25" rx="4"></rect>
        <filter x="-10.0%" y="-40.0%" width="120.0%" height="212.0%" filterUnits="objectBoundingBox" id="filter-2">
            <feMorphology radius="0.5" operator="dilate" in="SourceAlpha" result="shadowSpreadOuter1"></feMorphology>
            <feOffset dx="0" dy="4" in="shadowSpreadOuter1" result="shadowOffsetOuter1"></feOffset>
            <feGaussianBlur stdDeviation="3.5" in="shadowOffsetOuter1" result="shadowBlurOuter1"></feGaussianBlur>
            <feComposite in="shadowBlurOuter1" in2="SourceAlpha" operator="out" result="shadowBlurOuter1"></feComposite>
            <feColorMatrix values="0 0 0 0 0   0 0 0 0 0   0 0 0 0 0  0 0 0 0.2 0" type="matrix" in="shadowBlurOuter1"></feColorMatrix>
        </filter>
        <circle id="path-3" cx="70" cy="70" r="55"></circle>
        <filter x="-13.9%" y="-10.2%" width="127.7%" height="127.7%" filterUnits="objectBoundingBox" id="filter-4">
            <feMorphology radius="1.75" operator="dilate" in="SourceAlpha" result="shadowSpreadOuter1"></feMorphology>
            <feOffset dx="0" dy="4" in="shadowSpreadOuter1" result="shadowOffsetOuter1"></feOffset>
            <feGaussianBlur stdDeviation="3.5" in="shadowOffsetOuter1" result="shadowBlurOuter1"></feGaussianBlur>
            <feComposite in="shadowBlurOuter1" in2="SourceAlpha" operator="out" result="shadowBlurOuter1"></feComposite>
            <feColorMatrix values="0 0 0 0 0   0 0 0 0 0   0 0 0 0 0  0 0 0 0.2 0" type="matrix" in="shadowBlurOuter1"></feColorMatrix>
        </filter>
    </defs>
    <g id="Page-3" stroke="none" stroke-width="1" fill="none" fill-rule="evenodd">
        <g id="Group-8" transform="translate(8.000000, 0.000000)">
            <g id="Group-9" transform="translate(0.000000, 145.000000)">
                <g id="Rectangle-2-Copy">
                    <use fill="black" fill-opacity="1" filter="url(#filter-2)" xlink:href="#path-1"></use>
                    <rect stroke="#FFC300" stroke-width="2" stroke-linejoin="square" fill="#FFFFFF" fill-rule="evenodd" x="1" y="1" width="138" height="23" rx="4"></rect>
                </g>
                <text id="Condo-/-Apartment" font-family="OpenSans-SemiBold, Open Sans" font-size="14" font-weight="500" fill="#AA892F">
                    <tspan x="5.09960938" y="18">Condo / Apartment</tspan>
                </text>
            </g>
            <circle id="Oval-9-Copy" fill="#FFFFFF" cx="70" cy="70" r="70"></circle>
            <g id="Oval" fill-rule="nonzero">
                <use fill="black" fill-opacity="1" filter="url(#filter-4)" xlink:href="#path-3"></use>
                <use stroke="#FFC300" stroke-width="2.5" fill="#FFFFFF" xlink:href="#path-3"></use>
            </g>
            <g id="Group-10" transform="translate(37.000000, 30.000000)" fill-rule="nonzero">
                <rect id="Rectangle-path" fill="#FFDA72" x="12.1748" y="1.5288" width="41.6504" height="76"></rect>
                <rect id="Rectangle-path" fill="#FEC30E" x="16.8146" y="17.1752" width="6.204" height="6.2018"></rect>
                <rect id="Rectangle-path" fill="#FEC30E" x="29.898" y="17.1752" width="6.204" height="6.2018"></rect>
                <rect id="Rectangle-path" fill="#FEC30E" x="42.9814" y="17.1752" width="6.204" height="6.2018"></rect>
                <rect id="Rectangle-path" fill="#FEC30E" x="16.8146" y="27.8452" width="6.204" height="6.1996"></rect>
                <rect id="Rectangle-path" fill="#FEC30E" x="29.898" y="27.8452" width="6.204" height="6.1996"></rect>
                <rect id="Rectangle-path" fill="#FEC30E" x="42.9814" y="27.8452" width="6.204" height="6.1996"></rect>
                <rect id="Rectangle-path" fill="#FEC30E" x="16.8146" y="27.8452" width="6.204" height="6.1996"></rect>
                <rect id="Rectangle-path" fill="#FEC30E" x="29.898" y="27.8452" width="6.204" height="6.1996"></rect>
                <rect id="Rectangle-path" fill="#FEC30E" x="42.9814" y="27.8452" width="6.204" height="6.1996"></rect>
                <rect id="Rectangle-path" fill="#FEC30E" x="16.8146" y="38.5196" width="6.204" height="6.1996"></rect>
                <rect id="Rectangle-path" fill="#FEC30E" x="29.898" y="38.5196" width="6.204" height="6.1996"></rect>
                <rect id="Rectangle-path" fill="#FEC30E" x="42.9814" y="38.5196" width="6.204" height="6.1996"></rect>
                <rect id="Rectangle-path" fill="#FEC30E" x="16.8146" y="38.5196" width="6.204" height="6.1996"></rect>
                <rect id="Rectangle-path" fill="#FEC30E" x="29.898" y="38.5196" width="6.204" height="6.1996"></rect>
                <rect id="Rectangle-path" fill="#FEC30E" x="42.9814" y="38.5196" width="6.204" height="6.1996"></rect>
                <rect id="Rectangle-path" fill="#FEC30E" x="16.8146" y="49.194" width="6.204" height="6.1996"></rect>
                <rect id="Rectangle-path" fill="#FEC30E" x="29.898" y="49.194" width="6.204" height="6.1996"></rect>
                <rect id="Rectangle-path" fill="#FEC30E" x="42.9814" y="49.194" width="6.204" height="6.1996"></rect>
                <rect id="Rectangle-path" fill="#FEC30E" x="16.8146" y="49.194" width="6.204" height="6.1996"></rect>
                <rect id="Rectangle-path" fill="#FEC30E" x="29.898" y="49.194" width="6.204" height="6.1996"></rect>
                <rect id="Rectangle-path" fill="#FEC30E" x="42.9814" y="49.194" width="6.204" height="6.1996"></rect>
                <rect id="Rectangle-path" fill="#FEC30E" x="16.8146" y="59.8618" width="6.204" height="6.1996"></rect>
                <rect id="Rectangle-path" fill="#FEC30E" x="42.9814" y="59.8618" width="6.204" height="6.1996"></rect>
                <polyline id="Shape" fill="#FEC30E" points="27.7926 78.0712 27.7926 59.8618 38.203 59.8618 38.203 78.0712"></polyline>
                <path d="M33.0022,5.0004 C47.9908,5.0004 46.1604,13.2394 46.1604,13.2394 L33.0022,13.2394 L19.8396,13.2394 C19.8396,13.2394 18.0136,5.0004 33.0022,5.0004 Z" id="Shape" fill="#FEC30E"></path>
                <path d="M23.0186,16.0752 L16.8146,16.0752 C16.2096,16.0752 15.7146,16.568 15.7146,17.1752 L15.7146,23.377 C15.7146,23.982 16.2096,24.477 16.8146,24.477 L23.0186,24.477 C23.6236,24.477 24.1186,23.982 24.1186,23.377 L24.1186,17.1752 C24.1186,16.5658 23.6236,16.0752 23.0186,16.0752 Z M21.9186,22.277 L17.9146,22.277 L17.9146,18.2752 L21.9186,18.2752 L21.9186,22.277 Z" id="Shape" fill="#AA892F"></path>
                <path d="M36.102,16.0752 L29.898,16.0752 C29.293,16.0752 28.798,16.568 28.798,17.1752 L28.798,23.377 C28.798,23.982 29.293,24.477 29.898,24.477 L36.102,24.477 C36.707,24.477 37.202,23.982 37.202,23.377 L37.202,17.1752 C37.202,16.5658 36.7136,16.0752 36.102,16.0752 Z M35.002,22.277 L30.998,22.277 L30.998,18.2752 L35.002,18.2752 L35.002,22.277 Z" id="Shape" fill="#AA892F"></path>
                <path d="M41.8814,17.1752 L41.8814,23.377 C41.8814,23.982 42.3764,24.477 42.9814,24.477 L49.1854,24.477 C49.7882,24.477 50.2854,23.982 50.2854,23.377 L50.2854,17.1752 C50.2854,16.568 49.7882,16.0752 49.1854,16.0752 L42.9814,16.0752 C42.3764,16.0752 41.8814,16.5658 41.8814,17.1752 Z M44.0814,18.2752 L48.0854,18.2752 L48.0854,22.277 L44.0814,22.277 L44.0814,18.2752 Z" id="Shape" fill="#AA892F"></path>
                <path d="M23.0186,26.7452 L16.8146,26.7452 C16.2096,26.7452 15.7146,27.238 15.7146,27.8452 L15.7146,34.0448 C15.7146,34.652 16.2096,35.1448 16.8146,35.1448 L23.0186,35.1448 C23.6236,35.1448 24.1186,34.652 24.1186,34.0448 L24.1186,27.8452 C24.1186,27.238 23.6236,26.7452 23.0186,26.7452 Z M21.9186,32.9492 L17.9146,32.9492 L17.9146,28.9474 L21.9186,28.9474 L21.9186,32.9492 Z" id="Shape" fill="#AA892F"></path>
                <path d="M36.102,26.7452 L29.898,26.7452 C29.293,26.7452 28.798,27.238 28.798,27.8452 L28.798,34.0448 C28.798,34.652 29.293,35.1448 29.898,35.1448 L36.102,35.1448 C36.707,35.1448 37.202,34.652 37.202,34.0448 L37.202,27.8452 C37.202,27.238 36.7136,26.7452 36.102,26.7452 Z M35.002,32.9492 L30.998,32.9492 L30.998,28.9474 L35.002,28.9474 L35.002,32.9492 Z" id="Shape" fill="#AA892F"></path>
                <path d="M49.1854,26.7452 L42.9814,26.7452 C42.3764,26.7452 41.8814,27.238 41.8814,27.8452 L41.8814,34.0448 C41.8814,34.652 42.3764,35.1448 42.9814,35.1448 L49.1854,35.1448 C49.7882,35.1448 50.2854,34.652 50.2854,34.0448 L50.2854,27.8452 C50.2854,27.238 49.7948,26.7452 49.1854,26.7452 Z M48.0854,32.9492 L44.0814,32.9492 L44.0814,28.9474 L48.0854,28.9474 L48.0854,32.9492 Z" id="Shape" fill="#AA892F"></path>
                <path d="M23.0186,37.4196 L16.8146,37.4196 C16.2096,37.4196 15.7146,37.9146 15.7146,38.5196 L15.7146,44.7192 C15.7146,45.3286 16.2096,45.8192 16.8146,45.8192 L23.0186,45.8192 C23.6236,45.8192 24.1186,45.3286 24.1186,44.7192 L24.1186,38.5196 C24.1186,37.9146 23.6236,37.4196 23.0186,37.4196 Z M21.9186,43.6192 L17.9146,43.6192 L17.9146,39.6196 L21.9186,39.6196 L21.9186,43.6192 Z" id="Shape" fill="#AA892F"></path>
                <path d="M36.102,37.4196 L29.898,37.4196 C29.293,37.4196 28.798,37.9146 28.798,38.5196 L28.798,44.7192 C28.798,45.3286 29.293,45.8192 29.898,45.8192 L36.102,45.8192 C36.707,45.8192 37.202,45.3286 37.202,44.7192 L37.202,38.5196 C37.202,37.9146 36.7136,37.4196 36.102,37.4196 Z M35.002,43.6192 L30.998,43.6192 L30.998,39.6196 L35.002,39.6196 L35.002,43.6192 Z" id="Shape" fill="#AA892F"></path>
                <path d="M49.1854,37.4196 L42.9814,37.4196 C42.3764,37.4196 41.8814,37.9146 41.8814,38.5196 L41.8814,44.7192 C41.8814,45.3286 42.3764,45.8192 42.9814,45.8192 L49.1854,45.8192 C49.7882,45.8192 50.2854,45.3286 50.2854,44.7192 L50.2854,38.5196 C50.2854,37.9146 49.7948,37.4196 49.1854,37.4196 Z M48.0854,43.6192 L44.0814,43.6192 L44.0814,39.6196 L48.0854,39.6196 L48.0854,43.6192 Z" id="Shape" fill="#AA892F"></path>
                <path d="M23.0186,48.094 L16.8146,48.094 C16.2096,48.094 15.7146,48.589 15.7146,49.194 L15.7146,55.3936 C15.7146,56.0008 16.2096,56.4936 16.8146,56.4936 L23.0186,56.4936 C23.6236,56.4936 24.1186,56.0008 24.1186,55.3936 L24.1186,49.194 C24.1186,48.5824 23.6236,48.094 23.0186,48.094 Z M21.9186,54.2936 L17.9146,54.2936 L17.9146,50.294 L21.9186,50.294 L21.9186,54.2936 Z" id="Shape" fill="#AA892F"></path>
                <path d="M36.102,48.094 L29.898,48.094 C29.293,48.094 28.798,48.589 28.798,49.194 L28.798,55.3936 C28.798,56.0008 29.293,56.4936 29.898,56.4936 L36.102,56.4936 C36.707,56.4936 37.202,56.0008 37.202,55.3936 L37.202,49.194 C37.202,48.5824 36.7136,48.094 36.102,48.094 Z M35.002,54.2936 L30.998,54.2936 L30.998,50.294 L35.002,50.294 L35.002,54.2936 Z" id="Shape" fill="#AA892F"></path>
                <path d="M49.1854,48.094 L42.9814,48.094 C42.3764,48.094 41.8814,48.589 41.8814,49.194 L41.8814,55.3936 C41.8814,56.0008 42.3764,56.4936 42.9814,56.4936 L49.1854,56.4936 C49.7882,56.4936 50.2854,56.0008 50.2854,55.3936 L50.2854,49.194 C50.2854,48.5824 49.7948,48.094 49.1854,48.094 Z M48.0854,54.2936 L44.0814,54.2936 L44.0814,50.294 L48.0854,50.294 L48.0854,54.2936 Z" id="Shape" fill="#AA892F"></path>
                <path d="M23.0186,58.7618 L16.8146,58.7618 C16.2096,58.7618 15.7146,59.2546 15.7146,59.8618 L15.7146,66.0614 C15.7146,66.6664 16.2096,67.1614 16.8146,67.1614 L23.0186,67.1614 C23.6236,67.1614 24.1186,66.6664 24.1186,66.0614 L24.1186,59.8618 C24.1186,59.2546 23.6236,58.7618 23.0186,58.7618 Z M21.9186,64.9636 L17.9146,64.9636 L17.9146,60.964 L21.9186,60.964 L21.9186,64.9636 Z" id="Shape" fill="#AA892F"></path>
                <path d="M49.1854,58.7618 L42.9814,58.7618 C42.3764,58.7618 41.8814,59.2546 41.8814,59.8618 L41.8814,66.0614 C41.8814,66.6664 42.3764,67.1614 42.9814,67.1614 L49.1854,67.1614 C49.7882,67.1614 50.2854,66.6664 50.2854,66.0614 L50.2854,59.8618 C50.2854,59.2546 49.7948,58.7618 49.1854,58.7618 Z M48.0854,64.9636 L44.0814,64.9636 L44.0814,60.964 L48.0854,60.964 L48.0854,64.9636 Z" id="Shape" fill="#AA892F"></path>
                <path d="M64.7658,76.9712 L54.9164,76.9712 L54.9164,1.5288 C54.9164,0.9238 54.4236,0.4288 53.8164,0.4288 L12.1704,0.4288 C11.5632,0.4288 11.0704,0.9238 11.0704,1.5288 L11.0704,76.9734 L1.2298,76.9734 C0.6226,76.9734 0.1298,77.4662 0.1298,78.0734 C0.1298,78.6762 0.6226,79.1734 1.2298,79.1734 L64.7636,79.1734 C65.3664,79.1734 65.8636,78.6762 65.8636,78.0734 C65.8658,77.464 65.3752,76.9712 64.7658,76.9712 Z M13.2726,2.6288 L52.723,2.6288 L52.723,76.9734 L39.303,76.9734 L39.303,59.864 C39.303,59.2568 38.808,58.764 38.203,58.764 L27.7926,58.764 C27.1876,58.764 26.6926,59.2568 26.6926,59.864 L26.6926,76.9734 L13.2726,76.9734 L13.2726,2.6288 Z M37.103,76.9712 L28.8926,76.9712 L28.8926,60.9618 L37.103,60.9618 L37.103,76.9712 Z" id="Shape" fill="#AA892F"></path>
                <path d="M19.8396,14.3394 L46.167,14.3394 C46.6774,14.3394 47.1306,13.9808 47.2406,13.477 C47.267,13.3604 47.839,10.6192 45.793,8.065 C43.5754,5.2996 39.27,3.8982 33.0066,3.8982 C26.7366,3.8982 22.4312,5.2996 20.2202,8.065 C18.1654,10.6192 18.7462,13.3604 18.7726,13.477 C18.876,13.9808 19.3226,14.3394 19.8396,14.3394 Z M21.9296,9.4422 C23.6852,7.2554 27.5132,6.0982 33.0022,6.0982 C38.456,6.0982 42.2774,7.2422 44.0484,9.4026 C44.8646,10.4036 45.0934,11.4354 45.1308,12.135 L20.8736,12.135 C20.9198,11.4442 21.1398,10.4212 21.9296,9.4422 Z" id="Shape" fill="#AA892F"></path>
            </g>
        </g>
    </g>
</svg>