<?xml version="1.0" encoding="UTF-8"?>
<svg width="140px" height="182px" viewBox="0 0 140 182" version="1.1" xmlns="http://www.w3.org/2000/svg" xmlns:xlink="http://www.w3.org/1999/xlink">
    <!-- Generator: Sketch 51.3 (57544) - http://www.bohemiancoding.com/sketch -->
    <title>recreational_buy</title>
    <desc>Created with Sketch.</desc>
    <defs>
        <circle id="path-1" cx="70" cy="70" r="55"></circle>
        <filter x="-12.7%" y="-9.1%" width="125.5%" height="125.5%" filterUnits="objectBoundingBox" id="filter-2">
            <feMorphology radius="0.5" operator="dilate" in="SourceAlpha" result="shadowSpreadOuter1"></feMorphology>
            <feOffset dx="0" dy="4" in="shadowSpreadOuter1" result="shadowOffsetOuter1"></feOffset>
            <feGaussianBlur stdDeviation="3.5" in="shadowOffsetOuter1" result="shadowBlurOuter1"></feGaussianBlur>
            <feColorMatrix values="0 0 0 0 0   0 0 0 0 0   0 0 0 0 0  0 0 0 0.2 0" type="matrix" in="shadowBlurOuter1"></feColorMatrix>
        </filter>
        <rect id="path-3" x="22" y="145" width="96" height="25" rx="4"></rect>
        <filter x="-14.6%" y="-40.0%" width="129.2%" height="212.0%" filterUnits="objectBoundingBox" id="filter-4">
            <feMorphology radius="0.5" operator="dilate" in="SourceAlpha" result="shadowSpreadOuter1"></feMorphology>
            <feOffset dx="0" dy="4" in="shadowSpreadOuter1" result="shadowOffsetOuter1"></feOffset>
            <feGaussianBlur stdDeviation="3.5" in="shadowOffsetOuter1" result="shadowBlurOuter1"></feGaussianBlur>
            <feComposite in="shadowBlurOuter1" in2="SourceAlpha" operator="out" result="shadowBlurOuter1"></feComposite>
            <feColorMatrix values="0 0 0 0 0   0 0 0 0 0   0 0 0 0 0  0 0 0 0.2 0" type="matrix" in="shadowBlurOuter1"></feColorMatrix>
        </filter>
    </defs>
    <g id="Page-3" stroke="none" stroke-width="1" fill="none" fill-rule="evenodd">
        <g id="recreational_buy">
            <circle id="Oval-9-Copy-4" fill="#FFFFFF" cx="70" cy="70" r="70"></circle>
            <g id="Oval-Copy-3" fill-rule="nonzero">
                <use fill="black" fill-opacity="1" filter="url(#filter-2)" xlink:href="#path-1"></use>
                <use fill="#FFFFFF" xlink:href="#path-1"></use>
            </g>
            <polygon id="Shape" stroke="#025680" fill="#1884C6" fill-rule="nonzero" stroke-linecap="round" stroke-linejoin="round" points="100.1862 70.7788 97.4054 77.381 106.0844 77.381 106.0844 85.719 108.8674 85.719 108.8674 77.381 117.2054 77.381 114.4246 70.7788 115.815 70.7788 113.0364 64.1788 114.4246 64.1788 111.6504 57.581 113.0364 57.581 110.2578 51.3308 111.6504 51.3308 107.4792 41.2592 103.3146 51.3308 104.353 51.3308 101.5788 57.581 102.9604 57.581 100.1862 64.1788 101.5788 64.1788 98.7958 70.7788"></polygon>
            <g id="Group" transform="translate(26.000000, 83.200000)" fill-rule="nonzero">
                <path d="M83.6,2.4112 L4.4,2.4112 C3.1834,2.4112 2.2,3.3946 2.2,4.6112 C2.2,5.8278 3.1834,6.8112 4.4,6.8112 L15.8048,6.8112 L15.8048,10.9626 C15.8048,12.1814 16.7882,13.1626 18.0048,13.1626 C19.2214,13.1626 20.2048,12.1814 20.2048,10.9626 L20.2048,6.8112 L67.7974,6.8112 L67.7974,10.9626 C67.7974,12.1814 68.7808,13.1626 69.9974,13.1626 C71.2162,13.1626 72.1974,12.1814 72.1974,10.9626 L72.1974,6.8112 L83.6,6.8112 C84.8166,6.8112 85.8,5.8278 85.8,4.6112 C85.8,3.3946 84.8166,2.4112 83.6,2.4112 Z" id="Shape" fill="#1884C6"></path>
                <path d="M69.9952,14.2604 C68.1736,14.2604 66.6952,12.7776 66.6952,10.9604 L66.6952,7.909 L21.3048,7.909 L21.3048,10.9604 C21.3048,12.7776 19.8264,14.2604 18.0048,14.2604 C16.1876,14.2604 14.7048,12.7776 14.7048,10.9604 L14.7048,7.909 L4.4,7.909 C2.5806,7.909 1.1,6.4262 1.1,4.609 C1.1,2.7874 2.5806,1.309 4.4,1.309 L83.6,1.309 C85.4194,1.309 86.9,2.7874 86.9,4.609 C86.9,6.4262 85.4194,7.909 83.6,7.909 L73.2952,7.909 L73.2952,10.9604 C73.2952,12.7842 71.819,14.2604 69.9952,14.2604 Z M19.1048,5.7112 L68.8974,5.7112 L68.8974,10.9626 C68.8974,11.5676 69.3946,12.0626 69.9974,12.0626 C70.6024,12.0626 71.0974,11.5676 71.0974,10.9626 L71.0974,5.7112 L83.6,5.7112 C84.205,5.7112 84.7,5.2162 84.7,4.6112 C84.7,4.0062 84.205,3.5112 83.6,3.5112 L4.4,3.5112 C3.795,3.5112 3.3,4.0062 3.3,4.6112 C3.3,5.2162 3.795,5.7112 4.4,5.7112 L16.9048,5.7112 L16.9048,10.9626 C16.9048,11.5676 17.3998,12.0626 18.0048,12.0626 C18.612,12.0626 19.1048,11.5676 19.1048,10.9626 L19.1048,5.7112 Z" id="Shape" fill="#025680"></path>
            </g>
            <g id="Group" transform="translate(56.800000, 21.600000)" fill-rule="nonzero">
                <path d="M5.7024,16.6782 L20.57,16.6782 C23.199,16.6782 25.3396,14.5376 25.3396,11.913 C25.3396,10.1112 24.3078,8.481 22.7612,7.6758 C22.7392,4.6156 20.2466,2.1318 17.1842,2.1318 C16.3922,2.1318 15.6112,2.299 14.905,2.6202 C13.728,1.672 12.2584,1.144 10.7338,1.144 C7.194,1.144 4.2878,3.9292 4.0942,7.4228 C2.2418,8.0806 0.9306,9.8516 0.9306,11.913 C0.9372,14.5376 3.0712,16.6782 5.7024,16.6782 Z M5.5902,9.9132 C5.9818,9.8912 6.3426,9.7064 6.5868,9.4094 C6.8354,9.108 6.9432,8.723 6.8926,8.338 C6.8662,8.162 6.8486,7.9772 6.8486,7.7924 C6.8486,5.6474 8.5888,3.9094 10.7294,3.9094 C11.8514,3.9094 12.9118,4.3978 13.651,5.2382 C14.1284,5.7794 14.9358,5.8696 15.5166,5.4428 C16.005,5.0886 16.577,4.8994 17.1842,4.8994 C18.7308,4.8994 19.9936,6.1578 19.9936,7.7044 C19.9936,7.909 19.9716,8.1092 19.9298,8.3006 C19.855,8.6614 19.921,9.0354 20.119,9.3456 C20.3236,9.658 20.6338,9.8714 20.9902,9.9484 C21.9054,10.1442 22.572,10.9648 22.572,11.9064 C22.572,13.0064 21.6744,13.9018 20.57,13.9018 L5.7024,13.9018 C4.598,13.9018 3.7004,13.0064 3.7004,11.9064 C3.7004,10.8416 4.5342,9.9682 5.5902,9.9132 Z" id="Shape" fill="#025680"></path>
                <path d="M20.9902,9.955 C20.6338,9.878 20.3148,9.6602 20.119,9.3522 C19.9232,9.0442 19.8528,8.668 19.9298,8.3072 C19.9738,8.1114 19.9936,7.9112 19.9936,7.711 C19.9936,6.1644 18.7308,4.906 17.1842,4.906 C16.5792,4.906 16.0028,5.0952 15.5166,5.4494 C14.9336,5.8762 14.124,5.786 13.6488,5.2448 C12.9096,4.3978 11.847,3.916 10.7272,3.916 C8.5866,3.916 6.8464,5.654 6.8464,7.799 C6.8464,7.9838 6.864,8.1686 6.8882,8.3446 C6.941,8.7318 6.8376,9.119 6.5846,9.416 C6.3426,9.7152 5.9818,9.9 5.588,9.9198 C4.5342,9.9704 3.7004,10.8526 3.7004,11.913 C3.7004,13.0174 4.598,13.9106 5.698,13.9106 L20.57,13.9106 C21.6744,13.9106 22.572,13.0174 22.572,11.913 C22.572,10.9714 21.9054,10.1508 20.9902,9.955 Z" id="Shape" fill="#1884C6"></path>
            </g>
            <path d="M97.3284,114.7854 C93.518,114.7854 92.352,116.882 91.6524,118.136 C91.1882,118.9698 91.1794,118.9874 90.4666,118.9874 C89.7582,118.9874 89.7582,118.9874 89.2808,118.125 C88.5812,116.8776 87.4152,114.7788 83.6092,114.7788 C79.8054,114.7788 78.6372,116.8754 77.9332,118.1316 C77.469,118.9654 77.4602,118.9808 76.7474,118.9808 C76.0412,118.9808 76.0324,118.9654 75.5616,118.125 C74.8686,116.8754 73.696,114.7788 69.8922,114.7788 C66.0796,114.7788 64.9136,116.8754 64.2162,118.1272 C63.752,118.9654 63.741,118.9808 63.0326,118.9808 C62.322,118.9808 62.3132,118.9654 61.8424,118.1228 C61.1472,116.8754 59.9768,114.7766 56.173,114.7766 C52.3648,114.7766 51.1966,116.8732 50.4992,118.1272 C50.0328,118.961 50.024,118.9786 49.3134,118.9786 C48.605,118.9786 48.605,118.9786 48.1276,118.1162 C47.428,116.8688 46.2598,114.77 42.456,114.77 C41.0128,114.77 39.948,115.0758 39.1472,115.518 C43.314,118.345 47.8966,120.6044 52.7718,122.217 C53.4626,121.6054 53.874,120.8838 54.1578,120.369 C54.677,119.4318 54.8024,119.2118 56.173,119.2118 C57.5436,119.2118 57.6668,119.4384 58.1882,120.369 C58.78,121.4316 59.8756,123.4138 63.0326,123.4138 C66.183,123.4138 67.2412,121.5108 67.8748,120.369 C68.394,119.4318 68.5216,119.2118 69.8922,119.2118 C71.2628,119.2118 71.386,119.4384 71.9096,120.3734 C72.4992,121.4338 73.5992,123.4138 76.7474,123.4138 C79.9066,123.4138 81.0022,121.436 81.594,120.369 C82.111,119.4318 82.2386,119.2118 83.6092,119.2118 C84.9798,119.2118 85.1008,119.4384 85.6244,120.3734 C85.917,120.897 86.335,121.6494 87.0654,122.272 C91.9626,120.6704 96.5628,118.4176 100.7494,115.5906 C99.931,115.1264 98.8442,114.7854 97.3284,114.7854 Z" id="Shape" fill="#025680" fill-rule="nonzero"></path>
            <path d="M105.4244,108.3702 C104.9602,109.2106 104.9514,109.226 104.2386,109.226 C103.5324,109.226 103.5214,109.2106 103.0528,108.3658 C102.3554,107.1184 101.1872,105.0196 97.3812,105.0196 C93.5774,105.0196 92.4048,107.1162 91.7118,108.3724 C91.241,109.2062 91.2322,109.2216 90.526,109.2216 C89.8132,109.2216 89.8132,109.2216 89.3358,108.3592 C88.6428,107.1118 87.468,105.0152 83.6642,105.0152 C79.8604,105.0152 78.6922,107.1096 77.9926,108.3658 C77.524,109.1996 77.5152,109.2172 76.8068,109.2172 C76.0962,109.2172 76.0874,109.1996 75.6232,108.3614 C74.9236,107.1096 73.7554,105.0152 69.9472,105.0152 C66.1368,105.0152 64.9686,107.1118 64.2712,108.3614 C63.807,109.1996 63.7982,109.2172 63.0898,109.2172 C62.3792,109.2172 62.3682,109.1996 61.8996,108.357 C61.2022,107.1096 60.0318,105.0108 56.228,105.0108 C52.422,105.0108 51.2516,107.1074 50.5564,108.3636 C50.09,109.1974 50.079,109.2128 49.3706,109.2128 C48.66,109.2128 48.66,109.2128 48.1826,108.3504 C47.4852,107.103 46.3148,105.0064 42.511,105.0064 C38.7028,105.0064 37.5346,107.103 36.8372,108.357 C36.3708,109.1908 36.362,109.2084 35.6558,109.2084 C34.943,109.2084 34.9342,109.1908 34.4656,108.3526 C33.7704,107.1008 32.6,105.0064 28.794,105.0064 C28.387,105.0064 28.0152,105.0328 27.661,105.0768 C30.2746,108.2316 33.2446,111.0784 36.494,113.5776 C39.002,113.2564 39.9612,111.5624 40.4958,110.5988 C41.0172,109.6616 41.1426,109.4438 42.511,109.4438 C43.8816,109.4438 44.0092,109.6682 44.5306,110.6076 C45.1224,111.668 46.2268,113.6436 49.3706,113.6436 C52.5254,113.6436 53.6254,111.6658 54.215,110.5988 C54.732,109.6638 54.8596,109.4438 56.228,109.4438 C57.5986,109.4438 57.7262,109.6682 58.2432,110.601 C58.8372,111.6636 59.9328,113.6436 63.0898,113.6436 C66.238,113.6436 67.2962,111.7428 67.932,110.601 C68.4512,109.6638 68.5766,109.4438 69.9472,109.4438 C71.3222,109.4438 71.4432,109.6682 71.9668,110.6032 C72.5608,111.6636 73.6608,113.6436 76.8068,113.6436 C79.9682,113.6436 81.0638,111.6658 81.649,110.5988 C82.166,109.6638 82.2936,109.4438 83.6642,109.4438 C85.0348,109.4438 85.1624,109.6682 85.6838,110.6032 C86.2756,111.6636 87.3756,113.6436 90.526,113.6436 C93.672,113.6436 94.7786,111.6702 95.366,110.6032 C95.8852,109.6638 96.0128,109.4438 97.3812,109.4438 C98.7518,109.4438 98.8794,109.6682 99.3964,110.601 C99.942,111.5734 100.9254,113.2982 103.5038,113.5842 C106.7554,111.0828 109.721,108.2338 112.339,105.0856 C111.9606,105.035 111.5536,105.002 111.1026,105.002 C107.2878,105.024 106.124,107.1206 105.4244,108.3702 Z" id="Shape" fill="#025680" fill-rule="nonzero"></path>
            <path d="M111.0344,95.2604 C107.2262,95.2604 106.058,97.357 105.3606,98.6066 C104.8942,99.4448 104.8854,99.4624 104.1748,99.4624 C103.4664,99.4624 103.4576,99.4448 102.9868,98.6022 C102.2894,97.3526 101.1212,95.256 97.3174,95.256 C93.5092,95.256 92.3388,97.3526 91.6436,98.6088 C91.1772,99.4426 91.1684,99.458 90.4578,99.458 C89.7494,99.458 89.7494,99.458 89.2698,98.5978 C88.5724,97.3482 87.4042,95.2538 83.6004,95.2538 C79.7966,95.2538 78.6262,97.346 77.9244,98.6044 C77.4602,99.4382 77.4514,99.4558 76.7386,99.4558 C76.0302,99.4558 76.0214,99.4382 75.5528,98.5978 C74.8576,97.346 73.6872,95.2516 69.8812,95.2516 C66.0708,95.2516 64.9048,97.3482 64.2074,98.5978 C63.741,99.436 63.7322,99.4536 63.0238,99.4536 C62.3132,99.4536 62.3044,99.436 61.8336,98.5934 C61.1384,97.3438 59.968,95.2472 56.1642,95.2472 C52.356,95.2472 51.1878,97.3438 50.4904,98.6 C50.024,99.4338 50.0152,99.4492 49.3046,99.4492 C48.5962,99.4492 48.5962,99.4492 48.1166,98.589 C47.4192,97.3394 46.251,95.245 42.4472,95.245 C38.6368,95.245 37.4686,97.3416 36.7712,98.5956 C36.307,99.4294 36.2982,99.447 35.5898,99.447 C34.877,99.447 34.8682,99.4294 34.3996,98.589 C33.7,97.346 32.5318,95.2538 28.7236,95.2538 C24.911,95.2538 23.7472,97.3504 23.0542,98.6 C23.0476,98.611 23.0454,98.6154 23.0388,98.6242 C23.8374,99.9332 24.6954,101.2004 25.5952,102.428 C26.1232,101.8802 26.4664,101.2884 26.7084,100.8506 C27.2276,99.909 27.3552,99.689 28.7236,99.689 C30.0942,99.689 30.2218,99.9156 30.7432,100.8506 C31.335,101.911 32.435,103.8888 35.5854,103.8888 C38.7424,103.8888 39.838,101.9132 40.4276,100.8462 C40.9468,99.909 41.0722,99.689 42.4428,99.689 C43.8134,99.689 43.9388,99.9156 44.4624,100.855 C45.0542,101.9132 46.1564,103.8888 49.3002,103.8888 C52.455,103.8888 53.555,101.9132 54.1446,100.8462 C54.6616,99.909 54.7892,99.689 56.1598,99.689 C57.5304,99.689 57.6536,99.9156 58.175,100.8462 C58.7668,101.9088 59.8624,103.8888 63.0194,103.8888 C66.1676,103.8888 67.228,101.988 67.8616,100.8462 C68.3808,99.909 68.5084,99.689 69.8768,99.689 C71.2474,99.689 71.375,99.9156 71.8964,100.8506 C72.4882,101.911 73.5882,103.8888 76.7342,103.8888 C79.8956,103.8888 80.9912,101.9132 81.5808,100.8462 C82.0978,99.909 82.2254,99.689 83.596,99.689 C84.9666,99.689 85.0876,99.9156 85.6112,100.8506 C86.2052,101.9088 87.3052,103.8888 90.4534,103.8888 C93.6016,103.8888 94.7038,101.9176 95.2978,100.8506 C95.8148,99.909 95.9424,99.689 97.313,99.689 C98.6814,99.689 98.8068,99.9112 99.3282,100.8462 C99.92,101.9088 101.0156,103.8888 104.1704,103.8888 C107.3208,103.8888 108.3812,101.988 109.0148,100.8462 C109.534,99.909 109.6594,99.689 111.03,99.689 C112.4006,99.689 112.526,99.9156 113.0452,100.8462 C113.3114,101.3236 113.6898,101.9836 114.2992,102.5644 C115.1902,101.3522 116.035,100.1026 116.827,98.8178 C116.7808,98.7452 116.7522,98.6902 116.695,98.5956 C116.0108,97.3592 114.847,95.2604 111.0344,95.2604 Z" id="Shape" fill="#025680" fill-rule="nonzero"></path>
            <circle id="Oval-Copy-3" stroke="#1283C6" stroke-width="2.5" fill-rule="nonzero" cx="70" cy="70" r="55"></circle>
            <path d="M89.5624,54.7782 L87.1424,53.5704 C86.9246,53.456 86.6606,53.5462 86.5528,53.7662 L83.6796,59.5148 L83.6752,59.5236 L82.1,62.6762 L82.0736,62.6762 L79.8626,67.0322 L79.449,67.8506 L55.7792,67.8506 C53.9642,67.9232 52.5232,69.4588 52.5628,71.265 L52.5628,84.5112 C52.5628,84.7532 52.7608,84.9512 53.0028,84.9512 L55.7066,84.9512 C55.9486,84.9512 56.1466,84.7532 56.1466,84.5112 L56.1466,76.3932 L76.3646,76.3932 L76.3646,84.5112 C76.3646,84.7532 76.5626,84.9512 76.8046,84.9512 L79.5084,84.9512 C79.7504,84.9512 79.9484,84.7532 79.9484,84.5112 L79.9484,74.972 L89.7538,55.3678 C89.8044,55.2644 89.8132,55.1412 89.778,55.0312 C89.7428,54.9212 89.6658,54.8288 89.5624,54.7782 Z M77.007,72.805 L56.151,72.805 L56.1532,71.4344 L77.557,71.4344 L77.007,72.805 Z" id="Shape" fill="#025680" fill-rule="nonzero"></path>
            <g id="Group" transform="translate(30.400000, 37.000000)" fill-rule="nonzero">
                <path d="M4.3626,13.8534 L15.345,13.8534 C17.4856,13.8534 19.228,12.1132 19.228,9.9726 C19.228,8.5756 18.469,7.3172 17.3184,6.6286 C17.1886,4.2702 15.235,2.387 12.8458,2.387 C12.276,2.387 11.7282,2.4904 11.2178,2.6928 C10.3158,2.0262 9.2202,1.6566 8.0806,1.6566 C5.3526,1.6566 3.0998,3.7378 2.8358,6.3976 C1.4454,6.996 0.484,8.3754 0.484,9.9704 C0.484,12.1132 2.2242,13.8534 4.3626,13.8534 Z M4.3054,8.855 C4.6948,8.8374 5.0556,8.6526 5.2998,8.3512 C5.544,8.052 5.6562,7.6648 5.6012,7.282 C5.5858,7.1654 5.577,7.0488 5.577,6.9256 C5.577,5.5462 6.7012,4.4242 8.0806,4.4242 C8.8,4.4242 9.4908,4.741 9.9638,5.2866 C10.4346,5.8256 11.2442,5.9202 11.8272,5.4912 C12.1242,5.2712 12.4762,5.1612 12.8458,5.1612 C13.7918,5.1612 14.5574,5.9312 14.5574,6.8728 C14.5574,6.996 14.5442,7.1148 14.5156,7.2358 C14.4386,7.5944 14.5068,7.9706 14.7048,8.2808 C14.9072,8.5932 15.2174,8.8066 15.576,8.8814 C16.082,8.9914 16.456,9.4512 16.456,9.9726 C16.456,10.5864 15.9522,11.0858 15.3384,11.0858 L4.3604,11.0858 C3.7466,11.0858 3.245,10.5864 3.245,9.9726 C3.2516,9.3808 3.7114,8.8902 4.3054,8.855 Z" id="Shape" fill="#025680"></path>
                <path d="M15.5804,8.8814 C15.2218,8.8066 14.9072,8.5888 14.7092,8.2808 C14.5112,7.9728 14.4386,7.5944 14.52,7.2358 C14.5464,7.1148 14.5596,6.996 14.5596,6.8728 C14.5596,5.9268 13.7896,5.1612 12.8458,5.1612 C12.4762,5.1612 12.1286,5.2778 11.8294,5.4912 C11.2464,5.9202 10.4368,5.8256 9.966,5.2866 C9.4886,4.741 8.8022,4.4242 8.0806,4.4242 C6.7012,4.4242 5.5792,5.5462 5.5792,6.9256 C5.5792,7.0488 5.588,7.1654 5.6056,7.282 C5.6584,7.667 5.5528,8.0564 5.302,8.3512 C5.0556,8.6526 4.6948,8.8374 4.3076,8.855 C3.7136,8.8902 3.2538,9.3742 3.2538,9.9726 C3.2538,10.5864 3.7532,11.0858 4.367,11.0858 L15.3494,11.0858 C15.9632,11.0858 16.4648,10.5864 16.4648,9.9726 C16.4604,9.4512 16.0886,8.9914 15.5804,8.8814 Z" id="Shape" fill="#1884C6"></path>
            </g>
            <g id="Rectangle-2-Copy-6">
                <use fill="black" fill-opacity="1" filter="url(#filter-4)" xlink:href="#path-3"></use>
                <rect stroke="#1283C6" stroke-width="2" stroke-linejoin="square" fill="#FFFFFF" fill-rule="evenodd" x="23" y="146" width="94" height="23" rx="4"></rect>
            </g>
            <text id="Recreational" font-family="OpenSans-SemiBold, Open Sans" font-size="14" font-weight="500" fill="#025680">
                <tspan x="27.4804688" y="163">Recreational</tspan>
            </text>
        </g>
    </g>
</svg>