<?xml version="1.0" encoding="UTF-8"?>
<svg width="70px" height="56px" viewBox="0 0 70 56" version="1.1" xmlns="http://www.w3.org/2000/svg" xmlns:xlink="http://www.w3.org/1999/xlink">
    <!-- Generator: Sketch 51.3 (57544) - http://www.bohemiancoding.com/sketch -->
    <title>bedroom_2</title>
    <desc>Created with Sketch.</desc>
    <defs></defs>
    <g id="icons" stroke="none" stroke-width="1" fill="none" fill-rule="evenodd">
        <g id="bedroom_2" fill="#FFC300" fill-rule="nonzero">
            <path d="M64.988,17.1529993 C62.9486667,15.6689993 60.4893333,15.0203326 58.0066667,15.0203326 L34.342,15.0203326 C33.446,15.0203326 32.5593333,14.9923326 31.6633333,15.0203326 C31.5653333,15.0203326 31.458,15.0249993 31.36,15.043666 C29.5073333,15.2443326 27.8833333,16.695666 27.426,18.5203326 C27.2486667,19.2203326 27.2766667,19.915666 27.2766667,20.6203326 L27.2766667,31.3723326 L6.636,31.3723326 L6.636,9.43899928 C6.636,7.45099928 6.65933333,5.45366595 6.636,3.46099928 C6.636,3.43299928 6.636,3.40033262 6.636,3.37699928 C6.636,1.61299928 5.11,-0.0810007166 3.318,0.00299928341 C1.51666667,0.0916659501 0,1.48233262 0,3.38166595 L0,46.5623326 C0,48.559666 0,50.5523326 0,52.5403326 L0,52.633666 C0,54.3929993 1.526,56.0869993 3.318,56.007666 C5.11933333,55.923666 6.636,54.523666 6.636,52.633666 L6.636,44.709666 L63.364,44.709666 L63.364,52.6289993 C63.364,54.3883326 64.8853333,56.0823326 66.682,56.0029993 C68.4786667,55.909666 70,54.5189993 70,52.619666 L70,35.7589993 L70,33.481666 L70,33.061666 L70,29.603666 L70,26.8643326 C69.972,22.9769993 68.0866667,19.4163326 64.988,17.1529993 Z" id="Shape"></path>
            <path d="M19.1280327,29.076665 C22.4040327,28.4513316 24.751366,25.4319983 24.8260327,22.1653316 C24.8260327,22.132665 24.8260327,22.0953316 24.8260327,22.076665 L24.8260327,22.0579983 C24.8260327,22.0393316 24.8306994,22.034665 24.8306994,22.020665 C24.793366,18.968665 22.875366,16.3599983 20.0380327,15.2913316 C17.3546994,14.278665 14.0366994,15.1653316 12.2166994,17.386665 C10.289366,19.7433316 9.89736604,23.070665 11.4886994,25.7213316 C13.0706994,28.3579983 16.1366994,29.6413316 19.1280327,29.076665 Z" id="Shape"></path>
        </g>
    </g>
</svg>