<?xml version="1.0" encoding="UTF-8"?>
<svg width="120px" height="120px" viewBox="0 0 120 120" version="1.1" xmlns="http://www.w3.org/2000/svg" xmlns:xlink="http://www.w3.org/1999/xlink">
    <!-- Generator: Sketch 50.2 (55047) - http://www.bohemiancoding.com/sketch -->
    <title>Group 14</title>
    <desc>Created with Sketch.</desc>
    <defs></defs>
    <g id="Page-1" stroke="none" stroke-width="1" fill="none" fill-rule="evenodd">
        <g id="My-Nobul---Proposal_Declined_Modal" transform="translate(-581.000000, -643.000000)">
            <g id="Group-11">
                <g id="Group-4">
                    <g id="Group-14" transform="translate(581.000000, 643.000000)">
                        <circle id="Oval-13-Copy-2" fill="#F1F1F1" cx="60" cy="60" r="60"></circle>
                        <path d="M87,54.2703704 L66.7296296,54.2703704 L66.7296296,34 C66.7296296,33.9447715 66.6848581,33.9 66.6296296,33.9 L54.3703704,33.9 C54.3151419,33.9 54.2703704,33.9447715 54.2703704,34 L54.2703704,54.2703704 L34,54.2703704 C33.9447715,54.2703704 33.9,54.3151419 33.9,54.3703704 L33.9,66.6296296 C33.9,66.6848581 33.9447715,66.7296296 34,66.7296296 L54.2703704,66.7296296 L54.2703704,87 C54.2703704,87.0552285 54.3151419,87.1 54.3703704,87.1 L66.6296296,87.1 C66.6848581,87.1 66.7296296,87.0552285 66.7296296,87 L66.7296296,66.7296296 L87,66.7296296 C87.0552285,66.7296296 87.1,66.6848581 87.1,66.6296296 L87.1,54.3703704 C87.1,54.3151419 87.0552285,54.2703704 87,54.2703704 Z" id="Rectangle-2" stroke="#272727" stroke-width="1.8" transform="translate(60.500000, 60.500000) rotate(45.000000) translate(-60.500000, -60.500000) "></path>
                    </g>
                </g>
            </g>
        </g>
    </g>
</svg>