<?xml version="1.0" encoding="utf-8"?>
<!-- Generator: Adobe Illustrator 16.0.0, SVG Export Plug-In . SVG Version: 6.00 Build 0)  -->
<!DOCTYPE svg PUBLIC "-//W3C//DTD SVG 1.1//EN" "http://www.w3.org/Graphics/SVG/1.1/DTD/svg11.dtd">
<svg version="1.1" id="Layer_1" xmlns="http://www.w3.org/2000/svg" xmlns:xlink="http://www.w3.org/1999/xlink" x="0px" y="0px"
	 width="50px" height="50px" viewBox="0 0 50 50" enable-background="new 0 0 50 50" xml:space="preserve">
<g>
	<circle fill="#8DD4F6" cx="25" cy="25" r="25"/>
	<path fill="#8DD4F6" d="M13.118,21.079V36.73h8.142v-8.899c0-0.276,0.225-0.513,0.5-0.513h6.487c0.276,0,0.5,0.224,0.5,0.5v8.912
		h8.101V21.057L25,12.968L13.118,21.079z"/>
	<polyline fill="#1884C6" points="21.76,37.23 21.76,27.831 21.76,27.818 28.247,27.818 28.247,27.831 28.247,37.23 	"/>
	<rect x="15.197" y="21.507" fill="#1884C6" width="3.777" height="3.778"/>
	<rect x="23.116" y="21.507" fill="#1884C6" width="3.772" height="3.778"/>
	<rect x="23.116" y="21.507" fill="#1884C6" width="3.772" height="3.778"/>
	<rect x="31.036" y="21.507" fill="#1884C6" width="3.772" height="3.778"/>
	<rect x="15.197" y="27.914" fill="#1884C6" width="3.777" height="3.773"/>
	<rect x="31.036" y="27.914" fill="#1884C6" width="3.772" height="3.773"/>
	<polygon fill="#1884C6" points="11.158,21.812 25,12.361 38.843,21.812 40.475,19.334 25,8.77 9.525,19.334 	"/>
	<polygon fill="#1884C6" points="14.402,16.003 14.402,10.562 17.538,10.562 17.538,13.947 	"/>
	<path fill="#025680" d="M18.975,21.007h-3.776c-0.276,0-0.5,0.224-0.5,0.5v3.778c0,0.275,0.224,0.5,0.5,0.5h3.776
		c0.276,0,0.5-0.225,0.5-0.5v-3.778C19.475,21.23,19.251,21.007,18.975,21.007z M18.475,24.785h-2.776v-2.778h2.776V24.785z"/>
	<path fill="#025680" d="M22.616,21.507v3.778c0,0.275,0.224,0.5,0.5,0.5h3.772c0.274,0,0.5-0.225,0.5-0.5v-3.778
		c0-0.276-0.226-0.5-0.5-0.5h-3.772C22.84,21.007,22.616,21.23,22.616,21.507z M23.616,22.007h2.772v2.778h-2.772V22.007z"/>
	<path fill="#025680" d="M31.036,25.785h3.772c0.274,0,0.5-0.225,0.5-0.5v-3.778c0-0.276-0.226-0.5-0.5-0.5h-3.772
		c-0.276,0-0.5,0.224-0.5,0.5v3.778C30.536,25.562,30.76,25.785,31.036,25.785z M31.536,22.007h2.772v2.778h-2.772V22.007z"/>
	<path fill="#025680" d="M18.975,27.414h-3.776c-0.276,0-0.5,0.225-0.5,0.5v3.773c0,0.274,0.224,0.5,0.5,0.5h3.776
		c0.276,0,0.5-0.226,0.5-0.5v-3.773C19.475,27.639,19.251,27.414,18.975,27.414z M18.475,31.188h-2.776v-2.771h2.776V31.188z"/>
	<path fill="#025680" d="M31.036,32.188h3.772c0.274,0,0.5-0.224,0.5-0.5v-3.771c0-0.273-0.226-0.5-0.5-0.5h-3.772
		c-0.276,0-0.5,0.227-0.5,0.5v3.771C30.536,31.965,30.76,32.188,31.036,32.188z M31.536,28.414h2.772v2.773h-2.772V28.414z"/>
	<path fill="#025680" d="M42.5,36.73h-4.652V21.738l0.711,0.484c0.002,0.002,0.004,0.004,0.006,0.006
		c0.011,0.006,0.021,0.004,0.025,0.008c0.067,0.039,0.141,0.06,0.217,0.064c0.012,0.001,0.021,0.01,0.033,0.01
		c0.014,0,0.026-0.009,0.04-0.01c0.021-0.002,0.04,0.004,0.06,0c0.033-0.006,0.062-0.023,0.09-0.037
		c0.021-0.009,0.041-0.014,0.062-0.023c0.068-0.038,0.13-0.088,0.175-0.153l1.633-2.478c0.146-0.229,0.088-0.534-0.139-0.688
		L25.282,8.355c-0.171-0.114-0.396-0.114-0.564,0l-6.68,4.562v-2.354c0-0.276-0.224-0.5-0.5-0.5h-3.136c-0.275,0-0.5,0.224-0.5,0.5
		v5.178l-4.659,3.182c-0.226,0.154-0.285,0.46-0.136,0.688l1.633,2.479c0.074,0.111,0.189,0.189,0.32,0.215
		c0.032,0.008,0.064,0.01,0.098,0.01c0.1,0,0.197-0.029,0.281-0.086l0.679-0.463V36.73H7.5c-0.275,0-0.5,0.224-0.5,0.5
		c0,0.273,0.225,0.5,0.5,0.5h35c0.275,0,0.5-0.227,0.5-0.5C43,36.954,42.775,36.73,42.5,36.73z M14.902,11.062h2.136V13.6
		l-2.136,1.457V11.062z M11.296,21.111l-1.082-1.643l4.511-3.08l3.088-2.023c0.076-0.051,0.133-0.12,0.172-0.199L25,9.375
		l14.784,10.093l-1.082,1.644l-13.42-9.161c-0.171-0.115-0.396-0.115-0.564,0L11.296,21.111z M27.747,36.73H22.26v-8.412h5.487
		V36.73L27.747,36.73z M36.848,36.73h-8.101v-8.912c0-0.276-0.224-0.5-0.5-0.5H21.76c-0.275,0-0.5,0.236-0.5,0.513v8.899h-8.142
		V21.079L25,12.968l11.848,8.089V36.73z"/>
</g>
</svg>
