<?xml version="1.0" encoding="UTF-8"?>
<svg width="15px" height="15px" viewBox="0 0 15 15" version="1.1" xmlns="http://www.w3.org/2000/svg" xmlns:xlink="http://www.w3.org/1999/xlink">
    <!-- Generator: Sketch 50.2 (55047) - http://www.bohemiancoding.com/sketch -->
    <title>settings-work-tool</title>
    <desc>Created with Sketch.</desc>
    <defs></defs>
    <g id="Page-1" stroke="none" stroke-width="1" fill="none" fill-rule="evenodd">
        <g id="Sidebar_Customer" transform="translate(-31.000000, -761.000000)" fill="#000000" fill-rule="nonzero">
            <g id="Group">
                <g id="settings-work-tool" transform="translate(31.000000, 761.000000)">
                    <path d="M14.9530635,6.66721249 C14.9293433,6.45635899 14.6834903,6.2979119 14.4709014,6.2979119 C13.7835735,6.2979119 13.1736572,5.89434343 12.9178696,5.27021037 C12.6565567,4.63095256 12.8250539,3.88543084 13.3372987,3.41555904 C13.4985403,3.26816251 13.5181304,3.02142261 13.3828973,2.8500274 C13.0311127,2.40331713 12.6312737,1.99980447 12.1947103,1.6500935 C12.0237573,1.51291036 11.7729371,1.53199768 11.6246997,1.69613748 C11.1776435,2.19123579 10.3746168,2.37524425 9.75409618,2.11633759 C9.10834839,1.84470604 8.70114218,1.19037929 8.74099213,0.487999373 C8.75410801,0.267378968 8.59286641,0.0755569758 8.37291031,0.0499397822 C7.8126669,-0.0148566486 7.24751201,-0.0168658402 6.68559423,0.0454749119 C6.46814969,0.0694735899 6.30690809,0.256774901 6.31421949,0.474604762 C6.33866526,1.17006413 5.92654757,1.81294965 5.28721819,2.07481429 C4.67412058,2.32523771 3.8767309,2.14279194 3.43056773,1.65210269 C3.28311176,1.49047439 3.03636578,1.47060571 2.86457566,1.60449601 C2.41506376,1.95716496 2.006239,2.36101248 1.65121724,2.80403924 C1.51274704,2.97627161 1.53311851,3.22591368 1.69597867,3.37409156 C2.21799069,3.84680971 2.3865437,4.59880549 2.11535195,5.24543034 C1.8564389,5.86191731 1.21627234,6.25923496 0.483401629,6.25923496 C0.245585612,6.25158887 0.0761954196,6.41120799 0.050186909,6.62741933 C-0.0157831759,7.19088597 -0.0165645475,7.76501248 0.0469497982,8.33305561 C0.0705025697,8.54480209 0.323834393,8.7018539 0.538767386,8.7018539 C1.19188239,8.68516645 1.81893307,9.08951627 2.08197623,9.72961124 C2.3441822,10.3688691 2.17562919,11.1139443 1.66260294,11.5842068 C1.50214271,11.7316033 1.48177124,11.9779525 1.61700433,12.1493477 C1.96549605,12.5932116 2.36539085,12.997115 2.80351705,13.3497281 C2.97536298,13.4881949 3.22540189,13.4686611 3.37436479,13.3045213 C3.82309532,12.8081952 4.62606623,12.6245215 5.24413113,12.8839305 C5.89149748,13.1547249 6.29870368,13.8089958 6.25885373,14.5117664 C6.24584948,14.7324985 6.40787245,14.9246553 6.62693555,14.9498818 C6.91353148,14.9833125 7.20185759,15 7.49096507,15 C7.76539392,15 8.03987859,14.9849311 8.31430745,14.9544025 C8.5318078,14.9304038 8.69293778,14.7431025 8.68562638,14.524882 C8.66045505,13.8298133 9.0732983,13.1869278 9.71179049,12.9255096 C10.3290182,12.6734119 11.1230592,12.8579226 11.5692781,13.3481096 C11.7175713,13.509403 11.9625871,13.528881 12.135326,13.3954372 C12.5840007,13.0436054 12.9919883,12.6400928 13.3486844,12.1958382 C13.4870988,12.0239965 13.4675645,11.7739637 13.3038672,11.6258417 C12.7818552,11.1531235 12.612465,10.4010161 12.8836567,9.75483776 C13.1386071,9.14655499 13.7549976,8.73813097 14.4179914,8.73813097 L14.5107514,8.74053084 C14.725796,8.75799965 14.9236504,8.59235296 14.9497148,8.37284877 C15.0157965,7.80887983 15.0165779,7.23525562 14.9530635,6.66721249 Z M7.51189466,10.0175396 C6.13232735,10.0175396 5.01016616,8.89540603 5.01016616,7.51587272 C5.01016616,6.13639522 6.13232735,5.01420587 7.51189466,5.01420587 C8.89140616,5.01420587 10.0135674,6.13639522 10.0135674,7.51587272 C10.0135674,8.89540603 8.89140616,10.0175396 7.51189466,10.0175396 Z" id="Shape"></path>
                </g>
            </g>
        </g>
    </g>
</svg>