<?xml version="1.0" encoding="UTF-8"?>
<svg width="42px" height="42px" viewBox="0 0 42 42" version="1.1" xmlns="http://www.w3.org/2000/svg" xmlns:xlink="http://www.w3.org/1999/xlink">
    <!-- Generator: Sketch 51.1 (57501) - http://www.bohemiancoding.com/sketch -->
    <title>pool_small</title>
    <desc>Created with Sketch.</desc>
    <defs></defs>
    <g id="Page-1" stroke="none" stroke-width="1" fill="none" fill-rule="evenodd">
        <g id="Artboard" transform="translate(-585.000000, -892.000000)" stroke="#272727">
            <g id="pool_small" transform="translate(586.000000, 893.000000)">
                <g id="Group-7" fill="#FFFFFF" stroke-width="1.5">
                    <circle id="Oval-13-Copy-4" cx="20" cy="20" r="20"></circle>
                </g>
                <g id="Group-16" transform="translate(13.000000, 11.000000)">
                    <path d="M4.82954545,1.13686838e-13 C2.76893939,1.13686838e-13 1.60984848,1.13333333 1.35227273,3.4 C1.09469697,5.66666667 1.09469697,8.81481481 1.35227273,12.8444444" id="Path-20" stroke-linecap="round" stroke-linejoin="round"></path>
                    <path d="M13.7159091,1.13686838e-13 C11.655303,1.13686838e-13 10.4962121,1.13333333 10.2386364,3.4 C9.98106061,5.66666667 9.98106061,8.81481481 10.2386364,12.8444444" id="Path-20-Copy" stroke-linecap="round" stroke-linejoin="round"></path>
                    <path d="M1.54545455,5.28888889 L10.0454545,5.28888889" id="Line-9" stroke-linecap="square"></path>
                    <path d="M1.15909091,9.06666667 L9.65909091,9.06666667" id="Line-9-Copy" stroke-linecap="square"></path>
                    <path d="M0,13.6314815 C3.09090909,11.8685185 6.375,11.6166667 9.85227273,12.8759259 C13.3295455,14.1351852 15.1969697,14.1351852 15.4545455,12.8759259" id="Path-21" stroke-linecap="round" stroke-linejoin="round"></path>
                    <path d="M0,16.6537037 C3.09090909,14.8907407 6.375,14.6388889 9.85227273,15.8981481 C13.3295455,17.1574074 15.1969697,17.1574074 15.4545455,15.8981481" id="Path-21-Copy" stroke-linecap="round" stroke-linejoin="round"></path>
                </g>
            </g>
        </g>
    </g>
</svg>