<?xml version="1.0" encoding="UTF-8"?>
<svg width="124px" height="124px" viewBox="0 0 124 124" version="1.1" xmlns="http://www.w3.org/2000/svg" xmlns:xlink="http://www.w3.org/1999/xlink">
    <!-- Generator: Sketch 51.1 (57501) - http://www.bohemiancoding.com/sketch -->
    <title>ac</title>
    <desc>Created with Sketch.</desc>
    <defs></defs>
    <g id="Page-1" stroke="none" stroke-width="1" fill="none" fill-rule="evenodd">
        <g id="Artboard" transform="translate(-904.000000, -360.000000)">
            <g id="ac" transform="translate(906.000000, 362.000000)">
                <circle id="Oval-13-Copy-10" stroke="#BDBDBD" stroke-width="2.5" fill="#FFFFFF" cx="60" cy="60" r="60"></circle>
                <g id="air-conditioner-(1)" transform="translate(35.500000, 45.000000)" fill="#BDBDBD" fill-rule="nonzero">
                    <path d="M45.6000286,0 L2.39997141,0 C1.03995584,0 0,1.0363209 0,2.39158282 L0,18.3356899 C0,19.6909518 1.03995584,20.7272727 2.39997141,20.7272727 L45.6000286,20.7272727 C46.9600442,20.7272727 48,19.6909518 48,18.3356899 L48,2.39158282 C48.0000953,1.0363209 46.9600442,0 45.6000286,0 Z M46.4000826,18.3356899 C46.4000826,18.8140065 46.0801182,19.1328525 45.6001239,19.1328525 L2.39997141,19.1328525 C1.91997712,19.1328525 1.60001271,18.8140065 1.60001271,18.3356899 L1.60001271,2.39158282 C1.60001271,1.91326626 2.00003971,1.59442021 2.39997141,1.59442021 L45.6000286,1.59442021 C46.0800229,1.59442021 46.3999873,1.91326626 46.3999873,2.39158282 L46.3999873,18.3356899 L46.4000826,18.3356899 Z" id="Shape"></path>
                    <path d="M21.381787,6.54545455 L26.618213,6.54545455 C27.0109372,6.54545455 27.2727273,6.1091169 27.2727273,5.45454545 C27.2727273,4.799974 27.0109372,4.36363636 26.618213,4.36363636 L21.381787,4.36363636 C20.9890628,4.36363636 20.7272727,4.799974 20.7272727,5.45454545 C20.7272727,6.1091169 20.9890628,6.54545455 21.381787,6.54545455 Z" id="Shape"></path>
                    <path d="M42.8811569,15.3636364 L5.11884305,15.3636364 C4.66570104,15.3636364 4.36363636,15.7436137 4.36363636,16.3136364 C4.36363636,16.883659 4.66570104,17.2636364 5.11884305,17.2636364 L42.8811569,17.2636364 C43.334299,17.2636364 43.6363636,16.883659 43.6363636,16.3136364 C43.6363636,15.7436137 43.334299,15.3636364 42.8811569,15.3636364 Z" id="Shape"></path>
                    <path d="M42.8811569,10.9090909 L5.11884305,10.9090909 C4.66570104,10.9090909 4.36363636,11.2690695 4.36363636,11.8090909 C4.36363636,12.3491124 4.66570104,12.7090909 5.11884305,12.7090909 L42.8811569,12.7090909 C43.334299,12.7090909 43.6363636,12.3491124 43.6363636,11.8090909 C43.6363636,11.2690695 43.334299,10.9090909 42.8811569,10.9090909 Z" id="Shape"></path>
                    <path d="M23.2726551,24.4534187 C22.5454401,24.0909957 22.1817893,23.6561226 22.1817893,23.2936996 C22.1817893,22.9312765 22.6181356,22.4964035 23.1999596,22.0615304 C23.5636104,21.9165439 23.6363059,21.4816708 23.4908282,21.1193342 C23.3453506,20.7569111 22.9090043,20.612011 22.5454401,20.8294476 C21.3817922,21.4817572 20.7272727,22.3515033 20.7272727,23.2937859 C20.7272727,24.2359821 21.3817922,25.1058147 22.5454401,25.8305743 C23.2726551,26.1929974 23.6363059,26.6278704 23.6363059,26.9902935 C23.6363059,27.3527165 23.1999596,27.7875895 22.5454401,28.1499262 C22.1817893,28.2949127 22.0363983,28.7297858 22.2545714,29.0921224 C22.4000491,29.309559 22.6182223,29.4545455 22.9090909,29.4545455 C23.0545686,29.4545455 23.1272641,29.4545455 23.2727417,29.3820954 C24.4363896,28.7297858 25.0909091,27.8600396 25.0909091,26.917757 C25.0909091,25.9754745 24.436303,25.0332782 23.2726551,24.4534187 Z" id="Shape"></path>
                    <path d="M16.7272005,26.6352 C15.9999856,26.2727806 15.6363348,25.8379118 15.6363348,25.4754924 C15.6363348,25.1130729 16.0726811,24.6782041 16.654505,24.2433354 C17.0181558,24.0983503 17.1635468,23.6634815 16.9453737,23.3011485 C16.799896,22.938729 16.3635497,22.7938303 15.9999856,23.0112647 C14.8363376,23.6635679 14.1818182,24.5333055 14.1818182,25.4755787 C14.1818182,26.4177656 14.8363376,27.2875895 15.9999856,28.012342 C16.7272005,28.3747615 17.0908513,28.8096302 17.0908513,29.1720497 C17.0908513,29.5344691 16.654505,29.9693379 15.9999856,30.3317573 C15.6363348,30.4767423 15.4909437,30.9116111 15.7091169,31.2739442 C15.8545946,31.4913786 16.0727677,31.6363636 16.3636364,31.6363636 C16.509114,31.6363636 16.5818095,31.6363636 16.7272872,31.5639143 C17.8909351,30.9116111 18.5454545,30.0418736 18.5454545,29.0996003 C18.5454545,28.1573271 17.8908484,27.2150538 16.7272005,26.6352 Z" id="Shape"></path>
                    <path d="M31.9999278,26.6352 C31.2727128,26.2727806 30.909062,25.8379118 30.909062,25.4754924 C30.909062,25.1130729 31.3454083,24.6782041 31.9272323,24.2433354 C32.2908831,24.0983503 32.3635786,23.6634815 32.2181009,23.3011485 C32.0726233,22.938729 31.636277,22.7938303 31.2727128,23.0112647 C30.1090649,23.6635679 29.4545455,24.5333055 29.4545455,25.4755787 C29.4545455,26.4177656 30.1090649,27.2875895 31.2727128,28.012342 C31.9999278,28.3747615 32.3635786,28.8096302 32.3635786,29.1720497 C32.3635786,29.5344691 31.9272323,29.9693379 31.2727128,30.3317573 C30.909062,30.4767423 30.763671,30.9116111 30.9818442,31.2739442 C31.1273218,31.4913786 31.345495,31.6363636 31.6363636,31.6363636 C31.7818413,31.6363636 31.8545368,31.6363636 32.0000144,31.5639143 C33.1636624,30.9116111 33.8181818,30.0418736 33.8181818,29.0996003 C33.8181818,28.1573271 33.1634891,27.2150538 31.9999278,26.6352 Z" id="Shape"></path>
                </g>
                <text id="A/c" font-family="OpenSans-Bold, Open Sans" font-size="12" font-weight="bold" fill="#BDBDBD">
                    <tspan x="49.5585938" y="95">A/C</tspan>
                </text>
            </g>
        </g>
    </g>
</svg>