<?xml version="1.0" encoding="UTF-8"?>
<svg width="42px" height="42px" viewBox="0 0 42 42" version="1.1" xmlns="http://www.w3.org/2000/svg" xmlns:xlink="http://www.w3.org/1999/xlink">
    <!-- Generator: Sketch 51.1 (57501) - http://www.bohemiancoding.com/sketch -->
    <title>laundry_small</title>
    <desc>Created with Sketch.</desc>
    <defs></defs>
    <g id="Page-1" stroke="none" stroke-width="1" fill="none" fill-rule="evenodd">
        <g id="Artboard" transform="translate(-585.000000, -829.000000)" stroke="#272727">
            <g id="laundry_small" transform="translate(586.000000, 830.000000)">
                <g id="Group-8-Copy-2" fill="#FFFFFF" stroke-width="1.5">
                    <g id="Group-7">
                        <circle id="Oval-13-Copy-4" cx="20" cy="20" r="20"></circle>
                    </g>
                </g>
                <g id="Group-10" transform="translate(11.500000, 11.000000)">
                    <g id="Group-3">
                        <rect id="Rectangle-24" stroke-width="0.9" fill="#FFFFFF" x="0.45" y="0.45" width="15.8317281" height="17.8625006" rx="1"></rect>
                        <path d="M0.501951843,2.84787956 L16.2297763,2.84787956" id="Line-4" stroke-width="0.9" stroke-linecap="square"></path>
                        <path d="M8.399388,13.9073529 C10.3320466,13.9073529 11.898776,12.3387035 11.898776,10.4036765 C11.898776,8.46864939 10.3320466,6.9 8.399388,6.9 C6.95157185,6.9 5.70911466,7.78032375 5.17684687,9.03552216 C4.99860184,9.45586109 4.9,9.91823982 4.9,10.4036765 C4.9,12.3387035 6.46672937,13.9073529 8.399388,13.9073529 Z" id="Oval-2-Copy" stroke-width="0.7" fill="#FFFFFF"></path>
                        <ellipse id="Oval-2" stroke-width="0.7" cx="8.4246465" cy="10.4308042" rx="5.0246465" ry="5.03080416"></ellipse>
                        <circle id="Oval-5" stroke-width="0.7" fill="#FFFFFF" cx="2.45" cy="1.55" r="1"></circle>
                        <circle id="Oval-5-Copy" stroke-width="0.7" fill="#FFFFFF" cx="4.59634562" cy="1.55" r="1"></circle>
                    </g>
                    <rect id="Rectangle-30" stroke-width="0.7" x="13.35" y="1.65" width="1.3" height="1" rx="0.5"></rect>
                </g>
            </g>
        </g>
    </g>
</svg>