<?xml version="1.0" encoding="UTF-8"?>
<svg width="42px" height="42px" viewBox="0 0 42 42" version="1.1" xmlns="http://www.w3.org/2000/svg" xmlns:xlink="http://www.w3.org/1999/xlink">
    <!-- Generator: Sketch 51.1 (57501) - http://www.bohemiancoding.com/sketch -->
    <title>fireplace_small</title>
    <desc>Created with Sketch.</desc>
    <defs></defs>
    <g id="Page-1" stroke="none" stroke-width="1" fill="none" fill-rule="evenodd">
        <g id="Artboard" transform="translate(-681.000000, -767.000000)" stroke="#272727">
            <g id="fireplace_small" transform="translate(682.000000, 768.000000)">
                <g id="Group-18" fill="#FFFFFF" stroke-width="1.5">
                    <g id="Group-2-Copy-2">
                        <g id="elevator-copy">
                            <g id="Group-8-Copy">
                                <g id="Group-7">
                                    <circle id="Oval-13-Copy-4" cx="20" cy="20" r="20"></circle>
                                </g>
                            </g>
                        </g>
                    </g>
                </g>
                <g id="Group-9" transform="translate(10.000000, 11.000000)" fill-rule="nonzero" stroke-width="0.9">
                    <path d="M18.5,3.5 L18.5,16.5" id="Line-12" stroke-linecap="square"></path>
                    <path d="M2.25,3.5 L2.25,16.5" id="Line-12-Copy" stroke-linecap="square"></path>
                    <path d="M5,8 L5,17" id="Line-12-Copy-2" stroke-linecap="square"></path>
                    <path d="M15.5,8 L15.5,17" id="Line-12-Copy-3" stroke-linecap="square"></path>
                    <rect id="Rectangle-28" fill="#FFFFFF" x="1.05" y="0.95" width="18.6" height="2.6" rx="0.5"></rect>
                    <rect id="Rectangle-28-Copy" fill="#FFFFFF" x="1.05" y="17.05" width="18.6" height="1.6" rx="0.5"></rect>
                    <path d="M5,7.5 C8.33333333,5.83333333 11.8333333,5.83333333 15.5,7.5" id="Path-15" stroke-linecap="round" stroke-linejoin="round"></path>
                    <g id="Group-6" transform="translate(8.300000, 10.000000)" stroke-linecap="round" stroke-linejoin="round">
                        <path d="M2,6.5 C0.666666667,6.16666667 6.5314496e-17,5.33333333 0,4 C0,2.66666667 0.666666667,1.33333333 2,0" id="Path-23"></path>
                        <path d="M4,6.5 C2.66666667,6.16666667 2,5.33333333 2,4 C2,2.66666667 2.66666667,1.33333333 4,0" id="Path-23-Copy" transform="translate(3.000000, 3.250000) scale(-1, 1) translate(-3.000000, -3.250000) "></path>
                    </g>
                </g>
            </g>
        </g>
    </g>
</svg>