<?xml version="1.0" encoding="UTF-8"?>
<svg width="42px" height="42px" viewBox="0 0 42 42" version="1.1" xmlns="http://www.w3.org/2000/svg" xmlns:xlink="http://www.w3.org/1999/xlink">
    <!-- Generator: Sketch 51.1 (57501) - http://www.bohemiancoding.com/sketch -->
    <title>parking_small</title>
    <desc>Created with Sketch.</desc>
    <defs></defs>
    <g id="Page-1" stroke="none" stroke-width="1" fill="none" fill-rule="evenodd">
        <g id="Artboard" transform="translate(-584.000000, -643.000000)" stroke="#272727">
            <g id="parking" transform="translate(585.000000, 644.000000)">
                <g id="Group">
                    <circle id="Oval-13-Copy-2" stroke-width="1.5" fill="#FFFFFF" cx="20" cy="20" r="20"></circle>
                    <g id="Group-4" transform="translate(11.500000, 10.000000)">
                        <path d="M1.88358025,7.38888889 L16.332963,7.38888889" id="Line-3" stroke-width="0.7" stroke-linecap="square"></path>
                        <path d="M1.88358025,8.65555556 L16.332963,8.65555556" id="Line-3-Copy" stroke-width="0.7" stroke-linecap="square"></path>
                        <rect id="Rectangle-3" stroke-width="0.9" fill="#FFFFFF" x="0.532547743" y="6.36111111" width="1.16419753" height="12.1888889" rx="0.582098765"></rect>
                        <rect id="Rectangle-3-Copy" stroke-width="0.9" fill="#FFFFFF" x="15.7499878" y="6.36111111" width="1.16419753" height="12.1888889" rx="0.582098765"></rect>
                        <polygon id="Path-6" stroke-width="0.9" fill="#FFFFFF" stroke-linecap="round" stroke-linejoin="round" points="8.49884406 0.211111111 0.412839506 3.37777778 0.412839506 6.12222222 16.7728952 6.12222222 16.7728952 3.37777778"></polygon>
                        <path d="M12.8578395,13.9333333 L11.619321,11.1888889 C11.4817078,10.7666667 11.1376749,10.5555556 10.5872222,10.5555556 C10.0367695,10.5555556 9.27989712,10.5555556 8.31660494,10.5555556" id="Path-7" stroke-width="0.7"></path>
                        <path d="M10.3127778,13.9333333 L9.07425926,11.1888889 C8.93664609,10.7666667 8.59261317,10.5555556 8.04216049,10.5555556 C7.49170782,10.5555556 6.32199588,10.5555556 4.53302469,10.5555556" id="Path-7-Copy" stroke-width="0.7" transform="translate(7.422901, 12.244444) scale(-1, 1) translate(-7.422901, -12.244444) "></path>
                        <rect id="Rectangle-6" stroke-width="0.7" fill="#FFFFFF" x="3.67851852" y="15.3944444" width="1.36419753" height="2.82999997" rx="0.682098765"></rect>
                        <rect id="Rectangle-6-Copy" stroke-width="0.7" fill="#FFFFFF" x="12.3481481" y="15.3944444" width="1.36419753" height="2.82999997" rx="0.682098765"></rect>
                        <rect id="Rectangle-4" stroke-width="0.7" fill="#FFFFFF" x="3.67851852" y="12.8611111" width="10.0338272" height="4.10000019" rx="2"></rect>
                        <rect id="Rectangle-5" fill="#D8D8D8" x="4.65419753" y="14.7" width="1.06419753" height="1" rx="0.5"></rect>
                        <rect id="Rectangle-5-Copy" fill="#D8D8D8" x="11.6724691" y="14.7" width="1.06419753" height="1" rx="0.5"></rect>
                        <rect id="Rectangle-5-Copy-2" fill="#D8D8D8" x="7.54407407" y="15.1222222" width="2.30271605" height="1" rx="0.5"></rect>
                    </g>
                </g>
            </g>
        </g>
    </g>
</svg>