<?xml version="1.0" encoding="UTF-8"?>
<svg width="42px" height="42px" viewBox="0 0 42 42" version="1.1" xmlns="http://www.w3.org/2000/svg" xmlns:xlink="http://www.w3.org/1999/xlink">
    <!-- Generator: Sketch 51.1 (57501) - http://www.bohemiancoding.com/sketch -->
    <title>ac_small</title>
    <desc>Created with Sketch.</desc>
    <defs></defs>
    <g id="Page-1" stroke="none" stroke-width="1" fill="none" fill-rule="evenodd">
        <g id="Artboard" transform="translate(-681.000000, -705.000000)">
            <g id="ac_small" transform="translate(682.000000, 706.000000)">
                <g id="Group-2-Copy" fill="#FFFFFF" stroke="#272727" stroke-width="1.5">
                    <g id="elevator-copy">
                        <g id="Group-8-Copy">
                            <g id="Group-7">
                                <circle id="Oval-13-Copy-4" cx="20" cy="20" r="20"></circle>
                            </g>
                        </g>
                    </g>
                </g>
                <g id="air-conditioner-(1)" transform="translate(10.000000, 14.000000)" fill="#272727" fill-rule="nonzero">
                    <path d="M19.9500125,0 L1.04998749,0 C0.454980679,0 0,0.449981442 0,1.03845044 L0,7.96154956 C0,8.55001856 0.454980679,9 1.04998749,9 L19.9500125,9 C20.5450193,9 21,8.55001856 21,7.96154956 L21,1.03845044 C21.0000417,0.449981442 20.5450193,0 19.9500125,0 Z M20.3000361,7.96154956 C20.3000361,8.16923965 20.1600517,8.30768596 19.9500542,8.30768596 L1.04998749,8.30768596 C0.839989992,8.30768596 0.70000556,8.16923965 0.70000556,7.96154956 L0.70000556,1.03845044 C0.70000556,0.830760348 0.875017375,0.692314037 1.04998749,0.692314037 L19.9500125,0.692314037 C20.16001,0.692314037 20.2999944,0.830760348 20.2999944,1.03845044 L20.2999944,7.96154956 L20.3000361,7.96154956 Z" id="Shape"></path>
                    <path d="M9.2999857,3 L11.7000143,3 C11.8800129,3 12,2.80001191 12,2.5 C12,2.19998809 11.8800129,2 11.7000143,2 L9.2999857,2 C9.11998713,2 9,2.19998809 9,2.5 C9,2.80001191 9.11998713,3 9.2999857,3 Z" id="Shape"></path>
                    <path d="M18.6730934,7 L2.3269066,7 C2.13075485,7 2,7.13999166 2,7.35 C2,7.56000834 2.13075485,7.7 2.3269066,7.7 L18.6730934,7.7 C18.8692452,7.7 19,7.56000834 19,7.35 C19,7.13999166 18.8692452,7 18.6730934,7 Z" id="Shape"></path>
                    <path d="M18.6730934,5 L2.3269066,5 C2.13075485,5 2,5.13999166 2,5.35 C2,5.56000834 2.13075485,5.7 2.3269066,5.7 L18.6730934,5.7 C18.8692452,5.7 19,5.56000834 19,5.35 C19,5.13999166 18.8692452,5 18.6730934,5 Z" id="Shape"></path>
                    <path d="M10.1666336,10.7078169 C9.83332671,10.5417063 9.66665343,10.3423895 9.66665343,10.176279 C9.66665343,10.0101684 9.86664549,9.81085159 10.1333148,9.61153476 C10.2999881,9.54508263 10.3333069,9.3457658 10.2666296,9.17969483 C10.1999523,9.01358428 9.99996029,8.94717172 9.83332671,9.04683013 C9.29998809,9.34580538 9,9.74443903 9,10.1763185 C9,10.6081585 9.29998809,11.0068317 9.83332671,11.3390132 C10.1666336,11.5051238 10.3333069,11.7044406 10.3333069,11.8705512 C10.3333069,12.0366617 10.1333148,12.2359785 9.83332671,12.4020495 C9.66665343,12.4685017 9.60001588,12.6678185 9.70001191,12.8338895 C9.76668917,12.9335479 9.8666852,13 10,13 C10.0666773,13 10.099996,13 10.1666733,12.9667937 C10.7000119,12.6678185 11,12.2691848 11,11.8373053 C11,11.4054258 10.6999722,10.9735859 10.1666336,10.7078169 Z" id="Shape"></path>
                    <path d="M7.16663357,11.7078 C6.83332671,11.5416911 6.66665343,11.3423762 6.66665343,11.1762673 C6.66665343,11.0101584 6.86664549,10.8108436 7.1333148,10.6115287 C7.29998809,10.5450772 7.36662563,10.3457624 7.2666296,10.179693 C7.19995235,10.0135841 6.99996029,9.94717224 6.83332671,10.0468297 C6.29998809,10.345802 6,10.7444317 6,11.1763069 C6,11.6081426 6.29998809,12.0068119 6.83332671,12.3389901 C7.16663357,12.505099 7.33330686,12.7044139 7.33330686,12.8705228 C7.33330686,13.0366317 7.1333148,13.2359465 6.83332671,13.4020554 C6.66665343,13.4685069 6.60001588,13.6678218 6.70001191,13.8338911 C6.76668917,13.9335485 6.8666852,14 7,14 C7.06667726,14 7.09999603,14 7.16667329,13.966794 C7.70001191,13.6678218 8,13.2691921 8,12.8373168 C8,12.4054416 7.6999722,11.9735663 7.16663357,11.7078 Z" id="Shape"></path>
                    <path d="M14.1666336,11.7078 C13.8333267,11.5416911 13.6666534,11.3423762 13.6666534,11.1762673 C13.6666534,11.0101584 13.8666455,10.8108436 14.1333148,10.6115287 C14.2999881,10.5450772 14.3333069,10.3457624 14.2666296,10.179693 C14.1999523,10.0135841 13.9999603,9.94717224 13.8333267,10.0468297 C13.2999881,10.345802 13,10.7444317 13,11.1763069 C13,11.6081426 13.2999881,12.0068119 13.8333267,12.3389901 C14.1666336,12.505099 14.3333069,12.7044139 14.3333069,12.8705228 C14.3333069,13.0366317 14.1333148,13.2359465 13.8333267,13.4020554 C13.6666534,13.4685069 13.6000159,13.6678218 13.7000119,13.8338911 C13.7666892,13.9335485 13.8666852,14 14,14 C14.0666773,14 14.099996,14 14.1666733,13.966794 C14.7000119,13.6678218 15,13.2691921 15,12.8373168 C15,12.4054416 14.6999325,11.9735663 14.1666336,11.7078 Z" id="Shape"></path>
                </g>
            </g>
        </g>
    </g>
</svg>