<?xml version="1.0" encoding="UTF-8"?>
<svg width="37px" height="46px" viewBox="0 0 37 46" version="1.1" xmlns="http://www.w3.org/2000/svg" xmlns:xlink="http://www.w3.org/1999/xlink">
    <!-- Generator: Sketch 50.2 (55047) - http://www.bohemiancoding.com/sketch -->
    <title>Group 15</title>
    <desc>Created with Sketch.</desc>
    <defs></defs>
    <g id="Page-1" stroke="none" stroke-width="1" fill="none" fill-rule="evenodd">
        <g id="Map-Filter-Selected-List-Item" transform="translate(-577.000000, -415.000000)">
            <g id="Group-15" transform="translate(577.000000, 415.000000)">
                <g id="Group-3-Copy" transform="translate(0.913462, 0.384615)">
                    <g id="Group-10">
                        <path d="M5.07404914,29.9278846 C9.69253268,36.0139094 12.9979808,40.0609146 14.9903936,42.0689003 C17.9790128,45.0808789 16.9426301,45.0808789 19.9427936,42.0689003 C21.9429027,40.0609146 25.3866543,36.0139094 30.2740485,29.9278846 L5.07404914,29.9278846 Z" id="Path-11" stroke="#272727" stroke-width="1.3" fill="#FFFFFF"></path>
                        <circle id="Oval-2" stroke="#FFFFFF" stroke-width="10" cx="18.0230626" cy="18.5081251" r="12.5081251"></circle>
                        <circle id="Oval-3" stroke="#272727" stroke-width="1.3" cx="18.0243752" cy="18.5094377" r="6.9496876"></circle>
                        <path d="M7.75987831,33.4239784 C1.66550714,27.3461038 -0.804238921,21.1167336 0.350640135,14.735868 C2.08295872,5.16456956 11.2832104,0.615384615 17.4861664,0.615384615" id="Path-29" stroke="#272727" stroke-width="1.3" stroke-linecap="round" stroke-linejoin="round"></path>
                        <path d="M25.8583411,34.327787 C19.363274,27.6473733 16.69318,21.1167336 17.8480591,14.735868 C19.5803776,5.16456956 28.7806293,0.615384615 34.9835853,0.615384615" id="Path-29-Copy" stroke="#272727" stroke-width="1.3" stroke-linecap="round" stroke-linejoin="round" transform="translate(26.285062, 17.471586) scale(-1, 1) translate(-26.285062, -17.471586) "></path>
                    </g>
                </g>
            </g>
        </g>
    </g>
</svg>