<?xml version="1.0" encoding="utf-8"?>
<!-- Generator: Adobe Illustrator 18.1.1, SVG Export Plug-In . SVG Version: 6.00 Build 0)  -->
<svg version="1.1" id="Layer_1" xmlns="http://www.w3.org/2000/svg" xmlns:xlink="http://www.w3.org/1999/xlink" x="0px" y="0px"
	 viewBox="0 0 160.2 70.4" enable-background="new 0 0 160.2 70.4" xml:space="preserve">
<g>
	<path fill-rule="evenodd" clip-rule="evenodd" fill="#EF3E33" d="M143,22.2c-1.9-1.2-6.8-2.6-9.3-2.8c-2.8-0.3-6.5-0.3-8.8,0.3
		c-3.3,0.8-8.8,1.7-9.6,5.6c-1,5.1,5,7.4,8.3,7.6c3.5,0.1,6.9,0.1,9.3,0.3c2.4,0.1,4.5,0.7,4.5,1.3c0.5,1.5-3.2,2.1-8.6,2.4
		c-3.8,0.1-10.3-0.9-13.3-2.9v5.7c0,0.1,2.7,0.9,4.5,1.3c1.8,0.4,3.2,0.8,5.8,0.9c2.5,0.2,4.8,0.3,7.4,0c2.6-0.3,4.9-0.8,6.4-1.4
		c3.3-1.2,6-5.3,4.2-8.3c-1.9-3.3-8-3.8-11.5-4.1c-1.2-0.1-1,0.2-5,0.1c-4-0.2-4.5-1-5.1-2c0.2-1.1,1.9-1.5,4.6-1.8
		c2.7-0.3,1.1-0.2,4.2-0.3c3.2,0,6.5,0.7,8.5,1.3c1,0.3,2,0.8,3.3,1.2V22.2L143,22.2L143,22.2z M129.3,2.9l22.7,12.8v35.7h-45.7
		V15.6L129.3,2.9L129.3,2.9z"/>
	<path fill-rule="evenodd" clip-rule="evenodd" fill="#000013" d="M52.8,13.6L76.7,0l22.7,13.7v37.6H52.8V13.6L52.8,13.6L52.8,13.6z
		 M76.3,6.5L58.6,16.7l0.1,29.1h35v-29L76.3,6.5L76.3,6.5z"/>
	<path fill-rule="evenodd" clip-rule="evenodd" fill="#EF3E33" d="M11.5,20.6h-6L5.4,40.8h6.1V30.2l8.2,10.8h5.9l8.6-10.9v10.7h6.2
		l0.1-20.2h-6.1L22.7,35L11.5,20.6L11.5,20.6L11.5,20.6z M23.2,2.9l22.7,12.8v35.7H0.2V15.6L23.2,2.9L23.2,2.9z"/>
	<polygon fill-rule="evenodd" clip-rule="evenodd" fill="#000013" points="66.4,20.1 72.8,20.1 72.8,35.2 90.3,35.2 90.3,41 
		66.4,41 66.4,20.1 	"/>
	<path fill-rule="evenodd" clip-rule="evenodd" fill="#000013" d="M146.7,58.9h5.8v1.9h-3.8V63h3.1v2.2h-3.1v2.6h3.9v2.3h-5.9V58.9
		L146.7,58.9L146.7,58.9z M143.8,65.8l1.9,0.2c-0.3,3.4-2,4.2-3.3,4.2c-2.2,0-3.7-2.2-3.6-6.3c0-1.8,0.7-4.9,3.1-5.5
		c1.5-0.3,3.6,0.6,3.8,4.4l-2,0.3c0.1-2.7-1.9-3.1-2.5-1.5c-0.5,1.3-0.8,6.5,1.2,6.5C143,68,143.7,67.5,143.8,65.8L143.8,65.8
		L143.8,65.8z M135.6,58.9h2v11.3h-2V58.9L135.6,58.9L135.6,58.9z M133.2,58.9h1.7l-2.5,11.3h-2.2l-2.4-11.3h2l1.7,8.2L133.2,58.9
		L133.2,58.9L133.2,58.9z M122.6,60.9v2.7h1.6c1.5,0,1.5-2.7,0.1-2.7H122.6L122.6,60.9L122.6,60.9z M120.7,58.9h3.8
		c3.5,0,3.3,5.5,1.3,6.2l1.6,5.1h-2.2l-1.3-4.5h-1.3v4.5h-2V58.9L120.7,58.9L120.7,58.9z M113.9,58.9h5.8v1.9h-3.8V63h3.1v2.2h-3.1
		v2.6h3.9v2.3h-5.9V58.9L113.9,58.9L113.9,58.9z M111,62.1c-0.2-0.8-0.7-1.2-1.2-1.3c-0.5-0.1-1.3,0.1-1.3,1c0,1.1,1.1,1.2,2.2,1.4
		c1.5,0.6,2.3,1.7,2.1,3.9c-0.3,2.5-1.8,3.2-3.3,3.2c-0.9,0-2.8-0.4-3.3-3.2l1.8-0.5c0.3,1.4,1.3,1.5,1.7,1.5c0.7,0,1.7-0.6,1.1-1.7
		c-0.8-1.5-3.7-0.4-4.1-3.6c-0.2-1.6,0.4-4,2.9-4.2c1.1,0,2.7,0.5,3,2.6L111,62.1L111,62.1L111,62.1z M95.9,63.9h3.3v6.2h-0.9
		L98,68.9c-0.7,1.3-1.4,1.5-2.2,1.5c-2.2,0.1-3.3-2.6-3.4-5.8c-0.1-4,1.9-6,3.5-6c1.4,0,3,1.1,3.3,3.9l-1.9,0.2c0-1-0.7-2.1-1.4-2.1
		c-1.3,0.1-1.6,2.2-1.6,3.8c0,1.3,0.2,3.8,1.7,3.8c0.8,0,1.4-0.8,1.4-2.1h-1.6V63.9L95.9,63.9L95.9,63.9z M85.2,58.9h2l2.8,6.5v-6.5
		h1.5v11.3h-1.6l-3.2-7.5v7.5h-1.5V58.9L85.2,58.9L85.2,58.9z M81.7,58.9h2v11.3h-2V58.9L81.7,58.9L81.7,58.9z M76.7,61.1h-2v-2.2h6
		v2.2h-2v9.1h-2V61.1L76.7,61.1L76.7,61.1z M72.3,62.1c-0.2-0.8-0.7-1.2-1.2-1.3c-0.5-0.1-1.3,0.1-1.3,1c0,1.1,1.1,1.2,2.2,1.4
		c1.5,0.6,2.3,1.7,2.1,3.9c-0.3,2.5-1.8,3.2-3.3,3.2c-0.9,0-2.8-0.4-3.3-3.2l1.8-0.5c0.3,1.4,1.3,1.5,1.7,1.5c0.7,0,1.7-0.6,1.1-1.7
		c-0.8-1.5-3.7-0.4-4.1-3.6c-0.2-1.6,0.4-4,2.9-4.2c1.1,0,2.7,0.5,3,2.6L72.3,62.1L72.3,62.1L72.3,62.1z M64.8,58.9h2v11.3h-2V58.9
		L64.8,58.9L64.8,58.9z M58.9,58.9h1.9V68H64v2.2h-5.1V58.9L58.9,58.9L58.9,58.9z M45.7,58.9h5.8v1.9h-3.8V63h3.1v2.2h-3.1v2.6h3.9
		v2.3h-5.9V58.9L45.7,58.9L45.7,58.9z M39.9,58.9h1.9V68H45v2.2h-5.1V58.9L39.9,58.9L39.9,58.9z M34.7,61.1v2.8h1.2
		c1.5,0,1.8-2.8,0.3-2.8H34.7L34.7,61.1L34.7,61.1z M32.8,58.9h3.7c3.5,0,3.6,7-0.1,7.1h-1.7v4.2h-2V58.9L32.8,58.9L32.8,58.9z
		 M29.3,58.9h2v11.3h-2V58.9L29.3,58.9L29.3,58.9z M24.3,61.1h-2v-2.2h6v2.2h-2v9.1h-2V61.1L24.3,61.1L24.3,61.1z M18,58.9h1.9V68
		h3.3v2.2H18V58.9L18,58.9L18,58.9z M15.1,58.9h1.7v8.2c0,4.2-6.5,4.6-6.5-0.3v-7.9h2.1v7.4c0,2.5,2.8,2.7,2.8,0.1V58.9L15.1,58.9
		L15.1,58.9z M0,58.9h3l1.3,6.8l1.6-6.8h2.9v11.3H6.9v-9.2l-2,9.2H3.5l-2-9.1v9.1H0V58.9L0,58.9z"/>
	<path fill-rule="evenodd" clip-rule="evenodd" fill="#000013" d="M156.6,56.4v1h1c0.8,0,1-1,0.1-1H156.6L156.6,56.4L156.6,56.4z
		 M156.1,56h1.8c1.2,0,1.2,1.7-0.1,1.8l1.1,1.5h-0.6l-1-1.5h-0.5v1.5h-0.5V56L156.1,56L156.1,56z M154.1,57.4c0-0.8,0.7-2.7,3.1-2.8
		c2,0,3.1,1.7,3.1,2.9c0,2.4-2.2,3-3,3C155.7,60.5,154.1,59.4,154.1,57.4L154.1,57.4L154.1,57.4z M159.6,57.6
		c0.1-1.2-0.9-2.4-2.4-2.4c-1.3,0-2.3,1-2.4,2.2c-0.1,1.3,1.1,2.6,2.4,2.6C158.4,60,159.7,59,159.6,57.6L159.6,57.6z"/>
</g>
</svg>
