<?xml version="1.0" encoding="utf-8"?>
<!-- Generator: Adobe Illustrator 16.0.0, SVG Export Plug-In . SVG Version: 6.00 Build 0)  -->
<!DOCTYPE svg PUBLIC "-//W3C//DTD SVG 1.1//EN" "http://www.w3.org/Graphics/SVG/1.1/DTD/svg11.dtd">
<svg version="1.1" id="Layer_1" xmlns="http://www.w3.org/2000/svg" xmlns:xlink="http://www.w3.org/1999/xlink" x="0px" y="0px"
	 width="130px" height="30px" viewBox="0 0 130 30" enable-background="new 0 0 130 30" xml:space="preserve">
<g>
	<polygon id="Shape" fill="#FFFFFF" points="35.731,0 32.802,0 30.609,0 30.609,5.373 35.731,12.439 35.731,5.4 	"/>
	<path id="Shape_3_" fill="#FFFFFF" d="M48.902,14.387h3.475v1.37h0.057c0.938-1.237,2.619-1.854,4.266-1.854
		c1.691,0.02,3.302,0.688,4.465,1.854c0.147,0.13,0.28,0.274,0.396,0.431c1.215,1.609,1.244,3.465,1.244,5.371v7.711h-3.757v-7.014
		c0-1.154,0-2.632-0.649-3.625c-0.565-0.775-1.495-1.236-2.487-1.234c-1.018,0-2.119,0.51-2.628,1.314
		c-0.68,1.021-0.631,2.632-0.631,3.814v6.742h-3.75L48.902,14.387L48.902,14.387z"/>
	<path id="Shape_4_" fill="#FFFFFF" d="M82.561,22.036C82.49,26.455,78.908,30,74.512,30c-4.396,0-7.979-3.545-8.049-7.964
		c0-4.562,3.637-8.134,8.172-8.134C79.09,13.902,82.561,17.611,82.561,22.036z M71.354,18.876c-0.828,0.839-1.28,1.979-1.256,3.16
		c0,2.452,1.887,4.497,4.373,4.497c2.568,0,4.455-1.95,4.455-4.497c0.016-1.2-0.445-2.358-1.281-3.216
		c-0.838-0.855-1.979-1.34-3.174-1.346C73.289,17.516,72.17,18.018,71.354,18.876z"/>
	<path id="Shape_5_" fill="#FFFFFF" d="M86.951,8.78h3.666v6.577h0.055c1.025-1.461,2.977-2.057,4.715-2.057
		c4.465,0,7.662,3.761,7.662,7.982c0.025,1.812-0.744,4.061-1.957,5.469c-1.35,1.623-3.473,2.517-5.594,2.517
		c-2.123,0-3.967-0.759-5.125-2.517h-0.057v2.028h-3.361L86.951,8.78z M90.396,21.094c0,2.617,1.846,4.655,4.602,4.655
		c2.59,0,4.381-1.921,4.381-4.431c0-2.508-1.764-4.49-4.381-4.49C92.545,16.82,90.396,18.605,90.396,21.094z"/>
	<path id="Shape_6_" fill="#FFFFFF" d="M120.609,13.902v14.874h-3.439V27.2h-0.055c-0.789,1.448-2.256,2.067-3.986,2.067
		c-1.879,0.024-3.678-0.729-4.926-2.067c-1.41-1.425-1.496-2.979-1.496-4.888v-8.411h3.752v7.307c0,0.912,0.027,2.175,0.477,3.033
		c0.513,0.957,1.553,1.553,2.681,1.529c2.85,0,3.243-2.441,3.243-4.562v-7.307H120.609z"/>
	<polygon id="Shape_7_" fill="#FFFFFF" points="125.732,8.78 129.391,8.78 129.391,29.27 125.732,29.27 	"/>
	<path fill="#FFFFFF" d="M27.164,8.571C21.675,3.082,13.496-0.002,5.731,0H0.609v29.268h5.122V3.922c7.269,0,13.9,2.678,18.652,7.43
		c4.752,4.751,7.419,11.197,7.415,17.916h3.933C35.736,21.506,32.654,14.061,27.164,8.571z"/>
</g>
</svg>
