<?xml version="1.0" encoding="UTF-8"?>
<svg width="129px" height="30px" viewBox="0 0 129 30" version="1.1" xmlns="http://www.w3.org/2000/svg" xmlns:xlink="http://www.w3.org/1999/xlink">
    <!-- Generator: Sketch 50.2 (55047) - http://www.bohemiancoding.com/sketch -->
    <title>nobullogo</title>
    <desc>Created with Sketch.</desc>
    <defs></defs>
    <g id="Symbols" stroke="none" stroke-width="1" fill="none" fill-rule="evenodd">
        <g id="Navigation-Sign-Out" transform="translate(-30.000000, -25.000000)" fill="#272727" fill-rule="nonzero">
            <g id="Group-3">
                <g id="nobullogo" transform="translate(30.000000, 25.000000)">
                    <polygon id="Shape" points="35.1219512 0 32.1920464 0 30 0 30 5.37346044 35.1219512 12.4390244 35.1219512 5.40028647"></polygon>
                    <polygon id="Shape" points="0 23.9276762 0 29.2682927 2.03155727 29.2682927 5.12195122 29.2682927 5.12195122 0 0 0"></polygon>
                    <path d="M5.85365854,6.40346164e-07 L5.85365854,3.93341834 C12.5751374,3.9312535 19.0218248,6.60002103 23.7738635,11.3519356 C28.5259022,16.1038501 31.1935237,22.5491532 31.1891949,29.2682927 L35.1219467,29.2682927 C35.1262701,21.5062993 32.0443717,14.0608255 26.5548586,8.57131101 C21.0653456,3.08179648 13.6183542,-0.00162230205 5.85365854,6.40346164e-07 Z" id="Shape"></path>
                    <rect id="Rectangle-path" x="0" y="0" width="5.85365854" height="3.65853659"></rect>
                    <path d="M48.2926829,14.3860567 L51.7677671,14.3860567 L51.7677671,15.7569731 L51.8245289,15.7569731 C52.7621499,14.5199509 54.4439814,13.902439 56.0900739,13.902439 C57.7809854,13.9215762 59.3917356,14.5905607 60.5553363,15.7569731 C60.7023578,15.8868137 60.8348104,16.0308047 60.9505667,16.1866334 C62.1656899,17.7973602 62.195122,19.6518942 62.195122,21.5583872 L62.195122,29.2682927 L58.438331,29.2682927 L58.438331,22.2558359 C58.438331,21.1007489 58.438331,19.6239163 57.7887236,18.6307014 C57.2235719,17.8555629 56.2938413,17.3938678 55.3017154,17.3956777 C54.2842074,17.3956777 53.1826078,17.9052749 52.6738538,18.7106383 C51.9948144,19.731831 52.043167,21.3425578 52.043167,22.5256226 L52.043167,29.2682927 L48.2926829,29.2682927 L48.2926829,14.3860567 Z" id="Shape"></path>
                    <path d="M81.9512195,22.035967 C81.8813575,26.4547075 78.2983385,30 73.902439,30 C69.5065396,30 65.9235206,26.4547075 65.8536585,22.035967 C65.8536585,17.4755496 69.489182,13.902439 74.0254531,13.902439 C78.4803926,13.902439 81.9512195,17.6125052 81.9512195,22.035967 Z M70.7437222,18.8757674 C69.9161277,19.7144127 69.4626457,20.8548901 69.4871487,22.035967 C69.4871487,24.4889033 71.3740423,26.5330169 73.8607566,26.5330169 C76.4288025,26.5330169 78.3156961,24.5829326 78.3156961,22.035967 C78.3325331,20.8355169 77.8712039,19.6781373 77.0344407,18.8215624 C76.1976776,17.9649875 75.0549597,17.4803417 73.8607566,17.4755496 C72.6796191,17.5146904 71.5607038,18.0173236 70.7437222,18.8757674 Z" id="Shape"></path>
                    <path d="M86.3414634,8.7804878 L90.0069298,8.7804878 L90.0069298,15.3580879 L90.0622808,15.3580879 C91.0872993,13.896399 93.0389346,13.3004487 94.7773661,13.3004487 C99.2423469,13.3004487 102.438355,17.0613783 102.438355,21.283364 C102.465005,23.0953751 101.694191,25.3442821 100.482619,26.7516107 C99.1316449,28.3743672 97.0098565,29.2682927 94.8880681,29.2682927 C92.7662797,29.2682927 90.9212463,28.5092614 89.7629753,26.7516107 L89.7076243,26.7516107 L89.7076243,28.781063 L86.3455635,28.781063 L86.3414634,8.7804878 Z M89.7875758,21.0941095 C89.7875758,23.7114588 91.6326092,25.7489646 94.387859,25.7489646 C96.9791059,25.7489646 98.7687883,23.8282329 98.7687883,21.3196042 C98.7687883,18.8109756 97.0057564,16.8278302 94.387859,16.8278302 C91.9360147,16.8197768 89.7875758,18.6056144 89.7875758,21.0941095 Z" id="Shape"></path>
                    <path d="M120,13.902439 L120,28.7763367 L116.559529,28.7763367 L116.559529,27.2004665 L116.504985,27.2004665 C115.716194,28.6485094 114.249798,29.2676726 112.519074,29.2676726 C110.639602,29.293049 108.841569,28.5384623 107.593327,27.2004665 C106.183573,25.7763911 106.097561,24.220494 106.097561,22.3130719 L106.097561,13.902439 L109.848513,13.902439 L109.848513,21.2085647 C109.848513,22.121331 109.875785,23.383625 110.326823,24.2424643 C110.837259,25.1997996 111.878343,25.7943559 113.005775,25.7723965 C115.854652,25.7723965 116.249048,23.3296979 116.249048,21.2085647 L116.249048,13.902439 L120,13.902439 Z" id="Shape"></path>
                    <polygon id="Shape" points="125.121951 8.7804878 128.780488 8.7804878 128.780488 29.2682927 125.121951 29.2682927"></polygon>
                </g>
            </g>
        </g>
    </g>
</svg>