<?xml version="1.0" encoding="utf-8"?>
<!-- Generator: Adobe Illustrator 23.0.1, SVG Export Plug-In . SVG Version: 6.00 Build 0)  -->
<svg version="1.1" id="Layer_1" xmlns="http://www.w3.org/2000/svg" xmlns:xlink="http://www.w3.org/1999/xlink" x="0px" y="0px"
	 viewBox="0 0 60 60" style="enable-background:new 0 0 60 60;" xml:space="preserve">
<style type="text/css">
	.st0{fill-rule:evenodd;clip-rule:evenodd;fill:#1283C6;}
	.st1{enable-background:new    ;}
	.st2{fill:#FFFFFF;}
</style>
<title>number_2</title>
<desc>Created with Sketch.</desc>
<circle id="Oval" class="st0" cx="30" cy="30" r="30"/>
<g class="st1">
	<path class="st2" d="M37,38.8H22.9v-2.1l5.6-5.7c1.7-1.7,2.9-3,3.4-3.7s1-1.5,1.2-2.2s0.4-1.5,0.4-2.3c0-1.1-0.3-2-1-2.7
		c-0.7-0.7-1.7-1-2.9-1c-0.9,0-1.7,0.1-2.5,0.4s-1.7,0.8-2.7,1.6l-1.3-1.7c2-1.6,4.1-2.5,6.4-2.5c2,0,3.6,0.5,4.7,1.5
		s1.7,2.4,1.7,4.2c0,1.4-0.4,2.7-1.1,4s-2.2,3-4.3,5L26,36.4v0.1h11V38.8z"/>
</g>
</svg>
