<?xml version="1.0" encoding="utf-8"?>
<!-- Generator: Adobe Illustrator 23.0.1, SVG Export Plug-In . SVG Version: 6.00 Build 0)  -->
<svg version="1.1" id="Layer_1" xmlns="http://www.w3.org/2000/svg" xmlns:xlink="http://www.w3.org/1999/xlink" x="0px" y="0px"
	 viewBox="0 0 60 60" style="enable-background:new 0 0 60 60;" xml:space="preserve">
<style type="text/css">
	.st0{fill-rule:evenodd;clip-rule:evenodd;fill:#1283C6;}
	.st1{enable-background:new    ;}
	.st2{fill:#FFFFFF;}
</style>
<title>number_3</title>
<desc>Created with Sketch.</desc>
<circle id="Oval" class="st0" cx="30" cy="30" r="30"/>
<g class="st1">
	<path class="st2" d="M36.2,22.4c0,1.4-0.4,2.5-1.1,3.4s-1.9,1.5-3.3,1.7v0.1c1.7,0.2,3,0.8,3.8,1.6s1.2,2,1.2,3.5
		c0,2-0.7,3.6-2.1,4.7c-1.4,1.1-3.4,1.6-6,1.6c-1.1,0-2.2-0.1-3.1-0.3c-0.9-0.2-1.9-0.5-2.7-0.9v-2.3c0.9,0.5,1.9,0.8,3,1
		s2,0.4,3,0.4c3.7,0,5.6-1.5,5.6-4.4c0-2.6-2-3.9-6.1-3.9h-2.1v-2.1h2.1c1.7,0,3-0.4,4-1.1c1-0.7,1.5-1.8,1.5-3.1
		c0-1-0.4-1.9-1.1-2.5s-1.7-0.9-2.9-0.9c-0.9,0-1.8,0.1-2.7,0.4s-1.8,0.7-2.8,1.4l-1.2-1.6c0.9-0.7,1.9-1.2,3-1.6
		c1.1-0.4,2.4-0.6,3.6-0.6c2.1,0,3.7,0.5,4.8,1.4C35.6,19.4,36.2,20.8,36.2,22.4z"/>
</g>
</svg>
