<svg xmlns="http://www.w3.org/2000/svg" width="40" height="40" viewBox="0 0 40 40">
    <path fill="#46C65C" fill-rule="evenodd" d="M.345 5.794C.945 3.695 4.4.696 4.4.696S5.9-.504 7.852.246c2.102.6 3.303 2.7 4.805 6.448 1.651 3.898 1.651 3.748.9 5.098-.6 1.35-2.852 3.748-2.852 3.748.9 2.55 11.26 12.745 13.813 13.645 0 0 2.402-2.1 3.603-2.85 1.351-.749 1.351-.599 5.105.9 3.903 1.5 5.855 2.7 6.606 4.799.6 2.099-.6 3.598-.6 3.598s-2.853 3.449-5.105 4.048C22.266 43.13-3.258 17.79.345 5.794z"/>
</svg>
