<?xml version="1.0" encoding="utf-8"?>
<!-- Generator: Adobe Illustrator 16.0.0, SVG Export Plug-In . SVG Version: 6.00 Build 0)  -->
<!DOCTYPE svg PUBLIC "-//W3C//DTD SVG 1.1//EN" "http://www.w3.org/Graphics/SVG/1.1/DTD/svg11.dtd">
<svg version="1.1" id="Layer_1" xmlns="http://www.w3.org/2000/svg" xmlns:xlink="http://www.w3.org/1999/xlink" x="0px" y="0px"
	 width="50px" height="50px" viewBox="0 0 50 50" enable-background="new 0 0 50 50" xml:space="preserve">
<circle fill="#8DD4F6" cx="25" cy="25" r="25"/>
<polygon fill="#1884C6" stroke="#025680" stroke-linecap="round" stroke-linejoin="round" stroke-miterlimit="10" points="
	38.721,25.354 37.457,28.355 41.402,28.355 41.402,32.145 42.667,32.145 42.667,28.355 46.457,28.355 45.193,25.354 45.825,25.354 
	44.562,22.354 45.193,22.354 43.932,19.355 44.562,19.355 43.299,16.514 43.932,16.514 42.036,11.936 40.143,16.514 40.615,16.514 
	39.354,19.355 39.982,19.355 38.721,22.354 39.354,22.354 38.089,25.354 "/>
<g>
	<path fill="#1884C6" d="M43,32.096H7c-0.553,0-1,0.447-1,1s0.447,1,1,1h5.184v1.887c0,0.554,0.447,1,1,1s1-0.446,1-1v-1.887h21.633
		v1.887c0,0.554,0.447,1,1,1c0.554,0,1-0.446,1-1v-1.887H43c0.553,0,1-0.447,1-1S43.553,32.096,43,32.096z"/>
	<path fill="#025680" d="M36.816,37.482c-0.828,0-1.5-0.674-1.5-1.5v-1.387H14.684v1.387c0,0.826-0.672,1.5-1.5,1.5
		c-0.826,0-1.5-0.674-1.5-1.5v-1.387H7c-0.827,0-1.5-0.674-1.5-1.5c0-0.828,0.673-1.5,1.5-1.5h36c0.827,0,1.5,0.672,1.5,1.5
		c0,0.826-0.673,1.5-1.5,1.5h-4.684v1.387C38.316,36.811,37.645,37.482,36.816,37.482z M13.684,33.596h22.633v2.387
		c0,0.275,0.226,0.5,0.5,0.5c0.275,0,0.5-0.225,0.5-0.5v-2.387H43c0.275,0,0.5-0.225,0.5-0.5s-0.225-0.5-0.5-0.5H7
		c-0.275,0-0.5,0.225-0.5,0.5s0.225,0.5,0.5,0.5h5.684v2.387c0,0.275,0.225,0.5,0.5,0.5c0.276,0,0.5-0.225,0.5-0.5V33.596z"/>
</g>
<g>
	<path fill="#025680" d="M21.592,10.581h6.758c1.195,0,2.168-0.973,2.168-2.166c0-0.819-0.469-1.56-1.172-1.926
		c-0.01-1.391-1.143-2.52-2.535-2.52c-0.36,0-0.715,0.076-1.036,0.222C25.24,3.76,24.572,3.52,23.879,3.52
		c-1.609,0-2.93,1.266-3.018,2.854c-0.842,0.299-1.438,1.104-1.438,2.041C19.426,9.608,20.396,10.581,21.592,10.581z M21.541,7.506
		c0.178-0.01,0.342-0.094,0.453-0.229c0.113-0.137,0.162-0.312,0.139-0.487c-0.012-0.08-0.02-0.164-0.02-0.248
		c0-0.975,0.791-1.765,1.764-1.765c0.51,0,0.992,0.222,1.328,0.604c0.217,0.246,0.584,0.287,0.848,0.093
		c0.222-0.161,0.482-0.247,0.758-0.247c0.703,0,1.277,0.572,1.277,1.275c0,0.093-0.01,0.184-0.029,0.271
		c-0.034,0.164-0.004,0.334,0.086,0.475c0.093,0.142,0.234,0.239,0.396,0.274c0.416,0.089,0.719,0.462,0.719,0.89
		c0,0.5-0.408,0.907-0.91,0.907h-6.758c-0.502,0-0.91-0.407-0.91-0.907C20.682,7.928,21.061,7.531,21.541,7.506z"/>
	<path fill="#1884C6" d="M28.541,7.525c-0.162-0.035-0.307-0.134-0.396-0.274s-0.121-0.311-0.086-0.475
		c0.02-0.089,0.029-0.18,0.029-0.271c0-0.703-0.574-1.275-1.277-1.275c-0.275,0-0.537,0.086-0.758,0.247
		c-0.265,0.194-0.633,0.153-0.849-0.093c-0.336-0.385-0.819-0.604-1.328-0.604c-0.973,0-1.764,0.79-1.764,1.765
		c0,0.084,0.008,0.168,0.019,0.248c0.024,0.176-0.023,0.352-0.138,0.487c-0.11,0.136-0.274,0.22-0.453,0.229
		c-0.479,0.023-0.858,0.424-0.858,0.906c0,0.502,0.408,0.908,0.908,0.908h6.76c0.502,0,0.91-0.406,0.91-0.908
		C29.26,7.987,28.957,7.614,28.541,7.525z"/>
</g>
<path fill="#025680" d="M37.422,45.357c-1.732,0-2.262,0.953-2.58,1.523c-0.211,0.379-0.215,0.387-0.539,0.387
	c-0.322,0-0.322,0-0.539-0.392c-0.318-0.567-0.848-1.521-2.578-1.521c-1.729,0-2.26,0.953-2.58,1.524
	c-0.211,0.379-0.215,0.386-0.539,0.386c-0.321,0-0.325-0.007-0.539-0.389c-0.315-0.568-0.848-1.521-2.577-1.521
	c-1.733,0-2.263,0.953-2.58,1.522c-0.211,0.381-0.216,0.388-0.538,0.388c-0.323,0-0.327-0.007-0.541-0.39
	c-0.316-0.567-0.848-1.521-2.577-1.521c-1.731,0-2.262,0.953-2.579,1.523c-0.212,0.379-0.216,0.387-0.539,0.387
	c-0.322,0-0.322,0-0.539-0.392c-0.318-0.567-0.849-1.521-2.578-1.521c-0.656,0-1.14,0.139-1.504,0.34
	c1.894,1.285,3.977,2.312,6.193,3.045c0.314-0.278,0.501-0.606,0.63-0.84c0.236-0.426,0.293-0.526,0.916-0.526
	s0.679,0.103,0.916,0.526c0.269,0.483,0.767,1.384,2.202,1.384c1.432,0,1.913-0.865,2.201-1.384
	c0.236-0.426,0.294-0.526,0.917-0.526s0.679,0.103,0.917,0.528c0.268,0.482,0.768,1.382,2.199,1.382
	c1.436,0,1.934-0.899,2.203-1.384c0.235-0.426,0.293-0.526,0.916-0.526s0.678,0.103,0.916,0.528c0.133,0.238,0.323,0.58,0.655,0.863
	c2.226-0.728,4.317-1.752,6.22-3.037C38.605,45.512,38.111,45.357,37.422,45.357z"/>
<path fill="#025680" d="M41.102,42.441c-0.211,0.382-0.215,0.389-0.539,0.389c-0.321,0-0.326-0.007-0.539-0.391
	c-0.317-0.567-0.848-1.521-2.578-1.521c-1.729,0-2.262,0.953-2.577,1.524c-0.214,0.379-0.218,0.386-0.539,0.386
	c-0.324,0-0.324,0-0.541-0.392c-0.315-0.567-0.849-1.52-2.578-1.52s-2.26,0.952-2.578,1.523c-0.213,0.379-0.217,0.387-0.539,0.387
	c-0.323,0-0.327-0.008-0.538-0.389c-0.318-0.569-0.849-1.521-2.58-1.521c-1.732,0-2.263,0.953-2.58,1.521
	c-0.211,0.381-0.215,0.389-0.537,0.389c-0.323,0-0.328-0.008-0.541-0.391c-0.317-0.567-0.849-1.521-2.578-1.521
	c-1.73,0-2.262,0.953-2.578,1.524c-0.212,0.379-0.217,0.386-0.539,0.386c-0.323,0-0.323,0-0.54-0.392
	c-0.317-0.567-0.849-1.52-2.578-1.52c-1.731,0-2.262,0.953-2.579,1.523c-0.212,0.379-0.216,0.387-0.537,0.387
	c-0.324,0-0.328-0.008-0.541-0.389c-0.316-0.569-0.848-1.521-2.578-1.521c-0.185,0-0.354,0.012-0.515,0.032
	c1.188,1.434,2.538,2.728,4.015,3.864c1.14-0.146,1.576-0.916,1.819-1.354c0.237-0.426,0.294-0.525,0.916-0.525
	c0.623,0,0.681,0.102,0.918,0.529c0.269,0.482,0.771,1.38,2.2,1.38c1.434,0,1.934-0.899,2.202-1.384
	c0.235-0.425,0.293-0.525,0.915-0.525c0.623,0,0.681,0.102,0.916,0.526c0.27,0.483,0.768,1.383,2.203,1.383
	c1.431,0,1.912-0.864,2.201-1.383c0.236-0.426,0.293-0.526,0.916-0.526c0.625,0,0.68,0.102,0.918,0.527
	c0.27,0.482,0.77,1.382,2.2,1.382c1.437,0,1.935-0.899,2.201-1.384c0.235-0.425,0.293-0.525,0.916-0.525s0.681,0.102,0.918,0.527
	c0.269,0.482,0.769,1.382,2.201,1.382c1.43,0,1.933-0.897,2.2-1.382c0.236-0.427,0.294-0.527,0.916-0.527
	c0.623,0,0.681,0.102,0.916,0.526c0.248,0.442,0.695,1.226,1.867,1.356c1.478-1.137,2.826-2.432,4.016-3.863
	c-0.172-0.023-0.357-0.038-0.562-0.038C41.949,40.92,41.42,41.873,41.102,42.441z"/>
<path fill="#025680" d="M43.652,36.482c-1.731,0-2.262,0.953-2.579,1.521c-0.212,0.381-0.216,0.389-0.539,0.389
	c-0.322,0-0.326-0.008-0.54-0.391c-0.317-0.568-0.848-1.521-2.577-1.521c-1.731,0-2.263,0.953-2.579,1.524
	c-0.212,0.379-0.216,0.386-0.539,0.386c-0.322,0-0.322,0-0.54-0.391c-0.317-0.568-0.848-1.52-2.577-1.52s-2.261,0.951-2.58,1.523
	c-0.211,0.379-0.215,0.387-0.539,0.387c-0.322,0-0.326-0.008-0.539-0.39c-0.316-0.569-0.848-1.521-2.578-1.521
	c-1.732,0-2.262,0.953-2.579,1.521c-0.212,0.381-0.216,0.389-0.538,0.389c-0.323,0-0.327-0.008-0.541-0.391
	c-0.316-0.568-0.848-1.521-2.577-1.521c-1.731,0-2.262,0.953-2.579,1.524c-0.212,0.379-0.216,0.386-0.539,0.386
	c-0.322,0-0.322,0-0.54-0.391c-0.317-0.568-0.848-1.52-2.577-1.52c-1.732,0-2.263,0.953-2.58,1.523
	c-0.211,0.379-0.215,0.387-0.537,0.387c-0.324,0-0.328-0.008-0.541-0.39C8.5,37.43,7.969,36.479,6.238,36.479
	c-1.733,0-2.262,0.953-2.577,1.521c-0.003,0.005-0.004,0.007-0.007,0.011c0.363,0.595,0.753,1.171,1.162,1.729
	c0.24-0.249,0.396-0.518,0.506-0.717c0.236-0.428,0.294-0.528,0.916-0.528c0.623,0,0.681,0.103,0.918,0.528
	c0.269,0.482,0.769,1.381,2.201,1.381c1.435,0,1.933-0.898,2.201-1.383c0.236-0.426,0.293-0.526,0.916-0.526s0.68,0.103,0.918,0.53
	c0.269,0.481,0.77,1.379,2.199,1.379c1.434,0,1.934-0.898,2.202-1.383c0.235-0.426,0.293-0.526,0.916-0.526s0.679,0.103,0.916,0.526
	c0.269,0.483,0.767,1.383,2.202,1.383c1.431,0,1.913-0.864,2.201-1.383c0.236-0.426,0.294-0.526,0.916-0.526
	c0.623,0,0.681,0.103,0.918,0.528c0.269,0.482,0.769,1.381,2.199,1.381c1.437,0,1.935-0.898,2.203-1.383
	c0.235-0.426,0.293-0.526,0.916-0.526s0.678,0.103,0.916,0.528c0.27,0.481,0.77,1.381,2.201,1.381s1.932-0.896,2.202-1.381
	c0.235-0.428,0.293-0.528,0.916-0.528c0.622,0,0.679,0.101,0.916,0.526c0.269,0.483,0.767,1.383,2.201,1.383
	c1.432,0,1.914-0.864,2.202-1.383c0.236-0.426,0.293-0.526,0.916-0.526s0.68,0.103,0.916,0.526c0.121,0.217,0.293,0.517,0.57,0.781
	c0.405-0.551,0.789-1.119,1.149-1.703c-0.021-0.033-0.034-0.058-0.06-0.101C45.914,37.436,45.385,36.482,43.652,36.482z"/>
<path fill="#025680" d="M33.892,18.081l-1.1-0.549c-0.099-0.052-0.219-0.011-0.268,0.089l-1.306,2.613l0,0l-0.002,0.004
	l-0.716,1.433h-0.012l-1.005,1.98l0,0l-0.188,0.372l-10.759,0c-0.825,0.033-1.48,0.731-1.462,1.552v6.021c0,0.11,0.09,0.2,0.2,0.2
	h1.229c0.11,0,0.2-0.09,0.2-0.2v-3.69h9.19v3.69c0,0.11,0.09,0.2,0.2,0.2h1.229c0.11,0,0.2-0.09,0.2-0.2V27.26l4.457-8.911
	c0.023-0.047,0.027-0.103,0.011-0.153S33.939,18.104,33.892,18.081z M28.185,26.275h-9.48l0.001-0.623h9.729L28.185,26.275z"/>
<g>
	<path fill="#025680" d="M8.983,16.297h4.992c0.973,0,1.765-0.791,1.765-1.764c0-0.635-0.345-1.207-0.868-1.52
		c-0.059-1.072-0.947-1.928-2.033-1.928c-0.259,0-0.508,0.047-0.74,0.139c-0.41-0.303-0.908-0.471-1.426-0.471
		c-1.24,0-2.264,0.946-2.384,2.155C7.657,13.18,7.22,13.807,7.22,14.532C7.22,15.506,8.011,16.297,8.983,16.297z M8.957,14.025
		c0.177-0.008,0.341-0.092,0.452-0.229c0.111-0.136,0.162-0.312,0.137-0.486c-0.007-0.053-0.011-0.106-0.011-0.162
		c0-0.627,0.511-1.137,1.138-1.137c0.327,0,0.641,0.144,0.856,0.392c0.214,0.245,0.582,0.288,0.847,0.093
		c0.135-0.1,0.295-0.15,0.463-0.15c0.43,0,0.778,0.35,0.778,0.778c0,0.056-0.006,0.11-0.019,0.165
		c-0.035,0.163-0.004,0.334,0.086,0.475c0.092,0.142,0.233,0.239,0.396,0.273c0.23,0.05,0.4,0.259,0.4,0.496
		c0,0.279-0.229,0.506-0.508,0.506H8.982c-0.279,0-0.507-0.227-0.507-0.506C8.478,14.264,8.687,14.041,8.957,14.025z"/>
	<path fill="#1884C6" d="M14.082,14.037c-0.163-0.034-0.306-0.133-0.396-0.273c-0.09-0.14-0.123-0.312-0.086-0.475
		c0.012-0.055,0.018-0.109,0.018-0.165c0-0.43-0.35-0.778-0.779-0.778c-0.168,0-0.326,0.053-0.462,0.15
		c-0.265,0.195-0.633,0.152-0.847-0.093c-0.217-0.248-0.529-0.392-0.857-0.392c-0.627,0-1.137,0.51-1.137,1.137
		c0,0.056,0.004,0.109,0.012,0.162c0.024,0.175-0.024,0.352-0.138,0.486c-0.112,0.137-0.276,0.221-0.452,0.229
		c-0.27,0.016-0.479,0.236-0.479,0.508c0,0.279,0.227,0.506,0.506,0.506h4.992c0.279,0,0.507-0.227,0.507-0.506
		C14.482,14.296,14.313,14.087,14.082,14.037z"/>
</g>
</svg>
