<?xml version="1.0" encoding="utf-8"?>
<!-- Generator: Adobe Illustrator 16.0.0, SVG Export Plug-In . SVG Version: 6.00 Build 0)  -->
<!DOCTYPE svg PUBLIC "-//W3C//DTD SVG 1.1//EN" "http://www.w3.org/Graphics/SVG/1.1/DTD/svg11.dtd">
<svg version="1.1" id="Layer_1" xmlns="http://www.w3.org/2000/svg" xmlns:xlink="http://www.w3.org/1999/xlink" x="0px" y="0px"
	 width="50px" height="50px" viewBox="0 0 50 50" enable-background="new 0 0 50 50" xml:space="preserve">
<g>
	<circle fill="#FFDA72" cx="25" cy="25" r="25"/>
	<polygon fill="#FEC30E" points="38.721,25.354 37.457,28.355 41.402,28.355 41.402,32.145 42.667,32.145 42.667,28.355 
		46.457,28.355 45.193,25.354 45.825,25.354 44.562,22.354 45.193,22.354 43.932,19.355 44.562,19.355 43.299,16.514 43.932,16.514 
		42.036,11.936 40.143,16.514 40.615,16.514 39.354,19.355 39.982,19.355 38.721,22.354 39.354,22.354 38.089,25.354 	"/>
	<path fill="#AA892F" d="M42.667,32.596h-1.265c-0.248,0-0.45-0.203-0.45-0.451v-3.338h-3.495c-0.15,0-0.291-0.076-0.375-0.201
		c-0.083-0.127-0.1-0.285-0.04-0.424l1.002-2.38c-0.134-0.014-0.255-0.086-0.33-0.198c-0.083-0.127-0.099-0.285-0.04-0.424
		l1.003-2.378c-0.134-0.014-0.256-0.086-0.331-0.198c-0.082-0.127-0.099-0.285-0.039-0.424l1-2.377
		c-0.135-0.014-0.256-0.088-0.33-0.201c-0.082-0.129-0.096-0.289-0.033-0.429l1-2.256c-0.068-0.034-0.129-0.087-0.174-0.153
		c-0.084-0.125-0.101-0.283-0.043-0.422l1.895-4.578c0.139-0.334,0.691-0.338,0.832,0l1.85,4.467c0.062,0.078,0.1,0.177,0.1,0.283
		c0,0.235-0.18,0.43-0.41,0.448l0.936,2.103c0.066,0.078,0.106,0.181,0.106,0.291c0,0.24-0.188,0.437-0.423,0.449l0.951,2.264
		c0.063,0.078,0.103,0.178,0.103,0.285c0,0.239-0.188,0.437-0.423,0.449l0.953,2.266c0.062,0.078,0.102,0.178,0.102,0.285
		c0,0.24-0.188,0.438-0.424,0.449l0.954,2.268c0.063,0.078,0.103,0.178,0.103,0.285c0,0.248-0.201,0.451-0.451,0.451
		c-0.004,0-0.013,0-0.02,0h-3.34v3.338C43.117,32.393,42.915,32.596,42.667,32.596z M41.854,31.693h0.363v-3.338
		c0-0.248,0.202-0.451,0.45-0.451h3.112l-1.002-2.377c-0.059-0.139-0.043-0.297,0.041-0.424c0.074-0.112,0.195-0.186,0.33-0.199
		l-1.002-2.377c-0.059-0.139-0.043-0.297,0.041-0.424c0.074-0.111,0.195-0.185,0.328-0.197l-1-2.377
		c-0.059-0.139-0.043-0.297,0.041-0.424c0.071-0.107,0.188-0.18,0.314-0.196l-0.984-2.214c-0.062-0.139-0.049-0.299,0.034-0.428
		c0.075-0.115,0.2-0.19,0.337-0.203l-1.223-2.953L40.8,16.104c0.077,0.035,0.146,0.092,0.192,0.166
		c0.083,0.127,0.096,0.287,0.033,0.428l-0.981,2.214c0.127,0.017,0.241,0.088,0.313,0.196c0.082,0.125,0.099,0.283,0.039,0.424
		l-1,2.375c0.135,0.014,0.256,0.086,0.332,0.199c0.082,0.125,0.099,0.285,0.039,0.424l-1.002,2.378
		c0.133,0.013,0.254,0.085,0.33,0.198c0.082,0.125,0.098,0.285,0.039,0.424l-1.001,2.377h3.269c0.248,0,0.449,0.201,0.449,0.449
		v3.338H41.854z"/>
	<g>
		<path fill="#FEC30E" d="M43,32.096H7c-0.553,0-1,0.447-1,1s0.447,1,1,1h5.184v1.887c0,0.555,0.447,1,1,1s1-0.445,1-1v-1.887
			h21.633v1.887c0,0.555,0.447,1,1,1c0.555,0,1-0.445,1-1v-1.887H43c0.553,0,1-0.447,1-1S43.553,32.096,43,32.096z"/>
		<path fill="#AA892F" d="M36.816,37.482c-0.828,0-1.5-0.674-1.5-1.5v-1.387H14.684v1.387c0,0.826-0.672,1.5-1.5,1.5
			c-0.826,0-1.5-0.674-1.5-1.5v-1.387H7c-0.827,0-1.5-0.675-1.5-1.5c0-0.828,0.673-1.5,1.5-1.5h36c0.827,0,1.5,0.672,1.5,1.5
			c0,0.825-0.673,1.5-1.5,1.5h-4.684v1.387C38.316,36.811,37.645,37.482,36.816,37.482z M13.684,33.596h22.633v2.387
			c0,0.275,0.227,0.5,0.5,0.5c0.275,0,0.5-0.225,0.5-0.5v-2.387H43c0.275,0,0.5-0.225,0.5-0.5s-0.225-0.5-0.5-0.5H7
			c-0.275,0-0.5,0.225-0.5,0.5s0.225,0.5,0.5,0.5h5.684v2.387c0,0.275,0.226,0.5,0.5,0.5c0.276,0,0.5-0.225,0.5-0.5V33.596z"/>
	</g>
	<g>
		<path fill="#AA892F" d="M21.592,10.58h6.758c1.195,0,2.168-0.973,2.168-2.166c0-0.818-0.469-1.561-1.172-1.926
			c-0.01-1.391-1.143-2.521-2.535-2.521c-0.359,0-0.715,0.076-1.035,0.222c-0.534-0.431-1.202-0.67-1.896-0.67
			c-1.609,0-2.93,1.266-3.018,2.854c-0.842,0.299-1.438,1.104-1.438,2.041C19.426,9.607,20.396,10.58,21.592,10.58z M21.541,7.506
			c0.178-0.01,0.342-0.094,0.453-0.229c0.113-0.137,0.162-0.312,0.139-0.487c-0.012-0.08-0.02-0.164-0.02-0.248
			c0-0.976,0.791-1.765,1.764-1.765c0.51,0,0.992,0.222,1.328,0.604c0.217,0.246,0.584,0.287,0.848,0.094
			c0.223-0.162,0.482-0.248,0.758-0.248c0.703,0,1.277,0.572,1.277,1.275c0,0.094-0.01,0.184-0.029,0.271
			c-0.033,0.164-0.004,0.334,0.086,0.475c0.094,0.143,0.234,0.238,0.396,0.273c0.416,0.09,0.719,0.463,0.719,0.891
			c0,0.5-0.408,0.906-0.91,0.906h-6.758c-0.502,0-0.91-0.406-0.91-0.906C20.682,7.928,21.061,7.531,21.541,7.506z"/>
		<path fill="#FEC30E" d="M28.541,7.525c-0.162-0.035-0.307-0.135-0.396-0.274c-0.088-0.14-0.121-0.312-0.086-0.476
			c0.021-0.088,0.029-0.18,0.029-0.271c0-0.703-0.574-1.274-1.277-1.274c-0.274,0-0.537,0.086-0.758,0.246
			c-0.265,0.194-0.633,0.153-0.849-0.093c-0.336-0.385-0.819-0.604-1.328-0.604c-0.974,0-1.765,0.791-1.765,1.766
			c0,0.084,0.009,0.168,0.02,0.248c0.023,0.176-0.023,0.352-0.138,0.486c-0.11,0.137-0.274,0.221-0.453,0.229
			c-0.479,0.023-0.858,0.425-0.858,0.906c0,0.502,0.408,0.908,0.908,0.908h6.76c0.502,0,0.91-0.406,0.91-0.908
			C29.26,7.986,28.957,7.614,28.541,7.525z"/>
	</g>
	<path fill="#AA892F" d="M37.422,45.357c-1.732,0-2.262,0.953-2.58,1.522c-0.211,0.379-0.215,0.388-0.539,0.388
		c-0.322,0-0.322,0-0.539-0.393c-0.318-0.566-0.848-1.521-2.578-1.521c-1.729,0-2.26,0.953-2.58,1.524
		c-0.211,0.379-0.215,0.386-0.539,0.386c-0.32,0-0.324-0.007-0.539-0.389c-0.314-0.568-0.848-1.521-2.576-1.521
		c-1.733,0-2.264,0.953-2.58,1.522c-0.211,0.381-0.217,0.388-0.538,0.388c-0.323,0-0.327-0.007-0.541-0.39
		c-0.315-0.567-0.849-1.521-2.577-1.521c-1.73,0-2.262,0.953-2.578,1.522c-0.213,0.379-0.217,0.388-0.539,0.388
		s-0.322,0-0.539-0.393c-0.318-0.566-0.85-1.521-2.578-1.521c-0.656,0-1.141,0.14-1.504,0.34c1.894,1.285,3.977,2.312,6.192,3.045
		c0.313-0.277,0.501-0.605,0.63-0.84c0.236-0.426,0.293-0.525,0.916-0.525s0.68,0.104,0.916,0.525
		c0.27,0.483,0.768,1.385,2.202,1.385c1.433,0,1.913-0.865,2.201-1.385c0.235-0.426,0.294-0.525,0.917-0.525
		s0.679,0.104,0.917,0.527c0.269,0.482,0.769,1.383,2.198,1.383c1.437,0,1.935-0.899,2.203-1.385
		c0.235-0.426,0.293-0.525,0.916-0.525s0.679,0.104,0.916,0.527c0.133,0.238,0.323,0.58,0.655,0.863
		c2.226-0.728,4.317-1.752,6.22-3.037C38.605,45.512,38.111,45.357,37.422,45.357z"/>
	<path fill="#AA892F" d="M41.102,42.441c-0.211,0.382-0.215,0.389-0.539,0.389c-0.32,0-0.326-0.007-0.539-0.391
		c-0.316-0.567-0.848-1.521-2.578-1.521c-1.729,0-2.262,0.953-2.576,1.523c-0.215,0.379-0.219,0.387-0.539,0.387
		c-0.324,0-0.324,0-0.541-0.393c-0.314-0.566-0.85-1.52-2.578-1.52s-2.26,0.952-2.578,1.523c-0.213,0.379-0.217,0.387-0.539,0.387
		s-0.326-0.008-0.537-0.389c-0.318-0.569-0.85-1.521-2.58-1.521c-1.732,0-2.264,0.953-2.58,1.521
		c-0.211,0.381-0.215,0.389-0.537,0.389c-0.323,0-0.328-0.008-0.541-0.391c-0.317-0.567-0.85-1.521-2.578-1.521
		c-1.73,0-2.262,0.953-2.578,1.523c-0.212,0.379-0.217,0.387-0.539,0.387c-0.323,0-0.323,0-0.54-0.393
		c-0.317-0.566-0.849-1.52-2.578-1.52c-1.731,0-2.262,0.953-2.579,1.523c-0.212,0.379-0.216,0.387-0.537,0.387
		c-0.324,0-0.328-0.008-0.541-0.389C8.532,41.864,8,40.912,6.27,40.912c-0.185,0-0.354,0.012-0.515,0.031
		c1.188,1.435,2.538,2.729,4.015,3.865c1.141-0.146,1.576-0.916,1.819-1.354c0.237-0.427,0.294-0.524,0.916-0.524
		c0.623,0,0.681,0.102,0.918,0.528c0.269,0.481,0.771,1.38,2.2,1.38c1.434,0,1.934-0.898,2.202-1.384
		c0.235-0.425,0.293-0.524,0.915-0.524c0.623,0,0.681,0.102,0.916,0.525c0.27,0.482,0.768,1.383,2.203,1.383
		c1.431,0,1.912-0.863,2.201-1.383c0.235-0.426,0.293-0.525,0.916-0.525c0.625,0,0.68,0.102,0.918,0.526
		c0.27,0.481,0.77,1.382,2.199,1.382c1.438,0,1.936-0.898,2.201-1.384c0.234-0.425,0.293-0.524,0.916-0.524s0.682,0.102,0.918,0.526
		c0.27,0.481,0.77,1.382,2.201,1.382c1.43,0,1.934-0.896,2.199-1.382c0.236-0.427,0.295-0.526,0.916-0.526
		c0.623,0,0.682,0.102,0.916,0.525c0.248,0.441,0.695,1.227,1.867,1.355c1.479-1.137,2.826-2.432,4.017-3.862
		c-0.172-0.023-0.356-0.038-0.562-0.038C41.949,40.92,41.42,41.873,41.102,42.441z"/>
	<path fill="#AA892F" d="M43.652,36.482c-1.731,0-2.262,0.953-2.579,1.521c-0.212,0.381-0.216,0.39-0.539,0.39
		c-0.322,0-0.326-0.009-0.54-0.392c-0.317-0.567-0.848-1.521-2.577-1.521c-1.731,0-2.263,0.953-2.579,1.523
		c-0.212,0.379-0.216,0.387-0.539,0.387c-0.322,0-0.322,0-0.54-0.392c-0.317-0.567-0.848-1.521-2.577-1.521
		c-1.729,0-2.261,0.951-2.58,1.523c-0.211,0.379-0.215,0.387-0.539,0.387c-0.321,0-0.326-0.008-0.539-0.39
		c-0.315-0.569-0.848-1.521-2.578-1.521c-1.731,0-2.262,0.953-2.578,1.521c-0.213,0.381-0.217,0.39-0.538,0.39
		c-0.323,0-0.327-0.009-0.541-0.392c-0.315-0.567-0.849-1.521-2.577-1.521c-1.73,0-2.262,0.953-2.579,1.523
		c-0.212,0.379-0.216,0.386-0.539,0.386c-0.321,0-0.321,0-0.54-0.391c-0.316-0.568-0.848-1.521-2.576-1.521
		c-1.732,0-2.264,0.953-2.58,1.523c-0.211,0.379-0.215,0.387-0.537,0.387c-0.324,0-0.328-0.008-0.541-0.39
		c-0.316-0.569-0.848-1.521-2.578-1.521c-1.733,0-2.262,0.952-2.577,1.521C3.66,38,3.659,38.002,3.656,38.006
		c0.363,0.596,0.753,1.171,1.162,1.729c0.24-0.248,0.396-0.518,0.506-0.717C5.561,38.59,5.618,38.49,6.24,38.49
		c0.623,0,0.681,0.103,0.918,0.527c0.269,0.482,0.769,1.381,2.201,1.381c1.435,0,1.933-0.897,2.201-1.383
		c0.235-0.426,0.293-0.525,0.916-0.525s0.68,0.103,0.918,0.529c0.269,0.481,0.77,1.379,2.198,1.379c1.435,0,1.935-0.897,2.202-1.383
		c0.234-0.426,0.293-0.525,0.916-0.525s0.68,0.103,0.916,0.525c0.27,0.483,0.768,1.383,2.202,1.383c1.431,0,1.913-0.863,2.2-1.383
		c0.236-0.426,0.295-0.525,0.916-0.525c0.623,0,0.682,0.103,0.918,0.527c0.27,0.482,0.77,1.381,2.199,1.381
		c1.438,0,1.936-0.897,2.203-1.383c0.235-0.426,0.293-0.525,0.916-0.525s0.678,0.103,0.916,0.527
		c0.271,0.481,0.771,1.381,2.201,1.381c1.432,0,1.932-0.896,2.202-1.381c0.235-0.428,0.293-0.527,0.916-0.527
		c0.622,0,0.679,0.101,0.916,0.525c0.269,0.483,0.767,1.383,2.201,1.383c1.432,0,1.914-0.863,2.202-1.383
		c0.236-0.426,0.293-0.525,0.916-0.525s0.68,0.103,0.916,0.525c0.121,0.217,0.293,0.518,0.57,0.781
		c0.404-0.551,0.788-1.119,1.148-1.703c-0.021-0.033-0.034-0.058-0.061-0.101C45.914,37.436,45.385,36.482,43.652,36.482z"/>
	<path fill="#AA892F" d="M33.893,18.08l-1.101-0.549c-0.099-0.051-0.219-0.01-0.269,0.09l-1.306,2.613l0,0l-0.002,0.004L30.5,21.671
		h-0.012l-1.006,1.979l0,0l-0.188,0.373h-10.76c-0.824,0.033-1.48,0.729-1.461,1.552v6.021c0,0.11,0.09,0.2,0.199,0.2h1.229
		c0.111,0,0.201-0.09,0.201-0.2v-3.689h9.189v3.689c0,0.11,0.09,0.2,0.199,0.2h1.229c0.111,0,0.201-0.09,0.201-0.2V27.26l4.457-8.91
		c0.022-0.049,0.026-0.104,0.01-0.154C33.977,18.146,33.939,18.104,33.893,18.08z M28.186,26.275h-9.479v-0.623h9.729L28.186,26.275
		z"/>
	<g>
		<path fill="#AA892F" d="M8.982,16.297h4.992c0.974,0,1.766-0.791,1.766-1.764c0-0.635-0.346-1.207-0.868-1.52
			c-0.06-1.072-0.947-1.929-2.033-1.929c-0.259,0-0.508,0.047-0.739,0.14c-0.41-0.304-0.908-0.472-1.427-0.472
			c-1.239,0-2.264,0.946-2.384,2.155c-0.632,0.271-1.068,0.896-1.068,1.623C7.221,15.506,8.012,16.297,8.982,16.297z M8.957,14.025
			c0.177-0.008,0.341-0.092,0.452-0.229c0.11-0.136,0.161-0.312,0.137-0.485c-0.007-0.054-0.011-0.106-0.011-0.162
			c0-0.627,0.511-1.138,1.138-1.138c0.327,0,0.642,0.144,0.856,0.392c0.214,0.246,0.582,0.289,0.847,0.094
			c0.136-0.1,0.295-0.15,0.463-0.15c0.431,0,0.778,0.35,0.778,0.778c0,0.056-0.006,0.11-0.02,0.165
			c-0.035,0.163-0.004,0.334,0.086,0.475c0.092,0.143,0.233,0.239,0.396,0.273c0.23,0.05,0.4,0.259,0.4,0.496
			c0,0.279-0.229,0.506-0.508,0.506H8.98c-0.278,0-0.506-0.227-0.506-0.506C8.479,14.264,8.688,14.041,8.957,14.025z"/>
		<path fill="#FEC30E" d="M14.082,14.037c-0.163-0.034-0.307-0.133-0.396-0.273c-0.09-0.14-0.123-0.312-0.086-0.475
			c0.012-0.055,0.019-0.109,0.019-0.165c0-0.431-0.351-0.778-0.779-0.778c-0.168,0-0.325,0.053-0.462,0.15
			c-0.266,0.195-0.633,0.152-0.848-0.094c-0.217-0.248-0.528-0.391-0.856-0.391c-0.627,0-1.137,0.51-1.137,1.137
			c0,0.056,0.004,0.108,0.012,0.162c0.024,0.174-0.024,0.352-0.138,0.485c-0.112,0.138-0.276,0.222-0.452,0.229
			c-0.271,0.016-0.479,0.236-0.479,0.508c0,0.279,0.228,0.506,0.506,0.506h4.992c0.279,0,0.508-0.227,0.508-0.506
			C14.482,14.296,14.312,14.087,14.082,14.037z"/>
	</g>
</g>
</svg>
