<?xml version="1.0" encoding="utf-8"?>
<!-- Generator: Adobe Illustrator 22.1.0, SVG Export Plug-In . SVG Version: 6.00 Build 0)  -->
<svg version="1.1" id="Layer_1" xmlns="http://www.w3.org/2000/svg" xmlns:xlink="http://www.w3.org/1999/xlink" x="0px" y="0px"
	 viewBox="0 0 120 120" style="enable-background:new 0 0 120 120;" xml:space="preserve">
<style type="text/css">
	.st0{fill:#272727;}
	.st1{fill:#F1F1F1;}
	.st2{fill:#1283C6;}
	.st3{fill:#FBB94A;}
	.st4{fill:#1286C3;}
	.st5{opacity:0.8;}
	.st6{fill:#7C7C7C;}
	.st7{fill:#FFFFFF;stroke:#FFFFFF;stroke-miterlimit:10;}
	.st8{fill:none;stroke:#FFFFFF;stroke-width:5;stroke-linecap:round;stroke-linejoin:round;stroke-miterlimit:10;}
	.st9{fill:#FFFFFF;stroke:#FFFFFF;stroke-width:2;stroke-miterlimit:10;}
	.st10{fill:none;stroke:#FFC300;stroke-width:3.277;stroke-linecap:round;stroke-linejoin:round;stroke-miterlimit:10;}
	.st11{fill:none;stroke:#FFFFFF;stroke-width:3;stroke-linecap:round;stroke-linejoin:round;stroke-miterlimit:10;}
	.st12{fill:none;stroke:#FFC300;stroke-width:3.2968;stroke-linecap:round;stroke-linejoin:round;stroke-miterlimit:10;}
	.st13{fill:#FFC300;}
	.st14{fill:none;stroke:#FFC300;stroke-width:3;stroke-linecap:round;stroke-linejoin:round;stroke-miterlimit:10;}
	.st15{fill:#FFFFFF;}
	.st16{fill:none;stroke:#FFC300;stroke-width:2.0441;stroke-linecap:round;stroke-linejoin:round;stroke-miterlimit:10;}
	.st17{fill:none;stroke:#FFC300;stroke-width:2;stroke-linecap:round;stroke-linejoin:round;stroke-miterlimit:10;}
	.st18{fill:#1684C6;}
</style>
<g>
	<g>
		<path class="st18" d="M72.3,78.1H44.1c-0.6,0-1-0.4-1-1V57.4c0-0.3,0.1-0.6,0.3-0.8l14.1-12.1c0.4-0.3,1-0.3,1.3,0l4.8,4.4v-1.5
			c0-0.6,0.4-1,1-1h5.4c0.6,0,1,0.4,1,1V55l1.9,2c0.2,0.2,0.3,0.4,0.3,0.7v19.4C73.3,77.7,72.9,78.1,72.3,78.1z M45.1,76.1h26.2v-18
			l-1.9-2c-0.2-0.2-0.3-0.4-0.3-0.7v-6.9h-3.4v2.7c0,0.4-0.2,0.8-0.6,0.9S64.3,52.3,64,52l-5.8-5.4L45.1,57.8V76.1z"/>
	</g>
	<g>
		<path class="st18" d="M39.6,18h-2.7c-0.6,0-1-0.4-1-1s0.4-1,1-1h2.7c0.6,0,1,0.4,1,1S40.1,18,39.6,18z"/>
	</g>
	<g>
		<path class="st18" d="M76.6,18H43.1c-0.6,0-1-0.4-1-1s0.4-1,1-1h33.5c0.6,0,1,0.4,1,1S77.2,18,76.6,18z"/>
	</g>
	<g>
		<path class="st18" d="M36.8,36.6h-2.7c-0.6,0-1-0.4-1-1s0.4-1,1-1h2.7c0.6,0,1,0.4,1,1S37.4,36.6,36.8,36.6z"/>
	</g>
	<g>
		<path class="st18" d="M29.8,36.6h-2.7c-0.6,0-1-0.4-1-1s0.4-1,1-1h2.7c0.6,0,1,0.4,1,1S30.4,36.6,29.8,36.6z"/>
	</g>
	<g>
		<path class="st18" d="M62.2,36.6H39.6c-0.6,0-1-0.4-1-1s0.4-1,1-1h22.7c0.6,0,1,0.4,1,1S62.8,36.6,62.2,36.6z"/>
	</g>
	<g>
		<path class="st18" d="M24.5,91.9h-2.7c-0.6,0-1-0.4-1-1s0.4-1,1-1h2.7c0.6,0,1,0.4,1,1S25,91.9,24.5,91.9z"/>
	</g>
	<g>
		<path class="st18" d="M51.5,91.9H27.2c-0.6,0-1-0.4-1-1s0.4-1,1-1h24.3c0.6,0,1,0.4,1,1S52,91.9,51.5,91.9z"/>
	</g>
	<g>
		<path class="st18" d="M27.8,50.8h-13c-0.6,0-1-0.4-1-1s0.4-1,1-1h13c0.6,0,1,0.4,1,1S28.3,50.8,27.8,50.8z"/>
	</g>
	<g>
		<path class="st18" d="M55.4,104c-0.3,0-0.5-0.1-0.7-0.3l-7.9-7.9c-0.4-0.4-0.4-1,0-1.4s1-0.4,1.4,0l7.2,7.2l38.4-38.4l0.8-24.6
			L84.3,28.3H60.1l-7.7,7.7c-0.4,0.4-1,0.4-1.4,0s-0.4-1,0-1.4l8-8c0.2-0.2,0.4-0.3,0.7-0.3h25c0.3,0,0.5,0.1,0.7,0.3l10.8,10.8
			c0.2,0.2,0.3,0.5,0.3,0.7l-0.8,25.4c0,0.3-0.1,0.5-0.3,0.7l-39.4,39.4C55.9,103.9,55.7,104,55.4,104z"/>
	</g>
	<g>
		<path class="st18" d="M43.2,91.9c-0.3,0-0.5-0.1-0.7-0.3L19,68c-0.4-0.4-0.4-1,0-1.4l26.8-26.8c0.4-0.4,1-0.4,1.4,0s0.4,1,0,1.4
			L21.1,67.3L44,90.1c0.4,0.4,0.4,1,0,1.4C43.8,91.8,43.5,91.9,43.2,91.9z"/>
	</g>
	<g>
		<path class="st18" d="M82.8,48.5c-1.2,0-2.4-0.5-3.3-1.4l-4.7-4.7c-1.8-1.8-1.8-4.8,0-6.6l1.2-1.2c1.8-1.8,4.8-1.8,6.6,0l4.7,4.7
			c1.8,1.8,1.8,4.8,0,6.6l-1.2,1.2C85.2,48.1,84,48.5,82.8,48.5z M79.4,35.3c-0.7,0-1.4,0.3-1.9,0.8l-1.2,1.2c-1,1-1,2.7,0,3.8
			l4.7,4.7l0,0c1,1,2.7,1,3.8,0l1.2-1.2c1-1,1-2.7,0-3.8l-4.7-4.7C80.7,35.6,80,35.3,79.4,35.3z"/>
	</g>
	<g>
		<path class="st18" d="M95.1,54.9c-0.5,0-0.9-0.4-1-0.9c0-0.6,0.4-1,0.9-1.1c5.2-0.5,9.3-4.9,9.3-10.1c0-5.6-4.6-10.2-10.2-10.2
			c-3.8,0-7.3,2.1-9.1,5.5c-0.7,1.4-1.1,3-1.1,4.7c0,1.5,0.3,2.9,0.9,4.2c0.2,0.5,0,1.1-0.5,1.3c-0.5,0.2-1.1,0-1.3-0.5
			c-0.7-1.6-1.1-3.3-1.1-5.1c0-2,0.5-3.8,1.3-5.6c2.1-4.1,6.3-6.6,10.8-6.6c6.7,0,12.2,5.5,12.2,12.2
			C106.3,49.1,101.5,54.3,95.1,54.9C95.1,54.9,95.1,54.9,95.1,54.9z"/>
	</g>
	<g>
		<g>
			<path class="st18" d="M57.2,72.7v-2.5c-2-0.6-3.1-2-3.1-3.8h2.5c0.1,1,0.8,1.6,1.7,1.6c1,0,1.7-0.7,1.7-1.6
				c0-0.9-0.5-1.4-1.7-1.7c-2.6-0.7-3.6-2-3.6-3.8c0-1.7,1-3,2.6-3.5v-2.4h2.4v2.4c1.4,0.5,2.3,1.7,2.4,3.2h-2.4
				c-0.2-0.8-0.6-1.1-1.3-1.1c-0.7,0-1.2,0.6-1.2,1.4c0,1.2,1.6,1.4,2.5,1.8c2,0.7,2.8,2,2.8,3.8c0,1.8-1.1,3.3-2.9,3.8v2.5H57.2z"
				/>
		</g>
	</g>
</g>
</svg>
