<?xml version="1.0" encoding="UTF-8"?>
<svg width="176px" height="176px" viewBox="0 0 176 176" version="1.1" xmlns="http://www.w3.org/2000/svg" xmlns:xlink="http://www.w3.org/1999/xlink">
    <!-- Generator: Sketch 51.3 (57544) - http://www.bohemiancoding.com/sketch -->
    <title>Buy_proposal_1</title>
    <desc>Created with Sketch.</desc>
    <defs></defs>
    <g id="Page-4" stroke="none" stroke-width="1" fill="none" fill-rule="evenodd">
        <g id="Auto-Bid_Proposal-Settings-2" transform="translate(-532.000000, -599.000000)">
            <g id="Buy_proposal_1" transform="translate(535.000000, 602.000000)">
                <path d="M116.2,122.305 L74.229,122.305 C71.77,122.305 69.507,120.846 68.463,118.586 L43.668,62.641 C43.186,61.594 42.124,60.903 40.975,60.903 L25.656,60.903 C24.724,60.903 23.97,60.149 23.97,59.217 C23.97,58.286 24.724,57.532 25.656,57.532 L40.974,57.532 C43.434,57.532 45.696,58.992 46.739,61.251 L71.534,117.195 C72.017,118.24 73.079,118.931 74.228,118.931 L116.2,118.931 C117.132,118.931 117.887,119.685 117.887,120.617 C117.887,121.549 117.132,122.305 116.2,122.305 Z" id="Shape" fill="#1483C6" fill-rule="nonzero"></path>
                <path d="M116.82,108.354 L65.011,108.354 C64.08,108.354 63.326,107.6 63.326,106.669 C63.326,105.736 64.08,104.982 65.011,104.982 L116.822,104.982 C118.084,104.982 119.191,104.195 119.584,103.021 L129.797,72.504 C130.092,71.656 129.949,70.748 129.412,69.991 C128.85,69.2 127.984,68.746 127.037,68.746 L56.17,68.746 C55.239,68.746 54.484,67.991 54.484,67.06 C54.484,66.13 55.239,65.374 56.17,65.374 L127.036,65.374 C129.058,65.374 130.974,66.37 132.159,68.038 C133.318,69.672 133.63,71.748 132.984,73.592 L122.777,104.088 C121.932,106.641 119.536,108.354 116.82,108.354 Z" id="Shape" fill="#1483C6" fill-rule="nonzero"></path>
                <path d="M113.96,64.266 C113.027,64.266 112.273,63.511 112.273,62.58 L112.273,53.653 L109.361,50.527 C109.07,50.215 108.911,49.804 108.911,49.379 L108.911,38.733 L103.81,38.733 L103.81,42.902 C103.81,43.571 103.415,44.175 102.806,44.444 C102.191,44.713 101.482,44.596 100.988,44.146 L91.876,35.809 L71.555,53.146 L71.555,62.581 C71.555,63.512 70.8,64.267 69.869,64.267 C68.937,64.267 68.183,63.512 68.183,62.581 L68.183,52.367 C68.183,51.874 68.4,51.405 68.775,51.085 L90.818,32.279 C91.466,31.728 92.423,31.743 93.05,32.317 L100.439,39.076 L100.439,37.048 C100.439,36.117 101.195,35.362 102.126,35.362 L110.598,35.362 C111.528,35.362 112.284,36.117 112.284,37.048 L112.284,48.715 L115.194,51.842 C115.485,52.154 115.645,52.565 115.645,52.991 L115.645,62.58 C115.645,63.511 114.891,64.266 113.96,64.266 Z" id="Shape" fill="#1483C6" fill-rule="nonzero"></path>
                <path d="M70.242,138.123 C66.292,138.123 63.077,134.908 63.077,130.957 C63.077,127.006 66.292,123.789 70.242,123.789 C74.194,123.789 77.409,127.006 77.409,130.957 C77.409,134.908 74.194,138.123 70.242,138.123 Z M70.242,127.16 C68.15,127.16 66.448,128.863 66.448,130.957 C66.448,133.049 68.15,134.752 70.242,134.752 C72.335,134.752 74.037,133.049 74.037,130.957 C74.037,128.863 72.335,127.16 70.242,127.16 Z" id="Shape" fill="#1483C6" fill-rule="nonzero"></path>
                <path d="M114.083,138.123 C110.132,138.123 106.917,134.908 106.917,130.957 C106.917,127.006 110.132,123.789 114.083,123.789 C118.034,123.789 121.249,127.006 121.249,130.957 C121.249,134.908 118.034,138.123 114.083,138.123 Z M114.083,127.16 C111.991,127.16 110.288,128.863 110.288,130.957 C110.288,133.049 111.991,134.752 114.083,134.752 C116.177,134.752 117.878,133.049 117.878,130.957 C117.878,128.863 116.177,127.16 114.083,127.16 Z" id="Shape" fill="#1483C6" fill-rule="nonzero"></path>
                <circle id="Oval" stroke="#1483C6" stroke-width="6" cx="85" cy="85" r="85"></circle>
            </g>
        </g>
    </g>
</svg>