<?xml version="1.0" encoding="UTF-8"?>
<svg width="176px" height="176px" viewBox="0 0 176 176" version="1.1" xmlns="http://www.w3.org/2000/svg" xmlns:xlink="http://www.w3.org/1999/xlink">
    <!-- Generator: Sketch 51.3 (57544) - http://www.bohemiancoding.com/sketch -->
    <title>Sell_Selected</title>
    <desc>Created with Sketch.</desc>
    <defs></defs>
    <g id="Page-4" stroke="none" stroke-width="1" fill="none" fill-rule="evenodd">
        <g id="Auto-Bid_Proposal-Settings-2" transform="translate(-881.000000, -599.000000)">
            <g id="Sell_Selected" transform="translate(884.000000, 602.000000)">
                <g id="Group" transform="translate(20.000000, 27.000000)" fill="#FFC300" fill-rule="nonzero">
                    <path d="M79.436,77.497 L38.108,77.497 C37.012,77.497 36.126,76.608 36.126,75.513 L36.126,46.642 C36.126,46.064 36.378,45.515 36.817,45.138 L57.481,27.406 C58.243,26.75 59.376,26.771 60.118,27.453 L66.314,33.174 L66.314,32.135 C66.314,31.039 67.202,30.151 68.297,30.151 L76.212,30.151 C77.308,30.151 78.195,31.04 78.195,32.135 L78.195,42.918 L80.868,45.711 C81.221,46.08 81.418,46.572 81.418,47.082 L81.418,75.514 C81.419,76.608 80.531,77.497 79.436,77.497 Z M40.091,73.53 L77.452,73.53 L77.452,47.878 L74.779,45.083 C74.425,44.714 74.229,44.224 74.229,43.712 L74.229,34.116 L70.281,34.116 L70.281,37.702 C70.281,38.489 69.815,39.202 69.093,39.518 C68.371,39.832 67.531,39.694 66.952,39.159 L58.723,31.565 L40.091,47.554 L40.091,73.53 Z" id="Shape"></path>
                    <path d="M54.669,115.454 C54.161,115.454 53.655,115.261 53.267,114.872 L41.689,103.296 L35.404,97.157 L0.944,62.55 C0.173,61.775 0.173,60.523 0.946,59.749 L40.223,20.474 L47.858,12.986 L59.559,1.136 C59.93,0.759 60.44,0.546 60.969,0.546 L97.608,0.546 C98.137,0.546 98.644,0.759 99.017,1.134 L114.844,17.109 C115.226,17.494 115.433,18.019 115.417,18.56 L114.392,55.783 C114.379,56.291 114.171,56.773 113.812,57.133 L56.071,114.873 C55.685,115.261 55.177,115.454 54.669,115.454 Z M5.151,61.153 L38.194,94.339 L44.475,100.474 L54.668,110.665 L110.448,54.884 L111.428,19.298 L96.781,4.513 L61.798,4.513 L50.657,15.794 L43.014,23.292 L5.151,61.153 Z" id="Shape"></path>
                    <path d="M94.879,34.19 C92.946,34.19 91.093,33.454 89.661,32.118 L82.723,25.182 C79.898,22.358 79.898,17.582 82.723,14.756 L84.482,12.998 C85.828,11.65 87.728,10.877 89.694,10.877 C91.688,10.877 93.54,11.631 94.907,12.998 L101.796,19.887 C103.143,21.233 103.915,23.131 103.916,25.098 C103.915,27.092 103.162,28.944 101.796,30.311 L100.037,32.071 C98.67,33.438 96.838,34.19 94.879,34.19 Z M89.694,14.845 C88.773,14.845 87.895,15.195 87.288,15.802 L85.528,17.562 C84.245,18.845 84.245,21.095 85.528,22.378 L92.416,29.267 C93.689,30.451 95.979,30.521 97.232,29.267 L98.991,27.507 C99.599,26.898 99.949,26.021 99.949,25.099 C99.949,24.177 99.599,23.3 98.991,22.693 L92.102,15.804 C91.494,15.194 90.616,14.845 89.694,14.845 Z" id="Shape"></path>
                    <path d="M112.702,43.349 C111.684,43.349 110.819,42.572 110.728,41.54 C110.631,40.448 111.44,39.485 112.531,39.39 C119.896,38.745 125.668,32.468 125.668,25.099 C125.668,17.142 119.194,10.669 111.237,10.669 C105.937,10.669 101.049,13.689 98.483,18.552 C97.496,20.404 96.953,22.726 96.953,25.099 C96.953,27.13 97.392,29.185 98.259,31.206 C98.691,32.214 98.223,33.38 97.216,33.811 C96.209,34.245 95.043,33.774 94.612,32.768 C93.533,30.248 92.986,27.668 92.986,25.098 C92.986,22.043 93.674,19.135 94.978,16.692 C98.23,10.532 104.461,6.702 111.237,6.702 C121.381,6.702 129.633,14.954 129.633,25.098 C129.633,34.504 122.273,42.518 112.876,43.34 C112.818,43.347 112.759,43.349 112.702,43.349 Z" id="Shape"></path>
                    <path d="M57.308,69.063 L57.308,65.401 C54.376,64.522 52.763,62.469 52.763,59.831 L56.427,59.831 C56.573,61.3 57.601,62.179 58.919,62.179 C60.384,62.179 61.409,61.152 61.409,59.831 C61.409,58.513 60.677,57.782 58.919,57.341 C55.108,56.314 53.644,54.411 53.644,51.773 C53.644,49.281 55.109,47.377 57.453,46.644 L57.453,43.126 L60.973,43.126 L60.973,46.644 C63.024,47.376 64.344,49.136 64.491,51.333 L60.973,51.333 C60.68,50.161 60.092,49.722 59.067,49.722 C58.042,49.722 57.309,50.601 57.309,51.775 C57.309,53.533 59.653,53.828 60.971,54.414 C63.903,55.437 65.075,57.344 65.075,59.982 C65.075,62.619 63.464,64.818 60.825,65.55 L60.825,69.214 L57.307,69.214 L57.307,69.064 L57.308,69.064 L57.308,69.063 Z" id="Shape"></path>
                </g>
                <circle id="Oval" stroke="#FFC300" stroke-width="6" cx="85" cy="85" r="85"></circle>
            </g>
        </g>
    </g>
</svg>