<?xml version="1.0" encoding="UTF-8"?>
<svg width="124px" height="124px" viewBox="0 0 124 124" version="1.1" xmlns="http://www.w3.org/2000/svg" xmlns:xlink="http://www.w3.org/1999/xlink">
    <!-- Generator: Sketch 50.2 (55047) - http://www.bohemiancoding.com/sketch -->
    <title>Group 8</title>
    <desc>Created with Sketch.</desc>
    <defs></defs>
    <g id="Page-1" stroke="none" stroke-width="1" fill="none" fill-rule="evenodd">
        <g id="Step-3---Buy---Features---Bedrooms" transform="translate(-846.000000, -272.000000)">
            <g id="Group-8" transform="translate(848.000000, 274.000000)">
                <g id="fourbedroom_icon">
                    <g id="Group-7">
                        <g id="Group-9" fill="#FFFFFF" stroke="#BDBDBD" stroke-width="2.5">
                            <circle id="Oval-13-Copy-6" cx="60" cy="60" r="60"></circle>
                        </g>
                        <g id="Group-11-Copy-4" transform="translate(58.000000, 40.000000)" fill="#BDBDBD">
                            <text id="4" font-family="OpenSans-SemiBold, Open Sans" font-size="30" font-weight="500">
                                <tspan x="23.4379883" y="32">4</tspan>
                            </text>
                            <text id="x" font-family="OpenSans-Regular, Open Sans" font-size="25" font-weight="normal">
                                <tspan x="0" y="29">x</tspan>
                            </text>
                        </g>
                    </g>
                </g>
                <path d="M45.115508,59.3317511 L45.115508,59.3059072 L45.115508,55.403481 C45.115508,53.646097 43.857754,53 42.6786096,53 L27.7427807,53 C26.5636364,53 25.3058824,53.6202532 25.3058824,55.403481 L25.3058824,59.3059072 L25.3058824,59.3317511 C24.126738,59.4609705 23,60.2362869 23,62.0195148 L23,65.0690928 C23,65.5859705 23.4192513,65.9994726 23.9433155,65.9994726 L24.257754,65.9994726 L24.257754,68.4029536 C24.257754,68.9198312 24.6770053,69.3333333 25.2010695,69.3333333 L26.0919786,69.3333333 C26.6160428,69.3333333 27.0352941,68.9198312 27.0352941,68.4029536 L27.0352941,65.9736287 L43.4647059,65.9736287 L43.4647059,68.4029536 C43.4647059,68.9198312 43.8839572,69.3333333 44.4080214,69.3333333 L45.2989305,69.3333333 C45.8229947,69.3333333 46.242246,68.9198312 46.242246,68.4029536 L46.242246,65.9736287 L46.5566845,65.9736287 C47.0807487,65.9736287 47.5,65.5601266 47.5,65.0432489 L47.5,62.0195148 C47.4213904,60.2362869 46.2946524,59.4609705 45.115508,59.3317511 Z M26.1967914,55.403481 L26.2491979,55.403481 C26.2491979,54.1888186 27.0614973,53.9303797 27.7427807,53.9303797 L42.6786096,53.9303797 C43.359893,53.9303797 44.1721925,54.1888186 44.1721925,55.403481 L44.1721925,59.3059072 L43.4647059,59.3059072 L43.4647059,57.0833333 C43.4647059,56.5664557 43.0454545,56.1529536 42.5213904,56.1529536 L36.7566845,56.1529536 C36.2326203,56.1529536 35.813369,56.5664557 35.813369,57.0833333 L35.813369,59.3059072 L34.7128342,59.3059072 L34.7128342,57.0833333 C34.7128342,56.5664557 34.2935829,56.1529536 33.7695187,56.1529536 L28.0048128,56.1529536 C27.4807487,56.1529536 27.0614973,56.5664557 27.0614973,57.0833333 L27.0614973,59.3059072 L26.1967914,59.3059072 L26.1967914,55.403481 Z M42.5213904,57.0833333 L42.5213904,59.3059072 L36.7566845,59.3059072 L36.7566845,57.0833333 L42.5213904,57.0833333 Z M33.8219251,57.0833333 L33.8219251,59.3059072 L28.0572193,59.3059072 L28.0572193,57.0833333 L33.8219251,57.0833333 Z M26.0657754,68.4029536 L25.1748663,68.4029536 L25.1748663,65.9736287 L26.0657754,65.9736287 L26.0657754,68.4029536 Z M45.2465241,68.4029536 L44.355615,68.4029536 L44.355615,65.9736287 L45.2465241,65.9736287 L45.2465241,68.4029536 Z M46.4780749,65.0690928 L45.2465241,65.0690928 L44.355615,65.0690928 L26.0657754,65.0690928 L25.1748663,65.0690928 L23.9171123,65.0690928 L23.9171123,63.6993671 L46.4780749,63.6993671 L46.4780749,65.0690928 Z M46.4780749,62.7689873 L23.9171123,62.7689873 L23.9171123,62.0195148 C23.9171123,60.4688819 25.0700535,60.2362869 25.7251337,60.2362869 L26.2229947,60.2362869 L28.031016,60.2362869 L33.7957219,60.2362869 L36.7566845,60.2362869 L42.5213904,60.2362869 L44.1721925,60.2362869 L44.6700535,60.2362869 C45.3513369,60.2362869 46.4780749,60.4688819 46.4780749,62.0195148 L46.4780749,62.7689873 Z" id="Shape" fill="#BDBDBD" fill-rule="nonzero"></path>
            </g>
        </g>
    </g>
</svg>