<?xml version="1.0" encoding="UTF-8"?>
<svg width="124px" height="124px" viewBox="0 0 124 124" version="1.1" xmlns="http://www.w3.org/2000/svg" xmlns:xlink="http://www.w3.org/1999/xlink">
    <!-- Generator: Sketch 51.1 (57501) - http://www.bohemiancoding.com/sketch -->
    <title>pool</title>
    <desc>Created with Sketch.</desc>
    <defs></defs>
    <g id="Page-1" stroke="none" stroke-width="1" fill="none" fill-rule="evenodd">
        <g id="Artboard" transform="translate(-900.000000, -218.000000)">
            <g id="pool" transform="translate(902.000000, 220.000000)">
                <g id="Group-7" fill="#FFFFFF" stroke="#BDBDBD" stroke-width="2.5">
                    <circle id="Oval-13-Copy-4" cx="60" cy="60" r="60"></circle>
                </g>
                <text id="POOL" font-family="OpenSans-Bold, Open Sans" font-size="12" font-weight="bold" fill="#BDBDBD">
                    <tspan x="43.2919922" y="95">POOL</tspan>
                </text>
                <g id="Group-16" transform="translate(41.000000, 27.000000)" stroke="#BDBDBD" stroke-width="1.7">
                    <path d="M12.5,1.13686838e-13 C7.16666667,1.13686838e-13 4.16666667,3 3.5,9 C2.83333333,15 2.83333333,23.3333333 3.5,34" id="Path-20" stroke-linecap="round" stroke-linejoin="round"></path>
                    <path d="M35.5,1.13686838e-13 C30.1666667,1.13686838e-13 27.1666667,3 26.5,9 C25.8333333,15 25.8333333,23.3333333 26.5,34" id="Path-20-Copy" stroke-linecap="round" stroke-linejoin="round"></path>
                    <path d="M4,14 L26,14" id="Line-9" stroke-linecap="square"></path>
                    <path d="M3,24 L25,24" id="Line-9-Copy" stroke-linecap="square"></path>
                    <path d="M0,36.0833333 C8,31.4166667 16.5,30.75 25.5,34.0833333 C34.5,37.4166667 39.3333333,37.4166667 40,34.0833333" id="Path-21" stroke-linecap="round" stroke-linejoin="round"></path>
                    <path d="M0,44.0833333 C8,39.4166667 16.5,38.75 25.5,42.0833333 C34.5,45.4166667 39.3333333,45.4166667 40,42.0833333" id="Path-21-Copy" stroke-linecap="round" stroke-linejoin="round"></path>
                </g>
            </g>
        </g>
    </g>
</svg>