<?xml version="1.0" encoding="UTF-8"?>
<svg width="100px" height="100px" viewBox="0 0 100 100" version="1.1" xmlns="http://www.w3.org/2000/svg" xmlns:xlink="http://www.w3.org/1999/xlink">
    <!-- Generator: Sketch 51.3 (57544) - http://www.bohemiancoding.com/sketch -->
    <title>avatar_3 copy</title>
    <desc>Created with Sketch.</desc>
    <defs></defs>
    <g id="Avatar_update" stroke="none" stroke-width="1" fill="none" fill-rule="evenodd">
        <g id="avatar_3-copy">
            <path d="M50,1.014 C77.055,1.014 98.984,22.945 98.984,49.999 C98.984,77.055 77.051,98.984 50,98.984 C22.946,98.984 1.014,77.054 1.014,49.999 C1.014,22.945 22.946,1.014 50,1.014" id="Shape" fill="#D8D8D8" fill-rule="nonzero"></path>
            <path d="M50,100 C22.431,100 0,77.568 0,49.999 C0,22.429 22.431,0 50,0 C77.568,0 100,22.429 100,49.999 C100,77.568 77.568,100 50,100 Z M50,2.027 C23.548,2.027 2.027,23.547 2.027,49.999 C2.027,76.453 23.548,97.973 50,97.973 C76.452,97.973 97.973,76.452 97.973,49.999 C97.973,23.546 76.452,2.027 50,2.027 Z" id="Shape" fill="#1684B6" fill-rule="nonzero"></path>
            <path d="M20.922,68.059 C20.922,68.059 29.265,67.518 29.372,60.369 C29.476,53.557 19.456,19.129 45.281,12.036 C48.097,11.263 51.032,11.098 53.907,11.611 C57.881,12.32 63.404,14.204 65.771,19.203 C65.771,19.203 71.133,21.527 71.142,36.891 C71.144,39.433 70.9,41.974 70.48,44.48 C69.435,50.726 67.875,66.501 78.447,68.06 C78.447,68.06 77.148,80.842 49.685,80.519 C49.685,80.518 25.797,83.009 20.922,68.059" id="Shape" fill="#1684B6" fill-rule="nonzero"></path>
            <path d="M48.9,86.953 C48.422,86.953 47.944,86.914 47.479,86.838 C38.29,85.332 36.358,74.756 36.055,72.551 C36.17,72.485 36.283,72.417 36.392,72.352 C39.866,70.217 42.023,66.241 42.023,61.964 L42.319,58.375 L56.549,57.374 C55.32,66.005 62.134,71.092 63.903,72.258 C61.512,81.887 55.377,85.283 51.897,86.455 C50.911,86.785 49.903,86.953 48.9,86.953" id="Shape" fill="#D8D8D8" fill-rule="nonzero"></path>
            <path d="M55.831,58.061 C55.098,66.047 60.962,70.969 63.18,72.53 C60.788,81.545 54.998,84.745 51.696,85.856 C50.778,86.165 49.838,86.324 48.903,86.324 C48.461,86.324 48.016,86.286 47.583,86.217 C39.194,84.84 37.165,75.673 36.74,72.885 C40.378,70.648 42.642,66.488 42.66,62.021 L42.91,58.976 L55.831,58.061 Z M42.657,61.964 L42.663,61.964 L42.657,61.964 Z M57.311,56.688 L57.315,56.688 L57.311,56.688 Z M57.311,56.688 L41.733,57.785 L41.39,61.967 C41.39,65.939 39.446,69.736 36.061,71.814 C35.841,71.951 35.613,72.082 35.374,72.21 C35.374,72.21 36.556,85.693 47.375,87.469 C47.881,87.552 48.391,87.593 48.899,87.593 C49.983,87.593 51.063,87.406 52.096,87.063 C55.706,85.85 62.239,82.263 64.625,71.967 C64.627,71.961 55.337,66.729 57.311,56.688 Z" id="Shape" fill="#1684B6" fill-rule="nonzero"></path>
            <path d="M52.592,63.091 C55.176,61.869 59.205,58.565 62.676,49.624 C65.903,53.555 66.708,45.996 66.918,44.767 C67.641,40.506 65.272,38.132 63.298,42.299 C64.67,33.156 61.32,23.461 61.32,23.461 C56.247,33.381 44.195,37.889 37.922,39.713 C36.951,39.995 36.888,42.326 36.888,42.326 C34.912,38.159 32.353,40.533 33.076,44.794 C33.286,46.022 34.092,53.581 37.318,49.65 C37.318,49.65 39.199,61.184 47.991,63.465 C49.525,63.864 51.164,63.766 52.592,63.091" id="Shape" fill="#D8D8D8" fill-rule="nonzero"></path>
            <path d="M52.592,63.091 C55.176,61.869 59.205,58.565 62.676,49.624 C65.903,53.555 66.708,45.996 66.918,44.767 C67.641,40.506 65.272,38.132 63.298,42.299 C64.67,33.156 61.32,23.461 61.32,23.461 C56.247,33.381 44.195,37.889 37.922,39.713 C36.951,39.995 36.888,42.326 36.888,42.326 C34.912,38.159 32.353,40.533 33.076,44.794 C33.286,46.022 34.092,53.581 37.318,49.65 C37.318,49.65 39.199,61.184 47.991,63.465 C49.525,63.864 51.164,63.766 52.592,63.091 Z" id="Shape" stroke="#1684B6" stroke-width="1.25" stroke-linecap="round" stroke-linejoin="round"></path>
            <path d="M75.55,76.059 L64.627,71.881 C61.253,86.418 49.62,85.544 49.62,85.544 C36.714,85.398 35.374,72.13 35.374,72.13 L24.451,76.307 C18.375,78.257 15.55,81.141 14.233,83.456 C23.171,93.01 35.884,98.984 50,98.984 C64.161,98.984 76.912,92.967 85.854,83.363 C84.577,81.023 81.76,78.051 75.55,76.059" id="Shape" fill="#1684B6" fill-rule="nonzero"></path>
        </g>
    </g>
</svg>