<?xml version="1.0" encoding="UTF-8"?>
<svg width="40px" height="40px" viewBox="0 0 40 40" version="1.1" xmlns="http://www.w3.org/2000/svg" xmlns:xlink="http://www.w3.org/1999/xlink">
    <!-- Generator: Sketch 51.3 (57544) - http://www.bohemiancoding.com/sketch -->
    <title>avatar_3 copy</title>
    <desc>Created with Sketch.</desc>
    <defs></defs>
    <g id="Avatar_update" stroke="none" stroke-width="1" fill="none" fill-rule="evenodd">
        <g id="avatar_3-copy">
            <path d="M20,0.4056 C30.822,0.4056 39.5936,9.178 39.5936,19.9996 C39.5936,30.822 30.8204,39.5936 20,39.5936 C9.1784,39.5936 0.4056,30.8216 0.4056,19.9996 C0.4056,9.178 9.1784,0.4056 20,0.4056" id="Shape" fill="#D8D8D8" fill-rule="nonzero"></path>
            <path d="M20,40 C8.9724,40 0,31.0272 0,19.9996 C0,8.9716 8.9724,0 20,0 C31.0272,0 40,8.9716 40,19.9996 C40,31.0272 31.0272,40 20,40 Z M20,0.8108 C9.4192,0.8108 0.8108,9.4188 0.8108,19.9996 C0.8108,30.5812 9.4192,39.1892 20,39.1892 C30.5808,39.1892 39.1892,30.5808 39.1892,19.9996 C39.1892,9.4184 30.5808,0.8108 20,0.8108 Z" id="Shape" fill="#1684B6" fill-rule="nonzero"></path>
            <path d="M8.3688,27.2236 C8.3688,27.2236 11.706,27.0072 11.7488,24.1476 C11.7904,21.4228 7.7824,7.6516 18.1124,4.8144 C19.2388,4.5052 20.4128,4.4392 21.5628,4.6444 C23.1524,4.928 25.3616,5.6816 26.3084,7.6812 C26.3084,7.6812 28.4532,8.6108 28.4568,14.7564 C28.4576,15.7732 28.36,16.7896 28.192,17.792 C27.774,20.2904 27.15,26.6004 31.3788,27.224 C31.3788,27.224 30.8592,32.3368 19.874,32.2076 C19.874,32.2072 10.3188,33.2036 8.3688,27.2236" id="Shape" fill="#1684B6" fill-rule="nonzero"></path>
            <path d="M19.56,34.7812 C19.3688,34.7812 19.1776,34.7656 18.9916,34.7352 C15.316,34.1328 14.5432,29.9024 14.422,29.0204 C14.468,28.994 14.5132,28.9668 14.5568,28.9408 C15.9464,28.0868 16.8092,26.4964 16.8092,24.7856 L16.9276,23.35 L22.6196,22.9496 C22.128,26.402 24.8536,28.4368 25.5612,28.9032 C24.6048,32.7548 22.1508,34.1132 20.7588,34.582 C20.3644,34.714 19.9612,34.7812 19.56,34.7812" id="Shape" fill="#D8D8D8" fill-rule="nonzero"></path>
            <path d="M22.3324,23.2244 C22.0392,26.4188 24.3848,28.3876 25.272,29.012 C24.3152,32.618 21.9992,33.898 20.6784,34.3424 C20.3112,34.466 19.9352,34.5296 19.5612,34.5296 C19.3844,34.5296 19.2064,34.5144 19.0332,34.4868 C15.6776,33.936 14.866,30.2692 14.696,29.154 C16.1512,28.2592 17.0568,26.5952 17.064,24.8084 L17.164,23.5904 L22.3324,23.2244 Z M17.0628,24.7856 L17.0652,24.7856 L17.0628,24.7856 Z M22.9244,22.6752 L22.926,22.6752 L22.9244,22.6752 Z M22.9244,22.6752 L16.6932,23.114 L16.556,24.7868 C16.556,26.3756 15.7784,27.8944 14.4244,28.7256 C14.3364,28.7804 14.2452,28.8328 14.1496,28.884 C14.1496,28.884 14.6224,34.2772 18.95,34.9876 C19.1524,35.0208 19.3564,35.0372 19.5596,35.0372 C19.9932,35.0372 20.4252,34.9624 20.8384,34.8252 C22.2824,34.34 24.8956,32.9052 25.85,28.7868 C25.8508,28.7844 22.1348,26.6916 22.9244,22.6752 Z" id="Shape" fill="#1684B6" fill-rule="nonzero"></path>
            <path d="M21.0368,25.2364 C22.0704,24.7476 23.682,23.426 25.0704,19.8496 C26.3612,21.422 26.6832,18.3984 26.7672,17.9068 C27.0564,16.2024 26.1088,15.2528 25.3192,16.9196 C25.868,13.2624 24.528,9.3844 24.528,9.3844 C22.4988,13.3524 17.678,15.1556 15.1688,15.8852 C14.7804,15.998 14.7552,16.9304 14.7552,16.9304 C13.9648,15.2636 12.9412,16.2132 13.2304,17.9176 C13.3144,18.4088 13.6368,21.4324 14.9272,19.86 C14.9272,19.86 15.6796,24.4736 19.1964,25.386 C19.81,25.5456 20.4656,25.5064 21.0368,25.2364" id="Shape" fill="#D8D8D8" fill-rule="nonzero"></path>
            <path d="M21.0368,25.2364 C22.0704,24.7476 23.682,23.426 25.0704,19.8496 C26.3612,21.422 26.6832,18.3984 26.7672,17.9068 C27.0564,16.2024 26.1088,15.2528 25.3192,16.9196 C25.868,13.2624 24.528,9.3844 24.528,9.3844 C22.4988,13.3524 17.678,15.1556 15.1688,15.8852 C14.7804,15.998 14.7552,16.9304 14.7552,16.9304 C13.9648,15.2636 12.9412,16.2132 13.2304,17.9176 C13.3144,18.4088 13.6368,21.4324 14.9272,19.86 C14.9272,19.86 15.6796,24.4736 19.1964,25.386 C19.81,25.5456 20.4656,25.5064 21.0368,25.2364 Z" id="Shape" stroke="#1684B6" stroke-width="1.25" stroke-linecap="round" stroke-linejoin="round"></path>
            <path d="M30.22,30.4236 L25.8508,28.7524 C24.5012,34.5672 19.848,34.2176 19.848,34.2176 C14.6856,34.1592 14.1496,28.852 14.1496,28.852 L9.7804,30.5228 C7.35,31.3028 6.22,32.4564 5.6932,33.3824 C9.2684,37.204 14.3536,39.5936 20,39.5936 C25.6644,39.5936 30.7648,37.1868 34.3416,33.3452 C33.8308,32.4092 32.704,31.2204 30.22,30.4236" id="Shape" fill="#1684B6" fill-rule="nonzero"></path>
        </g>
    </g>
</svg>