<?xml version="1.0" encoding="UTF-8"?>
<svg width="40px" height="40px" viewBox="0 0 40 40" version="1.1" xmlns="http://www.w3.org/2000/svg" xmlns:xlink="http://www.w3.org/1999/xlink">
    <!-- Generator: Sketch 51.3 (57544) - http://www.bohemiancoding.com/sketch -->
    <title>avatar_1</title>
    <desc>Created with Sketch.</desc>
    <defs></defs>
    <g id="Avatar_update" stroke="none" stroke-width="1" fill="none" fill-rule="evenodd">
        <g id="avatar_1" fill-rule="nonzero">
            <circle id="Oval" fill="#D8D9D8" cx="20" cy="20" r="19.608"></circle>
            <path d="M20,40 C8.972,40 0,31.0272 0,20 C0,8.972 8.972,0 20,0 C31.028,0 40,8.972 40,20 C40,31.0272 31.028,40 20,40 Z M20,0.784 C9.4044,0.784 0.7844,9.4044 0.7844,20 C0.7844,30.5952 9.4044,39.2156 20,39.2156 C30.5952,39.2156 39.2156,30.5952 39.2156,20 C39.2156,9.4044 30.5952,0.784 20,0.784 Z" id="Shape" fill="#1A85B7"></path>
            <path d="M35.102,32.3816 C33.3936,29.9876 29.7828,29.7844 27.0624,28.6476 C24.5052,27.5904 23.4488,24.8724 23.328,23.2068 C25.5196,21.5004 27.428,18.2936 27.428,14.6404 C27.428,9.1604 24.1,5.1416 20,5.1416 C15.9,5.1416 12.5716,9.1608 12.5716,14.6408 C12.5716,18.3352 14.48,21.5008 16.712,23.2472 C16.5512,24.8724 15.4944,27.6324 12.9776,28.6872 C10.2172,29.8252 6.6436,30.0268 4.9408,32.4212" id="Shape" fill="#D8D9D8"></path>
            <path d="M35.3868,32.1784 C34.1252,30.4096 31.9256,29.7812 29.7972,29.1732 C28.9148,28.9212 28.002,28.6608 27.196,28.3236 C24.7604,27.3164 23.8536,24.7576 23.6944,23.3624 C25.588,21.816 27.778,18.6208 27.778,14.6412 C27.778,9.1184 24.3616,4.792 20,4.792 C15.6384,4.792 12.2216,9.1184 12.2216,14.6412 C12.2216,18.6168 14.3412,21.7636 16.3408,23.3992 C16.1444,24.8064 15.1984,27.3772 12.8436,28.3636 C12.0404,28.6948 11.1412,28.952 10.2508,29.206 C8.1208,29.814 5.9184,30.4424 4.6556,32.218 C4.6012,32.294 4.58,32.3872 4.5956,32.4796 C4.6112,32.5716 4.662,32.6528 4.738,32.7064 C4.7968,32.7488 4.8672,32.7712 4.9404,32.7712 C5.054,32.7712 5.1608,32.716 5.2256,32.624 C6.346,31.0484 8.3348,30.4812 10.4432,29.8792 C11.3384,29.624 12.2636,29.36 13.1124,29.01 C15.902,27.8412 16.9144,24.752 17.06,23.282 C17.0716,23.1612 17.022,23.0452 16.9272,22.972 C14.9904,21.4568 12.9212,18.4724 12.9212,14.6412 C12.9212,9.5108 16.0304,5.4924 19.9996,5.4924 C23.9688,5.4924 27.0776,9.5108 27.0776,14.6412 C27.0776,18.4812 24.942,21.5068 23.1128,22.9312 C23.0204,23.004 22.97,23.1164 22.9788,23.2316 C23.126,25.2704 24.4244,27.936 26.9268,28.9708 C27.7772,29.3256 28.7064,29.5908 29.6064,29.8472 C31.6172,30.422 33.6972,31.016 34.8164,32.5852 C34.9248,32.7368 35.1544,32.7756 35.3048,32.6664 C35.4624,32.5548 35.4988,32.3356 35.3868,32.1784 Z" id="Shape" fill="#1A85B7"></path>
        </g>
    </g>
</svg>