<?xml version="1.0" encoding="UTF-8"?>
<svg width="100px" height="100px" viewBox="0 0 100 100" version="1.1" xmlns="http://www.w3.org/2000/svg" xmlns:xlink="http://www.w3.org/1999/xlink">
    <!-- Generator: Sketch 51.3 (57544) - http://www.bohemiancoding.com/sketch -->
    <title>avatar_2 copy</title>
    <desc>Created with Sketch.</desc>
    <defs></defs>
    <g id="Avatar_update" stroke="none" stroke-width="1" fill="none" fill-rule="evenodd">
        <g id="avatar_2-copy" fill-rule="nonzero">
            <path d="M50,1.014 C77.055,1.014 98.986,22.946 98.986,49.999 C98.986,77.055 77.054,98.986 50,98.986 C22.945,98.986 1.014,77.054 1.014,49.999 C1.014,22.945 22.945,1.014 50,1.014" id="Shape" fill="#D8D8D8"></path>
            <path d="M50,100 C22.43,100 0,77.568 0,49.999 C0,22.429 22.431,0 50,0 C77.568,0 100,22.429 100,49.999 C100,77.568 77.568,100 50,100 Z M50,2.027 C23.548,2.027 2.028,23.547 2.028,49.999 C2.028,76.452 23.549,97.973 50,97.973 C76.452,97.973 97.973,76.452 97.973,49.999 C97.973,23.546 76.452,2.027 50,2.027 Z" id="Shape" fill="#1684B6"></path>
            <path d="M50.92,63.884 C49.401,63.884 47.919,63.598 46.513,63.028 C42.68,61.475 37.778,57.944 35.694,49.937 C35.361,50.171 34.944,50.354 34.459,50.354 C33.216,50.354 32.187,49.212 31.31,46.867 C31.168,46.54 27.576,38.119 31.995,35.957 C32.034,35.937 32.076,35.922 32.12,35.911 C32.15,35.903 32.436,35.835 32.854,35.835 C33.397,35.835 34.479,35.964 35.436,36.854 C35.552,32.814 36.157,25.121 39.064,24.152 C39.128,24.13 39.195,24.119 39.264,24.119 C39.387,24.119 51.637,24.161 63.637,27.734 C63.835,27.793 63.995,27.948 64.057,28.146 C64.145,28.409 65.745,33.411 66.533,37.774 C67.026,36.845 67.796,36.07 68.985,36.07 C69.598,36.07 70.264,36.289 70.964,36.723 C70.993,36.742 71.024,36.761 71.047,36.784 C73.434,38.856 71.041,45.154 70.761,45.866 C69.8,49.173 68.444,50.879 66.742,50.879 C66.263,50.879 65.836,50.732 65.488,50.55 C64.956,53.345 62.792,60.691 54.579,63.316 C53.387,63.691 52.156,63.884 50.92,63.884" id="Shape" fill="#D8D8D8"></path>
            <path d="M39.263,24.751 C39.263,24.751 51.407,24.751 63.454,28.338 C63.454,28.338 66.027,36.341 66.307,40.94 C66.307,40.94 66.624,36.703 68.987,36.703 C69.451,36.703 69.996,36.867 70.632,37.261 C72.746,39.1 70.172,45.632 70.172,45.632 C69.095,49.335 67.776,50.244 66.744,50.244 C65.752,50.244 65.02,49.403 65.02,49.403 C65.02,49.403 64.274,59.547 54.387,62.708 C53.254,63.068 52.085,63.251 50.92,63.251 C49.504,63.251 48.09,62.98 46.753,62.441 C43.072,60.948 37.916,57.34 36.045,48.667 C36.045,48.667 35.39,49.72 34.46,49.72 C33.719,49.72 32.804,49.051 31.905,46.644 C31.905,46.644 28.347,38.447 32.273,36.525 C32.273,36.525 32.502,36.468 32.855,36.468 C33.686,36.468 35.206,36.785 36.045,38.917 C36.043,38.916 35.951,25.856 39.263,24.751 M39.263,23.484 C39.127,23.484 38.992,23.505 38.862,23.549 C35.877,24.544 35.041,30.948 34.836,35.665 C34.046,35.273 33.296,35.201 32.855,35.201 C32.383,35.201 32.055,35.274 31.966,35.295 C31.88,35.317 31.797,35.348 31.716,35.386 C26.893,37.745 30.259,46.024 30.73,47.117 C31.1,48.11 32.196,50.986 34.459,50.986 C34.758,50.986 35.036,50.933 35.289,50.847 C37.543,58.578 42.429,62.056 46.276,63.614 C47.756,64.216 49.319,64.517 50.92,64.517 C52.221,64.517 53.518,64.314 54.772,63.913 C62.637,61.398 65.168,54.715 65.95,51.406 C66.196,51.468 66.461,51.51 66.744,51.51 C68.748,51.51 70.306,49.67 71.372,46.041 C71.897,44.69 74.083,38.583 71.463,36.305 C71.412,36.26 71.359,36.22 71.299,36.183 C70.498,35.687 69.719,35.435 68.987,35.435 C68.126,35.435 67.432,35.76 66.883,36.269 C66.037,32.25 64.739,28.187 64.663,27.95 C64.534,27.553 64.218,27.243 63.816,27.124 C51.729,23.525 39.767,23.484 39.263,23.484" id="Shape" fill="#1684B6"></path>
            <path d="M50.945,11.507 C25.282,10.861 32.18,35.513 32.18,35.513 L32.483,36.49 C33.122,36.412 35.055,36.406 36.045,38.916 C36.045,38.916 35.953,25.855 39.264,24.751 C39.264,24.751 50,31.243 63.454,28.339 C63.454,28.339 66.029,36.341 66.307,40.94 C66.307,40.94 66.612,36.932 68.796,36.712 L68.796,24.522 C68.795,24.522 69.627,11.875 50.945,11.507" id="Shape" fill="#1684B6"></path>
            <path d="M50.275,77.652 C42.661,77.652 36.67,71.503 34.918,69.5 C37.821,67.646 38.697,60.643 38.958,57.081 C41.355,60.4 44.314,62.135 46.513,63.025 C47.918,63.595 49.401,63.881 50.92,63.881 C52.154,63.881 53.387,63.689 54.577,63.31 C57.515,62.371 59.939,60.763 61.81,58.521 C61.597,61.435 61.882,66.064 65.187,69.072 C60.521,74.768 55.509,77.652 50.275,77.652 Z" id="Shape" fill="#D8D8D8"></path>
            <path d="M39.44,58.712 C41.712,61.348 44.293,62.811 46.275,63.613 C47.755,64.215 49.318,64.519 50.917,64.519 C52.221,64.519 53.516,64.314 54.771,63.915 C57.249,63.123 59.375,61.872 61.127,60.184 C61.159,62.979 61.797,66.518 64.322,69.122 C59.889,74.362 55.169,77.02 50.272,77.02 C43.484,77.02 37.983,71.897 35.854,69.592 C37.26,68.323 38.283,65.848 38.962,62.106 C39.18,60.921 39.333,59.749 39.44,58.712 Z M38.429,55.085 C38.428,55.087 38.428,55.087 38.429,55.089 L38.429,55.085 Z M38.429,55.089 C38.422,55.32 38.047,68.244 33.896,69.262 C33.896,69.262 40.808,78.286 50.273,78.286 C55.07,78.286 60.523,75.973 66.066,68.989 C60.693,64.734 62.812,55.982 62.812,55.982 C61.285,58.603 58.708,61.323 54.38,62.707 C53.249,63.066 52.079,63.25 50.913,63.25 C49.498,63.25 48.085,62.979 46.746,62.439 C44.154,61.387 40.824,59.281 38.429,55.089 Z" id="Shape" fill="#1684B6"></path>
            <path d="M78.082,73.587 L66.068,68.991 C49.581,89.748 33.897,69.262 33.897,69.262 L21.883,73.86 C16.54,75.576 13.484,78.147 11.733,80.567 C20.709,91.79 34.51,98.988 50,98.988 C65.539,98.988 79.378,91.744 88.354,80.458 C86.62,77.991 83.549,75.339 78.082,73.587" id="Shape" fill="#1684B6"></path>
        </g>
    </g>
</svg>