<?xml version="1.0" encoding="UTF-8"?>
<svg width="84px" height="84px" viewBox="0 0 84 84" version="1.1" xmlns="http://www.w3.org/2000/svg" xmlns:xlink="http://www.w3.org/1999/xlink">
    <!-- Generator: Sketch 51.3 (57544) - http://www.bohemiancoding.com/sketch -->
    <title>Group 4</title>
    <desc>Created with Sketch.</desc>
    <defs></defs>
    <g id="Avatar_update" stroke="none" stroke-width="1" fill="none" fill-rule="evenodd">
        <g id="My-Dashboard_avatar-change" transform="translate(-208.000000, -148.000000)">
            <g id="Group-4" transform="translate(210.000000, 150.000000)">
                <g id="avatar_3">
                    <path d="M40,0.8112 C61.644,0.8112 79.1872,18.356 79.1872,39.9992 C79.1872,61.644 61.6408,79.1872 40,79.1872 C18.3568,79.1872 0.8112,61.6432 0.8112,39.9992 C0.8112,18.356 18.3568,0.8112 40,0.8112" id="Shape" fill="#D8D8D8" fill-rule="nonzero"></path>
                    <path d="M40,80 C17.9448,80 0,62.0544 0,39.9992 C0,17.9432 17.9448,0 40,0 C62.0544,0 80,17.9432 80,39.9992 C80,62.0544 62.0544,80 40,80 Z M40,1.6216 C18.8384,1.6216 1.6216,18.8376 1.6216,39.9992 C1.6216,61.1624 18.8384,78.3784 40,78.3784 C61.1616,78.3784 78.3784,61.1616 78.3784,39.9992 C78.3784,18.8368 61.1616,1.6216 40,1.6216 Z" id="Shape" fill="#1684B6" fill-rule="nonzero"></path>
                    <path d="M16.7376,54.4472 C16.7376,54.4472 23.412,54.0144 23.4976,48.2952 C23.5808,42.8456 15.5648,15.3032 36.2248,9.6288 C38.4776,9.0104 40.8256,8.8784 43.1256,9.2888 C46.3048,9.856 50.7232,11.3632 52.6168,15.3624 C52.6168,15.3624 56.9064,17.2216 56.9136,29.5128 C56.9152,31.5464 56.72,33.5792 56.384,35.584 C55.548,40.5808 54.3,53.2008 62.7576,54.448 C62.7576,54.448 61.7184,64.6736 39.748,64.4152 C39.748,64.4144 20.6376,66.4072 16.7376,54.4472" id="Shape" fill="#1684B6" fill-rule="nonzero"></path>
                    <path d="M39.12,69.5624 C38.7376,69.5624 38.3552,69.5312 37.9832,69.4704 C30.632,68.2656 29.0864,59.8048 28.844,58.0408 C28.936,57.988 29.0264,57.9336 29.1136,57.8816 C31.8928,56.1736 33.6184,52.9928 33.6184,49.5712 L33.8552,46.7 L45.2392,45.8992 C44.256,52.804 49.7072,56.8736 51.1224,57.8064 C49.2096,65.5096 44.3016,68.2264 41.5176,69.164 C40.7288,69.428 39.9224,69.5624 39.12,69.5624" id="Shape" fill="#D8D8D8" fill-rule="nonzero"></path>
                    <path d="M44.6648,46.4488 C44.0784,52.8376 48.7696,56.7752 50.544,58.024 C48.6304,65.236 43.9984,67.796 41.3568,68.6848 C40.6224,68.932 39.8704,69.0592 39.1224,69.0592 C38.7688,69.0592 38.4128,69.0288 38.0664,68.9736 C31.3552,67.872 29.732,60.5384 29.392,58.308 C32.3024,56.5184 34.1136,53.1904 34.128,49.6168 L34.328,47.1808 L44.6648,46.4488 Z M34.1256,49.5712 L34.1304,49.5712 L34.1256,49.5712 Z M45.8488,45.3504 L45.852,45.3504 L45.8488,45.3504 Z M45.8488,45.3504 L33.3864,46.228 L33.112,49.5736 C33.112,52.7512 31.5568,55.7888 28.8488,57.4512 C28.6728,57.5608 28.4904,57.6656 28.2992,57.768 C28.2992,57.768 29.2448,68.5544 37.9,69.9752 C38.3048,70.0416 38.7128,70.0744 39.1192,70.0744 C39.9864,70.0744 40.8504,69.9248 41.6768,69.6504 C44.5648,68.68 49.7912,65.8104 51.7,57.5736 C51.7016,57.5688 44.2696,53.3832 45.8488,45.3504 Z" id="Shape" fill="#1684B6" fill-rule="nonzero"></path>
                    <path d="M42.0736,50.4728 C44.1408,49.4952 47.364,46.852 50.1408,39.6992 C52.7224,42.844 53.3664,36.7968 53.5344,35.8136 C54.1128,32.4048 52.2176,30.5056 50.6384,33.8392 C51.736,26.5248 49.056,18.7688 49.056,18.7688 C44.9976,26.7048 35.356,30.3112 30.3376,31.7704 C29.5608,31.996 29.5104,33.8608 29.5104,33.8608 C27.9296,30.5272 25.8824,32.4264 26.4608,35.8352 C26.6288,36.8176 27.2736,42.8648 29.8544,39.72 C29.8544,39.72 31.3592,48.9472 38.3928,50.772 C39.62,51.0912 40.9312,51.0128 42.0736,50.4728" id="Shape" fill="#D8D8D8" fill-rule="nonzero"></path>
                    <path d="M42.0736,50.4728 C44.1408,49.4952 47.364,46.852 50.1408,39.6992 C52.7224,42.844 53.3664,36.7968 53.5344,35.8136 C54.1128,32.4048 52.2176,30.5056 50.6384,33.8392 C51.736,26.5248 49.056,18.7688 49.056,18.7688 C44.9976,26.7048 35.356,30.3112 30.3376,31.7704 C29.5608,31.996 29.5104,33.8608 29.5104,33.8608 C27.9296,30.5272 25.8824,32.4264 26.4608,35.8352 C26.6288,36.8176 27.2736,42.8648 29.8544,39.72 C29.8544,39.72 31.3592,48.9472 38.3928,50.772 C39.62,51.0912 40.9312,51.0128 42.0736,50.4728 Z" id="Shape" stroke="#1684B6" stroke-width="1.25" stroke-linecap="round" stroke-linejoin="round"></path>
                    <path d="M60.44,60.8472 L51.7016,57.5048 C49.0024,69.1344 39.696,68.4352 39.696,68.4352 C29.3712,68.3184 28.2992,57.704 28.2992,57.704 L19.5608,61.0456 C14.7,62.6056 12.44,64.9128 11.3864,66.7648 C18.5368,74.408 28.7072,79.1872 40,79.1872 C51.3288,79.1872 61.5296,74.3736 68.6832,66.6904 C67.6616,64.8184 65.408,62.4408 60.44,60.8472" id="Shape" fill="#1684B6" fill-rule="nonzero"></path>
                </g>
                <g id="Group">
                    <circle id="Oval" stroke="#FFC300" stroke-width="3.5" cx="40" cy="40" r="40"></circle>
                    <g id="Group-2" transform="translate(62.933333, 5.866667)">
                        <circle id="Oval-2" fill="#FFC300" cx="6.4" cy="6.4" r="6.4"></circle>
                        <polyline id="Path-2" stroke="#FFFFFF" stroke-width="2" stroke-linecap="round" points="2.66666667 5.70582345 5.76564961 8.88950979 10.6217775 4.26666667"></polyline>
                    </g>
                </g>
            </g>
        </g>
    </g>
</svg>