<?xml version="1.0" encoding="UTF-8"?>
<svg width="100px" height="100px" viewBox="0 0 100 100" version="1.1" xmlns="http://www.w3.org/2000/svg" xmlns:xlink="http://www.w3.org/1999/xlink">
    <!-- Generator: Sketch 51.3 (57544) - http://www.bohemiancoding.com/sketch -->
    <title>avatar_1</title>
    <desc>Created with Sketch.</desc>
    <defs></defs>
    <g id="Avatar_update" stroke="none" stroke-width="1" fill="none" fill-rule="evenodd">
        <g id="My-Dashboard_avatar" transform="translate(-110.000000, -100.000000)" fill-rule="nonzero">
            <g id="My-Dashboard">
                <g id="avatar_1" transform="translate(110.000000, 100.000000)">
                    <circle id="Oval" fill="#D8D9D8" cx="50" cy="50" r="49.02"></circle>
                    <path d="M50,100 C22.43,100 0,77.568 0,50 C0,22.43 22.43,0 50,0 C77.57,0 100,22.43 100,50 C100,77.568 77.57,100 50,100 Z M50,1.96 C23.511,1.96 1.961,23.511 1.961,50 C1.961,76.488 23.511,98.039 50,98.039 C76.488,98.039 98.039,76.488 98.039,50 C98.039,23.511 76.488,1.96 50,1.96 Z" id="Shape" fill="#1A85B7"></path>
                    <path d="M87.755,80.954 C83.484,74.969 74.457,74.461 67.656,71.619 C61.263,68.976 58.622,62.181 58.32,58.017 C63.799,53.751 68.57,45.734 68.57,36.601 C68.57,22.901 60.25,12.854 50,12.854 C39.75,12.854 31.429,22.902 31.429,36.602 C31.429,45.838 36.2,53.752 41.78,58.118 C41.378,62.181 38.736,69.081 32.444,71.718 C25.543,74.563 16.609,75.067 12.352,81.053" id="Shape" fill="#D8D9D8"></path>
                    <path d="M88.467,80.446 C85.313,76.024 79.814,74.453 74.493,72.933 C72.287,72.303 70.005,71.652 67.99,70.809 C61.901,68.291 59.634,61.894 59.236,58.406 C63.97,54.54 69.445,46.552 69.445,36.603 C69.445,22.796 60.904,11.98 50,11.98 C39.096,11.98 30.554,22.796 30.554,36.603 C30.554,46.542 35.853,54.409 40.852,58.498 C40.361,62.016 37.996,68.443 32.109,70.909 C30.101,71.737 27.853,72.38 25.627,73.015 C20.302,74.535 14.796,76.106 11.639,80.545 C11.503,80.735 11.45,80.968 11.489,81.199 C11.528,81.429 11.655,81.632 11.845,81.766 C11.992,81.872 12.168,81.928 12.351,81.928 C12.635,81.928 12.902,81.79 13.064,81.56 C15.865,77.621 20.837,76.203 26.108,74.698 C28.346,74.06 30.659,73.4 32.781,72.525 C39.755,69.603 42.286,61.88 42.65,58.205 C42.679,57.903 42.555,57.613 42.318,57.43 C37.476,53.642 32.303,46.181 32.303,36.603 C32.303,23.777 40.076,13.731 49.999,13.731 C59.922,13.731 67.694,23.777 67.694,36.603 C67.694,46.203 62.355,53.767 57.782,57.328 C57.551,57.51 57.425,57.791 57.447,58.079 C57.815,63.176 61.061,69.84 67.317,72.427 C69.443,73.314 71.766,73.977 74.016,74.618 C79.043,76.055 84.243,77.54 87.041,81.463 C87.312,81.842 87.886,81.939 88.262,81.666 C88.656,81.387 88.747,80.839 88.467,80.446 Z" id="Shape" fill="#1A85B7"></path>
                </g>
            </g>
        </g>
    </g>
</svg>