<?xml version="1.0" encoding="UTF-8"?>
<svg width="84px" height="84px" viewBox="0 0 84 84" version="1.1" xmlns="http://www.w3.org/2000/svg" xmlns:xlink="http://www.w3.org/1999/xlink">
    <!-- Generator: Sketch 51.3 (57544) - http://www.bohemiancoding.com/sketch -->
    <title>Group 4</title>
    <desc>Created with Sketch.</desc>
    <defs></defs>
    <g id="Avatar_update" stroke="none" stroke-width="1" fill="none" fill-rule="evenodd">
        <g id="My-Dashboard_avatar-change" transform="translate(-118.000000, -148.000000)">
            <g id="Group-4" transform="translate(120.000000, 150.000000)">
                <g id="avatar_2" fill-rule="nonzero">
                    <path d="M40,0.8112 C61.644,0.8112 79.1888,18.3568 79.1888,39.9992 C79.1888,61.644 61.6432,79.1888 40,79.1888 C18.356,79.1888 0.8112,61.6432 0.8112,39.9992 C0.8112,18.356 18.356,0.8112 40,0.8112" id="Shape" fill="#D8D8D8"></path>
                    <path d="M40,80 C17.944,80 0,62.0544 0,39.9992 C0,17.9432 17.9448,0 40,0 C62.0544,0 80,17.9432 80,39.9992 C80,62.0544 62.0544,80 40,80 Z M40,1.6216 C18.8384,1.6216 1.6224,18.8376 1.6224,39.9992 C1.6224,61.1616 18.8392,78.3784 40,78.3784 C61.1616,78.3784 78.3784,61.1616 78.3784,39.9992 C78.3784,18.8368 61.1616,1.6216 40,1.6216 Z" id="Shape" fill="#1684B6"></path>
                    <path d="M40.736,51.1072 C39.5208,51.1072 38.3352,50.8784 37.2104,50.4224 C34.144,49.18 30.2224,46.3552 28.5552,39.9496 C28.2888,40.1368 27.9552,40.2832 27.5672,40.2832 C26.5728,40.2832 25.7496,39.3696 25.048,37.4936 C24.9344,37.232 22.0608,30.4952 25.596,28.7656 C25.6272,28.7496 25.6608,28.7376 25.696,28.7288 C25.72,28.7224 25.9488,28.668 26.2832,28.668 C26.7176,28.668 27.5832,28.7712 28.3488,29.4832 C28.4416,26.2512 28.9256,20.0968 31.2512,19.3216 C31.3024,19.304 31.356,19.2952 31.4112,19.2952 C31.5096,19.2952 41.3096,19.3288 50.9096,22.1872 C51.068,22.2344 51.196,22.3584 51.2456,22.5168 C51.316,22.7272 52.596,26.7288 53.2264,30.2192 C53.6208,29.476 54.2368,28.856 55.188,28.856 C55.6784,28.856 56.2112,29.0312 56.7712,29.3784 C56.7944,29.3936 56.8192,29.4088 56.8376,29.4272 C58.7472,31.0848 56.8328,36.1232 56.6088,36.6928 C55.84,39.3384 54.7552,40.7032 53.3936,40.7032 C53.0104,40.7032 52.6688,40.5856 52.3904,40.44 C51.9648,42.676 50.2336,48.5528 43.6632,50.6528 C42.7096,50.9528 41.7248,51.1072 40.736,51.1072" id="Shape" fill="#D8D8D8"></path>
                    <path d="M31.4104,19.8008 C31.4104,19.8008 41.1256,19.8008 50.7632,22.6704 C50.7632,22.6704 52.8216,29.0728 53.0456,32.752 C53.0456,32.752 53.2992,29.3624 55.1896,29.3624 C55.5608,29.3624 55.9968,29.4936 56.5056,29.8088 C58.1968,31.28 56.1376,36.5056 56.1376,36.5056 C55.276,39.468 54.2208,40.1952 53.3952,40.1952 C52.6016,40.1952 52.016,39.5224 52.016,39.5224 C52.016,39.5224 51.4192,47.6376 43.5096,50.1664 C42.6032,50.4544 41.668,50.6008 40.736,50.6008 C39.6032,50.6008 38.472,50.384 37.4024,49.9528 C34.4576,48.7584 30.3328,45.872 28.836,38.9336 C28.836,38.9336 28.312,39.776 27.568,39.776 C26.9752,39.776 26.2432,39.2408 25.524,37.3152 C25.524,37.3152 22.6776,30.7576 25.8184,29.22 C25.8184,29.22 26.0016,29.1744 26.284,29.1744 C26.9488,29.1744 28.1648,29.428 28.836,31.1336 C28.8344,31.1328 28.7608,20.6848 31.4104,19.8008 M31.4104,18.7872 C31.3016,18.7872 31.1936,18.804 31.0896,18.8392 C28.7016,19.6352 28.0328,24.7584 27.8688,28.532 C27.2368,28.2184 26.6368,28.1608 26.284,28.1608 C25.9064,28.1608 25.644,28.2192 25.5728,28.236 C25.504,28.2536 25.4376,28.2784 25.3728,28.3088 C21.5144,30.196 24.2072,36.8192 24.584,37.6936 C24.88,38.488 25.7568,40.7888 27.5672,40.7888 C27.8064,40.7888 28.0288,40.7464 28.2312,40.6776 C30.0344,46.8624 33.9432,49.6448 37.0208,50.8912 C38.2048,51.3728 39.4552,51.6136 40.736,51.6136 C41.7768,51.6136 42.8144,51.4512 43.8176,51.1304 C50.1096,49.1184 52.1344,43.772 52.76,41.1248 C52.9568,41.1744 53.1688,41.208 53.3952,41.208 C54.9984,41.208 56.2448,39.736 57.0976,36.8328 C57.5176,35.752 59.2664,30.8664 57.1704,29.044 C57.1296,29.008 57.0872,28.976 57.0392,28.9464 C56.3984,28.5496 55.7752,28.348 55.1896,28.348 C54.5008,28.348 53.9456,28.608 53.5064,29.0152 C52.8296,25.8 51.7912,22.5496 51.7304,22.36 C51.6272,22.0424 51.3744,21.7944 51.0528,21.6992 C41.3832,18.82 31.8136,18.7872 31.4104,18.7872" id="Shape" fill="#1684B6"></path>
                    <path d="M40.756,9.2056 C20.2256,8.6888 25.744,28.4104 25.744,28.4104 L25.9864,29.192 C26.4976,29.1296 28.044,29.1248 28.836,31.1328 C28.836,31.1328 28.7624,20.684 31.4112,19.8008 C31.4112,19.8008 40,24.9944 50.7632,22.6712 C50.7632,22.6712 52.8232,29.0728 53.0456,32.752 C53.0456,32.752 53.2896,29.5456 55.0368,29.3696 L55.0368,19.6176 C55.036,19.6176 55.7016,9.5 40.756,9.2056" id="Shape" fill="#1684B6"></path>
                    <path d="M40.22,62.1216 C34.1288,62.1216 29.336,57.2024 27.9344,55.6 C30.2568,54.1168 30.9576,48.5144 31.1664,45.6648 C33.084,48.32 35.4512,49.708 37.2104,50.42 C38.3344,50.876 39.5208,51.1048 40.736,51.1048 C41.7232,51.1048 42.7096,50.9512 43.6616,50.648 C46.012,49.8968 47.9512,48.6104 49.448,46.8168 C49.2776,49.148 49.5056,52.8512 52.1496,55.2576 C48.4168,59.8144 44.4072,62.1216 40.22,62.1216 Z" id="Shape" fill="#D8D8D8"></path>
                    <path d="M31.552,46.9696 C33.3696,49.0784 35.4344,50.2488 37.02,50.8904 C38.204,51.372 39.4544,51.6152 40.7336,51.6152 C41.7768,51.6152 42.8128,51.4512 43.8168,51.132 C45.7992,50.4984 47.5,49.4976 48.9016,48.1472 C48.9272,50.3832 49.4376,53.2144 51.4576,55.2976 C47.9112,59.4896 44.1352,61.616 40.2176,61.616 C34.7872,61.616 30.3864,57.5176 28.6832,55.6736 C29.808,54.6584 30.6264,52.6784 31.1696,49.6848 C31.344,48.7368 31.4664,47.7992 31.552,46.9696 Z M30.7432,44.068 C30.7424,44.0696 30.7424,44.0696 30.7432,44.0712 L30.7432,44.068 Z M30.7432,44.0712 C30.7376,44.256 30.4376,54.5952 27.1168,55.4096 C27.1168,55.4096 32.6464,62.6288 40.2184,62.6288 C44.056,62.6288 48.4184,60.7784 52.8528,55.1912 C48.5544,51.7872 50.2496,44.7856 50.2496,44.7856 C49.028,46.8824 46.9664,49.0584 43.504,50.1656 C42.5992,50.4528 41.6632,50.6 40.7304,50.6 C39.5984,50.6 38.468,50.3832 37.3968,49.9512 C35.3232,49.1096 32.6592,47.4248 30.7432,44.0712 Z" id="Shape" fill="#1684B6"></path>
                    <path d="M62.4656,58.8696 L52.8544,55.1928 C39.6648,71.7984 27.1176,55.4096 27.1176,55.4096 L17.5064,59.088 C13.232,60.4608 10.7872,62.5176 9.3864,64.4536 C16.5672,73.432 27.608,79.1904 40,79.1904 C52.4312,79.1904 63.5024,73.3952 70.6832,64.3664 C69.296,62.3928 66.8392,60.2712 62.4656,58.8696" id="Shape" fill="#1684B6"></path>
                </g>
                <g id="Group">
                    <circle id="Oval" stroke="#FFC300" stroke-width="3.5" cx="40" cy="40" r="40"></circle>
                    <g id="Group-2" transform="translate(62.933333, 5.866667)">
                        <circle id="Oval-2" fill="#FFC300" cx="6.4" cy="6.4" r="6.4"></circle>
                        <polyline id="Path-2" stroke="#FFFFFF" stroke-width="2" stroke-linecap="round" points="2.66666667 5.70582345 5.76564961 8.88950979 10.6217775 4.26666667"></polyline>
                    </g>
                </g>
            </g>
        </g>
    </g>
</svg>