<?xml version="1.0" encoding="UTF-8"?>
<svg width="84px" height="84px" viewBox="0 0 84 84" version="1.1" xmlns="http://www.w3.org/2000/svg" xmlns:xlink="http://www.w3.org/1999/xlink">
    <!-- Generator: Sketch 51.3 (57544) - http://www.bohemiancoding.com/sketch -->
    <title>Group 4</title>
    <desc>Created with Sketch.</desc>
    <defs></defs>
    <g id="Avatar_update" stroke="none" stroke-width="1" fill="none" fill-rule="evenodd">
        <g id="My-Dashboard_avatar-change" transform="translate(-28.000000, -148.000000)">
            <g id="Group-4" transform="translate(30.000000, 150.000000)">
                <g id="avatar_1" fill-rule="nonzero">
                    <circle id="Oval" fill="#D8D9D8" cx="40" cy="40" r="39.216"></circle>
                    <path d="M40,80 C17.944,80 0,62.0544 0,40 C0,17.944 17.944,0 40,0 C62.056,0 80,17.944 80,40 C80,62.0544 62.056,80 40,80 Z M40,1.568 C18.8088,1.568 1.5688,18.8088 1.5688,40 C1.5688,61.1904 18.8088,78.4312 40,78.4312 C61.1904,78.4312 78.4312,61.1904 78.4312,40 C78.4312,18.8088 61.1904,1.568 40,1.568 Z" id="Shape" fill="#1A85B7"></path>
                    <path d="M70.204,64.7632 C66.7872,59.9752 59.5656,59.5688 54.1248,57.2952 C49.0104,55.1808 46.8976,49.7448 46.656,46.4136 C51.0392,43.0008 54.856,36.5872 54.856,29.2808 C54.856,18.3208 48.2,10.2832 40,10.2832 C31.8,10.2832 25.1432,18.3216 25.1432,29.2816 C25.1432,36.6704 28.96,43.0016 33.424,46.4944 C33.1024,49.7448 30.9888,55.2648 25.9552,57.3744 C20.4344,59.6504 13.2872,60.0536 9.8816,64.8424" id="Shape" fill="#D8D9D8"></path>
                    <path d="M70.7736,64.3568 C68.2504,60.8192 63.8512,59.5624 59.5944,58.3464 C57.8296,57.8424 56.004,57.3216 54.392,56.6472 C49.5208,54.6328 47.7072,49.5152 47.3888,46.7248 C51.176,43.632 55.556,37.2416 55.556,29.2824 C55.556,18.2368 48.7232,9.584 40,9.584 C31.2768,9.584 24.4432,18.2368 24.4432,29.2824 C24.4432,37.2336 28.6824,43.5272 32.6816,46.7984 C32.2888,49.6128 30.3968,54.7544 25.6872,56.7272 C24.0808,57.3896 22.2824,57.904 20.5016,58.412 C16.2416,59.628 11.8368,60.8848 9.3112,64.436 C9.2024,64.588 9.16,64.7744 9.1912,64.9592 C9.2224,65.1432 9.324,65.3056 9.476,65.4128 C9.5936,65.4976 9.7344,65.5424 9.8808,65.5424 C10.108,65.5424 10.3216,65.432 10.4512,65.248 C12.692,62.0968 16.6696,60.9624 20.8864,59.7584 C22.6768,59.248 24.5272,58.72 26.2248,58.02 C31.804,55.6824 33.8288,49.504 34.12,46.564 C34.1432,46.3224 34.044,46.0904 33.8544,45.944 C29.9808,42.9136 25.8424,36.9448 25.8424,29.2824 C25.8424,19.0216 32.0608,10.9848 39.9992,10.9848 C47.9376,10.9848 54.1552,19.0216 54.1552,29.2824 C54.1552,36.9624 49.884,43.0136 46.2256,45.8624 C46.0408,46.008 45.94,46.2328 45.9576,46.4632 C46.252,50.5408 48.8488,55.872 53.8536,57.9416 C55.5544,58.6512 57.4128,59.1816 59.2128,59.6944 C63.2344,60.844 67.3944,62.032 69.6328,65.1704 C69.8496,65.4736 70.3088,65.5512 70.6096,65.3328 C70.9248,65.1096 70.9976,64.6712 70.7736,64.3568 Z" id="Shape" fill="#1A85B7"></path>
                </g>
                <g id="Group">
                    <circle id="Oval" stroke="#FFC300" stroke-width="3.5" cx="40" cy="40" r="40"></circle>
                    <g id="Group-2" transform="translate(62.933333, 5.866667)">
                        <circle id="Oval-2" fill="#FFC300" cx="6.4" cy="6.4" r="6.4"></circle>
                        <polyline id="Path-2" stroke="#FFFFFF" stroke-width="2" stroke-linecap="round" points="2.66666667 5.70582345 5.76564961 8.88950979 10.6217775 4.26666667"></polyline>
                    </g>
                </g>
            </g>
        </g>
    </g>
</svg>