<?xml version="1.0" encoding="UTF-8"?>
<svg width="40px" height="40px" viewBox="0 0 40 40" version="1.1" xmlns="http://www.w3.org/2000/svg" xmlns:xlink="http://www.w3.org/1999/xlink">
    <!-- Generator: Sketch 51.3 (57544) - http://www.bohemiancoding.com/sketch -->
    <title>avatar_2 copy</title>
    <desc>Created with Sketch.</desc>
    <defs></defs>
    <g id="Avatar_update" stroke="none" stroke-width="1" fill="none" fill-rule="evenodd">
        <g id="avatar_2-copy" fill-rule="nonzero">
            <path d="M20,0.4056 C30.822,0.4056 39.5944,9.1784 39.5944,19.9996 C39.5944,30.822 30.8216,39.5944 20,39.5944 C9.178,39.5944 0.4056,30.8216 0.4056,19.9996 C0.4056,9.178 9.178,0.4056 20,0.4056" id="Shape" fill="#D8D8D8"></path>
            <path d="M20,40 C8.972,40 0,31.0272 0,19.9996 C0,8.9716 8.9724,0 20,0 C31.0272,0 40,8.9716 40,19.9996 C40,31.0272 31.0272,40 20,40 Z M20,0.8108 C9.4192,0.8108 0.8112,9.4188 0.8112,19.9996 C0.8112,30.5808 9.4196,39.1892 20,39.1892 C30.5808,39.1892 39.1892,30.5808 39.1892,19.9996 C39.1892,9.4184 30.5808,0.8108 20,0.8108 Z" id="Shape" fill="#1684B6"></path>
            <path d="M20.368,25.5536 C19.7604,25.5536 19.1676,25.4392 18.6052,25.2112 C17.072,24.59 15.1112,23.1776 14.2776,19.9748 C14.1444,20.0684 13.9776,20.1416 13.7836,20.1416 C13.2864,20.1416 12.8748,19.6848 12.524,18.7468 C12.4672,18.616 11.0304,15.2476 12.798,14.3828 C12.8136,14.3748 12.8304,14.3688 12.848,14.3644 C12.86,14.3612 12.9744,14.334 13.1416,14.334 C13.3588,14.334 13.7916,14.3856 14.1744,14.7416 C14.2208,13.1256 14.4628,10.0484 15.6256,9.6608 C15.6512,9.652 15.678,9.6476 15.7056,9.6476 C15.7548,9.6476 20.6548,9.6644 25.4548,11.0936 C25.534,11.1172 25.598,11.1792 25.6228,11.2584 C25.658,11.3636 26.298,13.3644 26.6132,15.1096 C26.8104,14.738 27.1184,14.428 27.594,14.428 C27.8392,14.428 28.1056,14.5156 28.3856,14.6892 C28.3972,14.6968 28.4096,14.7044 28.4188,14.7136 C29.3736,15.5424 28.4164,18.0616 28.3044,18.3464 C27.92,19.6692 27.3776,20.3516 26.6968,20.3516 C26.5052,20.3516 26.3344,20.2928 26.1952,20.22 C25.9824,21.338 25.1168,24.2764 21.8316,25.3264 C21.3548,25.4764 20.8624,25.5536 20.368,25.5536" id="Shape" fill="#D8D8D8"></path>
            <path d="M15.7052,9.9004 C15.7052,9.9004 20.5628,9.9004 25.3816,11.3352 C25.3816,11.3352 26.4108,14.5364 26.5228,16.376 C26.5228,16.376 26.6496,14.6812 27.5948,14.6812 C27.7804,14.6812 27.9984,14.7468 28.2528,14.9044 C29.0984,15.64 28.0688,18.2528 28.0688,18.2528 C27.638,19.734 27.1104,20.0976 26.6976,20.0976 C26.3008,20.0976 26.008,19.7612 26.008,19.7612 C26.008,19.7612 25.7096,23.8188 21.7548,25.0832 C21.3016,25.2272 20.834,25.3004 20.368,25.3004 C19.8016,25.3004 19.236,25.192 18.7012,24.9764 C17.2288,24.3792 15.1664,22.936 14.418,19.4668 C14.418,19.4668 14.156,19.888 13.784,19.888 C13.4876,19.888 13.1216,19.6204 12.762,18.6576 C12.762,18.6576 11.3388,15.3788 12.9092,14.61 C12.9092,14.61 13.0008,14.5872 13.142,14.5872 C13.4744,14.5872 14.0824,14.714 14.418,15.5668 C14.4172,15.5664 14.3804,10.3424 15.7052,9.9004 M15.7052,9.3936 C15.6508,9.3936 15.5968,9.402 15.5448,9.4196 C14.3508,9.8176 14.0164,12.3792 13.9344,14.266 C13.6184,14.1092 13.3184,14.0804 13.142,14.0804 C12.9532,14.0804 12.822,14.1096 12.7864,14.118 C12.752,14.1268 12.7188,14.1392 12.6864,14.1544 C10.7572,15.098 12.1036,18.4096 12.292,18.8468 C12.44,19.244 12.8784,20.3944 13.7836,20.3944 C13.9032,20.3944 14.0144,20.3732 14.1156,20.3388 C15.0172,23.4312 16.9716,24.8224 18.5104,25.4456 C19.1024,25.6864 19.7276,25.8068 20.368,25.8068 C20.8884,25.8068 21.4072,25.7256 21.9088,25.5652 C25.0548,24.5592 26.0672,21.886 26.38,20.5624 C26.4784,20.5872 26.5844,20.604 26.6976,20.604 C27.4992,20.604 28.1224,19.868 28.5488,18.4164 C28.7588,17.876 29.6332,15.4332 28.5852,14.522 C28.5648,14.504 28.5436,14.488 28.5196,14.4732 C28.1992,14.2748 27.8876,14.174 27.5948,14.174 C27.2504,14.174 26.9728,14.304 26.7532,14.5076 C26.4148,12.9 25.8956,11.2748 25.8652,11.18 C25.8136,11.0212 25.6872,10.8972 25.5264,10.8496 C20.6916,9.41 15.9068,9.3936 15.7052,9.3936" id="Shape" fill="#1684B6"></path>
            <path d="M20.378,4.6028 C10.1128,4.3444 12.872,14.2052 12.872,14.2052 L12.9932,14.596 C13.2488,14.5648 14.022,14.5624 14.418,15.5664 C14.418,15.5664 14.3812,10.342 15.7056,9.9004 C15.7056,9.9004 20,12.4972 25.3816,11.3356 C25.3816,11.3356 26.4116,14.5364 26.5228,16.376 C26.5228,16.376 26.6448,14.7728 27.5184,14.6848 L27.5184,9.8088 C27.518,9.8088 27.8508,4.75 20.378,4.6028" id="Shape" fill="#1684B6"></path>
            <path d="M20.11,31.0608 C17.0644,31.0608 14.668,28.6012 13.9672,27.8 C15.1284,27.0584 15.4788,24.2572 15.5832,22.8324 C16.542,24.16 17.7256,24.854 18.6052,25.21 C19.1672,25.438 19.7604,25.5524 20.368,25.5524 C20.8616,25.5524 21.3548,25.4756 21.8308,25.324 C23.006,24.9484 23.9756,24.3052 24.724,23.4084 C24.6388,24.574 24.7528,26.4256 26.0748,27.6288 C24.2084,29.9072 22.2036,31.0608 20.11,31.0608 Z" id="Shape" fill="#D8D8D8"></path>
            <path d="M15.776,23.4848 C16.6848,24.5392 17.7172,25.1244 18.51,25.4452 C19.102,25.686 19.7272,25.8076 20.3668,25.8076 C20.8884,25.8076 21.4064,25.7256 21.9084,25.566 C22.8996,25.2492 23.75,24.7488 24.4508,24.0736 C24.4636,25.1916 24.7188,26.6072 25.7288,27.6488 C23.9556,29.7448 22.0676,30.808 20.1088,30.808 C17.3936,30.808 15.1932,28.7588 14.3416,27.8368 C14.904,27.3292 15.3132,26.3392 15.5848,24.8424 C15.672,24.3684 15.7332,23.8996 15.776,23.4848 Z M15.3716,22.034 C15.3712,22.0348 15.3712,22.0348 15.3716,22.0356 L15.3716,22.034 Z M15.3716,22.0356 C15.3688,22.128 15.2188,27.2976 13.5584,27.7048 C13.5584,27.7048 16.3232,31.3144 20.1092,31.3144 C22.028,31.3144 24.2092,30.3892 26.4264,27.5956 C24.2772,25.8936 25.1248,22.3928 25.1248,22.3928 C24.514,23.4412 23.4832,24.5292 21.752,25.0828 C21.2996,25.2264 20.8316,25.3 20.3652,25.3 C19.7992,25.3 19.234,25.1916 18.6984,24.9756 C17.6616,24.5548 16.3296,23.7124 15.3716,22.0356 Z" id="Shape" fill="#1684B6"></path>
            <path d="M31.2328,29.4348 L26.4272,27.5964 C19.8324,35.8992 13.5588,27.7048 13.5588,27.7048 L8.7532,29.544 C6.616,30.2304 5.3936,31.2588 4.6932,32.2268 C8.2836,36.716 13.804,39.5952 20,39.5952 C26.2156,39.5952 31.7512,36.6976 35.3416,32.1832 C34.648,31.1964 33.4196,30.1356 31.2328,29.4348" id="Shape" fill="#1684B6"></path>
        </g>
    </g>
</svg>