<?xml version="1.0" encoding="UTF-8"?>
<svg width="30px" height="30px" viewBox="0 0 30 30" version="1.1" xmlns="http://www.w3.org/2000/svg" xmlns:xlink="http://www.w3.org/1999/xlink">
    <!-- Generator: Sketch 50.2 (55047) - http://www.bohemiancoding.com/sketch -->
    <title>Group 20</title>
    <desc>Created with Sketch.</desc>
    <defs></defs>
    <g id="Page-1" stroke="none" stroke-width="1" fill="none" fill-rule="evenodd">
        <g id="Landing-Page-C" transform="translate(-719.000000, -588.000000)">
            <g id="Group-5" transform="translate(719.000000, 588.000000)">
                <g id="Group-20">
                    <g id="Group-26" fill="#1684C6">
                        <circle id="Oval-6-Copy" cx="15" cy="15" r="15"></circle>
                    </g>
                    <g id="Group-18" transform="translate(15.500000, 11.500000) scale(-1, 1) rotate(-90.000000) translate(-15.500000, -11.500000) translate(12.000000, 6.000000)">
                        <path d="M3,2 L3,11" id="Line-5" stroke="#FFC300" stroke-width="3" stroke-linecap="round" stroke-linejoin="round"></path>
                        <polyline id="Shape" stroke="#FFC300" stroke-width="2.5" stroke-linecap="round" stroke-linejoin="round" transform="translate(3.000012, 1.300000) scale(-1, -1) rotate(90.000000) translate(-3.000012, -1.300000) " points="1.85001218 -1 4.15001214 1.29999995 1.85001218 3.5999999"></polyline>
                        <g id="Group-16" transform="translate(1.000000, 0.000000)" stroke="#FFFFFF" stroke-linecap="round" stroke-linejoin="round">
                            <path d="M3,2 L3,11" id="Line-5" stroke-width="3"></path>
                            <polyline id="Shape" stroke-width="2.5" transform="translate(3.000012, 1.300000) scale(-1, -1) rotate(90.000000) translate(-3.000012, -1.300000) " points="1.85001218 -1 4.15001214 1.29999995 1.85001218 3.5999999"></polyline>
                        </g>
                        <g id="Group-16-Copy" transform="translate(1.000000, 1.000000)"></g>
                    </g>
                    <g id="Group-18-Copy" transform="translate(15.500000, 19.500000) scale(-1, 1) rotate(90.000000) translate(-15.500000, -19.500000) translate(12.000000, 14.000000)">
                        <path d="M4,2 L4,11" id="Line-5" stroke="#FFC300" stroke-width="3" stroke-linecap="round" stroke-linejoin="round"></path>
                        <polyline id="Shape" stroke="#FFC300" stroke-width="2.5" stroke-linecap="round" stroke-linejoin="round" transform="translate(4.000012, 1.300000) scale(-1, -1) rotate(90.000000) translate(-4.000012, -1.300000) " points="2.85001218 -1 5.15001214 1.29999995 2.85001218 3.5999999"></polyline>
                        <g id="Group-16" stroke="#FFFFFF" stroke-linecap="round" stroke-linejoin="round">
                            <path d="M3,2 L3,11" id="Line-5" stroke-width="3"></path>
                            <polyline id="Shape" stroke-width="2.5" transform="translate(3.000012, 1.300000) scale(-1, -1) rotate(90.000000) translate(-3.000012, -1.300000) " points="1.85001218 -1 4.15001214 1.29999995 1.85001218 3.5999999"></polyline>
                        </g>
                        <g id="Group-16-Copy" transform="translate(0.000000, 1.000000)"></g>
                    </g>
                </g>
            </g>
        </g>
    </g>
</svg>