<?xml version="1.0" encoding="UTF-8"?>
<svg width="968px" height="900px" viewBox="0 0 968 900" version="1.1" xmlns="http://www.w3.org/2000/svg" xmlns:xlink="http://www.w3.org/1999/xlink">
    <!-- Generator: sketchtool 52.1 (67048) - http://www.bohemiancoding.com/sketch -->
    <title>E508B25C-EE6D-493A-9C20-AB147DF108E8</title>
    <desc>Created with sketchtool.</desc>
    <g id="Page-1" stroke="none" stroke-width="1" fill="none" fill-rule="evenodd" opacity="0.895205543">
        <g id="Landing-Page-E" transform="translate(-312.000000, 0.000000)">
            <g id="Group-5" transform="translate(0.000000, -134.000000)">
                <g id="Group-31" transform="translate(264.000000, 0.000000)">
                    <path d="M617.152751,121.722656 C691.712647,188.433594 683.913167,265.716146 593.754313,353.570312 C503.595459,441.424479 481.780355,536.595052 528.309001,639.082031 C558.090251,734.324219 457.58374,823.686198 226.789469,907.167969 C-4.00480135,990.64974 -58.6467284,1179.49349 62.8636882,1473.69922 L1046.66447,1178.92578 L1046.66447,0 L617.152751,121.722656 Z" id="Path-3" fill="#1283C6"></path>
                    <g id="Group" opacity="0.5" transform="translate(108.000000, 209.000000)" stroke="#C2E5F2" stroke-width="2">
                        <rect id="Rectangle-4" transform="translate(832.303850, 359.303850) rotate(14.000000) translate(-832.303850, -359.303850) " x="824.80385" y="351.80385" width="15" height="15" rx="1"></rect>
                        <rect id="Rectangle-4-Copy-11" transform="translate(783.716372, 748.303850) rotate(14.000000) translate(-783.716372, -748.303850) " x="776.216372" y="740.80385" width="15" height="15" rx="1"></rect>
                        <rect id="Rectangle-4-Copy-5" transform="translate(896.087478, 462.087478) rotate(27.000000) translate(-896.087478, -462.087478) " x="889.587478" y="455.587478" width="13" height="13" rx="1"></rect>
                        <rect id="Rectangle-4-Copy-7" transform="translate(871.195720, 822.195720) rotate(29.000000) translate(-871.195720, -822.195720) " x="864.69572" y="815.69572" width="13" height="13" rx="1"></rect>
                        <circle id="Oval-2" cx="687.5" cy="152.5" r="10.5"></circle>
                        <circle id="Oval-2-Copy-4" cx="262.5" cy="710.488976" r="10.5"></circle>
                        <circle id="Oval-2-Copy" cx="679.5" cy="531.5" r="10.5"></circle>
                        <circle id="Oval-2-Copy-2" cx="57.5" cy="759.5" r="10.5"></circle>
                        <rect id="Rectangle-4-Copy" transform="translate(563.875435, 260.875435) rotate(29.000000) translate(-563.875435, -260.875435) " x="556.875435" y="253.875435" width="14" height="14" rx="1"></rect>
                        <rect id="Rectangle-4-Copy-13" transform="translate(414.875435, 611.875435) rotate(29.000000) translate(-414.875435, -611.875435) " x="407.875435" y="604.875435" width="14" height="14" rx="1"></rect>
                        <rect id="Rectangle-4-Copy-10" transform="translate(555.538564, 482.538564) rotate(4.000000) translate(-555.538564, -482.538564) " x="548.538564" y="475.538564" width="14" height="14" rx="1"></rect>
                        <rect id="Rectangle-4-Copy-2" transform="translate(431.195720, 326.195720) rotate(29.000000) translate(-431.195720, -326.195720) " x="424.69572" y="319.69572" width="13" height="13" rx="1"></rect>
                        <rect id="Rectangle-4-Copy-3" transform="translate(715.195720, 326.195720) rotate(29.000000) translate(-715.195720, -326.195720) " x="708.69572" y="319.69572" width="13" height="13" rx="1"></rect>
                        <rect id="Rectangle-4-Copy-15" transform="translate(666.608242, 715.195720) rotate(29.000000) translate(-666.608242, -715.195720) " x="660.108242" y="708.69572" width="13" height="13" rx="1"></rect>
                        <rect id="Rectangle-4-Copy-6" transform="translate(522.195720, 701.195720) rotate(29.000000) translate(-522.195720, -701.195720) " x="515.69572" y="694.69572" width="13" height="13" rx="1"></rect>
                        <rect id="Rectangle-4-Copy-4" transform="translate(711.450551, 254.450551) rotate(18.000000) translate(-711.450551, -254.450551) " x="704.950551" y="247.950551" width="13" height="13" rx="1"></rect>
                        <rect id="Rectangle-4-Copy-19" transform="translate(267.450551, 797.450551) rotate(18.000000) translate(-267.450551, -797.450551) " x="260.950551" y="790.950551" width="13" height="13" rx="1"></rect>
                        <rect id="Rectangle-4-Copy-16" transform="translate(615.450551, 649.450551) rotate(18.000000) translate(-615.450551, -649.450551) " x="608.950551" y="642.950551" width="13" height="13" rx="1"></rect>
                        <path d="M502.021973,176 C501.924805,181.697917 500.087809,184.546875 496.510986,184.546875 C492.934163,184.546875 491.097168,187.395833 491,193.09375" id="Path-4" stroke-linecap="round" stroke-linejoin="round"></path>
                        <path d="M601.412416,165.429485 C601.315248,171.127402 599.478253,173.97636 595.90143,173.97636 C592.324607,173.97636 590.487612,176.825318 590.390444,182.523235" id="Path-4-Copy" stroke-linecap="round" stroke-linejoin="round" transform="translate(595.901430, 173.976360) rotate(44.000000) translate(-595.901430, -173.976360) "></path>
                        <path d="M176.412416,712.418461 C176.315248,718.116378 174.478253,720.965336 170.90143,720.965336 C167.324607,720.965336 165.487612,723.814295 165.390444,729.512211" id="Path-4-Copy-9" stroke-linecap="round" stroke-linejoin="round" transform="translate(170.901430, 720.965336) rotate(44.000000) translate(-170.901430, -720.965336) "></path>
                        <path d="M753.53174,70.8655448 C753.434572,76.5634614 751.597577,79.4124198 748.020754,79.4124198 C744.443931,79.4124198 742.606935,82.2613781 742.509767,87.9592948" id="Path-4-Copy-2" stroke-linecap="round" stroke-linejoin="round" transform="translate(748.020754, 79.412420) rotate(67.000000) translate(-748.020754, -79.412420) "></path>
                        <path d="M858.53174,211.865545 C858.434572,217.563461 856.597577,220.41242 853.020754,220.41242 C849.443931,220.41242 847.606935,223.261378 847.509767,228.959295" id="Path-4-Copy-3" stroke-linecap="round" stroke-linejoin="round" transform="translate(853.020754, 220.412420) rotate(67.000000) translate(-853.020754, -220.412420) "></path>
                        <path d="M550.53174,550.865545 C550.434572,556.563461 548.597577,559.41242 545.020754,559.41242 C541.443931,559.41242 539.606935,562.261378 539.509767,567.959295" id="Path-4-Copy-4" stroke-linecap="round" stroke-linejoin="round" transform="translate(545.020754, 559.412420) rotate(67.000000) translate(-545.020754, -559.412420) "></path>
                        <path d="M392.53174,789.865545 C392.434572,795.563461 390.597577,798.41242 387.020754,798.41242 C383.443931,798.41242 381.606935,801.261378 381.509767,806.959295" id="Path-4-Copy-7" stroke-linecap="round" stroke-linejoin="round" transform="translate(387.020754, 798.412420) rotate(67.000000) translate(-387.020754, -798.412420) "></path>
                        <path d="M810.53174,594.865545 C810.434572,600.563461 808.597577,603.41242 805.020754,603.41242 C801.443931,603.41242 799.606935,606.261378 799.509767,611.959295" id="Path-4-Copy-5" stroke-linecap="round" stroke-linejoin="round" transform="translate(805.020754, 603.412420) rotate(67.000000) translate(-805.020754, -603.412420) "></path>
                        <path d="M910.8224,691.442101 C910.725232,697.140018 908.888236,699.988976 905.311413,699.988976 C901.73459,699.988976 899.897595,702.837935 899.800427,708.535851" id="Path-4-Copy-6" stroke-linecap="round" stroke-linejoin="round" transform="translate(905.311413, 699.988976) rotate(22.000000) translate(-905.311413, -699.988976) "></path>
                        <polygon id="Path-5" stroke-linecap="round" stroke-linejoin="round" transform="translate(747.178394, 431.064136) rotate(26.000000) translate(-747.178394, -431.064136) " points="740.197152 422.159136 740.197152 439.969135 754.159635 431.064136"></polygon>
                        <polygon id="Path-5-Copy-12" stroke-linecap="round" stroke-linejoin="round" transform="translate(699.590916, 821.064136) rotate(26.000000) translate(-699.590916, -821.064136) " points="692.609674 812.159136 692.609674 829.969135 706.572158 821.064136"></polygon>
                        <polygon id="Path-5-Copy-5" stroke-linecap="round" stroke-linejoin="round" transform="translate(602.869561, 382.621485) rotate(51.000000) translate(-602.869561, -382.621485) " points="596.77956 374.853318 596.77956 390.389651 608.959561 382.621485"></polygon>
                        <polygon id="Path-5-Copy-13" stroke-linecap="round" stroke-linejoin="round" transform="translate(554.282083, 771.621485) rotate(51.000000) translate(-554.282083, -771.621485) " points="548.192083 763.853318 548.192083 779.389651 560.372083 771.621485"></polygon>
                        <polygon id="Path-5-Copy-6" stroke-linecap="round" stroke-linejoin="round" transform="translate(511.864191, 442.492927) rotate(54.000000) translate(-511.864191, -442.492927) " points="505.774191 434.724761 505.774191 450.261094 517.954191 442.492927"></polygon>
                        <polygon id="Path-5-Copy-9" stroke-linecap="round" stroke-linejoin="round" transform="translate(726.864191, 641.492927) rotate(54.000000) translate(-726.864191, -641.492927) " points="720.774191 633.724761 720.774191 649.261094 732.954191 641.492927"></polygon>
                        <polygon id="Path-5-Copy-10" stroke-linecap="round" stroke-linejoin="round" transform="translate(890.864191, 544.492927) rotate(51.000000) translate(-890.864191, -544.492927) " points="884.774191 536.724761 884.774191 552.261094 896.954191 544.492927"></polygon>
                        <polygon id="Path-5-Copy-8" stroke-linecap="round" stroke-linejoin="round" transform="translate(467.768167, 551.090000) rotate(90.000000) translate(-467.768167, -551.090000) " points="461.678166 543.321834 461.678166 558.858167 473.858167 551.09"></polygon>
                        <polygon id="Path-5-Copy" stroke-linecap="round" stroke-linejoin="round" transform="translate(610.553596, 96.402395) rotate(3.000000) translate(-610.553596, -96.402395) " points="603.463596 87.3586678 603.463596 105.446123 617.643596 96.4023954"></polygon>
                        <polygon id="Path-5-Copy-7" stroke-linecap="round" stroke-linejoin="round" transform="translate(639.573600, 9.723090) rotate(-56.000000) translate(-639.573600, -9.723090) " points="633.483599 1.95492337 633.483599 17.4912566 645.6636 9.72308999"></polygon>
                        <polygon id="Path-5-Copy-3" stroke-linecap="round" stroke-linejoin="round" transform="translate(869.869814, 96.949083) rotate(-67.000000) translate(-869.869814, -96.949083) " points="863.562785 88.9040826 863.562785 104.994083 876.176843 96.9490827"></polygon>
                        <polygon id="Path-5-Copy-4" stroke-linecap="round" stroke-linejoin="round" transform="translate(792.716958, 131.678221) rotate(-92.000000) translate(-792.716958, -131.678221) " points="786.409929 123.633221 786.409929 139.723221 799.023987 131.678221"></polygon>
                        <polygon id="Path-5-Copy-16" stroke-linecap="round" stroke-linejoin="round" transform="translate(811.537469, 292.383572) rotate(-107.000000) translate(-811.537469, -292.383572) " points="805.23044 284.338572 805.23044 300.428572 817.844498 292.383572"></polygon>
                        <polygon id="Path-5-Copy-15" stroke-linecap="round" stroke-linejoin="round" transform="translate(367.716958, 723.667197) rotate(-70.000000) translate(-367.716958, -723.667197) " points="361.409929 715.622197 361.409929 731.712197 374.023987 723.667197"></polygon>
                        <polygon id="Path-5-Copy-2" stroke-linecap="round" stroke-linejoin="round" transform="translate(876.946578, 11.903668) rotate(-14.000000) translate(-876.946578, -11.903668) " points="869.463596 2.35866782 869.463596 21.448668 884.42956 11.9036679"></polygon>
                    </g>
                </g>
            </g>
        </g>
    </g>
</svg>