<?xml version="1.0" encoding="UTF-8"?>
<svg width="1030px" height="215px" viewBox="0 0 1030 215" version="1.1" xmlns="http://www.w3.org/2000/svg" xmlns:xlink="http://www.w3.org/1999/xlink">
    <!-- Generator: Sketch 50.2 (55047) - http://www.bohemiancoding.com/sketch -->
    <title>Group 11</title>
    <desc>Created with Sketch.</desc>
    <defs></defs>
    <g id="Page-1" stroke="none" stroke-width="1" fill="none" fill-rule="evenodd">
        <g id="Landing-Page-C" transform="translate(0.000000, -685.000000)">
            <g id="Group-11" transform="translate(-235.000000, 681.000000)">
                <path d="M509.971639,239.204565 C590.897083,353.684461 679.224244,413.885096 774.953123,419.80647 C841.075132,427.701636 879.564062,453.360923 890.419915,496.784332 C899.331937,532.43242 891.948673,570.075849 868.270123,609.71462 L868.270123,609.71462 C858.269036,626.45681 843.590788,639.909331 826.042156,648.416281 C659.314988,729.239656 472.045809,730.507695 264.23462,652.220398 C-62.7862849,529.024034 -12.5896117,193.313917 36.2617233,142.982239 C85.1130583,92.65056 225.745689,64.5240338 244.990155,64.5240338 C264.23462,64.5240338 388.583473,67.4847207 509.971639,239.204565 Z" id="Path-36-Copy" fill="#1684C6" transform="translate(447.356858, 387.262017) scale(-1, -1) translate(-447.356858, -387.262017) "></path>
                <rect id="Rectangle-4-Copy-11" stroke="#C2E5F2" stroke-width="2" opacity="0.6" transform="translate(1133.716372, 153.303850) rotate(14.000000) translate(-1133.716372, -153.303850) " x="1126.21637" y="145.80385" width="15" height="15" rx="1"></rect>
                <circle id="Oval-2-Copy-4" stroke="#C2E5F2" stroke-width="2" opacity="0.6" cx="480.5" cy="115.488976" r="10.5"></circle>
                <circle id="Oval-2-Copy-2" stroke="#C2E5F2" stroke-width="2" opacity="0.6" cx="275.5" cy="164.5" r="10.5"></circle>
                <rect id="Rectangle-4-Copy-15" stroke="#C2E5F2" stroke-width="2" opacity="0.6" transform="translate(1016.608242, 120.195720) rotate(29.000000) translate(-1016.608242, -120.195720) " x="1010.10824" y="113.69572" width="13" height="13" rx="1"></rect>
                <rect id="Rectangle-4-Copy-6" stroke="#C2E5F2" stroke-width="2" opacity="0.6" transform="translate(740.195720, 106.195720) rotate(29.000000) translate(-740.195720, -106.195720) " x="733.69572" y="99.69572" width="13" height="13" rx="1"></rect>
                <rect id="Rectangle-4-Copy-19" stroke="#C2E5F2" stroke-width="2" opacity="0.6" transform="translate(485.450551, 202.450551) rotate(18.000000) translate(-485.450551, -202.450551) " x="478.950551" y="195.950551" width="13" height="13" rx="1"></rect>
                <rect id="Rectangle-4-Copy-16" stroke="#C2E5F2" stroke-width="2" opacity="0.6" transform="translate(833.450551, 54.450551) rotate(18.000000) translate(-833.450551, -54.450551) " x="826.950551" y="47.9505513" width="13" height="13" rx="1"></rect>
                <path d="M394.412416,117.418461 C394.315248,123.116378 392.478253,125.965336 388.90143,125.965336 C385.324607,125.965336 383.487612,128.814295 383.390444,134.512211" id="Path-4-Copy-9" stroke="#C2E5F2" stroke-width="2" opacity="0.6" stroke-linecap="round" stroke-linejoin="round" transform="translate(388.901430, 125.965336) rotate(44.000000) translate(-388.901430, -125.965336) "></path>
                <path d="M610.53174,194.865545 C610.434572,200.563461 608.597577,203.41242 605.020754,203.41242 C601.443931,203.41242 599.606935,206.261378 599.509767,211.959295" id="Path-4-Copy-7" stroke="#C2E5F2" stroke-width="2" opacity="0.6" stroke-linecap="round" stroke-linejoin="round" transform="translate(605.020754, 203.412420) rotate(67.000000) translate(-605.020754, -203.412420) "></path>
                <path d="M1160.53174,-0.134455224 C1160.43457,5.56346144 1158.59758,8.41241978 1155.02075,8.41241978 C1151.44393,8.41241978 1149.60694,11.2613781 1149.50977,16.9592948" id="Path-4-Copy-5" stroke="#C2E5F2" stroke-width="2" opacity="0.6" stroke-linecap="round" stroke-linejoin="round" transform="translate(1155.020754, 8.412420) rotate(67.000000) translate(-1155.020754, -8.412420) "></path>
                <path d="M1260.8224,96.4421013 C1260.72523,102.140018 1258.88824,104.988976 1255.31141,104.988976 C1251.73459,104.988976 1249.89759,107.837935 1249.80043,113.535851" id="Path-4-Copy-6" stroke="#C2E5F2" stroke-width="2" opacity="0.6" stroke-linecap="round" stroke-linejoin="round" transform="translate(1255.311413, 104.988976) rotate(22.000000) translate(-1255.311413, -104.988976) "></path>
                <polygon id="Path-5-Copy-12" stroke="#C2E5F2" stroke-width="2" opacity="0.6" stroke-linecap="round" stroke-linejoin="round" transform="translate(917.590916, 226.064136) rotate(26.000000) translate(-917.590916, -226.064136) " points="910.609674 217.159136 910.609674 234.969135 924.572158 226.064136"></polygon>
                <polygon id="Path-5-Copy-13" stroke="#C2E5F2" stroke-width="2" opacity="0.6" stroke-linecap="round" stroke-linejoin="round" transform="translate(772.282083, 176.621485) rotate(51.000000) translate(-772.282083, -176.621485) " points="766.192083 168.853318 766.192083 184.389651 778.372083 176.621485"></polygon>
                <polygon id="Path-5-Copy-15" stroke="#C2E5F2" stroke-width="2" opacity="0.6" stroke-linecap="round" stroke-linejoin="round" transform="translate(585.716958, 128.667197) rotate(-70.000000) translate(-585.716958, -128.667197) " points="579.409929 120.622197 579.409929 136.712197 592.023987 128.667197"></polygon>
            </g>
        </g>
    </g>
</svg>