<?xml version="1.0" encoding="UTF-8"?>
<svg width="424px" height="509px" viewBox="0 0 424 509" version="1.1" xmlns="http://www.w3.org/2000/svg" xmlns:xlink="http://www.w3.org/1999/xlink">
    <!-- Generator: Sketch 50.2 (55047) - http://www.bohemiancoding.com/sketch -->
    <title>Group 9</title>
    <desc>Created with Sketch.</desc>
    <defs></defs>
    <g id="Page-1" stroke="none" stroke-width="1" fill="none" fill-rule="evenodd">
        <g id="Landing-Page-C" transform="translate(-856.000000, -61.000000)">
            <g id="Group-9" transform="translate(856.000000, 59.000000)">
                <path d="M172.391125,0.00192690139 C321.292739,-0.65866553 347.788202,168.708807 462.878621,235.527957 C515.609346,266.143934 594.002285,256.648858 620.976039,319.576682 C660.164236,411.001772 546.761368,482.136592 476.374522,499.396262 C351.157289,530.10102 162.599715,500.541389 66.8033353,402.696966 C4.56847675,339.132626 -14.8007656,219.232842 11.2976265,134.851564 C26.5487615,85.5403706 85.9078637,6.02099234 172.391125,0.00192690139" id="Fill-1" fill="#1283C6" transform="translate(314.500000, 255.500000) scale(-1, 1) translate(-314.500000, -255.500000) "></path>
                <circle id="Oval-2" stroke="#C2E5F2" stroke-width="2" opacity="0.614899554" cx="424.5" cy="190.5" r="10.5"></circle>
                <rect id="Rectangle-4-Copy" stroke="#C2E5F2" stroke-width="2" opacity="0.614899554" transform="translate(288.875435, 287.875435) rotate(29.000000) translate(-288.875435, -287.875435) " x="281.875435" y="280.875435" width="14" height="14" rx="1"></rect>
                <rect id="Rectangle-4-Copy-10" stroke="#C2E5F2" stroke-width="2" opacity="0.614899554" transform="translate(349.538564, 502.538564) rotate(4.000000) translate(-349.538564, -502.538564) " x="342.538564" y="495.538564" width="14" height="14" rx="1"></rect>
                <rect id="Rectangle-4-Copy-2" stroke="#C2E5F2" stroke-width="2" opacity="0.614899554" transform="translate(156.195720, 353.195720) rotate(29.000000) translate(-156.195720, -353.195720) " x="149.69572" y="346.69572" width="13" height="13" rx="1"></rect>
                <path d="M227.021973,203 C226.924805,208.697917 225.087809,211.546875 221.510986,211.546875 C217.934163,211.546875 216.097168,214.395833 216,220.09375" id="Path-4" stroke="#C2E5F2" stroke-width="2" opacity="0.614899554" stroke-linecap="round" stroke-linejoin="round"></path>
                <path d="M326.412416,192.429485 C326.315248,198.127402 324.478253,200.97636 320.90143,200.97636 C317.324607,200.97636 315.487612,203.825318 315.390444,209.523235" id="Path-4-Copy" stroke="#C2E5F2" stroke-width="2" opacity="0.614899554" stroke-linecap="round" stroke-linejoin="round" transform="translate(320.901430, 200.976360) rotate(44.000000) translate(-320.901430, -200.976360) "></path>
                <polygon id="Path-5-Copy-5" stroke="#C2E5F2" stroke-width="2" opacity="0.614899554" stroke-linecap="round" stroke-linejoin="round" transform="translate(327.869561, 409.621485) rotate(51.000000) translate(-327.869561, -409.621485) " points="321.77956 401.853318 321.77956 417.389651 333.959561 409.621485"></polygon>
                <polygon id="Path-5-Copy-6" stroke="#C2E5F2" stroke-width="2" opacity="0.614899554" stroke-linecap="round" stroke-linejoin="round" transform="translate(236.864191, 469.492927) rotate(54.000000) translate(-236.864191, -469.492927) " points="230.774191 461.724761 230.774191 477.261094 242.954191 469.492927"></polygon>
                <polygon id="Path-5-Copy" stroke="#C2E5F2" stroke-width="2" opacity="0.614899554" stroke-linecap="round" stroke-linejoin="round" transform="translate(335.553596, 123.402395) rotate(3.000000) translate(-335.553596, -123.402395) " points="328.463596 114.358668 328.463596 132.446123 342.643596 123.402395"></polygon>
                <polygon id="Path-5-Copy-7" stroke="#C2E5F2" stroke-width="2" opacity="0.614899554" stroke-linecap="round" stroke-linejoin="round" transform="translate(364.573600, 36.723090) rotate(-56.000000) translate(-364.573600, -36.723090) " points="358.483599 28.9549234 358.483599 44.4912566 370.6636 36.72309"></polygon>
            </g>
        </g>
    </g>
</svg>