<?xml version="1.0" encoding="UTF-8"?>
<svg width="170px" height="161px" viewBox="0 0 170 161" version="1.1" xmlns="http://www.w3.org/2000/svg" xmlns:xlink="http://www.w3.org/1999/xlink">
    <!-- Generator: Sketch 52.4 (67378) - http://www.bohemiancoding.com/sketch -->
    <title>step_4</title>
    <desc>Created with Sketch.</desc>
    <defs>
        <polygon id="path-1" points="0.6982 0.686 160.6982 0.686 160.6982 160.6855 0.6982 160.6855"></polygon>
        <polygon id="path-3" points="0.0004 0.0002 170 0.0002 170 159.9997 0.0004 159.9997"></polygon>
    </defs>
    <g id="Page-1" stroke="none" stroke-width="1" fill="none" fill-rule="evenodd">
        <g id="Home_Page_02_A" transform="translate(-1073.000000, -1521.000000)">
            <g id="step_4" transform="translate(1073.000000, 1520.000000)">
                <g id="Group-3" transform="translate(4.000000, 0.314000)">
                    <mask id="mask-2" fill="white">
                        <use xlink:href="#path-1"></use>
                    </mask>
                    <g id="Clip-2"></g>
                    <path d="M80.6982,0.6855 C124.8812,0.6855 160.6982,36.5025 160.6982,80.6855 C160.6982,124.8685 124.8812,160.6855 80.6982,160.6855 C36.5152,160.6855 0.6982,124.8685 0.6982,80.6855 C0.6982,36.5025 36.5152,0.6855 80.6982,0.6855" id="Fill-1" fill="#EAF2F9" mask="url(#mask-2)"></path>
                </g>
                <g id="Group-6" transform="translate(0.000000, 1.314000)">
                    <mask id="mask-4" fill="white">
                        <use xlink:href="#path-3"></use>
                    </mask>
                    <g id="Clip-5"></g>
                    <path d="M102.5869,21.4077 L118.7409,4.3277 L165.8539,54.1357 L149.6989,71.2157 L102.5869,21.4077 Z M134.5469,87.2347 L102.5419,53.3977 C102.2149,53.0527 101.7709,52.8607 101.3099,52.8607 C101.2509,52.8607 101.1919,52.8637 101.1339,52.8697 C100.6109,52.9257 100.1429,53.2237 99.8579,53.6817 L92.6549,65.2777 C90.7629,68.3117 87.8659,70.3777 84.5009,71.0947 C81.1709,71.8017 77.7739,71.1037 74.9299,69.1227 L71.3879,66.6777 C70.8119,66.2767 70.6489,65.4307 71.0649,64.7777 L86.3299,38.9417 C86.7569,38.5947 87.1759,38.2767 87.5719,37.9967 C89.0269,36.9827 90.5489,36.1677 92.2159,35.5067 C100.4399,32.2917 109.7659,34.4547 115.9709,41.0167 L134.4379,60.5777 C141.3649,67.9037 141.3999,79.8247 134.5469,87.2347 Z M148.7679,107.3857 C151.3839,110.1837 151.8569,114.4827 149.8669,117.3847 C148.6119,119.2127 146.7749,120.3127 144.6959,120.4827 C142.6499,120.6397 140.6439,119.8617 139.1859,118.3217 C139.1849,118.3207 139.1839,118.3187 139.1829,118.3177 L117.5129,95.4067 C116.8439,94.6997 115.7509,94.6897 115.0699,95.3817 C114.3899,96.0747 114.3799,97.2097 115.0479,97.9157 L136.7049,120.8137 C136.7059,120.8157 136.7069,120.8177 136.7089,120.8197 L139.4699,123.7767 C142.0689,126.5247 142.5359,130.8087 140.5569,133.7387 C139.3259,135.5517 137.4279,136.6857 135.3509,136.8507 C133.3159,137.0107 131.3349,136.2327 129.9039,134.6917 L127.4499,132.1367 L126.8359,131.4467 C126.8029,131.4087 126.7639,131.3817 126.7289,131.3487 L105.1229,108.5057 C104.4539,107.7987 103.3589,107.7887 102.6819,108.4817 C101.9999,109.1747 101.9899,110.3097 102.6579,111.0157 L124.3289,133.9277 C124.3539,133.9527 124.3829,133.9717 124.4079,133.9947 L124.7809,134.3897 C124.7979,134.4127 124.8089,134.4397 124.8249,134.4617 C126.0559,136.0837 126.6029,138.2027 126.3249,140.2757 C126.0499,142.3247 125.0089,144.1227 123.3839,145.3447 C120.7629,147.3507 116.9679,146.9717 114.4089,144.4907 L111.3309,141.2757 C111.3179,141.2607 111.3099,141.2437 111.2959,141.2297 L92.7329,121.6037 C92.0639,120.8967 90.9719,120.8867 90.2909,121.5787 C89.6089,122.2727 89.5999,123.4077 90.2679,124.1137 L108.8019,143.7087 C108.8159,143.7247 108.8249,143.7417 108.8389,143.7567 C110.3209,145.3237 111.0699,147.4907 110.8959,149.7027 C110.7219,151.9077 109.6819,153.8387 107.9679,155.1377 C105.2139,157.2227 101.1829,156.7267 98.5949,153.9917 L86.2489,140.9407 C86.1959,140.8847 86.1379,140.8417 86.0809,140.7947 C86.6449,137.8527 86.1339,134.7557 84.4619,132.2857 C82.6479,129.6177 79.8429,127.9397 76.7669,127.6807 C76.4109,127.6497 76.0579,127.6397 75.7039,127.6467 C77.5969,123.8897 77.4729,119.3247 75.1809,115.9497 C73.3569,113.2647 70.5379,111.5747 67.4459,111.3147 C67.1379,111.2897 66.8319,111.2817 66.5239,111.2797 C67.4969,109.4217 67.9429,107.2817 67.7779,105.1057 C67.5329,101.8627 65.9399,98.8987 63.4039,96.9727 C60.1949,94.5437 55.8639,94.4157 52.3299,96.3787 C52.3389,95.9887 52.3279,95.5957 52.2969,95.2027 C52.0449,91.9987 50.4619,89.0697 47.9619,87.1697 C44.3629,84.3997 39.3319,84.5677 35.5829,87.3727 L35.5649,87.3537 C28.5969,79.9527 28.5959,67.9407 35.5629,60.5757 L54.0259,41.0177 C61.7669,32.8347 73.8449,31.7507 82.7149,38.2037 L68.1539,62.8497 C66.7169,65.0977 67.3049,68.1507 69.4699,69.6577 L73.0119,72.1017 C76.6239,74.6207 80.9499,75.5117 85.1949,74.6047 C89.4759,73.6937 93.1539,71.0727 95.5559,67.2227 L101.5909,57.5077 L133.3149,91.0467 L148.7679,107.3857 Z M80.6109,144.2587 C78.0239,146.9237 74.0549,147.3947 71.3369,145.3357 C69.6139,144.0277 68.5689,142.0887 68.3949,139.8777 C68.2229,137.6897 68.9559,135.5477 70.4019,133.9837 L70.9919,133.3607 C72.4539,131.8507 74.4519,131.0787 76.4869,131.2517 C78.5699,131.4277 80.3999,132.5287 81.6379,134.3507 C83.6079,137.2587 83.1609,141.4997 80.6109,144.2587 Z M67.9899,131.4107 L64.9459,134.6317 C62.3169,137.1387 58.5049,137.5147 55.8819,135.5247 C54.1439,134.2027 53.0899,132.2497 52.9159,130.0237 C52.7449,127.8567 53.4649,125.7377 54.8879,124.1887 C54.9129,124.1647 54.9409,124.1477 54.9639,124.1217 L61.4629,117.2517 C61.5139,117.1977 61.5539,117.1367 61.5969,117.0777 C61.6139,117.0617 61.6329,117.0507 61.6489,117.0327 L61.6519,117.0307 C63.1069,115.4947 65.1159,114.7117 67.1679,114.8877 C69.2649,115.0637 71.1079,116.1747 72.3579,118.0147 C74.2609,120.8167 73.9049,124.8847 71.5739,127.6207 L68.4649,130.9077 C68.4539,130.9207 68.4459,130.9357 68.4349,130.9487 L68.0239,131.3827 C68.0129,131.3937 68.0009,131.4007 67.9899,131.4107 Z M52.4919,121.5977 C52.4919,121.5987 52.4909,121.5987 52.4899,121.5997 L49.3769,124.8917 C47.9499,126.4177 45.9559,127.2017 43.9259,127.0327 C41.8529,126.8647 39.9559,125.7237 38.7199,123.9047 C36.7429,120.9877 37.2119,116.7177 39.8189,113.9617 L42.4169,111.1717 C42.4719,111.1257 42.5299,111.0837 42.5809,111.0297 L49.0799,104.1607 C49.1409,104.0957 49.1909,104.0247 49.2409,103.9517 C49.2429,103.9497 49.2469,103.9477 49.2499,103.9447 L52.0609,101.0187 C54.6349,98.2967 58.6389,97.8007 61.3669,99.8667 C63.0869,101.1737 64.1689,103.1857 64.3359,105.3867 C64.5019,107.5747 63.7589,109.7037 62.2929,111.2367 L59.1849,114.5237 C59.1339,114.5767 59.0939,114.6377 59.0509,114.6967 C59.0339,114.7117 59.0149,114.7247 58.9989,114.7407 L52.6089,121.4967 C52.5699,121.5317 52.5279,121.5597 52.4919,121.5977 Z M34.5699,110.6667 C32.4999,110.4907 30.6779,109.3907 29.4309,107.5557 C27.4299,104.6497 27.9009,100.3637 30.5269,97.5867 L36.5639,91.2037 C39.1689,88.4497 43.1829,87.9517 45.9129,90.0547 C47.6369,91.3657 48.6819,93.2967 48.8549,95.4937 C49.0289,97.6947 48.2769,99.8567 46.7949,101.4247 C46.7309,101.4917 46.6799,101.5657 46.6289,101.6397 C46.6249,101.6437 46.6199,101.6467 46.6159,101.6507 L40.2869,108.3407 C40.2239,108.3907 40.1599,108.4397 40.1019,108.4997 C38.6359,110.0497 36.6149,110.8307 34.5699,110.6667 Z M20.3019,71.2157 L4.1459,54.1357 L51.2579,4.3277 L67.4129,21.4067 L20.3019,71.2157 Z M149.6989,75.5657 C150.1619,75.5657 150.6069,75.3717 150.9319,75.0297 L169.5059,55.3907 C170.1649,54.6947 170.1649,53.5767 169.5059,52.8807 L119.9739,0.5147 C119.3239,-0.1713 118.1579,-0.1713 117.5089,0.5147 L98.9349,20.1527 C98.2749,20.8497 98.2749,21.9667 98.9349,22.6627 L107.3659,31.5767 C102.0849,29.9387 96.3379,30.0657 90.9899,32.1557 C89.0969,32.9077 87.2989,33.8707 85.6399,35.0267 C85.4299,35.1747 85.2129,35.3377 84.9969,35.5007 C78.3469,30.5117 70.0899,29.2547 62.6319,31.5777 L71.0649,22.6617 C71.7239,21.9657 71.7239,20.8477 71.0649,20.1517 L52.4899,0.5147 C51.8409,-0.1713 50.6749,-0.1713 50.0249,0.5147 L0.4939,52.8807 C-0.1641,53.5767 -0.1641,54.6947 0.4939,55.3907 L19.0689,75.0297 C19.3939,75.3717 19.8379,75.5657 20.3019,75.5657 C20.7649,75.5657 21.2099,75.3717 21.5339,75.0297 L27.4929,68.7287 C25.8539,76.0467 27.6909,84.0747 33.0489,89.8047 L28.0619,95.0767 C24.2779,99.0777 23.6589,105.3387 26.6149,109.6307 C28.4289,112.3007 31.2269,113.9807 34.2909,114.2387 C34.6529,114.2687 35.0129,114.2777 35.3759,114.2707 C33.4939,117.9977 33.5999,122.5777 35.8969,125.9677 C37.7269,128.6627 40.5549,130.3537 43.6559,130.6057 C45.6899,130.7717 47.6949,130.3087 49.4379,129.3097 C49.4349,129.6437 49.4469,129.9797 49.4729,130.3157 C49.7279,133.5467 51.3199,136.4987 53.8429,138.4167 C57.0289,140.8337 61.3269,140.9877 64.9199,138.9967 C64.9109,139.3867 64.9219,139.7777 64.9529,140.1687 C65.2059,143.3857 66.7899,146.3247 69.2989,148.2307 C71.0439,149.5507 73.1179,150.1947 75.2149,150.1947 C77.9589,150.1947 80.7349,149.0827 82.8769,146.9587 C82.9219,146.9197 82.9709,146.8857 83.0129,146.8407 C83.0359,146.8177 83.0549,146.7907 83.0769,146.7677 C83.0989,146.7447 83.1219,146.7267 83.1429,146.7037 L85.0159,144.7517 L96.1299,156.5017 C98.3089,158.8057 101.2129,159.9997 104.0739,159.9997 C106.1759,159.9997 108.2549,159.3567 110.0039,158.0337 C112.5049,156.1357 114.0839,153.2057 114.3369,149.9947 C114.3679,149.6077 114.3799,149.2187 114.3719,148.8337 C117.9209,150.8287 122.2259,150.6817 125.4219,148.2397 C127.8039,146.4477 129.3389,143.7937 129.7439,140.7697 C129.8179,140.2177 129.8389,139.6647 129.8339,139.1137 C131.3459,139.9877 133.0559,140.4557 134.8179,140.4557 C135.0829,140.4557 135.3489,140.4457 135.6139,140.4237 C138.7229,140.1777 141.5529,138.4917 143.3819,135.7987 C145.6779,132.3997 145.7849,127.8117 143.9099,124.0847 C144.2659,124.0937 144.6139,124.0837 144.9669,124.0557 C148.0369,123.8047 150.8489,122.1317 152.6799,119.4637 C155.6209,115.1737 155.0039,108.9077 151.2379,104.8827 L136.9639,89.7887 C142.3119,84.0627 144.1449,76.0387 142.5049,68.7257 L148.4669,75.0297 C148.7909,75.3717 149.2349,75.5657 149.6989,75.5657 Z" id="Fill-4" fill="#025680" mask="url(#mask-4)"></path>
                </g>
            </g>
        </g>
    </g>
</svg>