<?xml version="1.0" encoding="UTF-8"?>
<svg width="170px" height="170px" viewBox="0 0 170 170" version="1.1" xmlns="http://www.w3.org/2000/svg" xmlns:xlink="http://www.w3.org/1999/xlink">
    <!-- Generator: Sketch 52.4 (67378) - http://www.bohemiancoding.com/sketch -->
    <title>step_2</title>
    <desc>Created with Sketch.</desc>
    <defs>
        <polygon id="path-1" points="0 0 169.9999 0 169.9999 169.9999 0 169.9999"></polygon>
        <polygon id="path-3" points="0 170 170 170 170 0 0 0"></polygon>
    </defs>
    <g id="Page-1" stroke="none" stroke-width="1" fill="none" fill-rule="evenodd">
        <g id="Home_Page_02_A" transform="translate(-489.000000, -1515.000000)">
            <g id="step_2" transform="translate(489.000000, 1515.000000)">
                <path d="M85.2952,5.2952 C129.4782,5.2952 165.2952,41.1122 165.2952,85.2952 C165.2952,129.4782 129.4782,165.2952 85.2952,165.2952 C41.1122,165.2952 5.2952,129.4782 5.2952,85.2952 C5.2952,41.1122 41.1122,5.2952 85.2952,5.2952" id="Fill-1" fill="#EAF2F9"></path>
                <g id="Group-5">
                    <mask id="mask-2" fill="white">
                        <use xlink:href="#path-1"></use>
                    </mask>
                    <g id="Clip-4"></g>
                    <path d="M139.5569,166.4749 C124.7119,166.4749 112.6359,154.3989 112.6359,139.5559 C112.6359,124.7119 124.7119,112.6369 139.5569,112.6369 C154.3999,112.6369 166.4749,124.7119 166.4749,139.5559 C166.4749,154.3989 154.3999,166.4749 139.5569,166.4749 Z M112.2889,126.0359 L97.0669,126.0359 L97.0669,45.1909 L128.3619,45.1909 L128.3619,111.2529 C121.3589,114.0339 115.6249,119.3339 112.2889,126.0359 Z M17.8129,140.6129 C9.9349,140.6129 3.5249,134.2039 3.5249,126.3259 L3.5249,33.5839 L140.6129,33.5839 L140.6129,109.1389 C140.2619,109.1269 139.9109,109.1129 139.5569,109.1129 C136.9089,109.1129 134.3379,109.4539 131.8869,110.0919 L131.8869,43.4279 C131.8869,42.4549 131.0979,41.6649 130.1239,41.6649 L95.3039,41.6649 C94.3299,41.6649 93.5409,42.4549 93.5409,43.4279 L93.5409,127.7979 C93.5409,128.7719 94.3299,129.5609 95.3039,129.5609 L110.8049,129.5609 C109.7119,132.6939 109.1119,136.0549 109.1119,139.5559 C109.1119,139.9109 109.1259,140.2609 109.1379,140.6129 L17.8129,140.6129 Z M17.8129,3.5249 L126.3249,3.5249 C134.2029,3.5249 140.6129,9.9349 140.6129,17.8129 L140.6129,30.0579 L3.5249,30.0579 L3.5249,17.8129 C3.5249,9.9349 9.9349,3.5249 17.8129,3.5249 Z M144.1379,109.4569 L144.1379,17.8129 C144.1379,7.9909 136.1479,-0.0001 126.3249,-0.0001 L17.8129,-0.0001 C7.9909,-0.0001 -0.0001,7.9909 -0.0001,17.8129 L-0.0001,126.3259 C-0.0001,136.1479 7.9909,144.1379 17.8129,144.1379 L109.4559,144.1379 C111.6729,158.7589 124.3269,169.9999 139.5569,169.9999 C156.3429,169.9999 169.9999,156.3419 169.9999,139.5559 C169.9999,124.3269 158.7589,111.6739 144.1379,109.4569 Z" id="Fill-3" fill="#025680" mask="url(#mask-2)"></path>
                </g>
                <path d="M153.6174,137.7932 L141.3194,137.7932 L141.3194,125.4942 C141.3194,124.5212 140.5304,123.7312 139.5564,123.7312 C138.5824,123.7312 137.7944,124.5212 137.7944,125.4942 L137.7944,137.7932 L125.4934,137.7932 C124.5194,137.7932 123.7304,138.5812 123.7304,139.5562 C123.7304,140.5292 124.5194,141.3182 125.4934,141.3182 L137.7944,141.3182 L137.7944,153.6162 C137.7944,154.5902 138.5824,155.3792 139.5564,155.3792 C140.5304,155.3792 141.3194,154.5902 141.3194,153.6162 L141.3194,141.3182 L153.6174,141.3182 C154.5914,141.3182 155.3804,140.5292 155.3804,139.5562 C155.3804,138.5812 154.5914,137.7932 153.6174,137.7932" id="Fill-6" fill="#025680"></path>
                <mask id="mask-4" fill="white">
                    <use xlink:href="#path-3"></use>
                </mask>
                <g id="Clip-9"></g>
                <path d="M15.374,94.832 L83.72,94.832 L83.72,45.19 L15.374,45.19 L15.374,94.832 Z M85.484,41.665 L13.612,41.665 C12.639,41.665 11.849,42.455 11.849,43.428 L11.849,96.595 C11.849,97.57 12.639,98.358 13.612,98.358 L85.484,98.358 C86.457,98.358 87.246,97.57 87.246,96.595 L87.246,43.428 C87.246,42.455 86.457,41.665 85.484,41.665 Z" id="Fill-8" fill="#025680" mask="url(#mask-4)"></path>
                <path d="M85.4827,110.4124 L39.6957,110.4124 C38.7227,110.4124 37.9337,111.2014 37.9337,112.1754 C37.9337,113.1484 38.7227,113.9374 39.6957,113.9374 L85.4827,113.9374 C86.4567,113.9374 87.2457,113.1484 87.2457,112.1754 C87.2457,111.2014 86.4567,110.4124 85.4827,110.4124" id="Fill-10" fill="#025680" mask="url(#mask-4)"></path>
                <path d="M13.6111,113.9377 L27.0601,113.9377 C28.0331,113.9377 28.8221,113.1487 28.8221,112.1747 C28.8221,111.2017 28.0331,110.4127 27.0601,110.4127 L13.6111,110.4127 C12.6381,110.4127 11.8481,111.2017 11.8481,112.1747 C11.8481,113.1487 12.6381,113.9377 13.6111,113.9377" id="Fill-11" fill="#025680" mask="url(#mask-4)"></path>
                <path d="M85.4827,126.0354 L13.6107,126.0354 C12.6377,126.0354 11.8487,126.8244 11.8487,127.7984 C11.8487,128.7714 12.6377,129.5604 13.6107,129.5604 L85.4827,129.5604 C86.4567,129.5604 87.2457,128.7714 87.2457,127.7984 C87.2457,126.8244 86.4567,126.0354 85.4827,126.0354" id="Fill-12" fill="#025680" mask="url(#mask-4)"></path>
                <path d="M19.6936,20.2146 C21.6356,20.2146 23.2086,18.6416 23.2086,16.6996 C23.2086,14.7576 21.6356,13.1846 19.6936,13.1846 C17.7526,13.1846 16.1776,14.7576 16.1776,16.6996 C16.1776,18.6416 17.7526,20.2146 19.6936,20.2146" id="Fill-13" fill="#025680" mask="url(#mask-4)"></path>
                <path d="M38.4836,20.2146 C40.4256,20.2146 41.9996,18.6416 41.9996,16.6996 C41.9996,14.7576 40.4256,13.1846 38.4836,13.1846 C36.5436,13.1846 34.9686,14.7576 34.9686,16.6996 C34.9686,18.6416 36.5436,20.2146 38.4836,20.2146" id="Fill-14" fill="#025680" mask="url(#mask-4)"></path>
                <path d="M57.2747,20.2146 C59.2167,20.2146 60.7907,18.6416 60.7907,16.6996 C60.7907,14.7576 59.2167,13.1846 57.2747,13.1846 C55.3347,13.1846 53.7597,14.7576 53.7597,16.6996 C53.7597,18.6416 55.3347,20.2146 57.2747,20.2146" id="Fill-15" fill="#025680" mask="url(#mask-4)"></path>
                <path d="M68.2839,18.4622 L130.1229,18.4622 C131.0969,18.4622 131.8859,17.6732 131.8859,16.6992 C131.8859,15.7262 131.0969,14.9372 130.1229,14.9372 L68.2839,14.9372 C67.3109,14.9372 66.5209,15.7262 66.5209,16.6992 C66.5209,17.6732 67.3109,18.4622 68.2839,18.4622" id="Fill-16" fill="#025680" mask="url(#mask-4)"></path>
            </g>
        </g>
    </g>
</svg>