<?xml version="1.0" encoding="UTF-8"?>
<svg width="170px" height="170px" viewBox="0 0 170 170" version="1.1" xmlns="http://www.w3.org/2000/svg" xmlns:xlink="http://www.w3.org/1999/xlink">
    <!-- Generator: Sketch 52.4 (67378) - http://www.bohemiancoding.com/sketch -->
    <title>step_3</title>
    <desc>Created with Sketch.</desc>
    <defs>
        <polygon id="path-1" points="0 170 170 170 170 0 0 0"></polygon>
    </defs>
    <g id="Page-1" stroke="none" stroke-width="1" fill="none" fill-rule="evenodd">
        <g id="Home_Page_02_A" transform="translate(-781.000000, -1515.000000)">
            <g id="step_3" transform="translate(781.000000, 1515.000000)">
                <path d="M84.6985,5.2993 C128.8815,5.2993 164.6985,41.1163 164.6985,85.2993 C164.6985,129.4823 128.8815,165.2993 84.6985,165.2993 C40.5155,165.2993 4.6985,129.4823 4.6985,85.2993 C4.6985,41.1163 40.5155,5.2993 84.6985,5.2993" id="Fill-1" fill="#EAF2F9"></path>
                <mask id="mask-2" fill="white">
                    <use xlink:href="#path-1"></use>
                </mask>
                <g id="Clip-4"></g>
                <path d="M120.493,97.45 L130.797,97.45 L130.797,90.831 L120.493,90.831 L120.493,97.45 Z M120.493,107.55 L130.797,107.55 L130.797,100.927 L120.493,100.927 L120.493,107.55 Z M132.524,87.353 L118.767,87.353 C117.813,87.353 117.04,88.131 117.04,89.092 L117.04,109.289 C117.04,110.25 117.813,111.028 118.767,111.028 L132.524,111.028 C133.478,111.028 134.25,110.25 134.25,109.289 L134.25,89.092 C134.25,88.131 133.478,87.353 132.524,87.353 Z" id="Fill-3" fill="#025680" mask="url(#mask-2)"></path>
                <path d="M55.05,106.858 L68.158,106.858 L68.158,81.486 L55.05,81.486 L55.05,106.858 Z M71.611,106.858 L76.572,106.858 L76.572,81.486 L71.611,81.486 L71.611,106.858 Z M46.635,106.858 L51.596,106.858 L51.596,81.486 L46.635,81.486 L46.635,106.858 Z M44.909,78.009 C43.955,78.009 43.182,78.788 43.182,79.748 L43.182,108.597 C43.182,109.557 43.955,110.335 44.909,110.335 L53.323,110.335 L69.885,110.335 L78.299,110.335 C79.252,110.335 80.026,109.557 80.026,108.597 L80.026,79.748 C80.026,78.788 79.252,78.009 78.299,78.009 L69.885,78.009 L53.323,78.009 L44.909,78.009 Z" id="Fill-5" fill="#025680" mask="url(#mask-2)"></path>
                <path d="M58.1316,66.0986 L65.2096,66.0986 C66.1636,66.0986 66.9366,65.3196 66.9366,64.3596 C66.9366,63.3996 66.1636,62.6206 65.2096,62.6206 L58.1316,62.6206 C57.1776,62.6206 56.4046,63.3996 56.4046,64.3596 C56.4046,65.3196 57.1776,66.0986 58.1316,66.0986" id="Fill-6" fill="#025680" mask="url(#mask-2)"></path>
                <path d="M58.1316,70.4951 L65.2096,70.4951 C66.1636,70.4951 66.9366,69.7171 66.9366,68.7571 C66.9366,67.7961 66.1636,67.0181 65.2096,67.0181 L58.1316,67.0181 C57.1776,67.0181 56.4046,67.7961 56.4046,68.7571 C56.4046,69.7171 57.1776,70.4951 58.1316,70.4951" id="Fill-7" fill="#025680" mask="url(#mask-2)"></path>
                <path d="M21.0212,22.3457 C17.1062,22.3457 13.9212,19.1637 13.9212,15.2517 C13.9212,11.3397 17.1062,8.1577 21.0212,8.1577 C24.9362,8.1577 28.1202,11.3397 28.1202,15.2517 C28.1202,19.1637 24.9362,22.3457 21.0212,22.3457 M21.0212,7.1637 C16.5622,7.1637 12.9352,10.7917 12.9352,15.2517 C12.9352,19.7107 16.5622,23.3397 21.0212,23.3397 C25.4792,23.3397 29.1072,19.7107 29.1072,15.2517 C29.1072,10.7917 25.4792,7.1637 21.0212,7.1637" id="Fill-8" fill="#025680" mask="url(#mask-2)"></path>
                <path d="M148.9788,8.1572 C152.8928,8.1572 156.0778,11.3402 156.0778,15.2512 C156.0778,19.1632 152.8928,22.3452 148.9788,22.3452 C145.0648,22.3452 141.8798,19.1632 141.8798,15.2512 C141.8798,11.3402 145.0648,8.1572 148.9788,8.1572 M148.9788,23.3392 C153.4378,23.3392 157.0648,19.7112 157.0648,15.2512 C157.0648,10.7922 153.4378,7.1642 148.9788,7.1642 C144.5208,7.1642 140.8928,10.7922 140.8928,15.2512 C140.8928,19.7112 144.5208,23.3392 148.9788,23.3392" id="Fill-9" fill="#025680" mask="url(#mask-2)"></path>
                <path d="M21.0212,150.2866 C17.1062,150.2866 13.9212,147.1026 13.9212,143.1906 C13.9212,139.2786 17.1062,136.0966 21.0212,136.0966 C24.9362,136.0966 28.1202,139.2786 28.1202,143.1906 C28.1202,147.1026 24.9362,150.2866 21.0212,150.2866 M21.0212,135.1026 C16.5622,135.1026 12.9352,138.7316 12.9352,143.1906 C12.9352,147.6506 16.5622,151.2796 21.0212,151.2796 C25.4792,151.2796 29.1072,147.6506 29.1072,143.1906 C29.1072,138.7316 25.4792,135.1026 21.0212,135.1026" id="Fill-10" fill="#025680" mask="url(#mask-2)"></path>
                <path d="M163.801,158.3521 C160.198,154.1871 154.772,151.7361 148.979,151.7361 C143.153,151.7361 137.754,154.1791 134.155,158.3491 C132.427,155.6321 131.41,152.4201 131.41,148.9701 C131.41,144.1351 133.377,139.7511 136.553,136.5731 C136.558,136.5691 136.564,136.5651 136.569,136.5601 C136.572,136.5571 136.574,136.5531 136.577,136.5491 C139.757,133.3791 144.143,131.4161 148.979,131.4161 C158.665,131.4161 166.546,139.2901 166.546,148.9701 C166.546,152.4211 165.53,155.6341 163.801,158.3521 Z M148.979,166.5231 C143.114,166.5231 137.925,163.6251 134.733,159.2011 C138.143,155.1251 143.348,152.7301 148.979,152.7301 C154.576,152.7301 159.814,155.1281 163.228,159.1971 C160.035,163.6231 154.845,166.5231 148.979,166.5231 Z M121.399,119.6631 L113.548,119.6631 L113.548,89.0901 C113.548,88.1291 112.776,87.3511 111.822,87.3511 L96.463,87.3511 C95.509,87.3511 94.736,88.1291 94.736,89.0901 L94.736,119.6631 L91.112,119.6631 L91.112,76.9521 L138.411,76.9521 L138.411,119.6631 L121.402,119.6631 L121.399,119.6631 Z M98.19,119.6401 L110.095,119.6401 L110.095,90.8281 L98.19,90.8281 L98.19,119.6401 Z M74.925,57.8541 L124.084,57.8541 L136.537,73.4751 L90.112,73.4751 L74.925,57.8541 Z M87.657,119.6631 L48.604,119.6631 L48.594,119.6631 L35.016,119.6631 L35.016,75.9241 L61.343,48.9711 L69.586,57.3321 L87.657,75.9221 L87.657,119.6631 Z M38.756,47.2741 L45.525,47.2741 C45.527,47.2741 45.528,47.2741 45.53,47.2741 C45.531,47.2741 45.533,47.2741 45.535,47.2741 L48.258,47.2741 L48.258,57.4081 L38.756,67.1371 L38.756,47.2741 Z M38.588,148.9701 C38.588,152.4211 37.572,155.6331 35.843,158.3511 C32.239,154.1871 26.813,151.7361 21.021,151.7361 C15.195,151.7361 9.797,154.1791 6.198,158.3501 C4.469,155.6321 3.453,152.4201 3.453,148.9701 C3.453,139.2901 11.334,131.4161 21.021,131.4161 C30.707,131.4161 38.588,139.2901 38.588,148.9701 Z M21.021,166.5231 C15.156,166.5231 9.968,163.6251 6.775,159.2011 C10.186,155.1251 15.39,152.7301 21.021,152.7301 C26.618,152.7301 31.855,155.1281 35.27,159.1961 C32.078,163.6231 26.887,166.5231 21.021,166.5231 Z M21.021,23.7971 C15.195,23.7971 9.796,26.2401 6.197,30.4101 C4.469,27.6931 3.453,24.4811 3.453,21.0301 C3.453,11.3521 11.334,3.4771 21.021,3.4771 C30.707,3.4771 38.588,11.3521 38.588,21.0301 C38.588,24.4811 37.572,27.6941 35.843,30.4121 C32.24,26.2481 26.813,23.7971 21.021,23.7971 Z M21.021,38.5831 C15.157,38.5831 9.968,35.6861 6.775,31.2611 C10.186,27.1861 15.389,24.7901 21.021,24.7901 C26.618,24.7901 31.855,27.1891 35.269,31.2571 C32.077,35.6851 26.887,38.5831 21.021,38.5831 Z M131.41,21.0301 C131.41,11.3521 139.291,3.4771 148.979,3.4771 C158.665,3.4771 166.546,11.3521 166.546,21.0301 C166.546,24.4821 165.53,27.6951 163.801,30.4121 C160.198,26.2481 154.772,23.7971 148.979,23.7971 C143.152,23.7971 137.754,26.2391 134.155,30.4101 C132.427,27.6931 131.41,24.4811 131.41,21.0301 Z M148.979,38.5831 C143.114,38.5831 137.926,35.6861 134.733,31.2611 C138.143,27.1861 143.347,24.7901 148.979,24.7901 C154.576,24.7901 159.814,27.1891 163.228,31.2571 C160.035,35.6851 154.845,38.5831 148.979,38.5831 Z M148.979,127.9391 C143.804,127.9391 139.068,129.8291 135.401,132.9421 L125.597,123.1401 L140.138,123.1401 C141.091,123.1401 141.864,122.3621 141.864,121.4011 L141.864,75.2121 C141.864,75.2071 141.862,75.2031 141.862,75.1981 C141.861,75.0221 141.826,74.8541 141.777,74.6951 C141.767,74.6641 141.759,74.6331 141.748,74.6021 C141.689,74.4441 141.607,74.2981 141.507,74.1651 C141.497,74.1531 141.493,74.1371 141.484,74.1241 L126.258,55.0271 C125.93,54.6161 125.435,54.3761 124.911,54.3761 L118.077,54.3761 L135.401,37.0571 C139.067,40.1711 143.804,42.0601 148.979,42.0601 C160.57,42.0601 170,32.6261 170,21.0301 C170,9.4341 160.57,0.0001 148.979,0.0001 C137.388,0.0001 127.957,9.4341 127.957,21.0301 C127.957,26.2031 129.842,30.9381 132.95,34.6051 L113.176,54.3761 L71.538,54.3761 L62.562,45.2721 C62.238,44.9431 61.797,44.7581 61.337,44.7581 L61.333,44.7581 C60.871,44.7591 60.429,44.9471 60.106,45.2781 L51.712,53.8731 L51.712,45.5351 C51.712,44.5751 50.938,43.7961 49.985,43.7961 L46.24,43.7961 L37.048,34.6051 C40.156,30.9381 42.041,26.2031 42.041,21.0301 C42.041,9.4341 32.612,0.0001 21.021,0.0001 C9.43,0.0001 0,9.4341 0,21.0301 C0,32.6261 9.43,42.0601 21.021,42.0601 C26.197,42.0601 30.932,40.1711 34.599,37.0571 L41.34,43.7961 L37.029,43.7961 C36.075,43.7961 35.302,44.5751 35.302,45.5351 L35.302,70.6721 L32.058,73.9941 C31.74,74.3181 31.563,74.7571 31.563,75.2121 L31.563,121.4011 C31.563,122.3621 32.336,123.1401 33.289,123.1401 L44.404,123.1401 L34.599,132.9431 C30.933,129.8291 26.197,127.9391 21.021,127.9391 C9.43,127.9391 0,137.3731 0,148.9701 C0,160.5661 9.43,170.0001 21.021,170.0001 C32.612,170.0001 42.041,160.5661 42.041,148.9701 C42.041,143.7971 40.156,139.0621 37.049,135.3951 L49.306,123.1401 L120.694,123.1401 L132.95,135.3941 C129.843,139.0611 127.957,143.7961 127.957,148.9701 C127.957,160.5661 137.388,170.0001 148.979,170.0001 C160.57,170.0001 170,160.5661 170,148.9701 C170,137.3731 160.57,127.9391 148.979,127.9391 Z" id="Fill-11" fill="#025680" mask="url(#mask-2)"></path>
                <path d="M148.9788,150.2866 C145.0648,150.2866 141.8798,147.1026 141.8798,143.1906 C141.8798,139.2786 145.0648,136.0966 148.9788,136.0966 C152.8928,136.0966 156.0778,139.2786 156.0778,143.1906 C156.0778,147.1026 152.8928,150.2866 148.9788,150.2866 M148.9788,135.1026 C144.5208,135.1026 140.8928,138.7316 140.8928,143.1906 C140.8928,147.6506 144.5208,151.2796 148.9788,151.2796 C153.4378,151.2796 157.0648,147.6506 157.0648,143.1906 C157.0648,138.7316 153.4378,135.1026 148.9788,135.1026" id="Fill-12" fill="#025680" mask="url(#mask-2)"></path>
            </g>
        </g>
    </g>
</svg>