<?xml version="1.0" encoding="UTF-8"?>
<svg width="170px" height="170px" viewBox="0 0 170 170" version="1.1" xmlns="http://www.w3.org/2000/svg" xmlns:xlink="http://www.w3.org/1999/xlink">
    <!-- Generator: Sketch 52.4 (67378) - http://www.bohemiancoding.com/sketch -->
    <title>step_1</title>
    <desc>Created with Sketch.</desc>
    <defs>
        <polygon id="path-1" points="0.266 0 34 0 34 169.9999 0.266 169.9999"></polygon>
        <polygon id="path-3" points="0 0 116.6588 0 116.6588 169.9996 0 169.9996"></polygon>
    </defs>
    <g id="Page-1" stroke="none" stroke-width="1" fill="none" fill-rule="evenodd">
        <g id="Home_Page_02_A" transform="translate(-197.000000, -1515.000000)">
            <g id="step_1" transform="translate(197.000000, 1515.000000)">
                <path d="M85.2949,5.2949 C129.4779,5.2949 165.2949,41.1119 165.2949,85.2949 C165.2949,129.4779 129.4779,165.2949 85.2949,165.2949 C41.1119,165.2949 5.2949,129.4779 5.2949,85.2949 C5.2949,41.1119 41.1119,5.2949 85.2949,5.2949" id="Fill-1" fill="#EAF2F9"></path>
                <g id="Group-5" transform="translate(136.000000, 0.000000)">
                    <mask id="mask-2" fill="white">
                        <use xlink:href="#path-1"></use>
                    </mask>
                    <g id="Clip-4"></g>
                    <path d="M3.791,21.3589 L3.791,8.6439 C3.791,5.8219 6.094,3.5259 8.926,3.5259 L25.339,3.5259 C28.171,3.5259 30.475,5.8219 30.475,8.6439 L30.475,21.3589 L3.791,21.3589 Z M13.644,136.1769 L20.621,136.1769 L20.621,24.8849 L13.644,24.8849 L13.644,136.1769 Z M17.133,164.2869 L4.877,139.7019 L29.389,139.7019 L17.133,164.2869 Z M3.791,136.1759 L10.119,136.1759 L10.119,24.8839 L3.791,24.8839 L3.791,136.1759 Z M25.339,-0.0001 L8.926,-0.0001 C4.15,-0.0001 0.266,3.8779 0.266,8.6439 L0.266,137.9399 C0.266,138.0629 0.278,138.1829 0.303,138.2989 C0.304,138.3039 0.306,138.3079 0.307,138.3129 C0.335,138.4429 0.38,138.5669 0.436,138.6849 C0.441,138.6979 0.443,138.7129 0.45,138.7269 L15.555,169.0249 C15.853,169.6219 16.464,169.9999 17.133,169.9999 C17.802,169.9999 18.412,169.6219 18.71,169.0249 L33.815,138.7269 C33.821,138.7129 33.823,138.6979 33.829,138.6849 C33.885,138.5669 33.931,138.4429 33.959,138.3129 C33.96,138.3079 33.962,138.3039 33.963,138.2989 C33.987,138.1829 34,138.0629 34,137.9399 L34,55.7739 C34,54.7999 33.211,54.0109 32.237,54.0109 C31.264,54.0109 30.475,54.7999 30.475,55.7739 L30.475,136.1769 L24.146,136.1769 L24.146,24.8839 L30.475,24.8839 L30.475,43.6419 C30.475,44.6149 31.264,45.4049 32.237,45.4049 C33.211,45.4049 34,44.6149 34,43.6419 L34,8.6439 C34,3.8779 30.114,-0.0001 25.339,-0.0001 Z" id="Fill-3" fill="#025680" mask="url(#mask-2)"></path>
                </g>
                <path d="M21.1904,36.7485 C21.1904,37.7225 21.9804,38.5115 22.9534,38.5115 L93.7064,38.5115 C94.6794,38.5115 95.4684,37.7225 95.4684,36.7485 C95.4684,35.7755 94.6794,34.9855 93.7064,34.9855 L22.9534,34.9855 C21.9804,34.9855 21.1904,35.7755 21.1904,36.7485" id="Fill-6" fill="#025680"></path>
                <path d="M22.9531,49.9331 L69.9781,49.9331 C70.9511,49.9331 71.7411,49.1441 71.7411,48.1711 C71.7411,47.1971 70.9511,46.4081 69.9781,46.4081 L22.9531,46.4081 C21.9801,46.4081 21.1901,47.1971 21.1901,48.1711 C21.1901,49.1441 21.9801,49.9331 22.9531,49.9331" id="Fill-8" fill="#025680"></path>
                <path d="M93.7061,57.8311 L22.9531,57.8311 C21.9801,57.8311 21.1901,58.6201 21.1901,59.5941 C21.1901,60.5671 21.9801,61.3561 22.9531,61.3561 L93.7061,61.3561 C94.6801,61.3561 95.4691,60.5671 95.4691,59.5941 C95.4691,58.6201 94.6801,57.8311 93.7061,57.8311" id="Fill-10" fill="#025680"></path>
                <path d="M93.7061,69.2529 L68.2791,69.2529 C67.3061,69.2529 66.5171,70.0429 66.5171,71.0159 C66.5171,71.9889 67.3061,72.7779 68.2791,72.7779 L93.7061,72.7779 C94.6801,72.7779 95.4691,71.9889 95.4691,71.0159 C95.4691,70.0429 94.6801,69.2529 93.7061,69.2529" id="Fill-12" fill="#025680"></path>
                <path d="M22.9531,72.7783 L53.3551,72.7783 C54.3281,72.7783 55.1181,71.9883 55.1181,71.0153 C55.1181,70.0423 54.3281,69.2533 53.3551,69.2533 L22.9531,69.2533 C21.9801,69.2533 21.1901,70.0423 21.1901,71.0153 C21.1901,71.9883 21.9801,72.7783 22.9531,72.7783" id="Fill-14" fill="#025680"></path>
                <path d="M93.7061,80.6748 L22.9531,80.6748 C21.9801,80.6748 21.1901,81.4648 21.1901,82.4378 C21.1901,83.4108 21.9801,84.1998 22.9531,84.1998 L93.7061,84.1998 C94.6801,84.1998 95.4691,83.4108 95.4691,82.4378 C95.4691,81.4648 94.6801,80.6748 93.7061,80.6748" id="Fill-16" fill="#025680"></path>
                <path d="M69.978,92.0977 L22.953,92.0977 C21.98,92.0977 21.19,92.8867 21.19,93.8607 C21.19,94.8337 21.98,95.6227 22.953,95.6227 L69.978,95.6227 C70.951,95.6227 71.741,94.8337 71.741,93.8607 C71.741,92.8867 70.951,92.0977 69.978,92.0977" id="Fill-18" fill="#025680"></path>
                <g id="Group-22">
                    <mask id="mask-4" fill="white">
                        <use xlink:href="#path-3"></use>
                    </mask>
                    <g id="Clip-21"></g>
                    <path d="M113.1338,166.4746 L3.5258,166.4746 L3.5258,14.7476 L36.0228,14.7476 L36.0228,18.9586 L14.4938,18.9586 C13.5208,18.9586 12.7318,19.7476 12.7318,20.7216 L12.7318,160.5006 C12.7318,161.4746 13.5208,162.2636 14.4938,162.2636 L102.1638,162.2636 C103.1388,162.2636 103.9268,161.4746 103.9268,160.5006 L103.9268,20.7216 C103.9268,19.7476 103.1388,18.9586 102.1638,18.9586 L80.6358,18.9586 L80.6358,14.7476 L113.1338,14.7476 L113.1338,166.4746 Z M77.1108,10.9436 L77.1108,23.5636 L39.5478,23.5636 L39.5478,20.7256 C39.5478,20.7246 39.5488,20.7236 39.5488,20.7216 C39.5488,20.7196 39.5478,20.7186 39.5478,20.7166 L39.5478,12.9896 C39.5478,12.9886 39.5488,12.9866 39.5488,12.9846 C39.5488,12.9836 39.5478,12.9816 39.5478,12.9796 L39.5478,10.9436 L77.1108,10.9436 Z M37.7848,27.0896 L78.8738,27.0896 C79.8468,27.0896 80.6358,26.2996 80.6358,25.3266 L80.6358,22.4836 L100.4018,22.4836 L100.4018,158.7386 L16.2568,158.7386 L16.2568,22.4836 L36.0228,22.4836 L36.0228,25.3266 C36.0228,26.2996 36.8118,27.0896 37.7848,27.0896 Z M50.2808,6.8076 C50.2808,4.9976 51.7538,3.5256 53.5638,3.5256 L63.0948,3.5256 C64.9058,3.5256 66.3788,4.9976 66.3788,6.8076 L66.3788,7.4176 L50.2808,7.4176 L50.2808,6.8076 Z M114.8968,11.2226 L80.6358,11.2226 L80.6358,9.1816 C80.6358,8.2076 79.8468,7.4186 78.8738,7.4186 L69.9038,7.4186 L69.9038,6.8076 C69.9038,3.0546 66.8498,-0.0004 63.0948,-0.0004 L53.5638,-0.0004 C49.8098,-0.0004 46.7558,3.0546 46.7558,6.8076 L46.7558,7.4186 L37.7848,7.4186 C36.8118,7.4186 36.0228,8.2076 36.0228,9.1816 L36.0228,11.2226 L1.7628,11.2226 C0.7898,11.2226 -0.0002,12.0116 -0.0002,12.9846 L-0.0002,168.2376 C-0.0002,169.2106 0.7898,169.9996 1.7628,169.9996 L114.8968,169.9996 C115.8698,169.9996 116.6588,169.2106 116.6588,168.2376 L116.6588,12.9846 C116.6588,12.0116 115.8698,11.2226 114.8968,11.2226 Z" id="Fill-20" fill="#025680" mask="url(#mask-4)"></path>
                </g>
            </g>
        </g>
    </g>
</svg>