<?xml version="1.0" encoding="UTF-8"?>
<svg width="30px" height="30px" viewBox="0 0 30 30" version="1.1" xmlns="http://www.w3.org/2000/svg" xmlns:xlink="http://www.w3.org/1999/xlink">
    <!-- Generator: Sketch 50.2 (55047) - http://www.bohemiancoding.com/sketch -->
    <title>Group 4@1x</title>
    <desc>Created with Sketch.</desc>
    <defs></defs>
    <g id="Symbols" stroke="none" stroke-width="1" fill="none" fill-rule="evenodd">
        <g id="Desktop-Footer" transform="translate(-1026.000000, -210.000000)">
            <g id="Group-3">
                <g id="Group-2" transform="translate(1026.000000, 210.000000)">
                    <g id="Group-4">
                        <circle id="Oval-Copy-2" fill="#272727" cx="15" cy="15" r="15"></circle>
                        <g id="facebook-letter-logo" transform="translate(12.000000, 8.000000)" fill="#FFFFFF" fill-rule="nonzero">
                            <path d="M5.95331397,0 L4.51528237,0 C3.41506308,0 2.62480598,0.264830679 2.1445363,0.794312803 C1.66411512,1.32397416 1.42411916,2.10402508 1.42411916,3.13479842 L1.42411916,4.11733227 C1.42411916,4.37699077 1.21659397,4.58743681 0.960539359,4.58743681 L0.463579797,4.58743681 C0.207525182,4.58743681 0,4.79788285 0,5.05754135 L0,6.52989546 C0,6.78955396 0.207525182,7 0.463579797,7 L0.960539359,7 C1.21659397,7 1.42411916,7.21044604 1.42411916,7.47010454 L1.42411916,13.5298955 C1.42411916,13.789554 1.63164434,14 1.88769895,14 L3.81710999,14 C4.0731646,14 4.28068978,13.7895284 4.28068978,13.5298955 L4.28068978,7.47013015 C4.28068978,7.21044604 4.48824021,7.0000256 4.74426958,7.0000256 L5.71869613,7.0000256 C5.974776,7.0000256 6.20409145,6.79068058 6.23098211,6.53258397 L6.38487747,5.05487845 C6.41176813,4.79665382 6.22603322,4.58743681 5.96995335,4.58743681 L4.74411808,4.58743681 C4.48806347,4.58743681 4.28053829,4.37699077 4.28053829,4.11733227 L4.28053829,3.38114241 C4.28053829,3.19998829 4.28889585,3.05975068 4.30571198,2.9605576 C4.32240186,2.86151815 4.36009928,2.76388696 4.41882949,2.66751041 C4.47738295,2.57131309 4.57242186,2.50471495 4.70361797,2.46786961 C4.83478884,2.43104987 5.00941399,2.41256319 5.22713995,2.41256319 L5.95311197,2.41256319 C6.20916659,2.41256319 6.41666652,2.20211715 6.41666652,1.94245865 L6.41666652,0.470104541 C6.41686851,0.210446036 6.20934333,0 5.95331397,0 Z" id="Shape"></path>
                        </g>
                    </g>
                </g>
            </g>
        </g>
    </g>
</svg>