<?xml version="1.0" encoding="UTF-8"?>
<svg width="30px" height="30px" viewBox="0 0 30 30" version="1.1" xmlns="http://www.w3.org/2000/svg" xmlns:xlink="http://www.w3.org/1999/xlink">
    <!-- Generator: Sketch 50.2 (55047) - http://www.bohemiancoding.com/sketch -->
    <title>Group 6@1x</title>
    <desc>Created with Sketch.</desc>
    <defs></defs>
    <g id="Symbols" stroke="none" stroke-width="1" fill="none" fill-rule="evenodd">
        <g id="Desktop-Footer" transform="translate(-1116.000000, -210.000000)">
            <g id="Group-3">
                <g id="Group-2" transform="translate(1026.000000, 210.000000)">
                    <g id="Group-6" transform="translate(90.000000, 0.000000)">
                        <circle id="Oval" fill="#272727" cx="15" cy="15" r="15"></circle>
                        <g id="insta" transform="translate(8.000000, 8.000000)" fill="#FFFFFF" fill-rule="nonzero">
                            <path d="M10.732612,4.10046368 C11.1956947,4.10046368 11.5710973,3.72506102 11.5710973,3.26197836 C11.5710973,2.79889571 11.1956947,2.42349304 10.732612,2.42349304 C10.2695294,2.42349304 9.89412675,2.79889571 9.89412675,3.26197836 C9.89412675,3.72506102 10.2695294,4.10046368 10.732612,4.10046368 Z M6.9945904,3.40262751 C5.00927355,3.40262751 3.39721793,5.01468315 3.39721793,7 C3.39721793,8.98531685 5.00927355,10.5973725 6.9945904,10.5973725 C8.97990725,10.5973725 10.5919629,8.98531685 10.5919629,7 C10.5919629,5.01468315 8.97990725,3.40262751 6.9945904,3.40262751 Z M6.9945904,9.3369397 C5.70710975,9.3369397 4.65765069,8.29289025 4.65765069,7 C4.65765069,5.7125193 5.70170015,4.66306028 6.9945904,4.66306028 C8.2874807,4.66306028 9.33153015,5.70710975 9.33153015,7 C9.33153015,8.2874807 8.2820711,9.3369397 6.9945904,9.3369397 Z M13.6321484,2.41267388 C13.4536321,1.95285935 13.2156105,1.5633694 12.8261205,1.17387945 C12.4366306,0.78438949 12.0471406,0.54636785 11.5873261,0.367851623 C11.1437403,0.194744977 10.62983,0.0757341575 9.88871715,0.0432766615 C9.14219475,0.0108191654 8.9041731,0 7,0 C5.0958269,0 4.85780525,0.0054095827 4.11128284,0.0432766615 C3.36476043,0.0757341575 2.85625966,0.194744977 2.41267388,0.367851623 C1.95285935,0.54636785 1.56336939,0.78438949 1.17387944,1.17387945 C0.78438949,1.5633694 0.54636785,1.95285935 0.367851623,2.41267388 C0.194744977,2.85625966 0.0757341575,3.37017001 0.0432766615,4.11128284 C0.0108191654,4.85780525 0,5.0958269 0,7 C0,8.9041731 0.0054095827,9.14219475 0.0432766615,9.88871715 C0.0757341575,10.6352395 0.194744977,11.1437403 0.367851623,11.5873261 C0.54636785,12.0471406 0.78438949,12.4366306 1.17387944,12.8261206 C1.56336939,13.2156105 1.95285935,13.4536322 2.41267388,13.6321484 C2.85625966,13.805255 3.37017001,13.9242658 4.11128284,13.9567234 C4.85780525,13.9891809 5.0958269,14 7,14 C8.9041731,14 9.14219475,13.9945904 9.88871715,13.9567234 C10.6352395,13.9242658 11.1437403,13.805255 11.5873261,13.6321484 C12.0471406,13.4536322 12.4366306,13.2156105 12.8261205,12.8261206 C13.2156105,12.4366306 13.4536321,12.0471406 13.6321484,11.5873261 C13.805255,11.1437403 13.9242658,10.62983 13.9567233,9.88871715 C13.9891808,9.14219475 14,8.9041731 14,7 C14,5.0958269 13.9945904,4.85780525 13.9567233,4.11128284 C13.9242658,3.36476043 13.805255,2.85625966 13.6321484,2.41267388 Z M12.6962905,9.82921175 C12.6638331,10.5108192 12.5502318,10.8840804 12.4528593,11.1275116 C12.3284389,11.4520866 12.171561,11.6901082 11.9281298,11.9335394 C11.6846986,12.1769707 11.4520865,12.328439 11.122102,12.458269 C10.8732612,12.5556414 10.5054096,12.6692427 9.82380215,12.7017002 C9.08268935,12.7341577 8.86630605,12.7449768 6.9945904,12.7449768 C5.1228748,12.7449768 4.90108191,12.7395673 4.16537867,12.7017002 C3.48377125,12.6692427 3.11051004,12.5556414 2.86707882,12.458269 C2.54250386,12.3338486 2.30448222,12.1769707 2.061051,11.9335394 C1.81761978,11.6901082 1.66615147,11.4574962 1.53632148,11.1275116 C1.43894899,10.8786708 1.32534776,10.5108192 1.29289026,9.82921175 C1.26043276,9.0880989 1.2496136,8.86630605 1.2496136,7 C1.2496136,5.13369395 1.25502318,4.9064915 1.29289026,4.17078826 C1.32534776,3.48918084 1.43894899,3.11591963 1.53632148,2.87248841 C1.66074188,2.54791345 1.81761978,2.30989181 2.061051,2.06646059 C2.30448222,1.82302937 2.53709428,1.67156105 2.86707882,1.54173107 C3.11591963,1.44435858 3.48377125,1.33075734 4.16537867,1.29829984 C4.9064915,1.26584235 5.1282844,1.25502318 6.9945904,1.25502318 C8.86089645,1.25502318 9.0880989,1.26043276 9.82380215,1.29829984 C10.5054096,1.33075734 10.8786708,1.44435858 11.122102,1.54173107 C11.4466769,1.66615147 11.6846986,1.82302937 11.9281298,2.06646059 C12.171561,2.30989181 12.3230293,2.54250387 12.4528593,2.87248841 C12.5502318,3.12132921 12.6638331,3.48918084 12.6962905,4.17078826 C12.728748,4.91190108 12.7395672,5.13369395 12.7395672,7 C12.7395672,8.86630605 12.728748,9.0935085 12.6962905,9.82921175 Z" id="XMLID_143_"></path>
                        </g>
                    </g>
                </g>
            </g>
        </g>
    </g>
</svg>