<?xml version="1.0" encoding="UTF-8"?>
<svg width="30px" height="30px" viewBox="0 0 30 30" version="1.1" xmlns="http://www.w3.org/2000/svg" xmlns:xlink="http://www.w3.org/1999/xlink">
    <!-- Generator: Sketch 50.2 (55047) - http://www.bohemiancoding.com/sketch -->
    <title>Group 5@1x</title>
    <desc>Created with Sketch.</desc>
    <defs></defs>
    <g id="Symbols" stroke="none" stroke-width="1" fill="none" fill-rule="evenodd">
        <g id="Desktop-Footer" transform="translate(-1071.000000, -210.000000)">
            <g id="Group-3">
                <g id="Group-2" transform="translate(1026.000000, 210.000000)">
                    <g id="Group-5" transform="translate(45.000000, 0.000000)">
                        <circle id="Oval-Copy" fill="#272727" cx="15" cy="15" r="15"></circle>
                        <g id="twitter" transform="translate(8.000000, 9.000000)" fill="#FFFFFF" fill-rule="nonzero">
                            <path d="M15,1.42050999 C14.448048,1.66143863 13.8550218,1.82429763 13.232523,1.89752217 C13.8678538,1.52260328 14.3558216,0.928933644 14.5856258,0.221490543 C13.9909297,0.568694273 13.3323958,0.820783965 12.6313816,0.956619962 C12.0700546,0.367853109 11.2702221,0 10.3850774,0 C8.68553968,0 7.30768104,1.35631234 7.30768104,3.02931577 C7.30768104,3.26675479 7.33489778,3.49796438 7.38736838,3.71971448 C4.82975619,3.59333798 2.5621532,2.38731044 1.04434366,0.554447355 C0.779441837,1.00186979 0.627655024,1.5222572 0.627655024,2.0774544 C0.627655024,3.12849624 1.17093521,4.05575717 1.99669532,4.59901464 C1.49223341,4.58326804 1.01771286,4.44699945 0.602840619,4.220087 C0.602547651,4.23271888 0.602547651,4.24540845 0.602547651,4.25818453 C0.602547651,5.72596313 1.66335613,6.95033286 3.07112681,7.22869571 C2.81293396,7.29788267 2.54103019,7.33502848 2.26036668,7.33502848 C2.06205652,7.33502848 1.86928346,7.31599414 1.68134437,7.28057872 C2.07298423,8.48406835 3.20946639,9.36005191 4.55612391,9.38442164 C3.50290331,10.1970151 2.17596255,10.6812661 0.73411966,10.6812661 C0.485711942,10.6812661 0.240761249,10.6669615 0,10.6388426 C1.36189187,11.4984739 2.97951567,12 4.7174029,12 C10.3778704,12 13.4732842,7.38382561 13.4732842,3.38055709 C13.4732842,3.24922012 13.4702374,3.11857531 13.4643487,2.98862265 C14.0656952,2.56153236 14.5874422,2.02799394 15,1.42050999 Z" id="Shape"></path>
                        </g>
                    </g>
                </g>
            </g>
        </g>
    </g>
</svg>