<?xml version="1.0" encoding="UTF-8"?>
<svg width="165px" height="62px" viewBox="0 0 165 62" version="1.1" xmlns="http://www.w3.org/2000/svg" xmlns:xlink="http://www.w3.org/1999/xlink">
    <!-- Generator: Sketch 52.5 (67469) - http://www.bohemiancoding.com/sketch -->
    <title>BNN_Bloomberg</title>
    <desc>Created with Sketch.</desc>
    <g id="Homepage" stroke="none" stroke-width="1" fill="none" fill-rule="evenodd">
        <g id="Home_Page_01" transform="translate(-540.000000, -721.000000)">
            <g id="BNN_Bloomberg" transform="translate(540.000000, 721.000000)">
                <path d="M20.8580508,0.466101695 L34.4915254,0.466101695 C38.5699153,0.466101695 42.1822034,2.49364407 42.1822034,6.52542373 C42.1822034,8.62288136 40.9004237,10.2775424 38.9194915,11.0233051 C41.6927966,11.7923729 43.6737288,13.6567797 43.6737288,16.5466102 C43.6737288,20.6016949 40.154661,23.1186441 35.470339,23.1186441 L20.8580508,23.1186441 L20.8580508,0.466101695 Z M25.7754237,9.53177966 L33.9088983,9.53177966 C36.0762712,9.53177966 37.2182203,8.34322034 37.2182203,6.96822034 C37.2182203,5.63983051 36.0762712,4.45127119 33.9088983,4.45127119 L25.7754237,4.45127119 L25.7754237,9.53177966 Z M25.7754237,19.1567797 L34.8877119,19.1567797 C37.1016949,19.1567797 38.7097458,17.9216102 38.7097458,16.3368644 C38.7097458,14.7055085 37.1016949,13.4936441 34.8877119,13.4936441 L25.7754237,13.4936441 L25.7754237,19.1567797 Z" id="Shape" fill="#7C7C7C" fill-rule="nonzero"></path>
                <polygon id="Path" fill="#FFFFFF" points="50.5487288 9.76483051 50.5487288 23.1419492 45.6313559 23.1419492 45.6313559 0 62.8538136 13.8432203 62.8538136 0.466101695 67.7711864 0.466101695 67.7711864 23.6080508"></polygon>
                <polygon id="Path" fill="#FFFFFF" points="75.6483051 9.76483051 75.6483051 23.1419492 70.7076271 23.1419492 70.7076271 0 87.9300847 13.8432203 87.9300847 0.466101695 92.8707627 0.466101695 92.8707627 23.6080508"></polygon>
                <path d="M4.33474576,32.4872881 L7.92372881,32.4872881 C11.2097458,32.4872881 12.6313559,33.5127119 12.6313559,35.6334746 C12.6313559,37.4512712 11.1864407,38.7097458 8.29661017,38.7097458 L4.33474576,38.7097458 L4.33474576,32.4872881 Z M0,53.1588983 L8.78601695,53.1588983 C13.4004237,53.1588983 18.0148305,51.5042373 18.0148305,46.2139831 C18.0148305,43.0677966 15.8241525,40.6673729 12.7478814,40.3177966 L12.7478814,40.2478814 C15.2648305,39.5021186 16.9894068,37.6610169 16.9894068,34.9110169 C16.9894068,30.4597458 13.190678,28.7817797 9.50847458,28.7817797 L0,28.7817797 L0,53.1588983 Z M4.33474576,42.4152542 L8.50635593,42.4152542 C12.0254237,42.4152542 13.6800847,43.3008475 13.6800847,45.8644068 C13.6800847,49.0572034 10.5805085,49.4533898 8.34322034,49.4533898 L4.33474576,49.4533898 L4.33474576,42.4152542 Z" id="Shape" fill="#FFFFFF" fill-rule="nonzero"></path>
                <rect id="Rectangle" fill="#FFFFFF" x="20.8580508" y="28.1991525" width="4.125" height="24.9597458"></rect>
                <path d="M31.8813559,44.8855932 C31.8813559,42.2987288 33.6991525,39.9216102 36.7288136,39.9216102 C39.7584746,39.9216102 41.5762712,42.2987288 41.5762712,44.8855932 C41.5762712,47.4724576 39.7584746,49.8495763 36.7288136,49.8495763 C33.6991525,49.8495763 31.8813559,47.4724576 31.8813559,44.8855932 M27.7330508,44.8855932 C27.7330508,50.0826271 31.7182203,53.5550847 36.7288136,53.5550847 C41.7161017,53.5550847 45.7245763,50.0826271 45.7245763,44.8855932 C45.7245763,39.6885593 41.7161017,36.1927966 36.7288136,36.1927966 C31.7415254,36.2161017 27.7330508,39.6885593 27.7330508,44.8855932" id="Shape" fill="#FFFFFF" fill-rule="nonzero"></path>
                <path d="M51.7372881,44.8855932 C51.7372881,42.2987288 53.5550847,39.9216102 56.5847458,39.9216102 C59.6144068,39.9216102 61.4322034,42.2987288 61.4322034,44.8855932 C61.4322034,47.4724576 59.6144068,49.8495763 56.5847458,49.8495763 C53.5550847,49.8495763 51.7372881,47.4724576 51.7372881,44.8855932 M47.5889831,44.8855932 C47.5889831,50.0826271 51.5741525,53.5550847 56.5847458,53.5550847 C61.5720339,53.5550847 65.5805085,50.0826271 65.5805085,44.8855932 C65.5805085,39.6885593 61.5720339,36.1927966 56.5847458,36.1927966 C51.5974576,36.2161017 47.5889831,39.6885593 47.5889831,44.8855932" id="Shape" fill="#FFFFFF" fill-rule="nonzero"></path>
                <path d="M68.0974576,36.6355932 L72.0360169,36.6355932 L72.0360169,39.2224576 L72.1059322,39.2224576 C72.8283898,37.6610169 74.4131356,36.2161017 77.1631356,36.2161017 C79.7033898,36.2161017 81.4745763,37.2182203 82.3368644,39.2923729 C83.5487288,37.1949153 85.2966102,36.2161017 87.7669492,36.2161017 C92.1716102,36.2161017 93.7330508,39.3622881 93.7330508,43.3241525 L93.7330508,53.1822034 L89.6080508,53.1822034 L89.6080508,43.8135593 C89.6080508,41.7394068 89.0021186,39.9682203 86.5550847,39.9682203 C83.9682203,39.9682203 83.0127119,42.1122881 83.0127119,44.2330508 L83.0127119,53.1822034 L78.8877119,53.1822034 L78.8877119,43.3241525 C78.8877119,41.2966102 78.0720339,39.9449153 76.0677966,39.9449153 C73.3411017,39.9449153 72.2690678,41.9258475 72.2690678,44.1398305 L72.2690678,53.1588983 L68.1440678,53.1588983 C68.0974576,53.1588983 68.0974576,36.6355932 68.0974576,36.6355932 Z" id="Path" fill="#FFFFFF"></path>
                <path d="M110.792373,44.8855932 C110.792373,47.4724576 108.974576,49.8495763 105.944915,49.8495763 C102.915254,49.8495763 101.097458,47.4724576 101.097458,44.8855932 C101.097458,42.2987288 102.915254,39.9216102 105.944915,39.9216102 C108.951271,39.9216102 110.792373,42.3220339 110.792373,44.8855932 Z M97.065678,53.1588983 L101.004237,53.1588983 L101.004237,50.6885593 L101.074153,50.6885593 C102.286017,52.6694915 104.45339,53.5783898 106.760593,53.5783898 C111.841102,53.5783898 114.917373,49.779661 114.917373,44.9088983 C114.917373,40.0148305 111.631356,36.2161017 106.923729,36.2161017 C103.824153,36.2161017 102.169492,37.6610169 101.307203,38.7330508 L101.213983,38.7330508 L101.213983,28.1991525 L97.0889831,28.1991525 L97.065678,53.1588983 Z" id="Shape" fill="#FFFFFF" fill-rule="nonzero"></path>
                <path d="M120.930085,43.2542373 C121.233051,40.8771186 122.747881,39.315678 125.194915,39.315678 C127.78178,39.315678 129.366525,40.8305085 129.389831,43.2542373 L120.930085,43.2542373 Z M133.538136,46.3305085 L133.538136,45.2118644 C133.538136,39.4555085 130.415254,36.2161017 125.777542,36.2161017 C120.766949,36.2161017 116.78178,39.6885593 116.78178,44.9088983 C116.78178,50.1292373 120.766949,53.5783898 125.777542,53.5783898 C128.387712,53.5783898 130.834746,52.6461864 132.769068,50.2690678 L129.809322,48.0317797 C128.783898,49.2902542 127.432203,50.2690678 125.358051,50.2690678 C123.050847,50.2690678 121.186441,48.7775424 120.90678,46.3305085 L133.538136,46.3305085 Z" id="Shape" fill="#FFFFFF" fill-rule="nonzero"></path>
                <path d="M136.21822,36.6355932 L140.34322,36.6355932 L140.34322,39.2457627 L140.413136,39.2457627 C141.298729,37.3580508 143.139831,36.2161017 145.307203,36.2161017 C145.819915,36.2161017 146.309322,36.3326271 146.798729,36.4724576 L146.798729,40.4576271 C146.122881,40.2944915 145.447034,40.154661 144.794492,40.154661 C140.902542,40.154661 140.34322,43.440678 140.34322,44.3262712 L140.34322,53.1822034 L136.21822,53.1822034 L136.21822,36.6355932 Z" id="Path" fill="#FFFFFF"></path>
                <path d="M156.050847,39.9449153 C159.033898,39.9449153 160.944915,41.9258475 160.944915,44.7923729 C160.944915,47.5423729 159.080508,49.6398305 156.027542,49.6398305 C153.230932,49.6398305 151.180085,47.4724576 151.180085,44.8622881 C151.15678,41.9258475 153.137712,39.9449153 156.050847,39.9449153 Z M160.92161,36.6355932 L160.92161,39.1059322 L160.851695,39.1059322 C159.639831,37.1016949 157.472458,36.2161017 155.165254,36.2161017 C150.061441,36.2161017 147.008475,40.0148305 147.008475,44.9088983 C147.008475,49.5932203 150.294492,53.3686441 155.235169,53.3686441 C157.309322,53.3686441 159.430085,52.5762712 160.641949,50.9682203 L160.711864,50.9682203 L160.711864,52.1800847 C160.711864,55.4427966 159.476695,57.7266949 155.491525,57.7266949 C153.184322,57.7266949 151.459746,56.8644068 149.805085,55.3262712 L147.334746,58.7055085 C149.665254,60.779661 152.461864,61.4322034 155.538136,61.4322034 C161.970339,61.4322034 164.860169,57.6334746 164.860169,51.690678 L164.860169,36.6355932 L160.92161,36.6355932 Z" id="Shape" fill="#FFFFFF" fill-rule="nonzero"></path>
            </g>
        </g>
    </g>
</svg>