<?xml version="1.0" encoding="UTF-8"?>
<svg width="165px" height="18px" viewBox="0 0 165 18" version="1.1" xmlns="http://www.w3.org/2000/svg" xmlns:xlink="http://www.w3.org/1999/xlink">
    <!-- Generator: Sketch 52.5 (67469) - http://www.bohemiancoding.com/sketch -->
    <title>Toronto-Star-Logo</title>
    <desc>Created with Sketch.</desc>
    <g id="Homepage" stroke="none" stroke-width="1" fill="none" fill-rule="evenodd">
        <g id="Home_Page_01" transform="translate(-345.000000, -743.000000)">
            <g id="Toronto-Star-Logo" transform="translate(345.000000, 743.000000)">
                <polygon id="path16" fill="#FFFFFF" transform="translate(160.843169, 8.697384) scale(-1, 1) rotate(-180.000000) translate(-160.843169, -8.697384) " points="162.870131 17.3947674 163.882631 17.3947674 158.796148 8.70130814 163.881977 0 162.869259 0 157.803706 8.70130814"></polygon>
                <polygon id="path20" fill="#FFFFFF" transform="translate(3.994731, 8.697384) scale(-1, 1) rotate(-180.000000) translate(-3.994731, -8.697384) " points="1.96809593 17.3947674 0.955377907 17.3947674 6.04142442 8.70130814 0.95625 0 1.96853198 0 7.0340843 8.70130814"></polygon>
                <polygon id="path24" fill="#606060" transform="translate(3.020821, 8.697384) scale(-1, 1) rotate(-180.000000) translate(-3.020821, -8.697384) " points="0.956468023 2.84217094e-14 6.04142442 8.70130814 0.95559593 17.3947674 0.000218023256 17.3947674 5.11984012 8.6962936 0.0019622093 2.84217094e-14"></polygon>
                <polygon id="path28" fill="#606060" transform="translate(82.419222, 8.697384) scale(-1, 1) rotate(-180.000000) translate(-82.419222, -8.697384) " points="162.870131 17.3947674 1.96831395 17.3947674 7.03430233 8.70130814 1.96875 0 162.869259 0 157.803706 8.70130814"></polygon>
                <polygon id="path32" fill="#606060" transform="translate(161.816860, 8.697384) scale(-1, 1) rotate(-180.000000) translate(-161.816860, -8.697384) " points="163.881977 2.84217094e-14 158.796148 8.70130814 163.882631 17.3947674 164.837573 17.3947674 159.717515 8.6962936 164.836047 2.84217094e-14"></polygon>
                <path d="M87.2047238,10.6835529 L86.8715843,10.6242506 C86.0430959,12.9069541 84.9619186,14.0367506 83.2393169,14.0367506 L82.4675145,14.0367506 L82.4675145,3.90302965 C82.4675145,3.25964302 82.9367006,2.83427965 84.5258721,2.80462849 L84.5258721,2.55237558 L77.972311,2.55237558 L77.972311,2.80462849 C79.5462209,2.86393081 80.015407,3.25964302 80.015407,3.90302965 L80.015407,14.0367506 L79.2132994,14.0367506 C77.5321221,14.0367506 76.3301599,12.9073901 75.5962936,10.6242506 L75.2631541,10.6835529 L75.6113372,14.4226517 L86.8715843,14.4226517 L87.2047238,10.6835529" id="path36" fill="#FFFFFF" transform="translate(81.233939, 8.487514) scale(-1, 1) rotate(-180.000000) translate(-81.233939, -8.487514) "></path>
                <path d="M75.0058866,14.4525436 C73.2900436,14.1793605 72.9776163,13.5392442 72.9776163,11.9003634 L72.9776163,2.55261628 L72.0392442,2.55261628 L64.1692587,12.7015988 L64.1391715,12.7015988 L64.1391715,5.68321221 C64.1391715,4.0471657 64.500218,3.32572674 66.3636628,3.08677326 L66.3636628,2.83430233 L61.4751453,2.83430233 L61.4751453,3.08677326 C63.1933866,3.34338663 63.5941134,4.04672965 63.5941134,5.68321221 L63.5941134,12.5679506 C63.5941134,13.5717297 63.056468,14.4010901 61.4751453,14.4525436 L61.4751453,14.7045785 L65.7586483,14.7045785 L72.3872093,6.09898256 L72.4329942,6.09898256 L72.4329942,11.9003634 C72.4329942,13.5322674 71.9483285,14.212718 70.1171512,14.4525436 L70.1171512,14.7045785 L75.0058866,14.7045785 L75.0058866,14.4525436" id="path40" fill="#FFFFFF" transform="translate(68.240516, 8.628597) scale(-1, 1) rotate(-180.000000) translate(-68.240516, -8.628597) "></path>
                <path d="M23.926309,10.6835529 L23.5931695,10.6242506 C22.7644631,12.9069541 21.6835038,14.0367506 19.9611201,14.0367506 L19.1888817,14.0367506 L19.1888817,3.90302965 C19.1888817,3.25964302 19.6585038,2.83427965 21.2472392,2.80462849 L21.2472392,2.55237558 L14.6941142,2.55237558 L14.6941142,2.80462849 C16.2678061,2.86393081 16.7372102,3.25964302 16.7372102,3.90302965 L16.7372102,14.0367506 L15.9351026,14.0367506 C14.2537073,14.0367506 13.0517451,12.9073901 12.3176608,10.6242506 L11.9849573,10.6835529 L12.3331404,14.4226517 L23.5931695,14.4226517 L23.926309,10.6835529" id="path44" fill="#FFFFFF" transform="translate(17.955633, 8.487514) scale(-1, 1) rotate(-180.000000) translate(-17.955633, -8.487514) "></path>
                <path d="M97.1631541,8.5024936 C97.1631541,12.6274936 95.8861919,14.3784384 93.6673692,14.3784384 C91.4509448,14.3784384 90.1709302,12.5978424 90.1709302,8.51710116 C90.1709302,4.34806047 91.4481105,2.65663605 93.6673692,2.65663605 C95.8661337,2.65663605 97.1631541,4.37771163 97.1631541,8.5024936 M99.7663517,8.54697035 C99.7663517,4.79391802 96.9375,2.27073488 93.6673692,2.27073488 C90.2882267,2.27073488 87.5679506,4.71782791 87.5679506,8.48788605 C87.5679506,12.2234965 90.3791424,14.7490779 93.6673692,14.7490779 C97.0275436,14.7490779 99.7663517,12.3163744 99.7663517,8.54697035" id="path48" fill="#FFFFFF" fill-rule="nonzero" transform="translate(93.667151, 8.509906) scale(-1, 1) rotate(-180.000000) translate(-93.667151, -8.509906) "></path>
                <path d="M58.781468,8.5024936 C58.781468,12.6274936 57.5040698,14.3636128 55.2852471,14.3636128 C53.0688227,14.3636128 51.7892442,12.5978424 51.7892442,8.51710116 C51.7892442,4.34806047 53.0666424,2.65663605 55.2852471,2.65663605 C57.4842297,2.65663605 58.781468,4.37771163 58.781468,8.5024936 M61.3844477,8.54697035 C61.3844477,4.79391802 58.5553779,2.27073488 55.2852471,2.27073488 C51.9069767,2.27073488 49.1862645,4.71782791 49.1862645,8.48788605 C49.1862645,12.2234965 51.9976744,14.7490779 55.2852471,14.7490779 C58.6456395,14.7490779 61.3844477,12.3163744 61.3844477,8.54697035" id="path52" fill="#FFFFFF" fill-rule="nonzero" transform="translate(55.285356, 8.509906) scale(-1, 1) rotate(-180.000000) translate(-55.285356, -8.509906) "></path>
                <path d="M45.3869922,11.3960756 C45.3869922,12.9741279 44.569841,14.0372093 42.2843032,14.0372093 L41.1344485,14.0372093 L41.1344485,8.54694767 L42.2389544,8.54694767 C44.4034892,8.54694767 45.3869922,9.62507267 45.3869922,11.3960756 M50.7754369,2.55261628 L46.5675881,2.55261628 C46.0680968,3.05755814 45.338591,3.89324128 44.4941869,5.2087936 C42.7986201,7.85036337 42.4962218,8.16148256 41.4972392,8.16148256 L41.1344485,8.16148256 L41.1344485,3.90327035 C41.1344485,3.22151163 41.382777,2.85741279 42.9505823,2.80508721 L42.9505823,2.55261628 L36.7752916,2.55261628 L36.7752916,2.80508721 C38.3982567,2.85741279 38.6369922,3.2559593 38.6369922,3.90327035 L38.6369922,13.087282 C38.6369922,13.7180233 38.3978206,14.118314 36.7752916,14.1708576 L36.7752916,14.4228924 L42.6627916,14.4228924 C46.022748,14.4228924 47.9147538,13.3550145 47.9147538,11.4257267 C47.9147538,10.0125 46.5675881,8.71046512 44.0553061,8.26547965 L44.0553061,8.23561047 C45.0237654,8.04287791 45.6965852,7.56497093 46.6131549,6.33640988 L47.6424427,4.9565407 C48.7576317,3.46111919 49.5187509,2.83473837 50.7754369,2.80508721 L50.7754369,2.55261628" id="path56" fill="#FFFFFF" fill-rule="nonzero" transform="translate(43.775364, 8.487754) scale(-1, 1) rotate(-180.000000) translate(-43.775364, -8.487754) "></path>
                <path d="M33.8696955,8.5024936 C33.8696955,12.6274936 32.5927333,14.3784384 30.3732565,14.3784384 C28.1572681,14.3784384 26.8772536,12.5978424 26.8772536,8.51710116 C26.8772536,4.34806047 28.1544338,2.65663605 30.3732565,2.65663605 C32.572021,2.65663605 33.8696955,4.37771163 33.8696955,8.5024936 M36.4728931,8.54697035 C36.4728931,4.79391802 33.6433873,2.27073488 30.3732565,2.27073488 C26.9949862,2.27073488 24.274274,4.71782791 24.274274,8.48788605 C24.274274,12.2234965 27.0856838,14.7490779 30.3732565,14.7490779 C33.734085,14.7490779 36.4728931,12.3163744 36.4728931,8.54697035" id="path60" fill="#FFFFFF" fill-rule="nonzero" transform="translate(30.373584, 8.509906) scale(-1, 1) rotate(-180.000000) translate(-30.373584, -8.509906) "></path>
                <path d="M128.679724,10.6835529 L128.346584,10.6242506 C127.517878,12.9069541 126.436919,14.0367506 124.714099,14.0367506 L123.941642,14.0367506 L123.941642,3.90302965 C123.941642,3.25964302 124.289608,2.83427965 125.879651,2.80462849 L125.879651,2.55237558 L119.447529,2.55237558 L119.447529,2.80462849 C121.021439,2.86393081 121.489971,3.25964302 121.489971,3.90302965 L121.489971,14.0367506 L120.687863,14.0367506 C119.00734,14.0367506 117.804724,12.9073901 117.070858,10.6242506 L116.738154,10.6835529 L117.086555,14.4226517 L128.346584,14.4226517 L128.679724,10.6835529" id="path64" fill="#FFFFFF" transform="translate(122.708939, 8.487514) scale(-1, 1) rotate(-180.000000) translate(-122.708939, -8.487514) "></path>
                <path d="M117.025945,5.93568314 C117.025945,3.75457849 115.149201,2.27071221 111.789244,2.27071221 C109.958067,2.27071221 108.63968,2.74927326 107.778488,3.17572674 L107.188299,2.46388081 L106.99186,2.46388081 L106.62798,6.43997093 L106.930596,6.49949128 C108.081323,3.85857558 109.276962,2.65661337 111.819767,2.65661337 C113.738154,2.65661337 114.997892,3.73975291 114.997892,5.04549419 C114.997892,6.33619186 114.32311,6.91286337 111.95516,7.68662791 L110.275509,8.23561047 C108.467442,8.82623547 107.00625,9.79556686 107.00625,11.6775436 C107.00625,13.7701308 108.928779,14.7490552 111.561628,14.7490552 C113.166497,14.7490552 114.377398,14.259593 115.042587,13.8590843 L115.451381,14.4970203 L115.678779,14.4970203 L115.996657,10.7282703 L115.678779,10.66875 C114.87689,13.0281977 113.696294,14.3635901 111.547238,14.3635901 C109.942805,14.3635901 109.049782,13.4880087 109.049782,12.4938227 C109.049782,11.2916424 109.947166,10.8621366 111.561628,10.3423692 L113.544549,9.70421512 C115.563009,9.05494186 117.025945,7.99796512 117.025945,5.93568314" id="path68" fill="#FFFFFF" transform="translate(111.826962, 8.509884) scale(-1, 1) rotate(-180.000000) translate(-111.826962, -8.509884) "></path>
                <path d="M148.793677,11.3960756 C148.793677,12.9741279 147.97609,14.0372093 145.691206,14.0372093 L144.540698,14.0372093 L144.540698,8.54694767 L145.645203,8.54694767 C147.810392,8.54694767 148.793677,9.62507267 148.793677,11.3960756 M154.181686,2.55261628 L149.974055,2.55261628 C149.474346,3.05755814 148.745276,3.89324128 147.90109,5.2087936 C146.205305,7.85036337 145.902689,8.16148256 144.903706,8.16148256 L144.540698,8.16148256 L144.540698,3.90327035 C144.540698,3.22151163 144.788808,2.85741279 146.357485,2.80508721 L146.357485,2.55261628 L140.182195,2.55261628 L140.182195,2.80508721 C141.804506,2.85741279 142.043241,3.2559593 142.043241,3.90327035 L142.043241,13.0726744 C142.043241,13.7029797 141.803852,14.118314 140.182195,14.1708576 L140.182195,14.4228924 L146.069259,14.4228924 C149.429433,14.4228924 151.321221,13.3552326 151.321221,11.4257267 C151.321221,10.0125 149.974055,8.71046512 147.462209,8.26547965 L147.462209,8.23561047 C148.430233,8.04287791 149.10327,7.56497093 150.019404,6.33640988 L151.04891,4.9565407 C152.164099,3.46111919 152.925218,2.83473837 154.181686,2.80508721 L154.181686,2.55261628" id="path72" fill="#FFFFFF" fill-rule="nonzero" transform="translate(147.181940, 8.487754) scale(-1, 1) rotate(-180.000000) translate(-147.181940, -8.487754) "></path>
                <path d="M134.446003,6.92986919 L132.538953,12.1824855 L132.462645,12.1824855 L130.496076,6.92986919 L134.446003,6.92986919 Z M140.242587,2.1815407 L134.052471,2.1815407 L134.052471,2.43401163 C135.318314,2.49702035 135.75,2.68168605 135.747602,3.16111919 C135.746294,3.33292151 135.69048,3.54331395 135.596076,3.79905523 L134.567006,6.58844477 L130.344331,6.58844477 L129.814971,5.25305233 C129.526526,4.52703488 129.421221,3.99135174 129.421221,3.59127907 C129.421221,2.88008721 129.859884,2.56744186 130.904215,2.43401163 L130.904215,2.1815407 L126.772892,2.1815407 L126.772892,2.43401163 C127.952834,2.65661337 128.608866,3.36584302 129.344913,5.22340116 L132.993096,14.4228924 L134.188299,14.4228924 L138.108358,4.03648256 C138.502108,2.9934593 138.848547,2.62238372 140.242587,2.43401163 L140.242587,2.1815407 Z" id="path76" fill="#FFFFFF" fill-rule="nonzero" transform="translate(133.507740, 8.302217) scale(-1, 1) rotate(-180.000000) translate(-133.507740, -8.302217) "></path>
            </g>
        </g>
    </g>
</svg>