<?xml version="1.0" encoding="UTF-8"?>
<svg width="165px" height="17px" viewBox="0 0 165 17" version="1.1" xmlns="http://www.w3.org/2000/svg" xmlns:xlink="http://www.w3.org/1999/xlink">
    <!-- Generator: Sketch 52.5 (67469) - http://www.bohemiancoding.com/sketch -->
    <title>globe_mail</title>
    <desc>Created with Sketch.</desc>
    <g id="Homepage" stroke="none" stroke-width="1" fill="none" fill-rule="evenodd">
        <g id="Home_Page_01" transform="translate(-930.000000, -744.000000)">
            <g id="globe_mail" transform="translate(930.000000, 744.000000)">
                <polygon id="path94" fill="#6C6C6C" points="0.000224184783 16.4734691 164.901583 16.4734691 164.901583 0.179046522 0.000224184783 0.179046522"></polygon>
                <path d="M145.475075,13.7106158 L145.193723,13.7106158 L145.193723,2.81747723 L145.475075,2.81747723 L145.475075,13.7106158 Z M140.71608,13.7106158 L137.699898,4.01170957 L137.849654,3.47927071 L140.99676,13.7106158 L140.71608,13.7106158 Z M136.219158,9.08187261 L137.550143,4.56320413 L138.954885,9.08187261 L136.219158,9.08187261 Z M129.773845,13.7106158 L129.155992,3.69964435 L129.399008,3.01946772 L130.054973,13.7106158 L129.773845,13.7106158 Z M125.595265,12.0209351 L122.316787,3.71757913 L122.33517,3.03807505 L125.74502,11.6534962 L125.595265,12.0209351 Z M148.319083,13.7106158 L147.179552,13.7106158 L147.179552,2.81747723 L148.319083,2.81747723 L148.319083,2.04628158 L143.713431,2.04628158 L143.713431,2.81747723 L144.875156,2.81747723 L144.875156,13.7106158 L142.851889,13.7106158 L139.291834,2.04628158 L137.474817,2.04628158 C137.024878,3.88280332 134.326814,12.4069813 134.326814,12.4069813 C134.045686,13.2333264 133.652466,13.7106158 132.846522,13.7106158 L131.722683,13.7106158 L131.38551,6.16096908 C131.310183,4.48967152 131.292024,4.06708321 131.292024,3.80949489 C131.292024,3.11160766 131.367351,2.96476663 132.509796,2.81747723 L132.509796,2.04628158 L129.080666,2.04628158 C128.406318,3.84670957 127.394572,6.87723946 126.588404,9.13679788 C125.127391,5.481465 123.81591,2.04628158 123.81591,2.04628158 L120.124484,2.04628158 L120.124484,2.81747723 C121.398974,3.05668239 121.511515,2.92800033 121.511515,4.14061582 L121.511515,4.28723266 C121.398974,6.49186582 121.155285,10.3677965 120.986026,12.6643454 C120.94926,13.2147191 120.780448,13.4906905 119.619171,13.7662136 L119.619171,14.4827082 L123.403635,14.4827082 L123.403635,13.7478305 C122.073322,13.5274568 121.998444,13.067878 121.998444,12.6643454 C121.998444,12.3148414 122.129817,9.13679788 122.222853,6.60216473 L122.297507,4.50783049 L125.614545,12.9026539 L126.10125,12.6822802 L128.893247,4.43452207 L129.455727,13.7106158 L128.200068,13.7106158 L128.200068,14.4827082 L136.519341,14.4827082 L136.519341,13.7106158 C135.188804,13.6007653 135.151814,13.2333264 135.413213,12.0577014 C135.507371,11.6534962 135.657126,11.0475248 135.938702,10.0187408 L139.235788,10.0187408 C139.592242,11.1762068 140.003621,12.4069813 140.378234,13.7106158 L139.291834,13.7106158 L139.291834,14.4827082 L148.319083,14.4827082 L148.319083,13.7106158 Z M155.536039,12.8477286 C155.405115,13.2700927 155.142371,13.6007653 154.898682,13.6742979 L154.579891,13.6742979 C154.842636,13.5821579 155.123988,13.1963359 155.255136,12.8109623 L155.891596,10.7901607 L156.155014,10.8448617 L155.536039,12.8477286 Z M150.47731,13.7106158 L150.196406,13.7106158 L150.196406,2.81747723 L150.47731,2.81747723 L150.47731,13.7106158 Z M155.704626,10.3494134 L155.068166,12.4069813 C154.823804,13.1786253 154.392921,13.7106158 153.643247,13.7106158 L152.182011,13.7106158 C152.163179,13.7106158 152.163179,13.2147191 152.163179,2.81747723 L153.325129,2.81747723 L153.325129,2.04628158 L148.772385,2.04628158 L148.772385,2.81747723 L149.878064,2.81747723 L149.878064,13.7106158 L148.767452,13.7106158 L148.767452,14.4827082 L156.491739,14.4827082 L156.79125,10.5511797 L155.704626,10.3494134 Z M113.080374,12.7006634 C112.742527,13.1597938 112.180944,13.6375316 111.580802,13.6931294 L111.506372,13.6931294 C113.52964,12.8656634 113.754721,10.1290397 113.754721,8.43891065 C113.754721,6.89562261 113.473818,5.55454924 112.892283,4.52576527 C112.480231,3.77295277 111.918648,3.14859815 111.16875,2.83608457 L111.224796,2.83608457 C111.580802,2.87262668 112.011685,3.12999082 112.274429,3.33220549 C113.510584,4.3426063 114.054232,6.2342775 114.054232,8.38398538 C114.054232,9.96359136 113.847982,11.6351131 113.080374,12.7006634 Z M110.007024,13.7106158 L109.744056,13.7106158 C109.444769,13.7106158 109.313621,13.5088495 109.313621,13.1597938 L109.313621,2.81747723 L109.538478,2.81747723 C110.531393,2.81747723 110.906454,2.98337397 111.299898,3.20352342 C112.742527,4.04847587 113.436155,6.25310902 113.436155,8.49406011 C113.436155,11.0656837 112.742527,12.6085234 111.712622,13.2700927 C111.337113,13.5088495 110.962276,13.7106158 110.007024,13.7106158 Z M107.608696,13.7106158 L107.327344,13.7106158 L107.327344,2.81747723 L107.608696,2.81747723 L107.608696,13.7106158 Z M103.599151,14.0419609 L97.0226902,3.82832641 C96.8536549,3.57096228 96.4978736,3.07484136 96.3111277,2.89100984 L96.3290625,2.85491609 L96.6850679,2.90961717 C96.6850679,2.90961717 97.1724457,3.55235495 97.4163587,3.93817696 L103.599151,13.5274568 L103.599151,14.0419609 Z M92.7887364,13.7106158 L89.7716576,4.01170957 L89.9218614,3.47927071 L93.0696399,13.7106158 L92.7887364,13.7106158 Z M88.2922622,9.08187261 L89.6225747,4.56320413 L91.0275408,9.08187261 L88.2922622,9.08187261 Z M110.288376,2.04628158 L102.119083,2.04628158 L102.119083,2.81747723 C103.654973,2.81747723 103.674477,3.68103701 103.674477,4.1585506 L103.674477,10.2393386 C102.081868,7.72286446 98.5590285,2.39488891 98.3718342,2.04628158 L95.2612704,2.04628158 L95.2612704,2.76277614 C95.8611889,2.81747723 96.4041644,3.47927071 96.7606182,4.01170957 L96.7606182,12.388374 C96.7606182,13.1111457 96.710625,13.6164582 95.8432541,13.7263087 L95.8432541,13.7106158 L94.9249932,13.7106158 L91.3649389,2.04628158 L89.547697,2.04628158 C89.0979823,3.88280332 86.3992459,12.4069813 86.3992459,12.4069813 C86.1187908,13.2333264 85.7248981,13.7106158 84.9196264,13.7106158 L84.9196264,14.4827082 L88.5919973,14.4827082 L88.5919973,13.7106158 C87.2616848,13.6007653 87.2235734,13.2333264 87.4860938,12.0577014 C87.579803,11.6534962 87.7295584,11.0475248 88.0113587,10.0187408 L91.3091168,10.0187408 C91.6651223,11.1762068 92.0769497,12.4069813 92.4520109,13.7106158 L91.3649389,13.7106158 L91.3649389,14.4827082 L99.421019,14.4827082 L99.421019,13.7106158 C97.6784307,13.6931294 97.6409918,12.9766348 97.6409918,12.388374 L97.6409918,5.35278293 L103.524497,14.4827082 L104.517412,14.4827082 C104.517412,13.8399704 104.554402,13.0499433 104.554402,12.2599161 L104.554402,4.1585506 C104.554402,3.31359815 104.798315,2.81747723 105.959817,2.81747723 L107.008553,2.81747723 L107.008553,13.7106158 L105.772398,13.7106158 L105.772398,14.4827082 L110.288376,14.4827082 C113.810543,14.4827082 115.853091,11.5248142 115.853091,8.1082381 C115.853091,4.56320413 113.867262,2.04628158 110.288376,2.04628158 Z M81.1347147,10.8823006 L80.4789742,12.8477286 C80.3103872,13.3254664 79.9732133,13.6742979 79.579769,13.6742979 L79.5425543,13.6742979 C79.8048505,13.5821579 80.0669226,13.1963359 80.1980707,12.8109623 L80.8724185,10.8271511 L81.1347147,10.8823006 Z M74.8584373,13.7106158 L74.5768612,13.7106158 L74.5768612,2.81747723 L74.8584373,2.81747723 L74.8584373,13.7106158 Z M79.1863247,2.85491609 C79.5425543,2.85491609 79.786019,3.11160766 79.9543818,3.68103701 L80.4231522,5.18755875 L80.4789742,5.37116609 L80.216678,5.42631554 L79.6737024,3.71757913 C79.5609375,3.33220549 79.3739674,2.94593511 79.1109986,2.85491609 L79.1863247,2.85491609 Z M80.010428,12.4249161 C79.7295245,13.2700927 79.3553601,13.7106158 78.6801155,13.7106158 L76.5633626,13.7106158 C76.5440827,13.7106158 76.5440827,13.4906905 76.5440827,8.75120005 L79.6548709,8.75120005 L79.6548709,7.79617288 L76.5440827,7.79617288 L76.5440827,2.81747723 L78.1375883,2.81747723 C78.8865897,2.83608457 79.1488859,3.07484136 79.3739674,3.79133592 L80.010428,5.7937544 L81.0791168,5.59153973 L81.0791168,2.04628158 L73.0972417,2.04628158 L73.0972417,2.81747723 L74.2585188,2.81747723 L74.2585188,13.7106158 L73.0972417,13.7106158 L73.0972417,14.4827082 L81.4718886,14.4827082 L81.7339606,10.6617028 L80.6852242,10.4601607 L80.010428,12.4249161 Z M43.0632063,10.2756566 L43.3436615,10.2756566 L43.3436615,13.2882517 L43.0632063,13.3615601 L43.0632063,10.2756566 Z M38.6216576,13.6742979 C36.8048641,12.4249161 36.1488995,10.4962544 36.1488995,8.45706962 C36.1863383,6.28965114 37.0299457,4.14061582 38.8467391,2.94593511 C39.0906522,2.78071092 39.0906522,2.89100984 39.0532133,2.94593511 L38.8281318,3.12999082 C37.3292323,4.37914842 36.4486345,6.45465114 36.4486345,8.45706962 C36.4486345,10.4601607 37.1045992,12.2599161 38.6030503,13.4906905 L38.8281318,13.6742979 C38.9034579,13.8213631 38.7534783,13.7478305 38.6216576,13.6742979 Z M41.9761343,2.92800033 C42.2942525,2.92800033 42.7072009,3.23984136 42.9688245,3.73596228 C43.1752987,4.1585506 43.4001561,4.65444734 43.7557131,5.99574489 L43.4748096,6.05067016 C43.1192525,4.78335359 42.9127784,4.21392424 42.6507063,3.69964435 C42.4442322,3.27705603 42.0512362,2.98337397 41.9386955,2.92800033 L41.9761343,2.92800033 Z M41.3768882,10.2756566 L42.7444156,10.2756566 L42.7444156,13.4353169 C42.2942525,13.5642232 41.8635936,13.5821579 41.3387768,13.5821579 C39.6717391,13.5821579 38.2661005,12.0577014 38.2661005,8.1082381 C38.2661005,5.15079245 39.3715557,2.90961717 41.0020513,2.90961717 C42.2758694,2.90961717 42.7251357,4.47084 43.2497281,6.41810902 L44.4870039,6.1975112 L44.4870039,2.92800033 C43.4748096,2.21150576 42.5567729,1.95436582 41.2636749,1.95436582 C37.929375,1.95436582 35.8307813,5.11402614 35.8307813,8.45706962 C35.8307813,12.6643454 38.0977378,14.6109419 41.1706382,14.6109419 C41.9947417,14.6109419 43.1557947,14.3540261 43.94358,14.0601199 L44.9741574,13.9682041 L44.9741574,9.48585359 L41.3768882,9.48585359 L41.3768882,10.2756566 Z M70.623811,13.2147191 C70.4742797,13.4169337 70.1371058,13.619821 69.8555297,13.6742979 L69.7994835,13.6742979 C70.455224,13.3254664 70.8116778,12.4986729 70.8116778,11.3968047 C70.8116778,10.183965 70.3801221,8.95341473 69.6311207,8.5678169 L69.6683354,8.5678169 C69.9866778,8.6222938 70.3615148,8.86149897 70.567989,9.17378837 C70.9242186,9.72505875 71.1111887,10.5332449 71.1111887,11.3968047 C71.1111887,12.2049908 70.9426017,12.8109623 70.623811,13.2147191 Z M68.5258898,13.7106158 L67.3825474,13.7106158 C67.1949047,13.7106158 67.1949047,13.5088495 67.1949047,13.2700927 L67.1949047,8.54898538 L68.7689061,8.54898538 C69.968743,8.6222938 70.4926629,9.8716756 70.4926629,11.3968047 C70.4926629,12.9947938 69.7808762,13.7106158 68.5258898,13.7106158 Z M65.5090351,13.7106158 L65.2283558,13.7106158 L65.2283558,2.81747723 L65.5090351,2.81747723 L65.5090351,13.7106158 Z M67.1949047,2.81747723 L68.357527,2.81747723 C69.4620854,2.81747723 70.024565,4.01170957 70.024565,5.49984815 C70.024565,6.73062261 69.51858,7.74079924 68.6189265,7.74079924 L67.1949047,7.74079924 L67.1949047,2.81747723 Z M69.3688245,2.85491609 C69.6311207,2.90961717 69.8555297,3.07484136 69.9866778,3.22190658 C70.4180093,3.73596228 70.6426425,4.58113891 70.6426425,5.49984815 C70.6426425,6.16096908 70.5114944,6.78554788 70.2305909,7.22674353 C70.0998911,7.42850984 69.7434373,7.6854256 69.4806928,7.72286446 L69.4434781,7.72286446 C70.0431724,7.37380875 70.3426832,6.43694054 70.3426832,5.49984815 C70.3426832,4.36098946 70.0052851,3.25867288 69.3313857,2.85491609 L69.3688245,2.85491609 Z M70.1184985,8.07169598 C71.7483218,7.5204256 72.3289604,6.32619326 72.3289604,5.24203565 C72.3289604,3.23984136 71.0174794,2.04628158 68.7128599,2.04628158 L63.6727376,2.04628158 L63.6727376,2.81747723 L64.9093409,2.81747723 L64.9093409,13.7106158 L63.6727376,13.7106158 L63.6727376,14.4827082 L68.9744835,14.4827082 C71.3551017,14.4827082 72.909599,13.1597938 72.909599,11.2311321 C72.909599,9.59637668 71.8980773,8.31045277 70.1184985,8.07169598 Z M59.8317797,13.6742979 C59.5694835,13.784821 59.5694835,13.7292232 59.7564536,13.6007653 C61.1062702,12.6822802 61.4243884,10.569787 61.4243884,8.43891065 C61.4243884,6.30825848 61.0688313,4.01170957 59.7564536,3.03807505 C59.5694835,2.90961717 59.5694835,2.85491609 59.8317797,2.96476663 C61.5555365,3.79133592 61.7238993,6.91422995 61.7238993,8.38398538 C61.7238993,10.1471987 61.5741438,12.8477286 59.8317797,13.6742979 Z M55.6531995,8.2732381 C55.6531995,4.67305467 56.4400881,2.89100984 58.3700949,2.89100984 C60.0754686,2.89100984 61.1062702,4.67305467 61.1062702,8.2732381 C61.1062702,11.8738699 60.3191574,13.6375316 58.3700949,13.6375316 C56.683777,13.6375316 55.6531995,11.8738699 55.6531995,8.2732381 Z M56.0094292,13.7478305 C54.1924115,12.5168318 53.5359985,10.4601607 53.5359985,8.45706962 C53.5359985,6.2710438 54.2482335,4.17715793 56.0094292,2.89100984 C56.1410256,2.81747723 56.2903327,2.74439299 56.2156792,2.89100984 L56.0094292,3.07484136 C54.5479686,4.37914842 53.8361819,6.45465114 53.8361819,8.45706962 C53.8361819,10.4601607 54.5479686,12.3330003 56.0094292,13.5821579 L56.2156792,13.7478305 C56.2903327,13.8944473 56.1410256,13.8213631 56.0094292,13.7478305 Z M52.2993952,12.8477286 C52.1691438,13.2700927 51.9068476,13.6007653 51.6629346,13.6742979 L51.3448164,13.6742979 C51.60644,13.5821579 51.8873436,13.1963359 52.0184917,12.8109623 L52.6556248,10.7901607 L52.917921,10.8448617 L52.2993952,12.8477286 Z M47.2413381,13.7106158 L46.9595379,13.7106158 L46.9595379,2.81747723 L47.2413381,2.81747723 L47.2413381,13.7106158 Z M58.3700949,1.9178237 C54.9793001,1.9178237 53.2174319,4.94857777 53.2174319,8.42030332 C53.2174319,9.18410087 53.2929822,9.88893783 53.4378055,10.5294337 L52.4686547,10.3494134 L51.8312974,12.4069813 C51.5876085,13.1786253 51.1569495,13.7106158 50.4072756,13.7106158 L48.945815,13.7106158 C48.9272077,13.7106158 48.9272077,13.2147191 48.9272077,2.81747723 L50.0889332,2.81747723 L50.0889332,2.04628158 L45.5361887,2.04628158 L45.5361887,2.81747723 L46.6414197,2.81747723 L46.6414197,13.7106158 L45.3862091,13.7106158 L45.3862091,14.4827082 L53.2548707,14.4827082 L53.5290487,10.891268 C54.1847892,13.2351199 55.8585528,14.6109419 58.3700949,14.6109419 C61.780618,14.6109419 63.5415895,11.598571 63.5415895,8.12662125 C63.5415895,4.30584 61.6864604,1.9178237 58.3700949,1.9178237 Z M31.3905774,10.8823006 L30.734837,12.8477286 C30.5658016,13.3254664 30.2288519,13.6742979 29.8351834,13.6742979 L29.7979687,13.6742979 C30.0595924,13.5821579 30.3225611,13.1963359 30.4539334,12.8109623 L31.1282812,10.8271511 L31.3905774,10.8823006 Z M25.1134035,13.7106158 L24.8325,13.7106158 L24.8325,2.81747723 L25.1134035,2.81747723 L25.1134035,13.7106158 Z M20.1297758,13.7106158 L19.8488723,13.7106158 L19.8488723,2.81747723 L20.1297758,2.81747723 L20.1297758,13.7106158 Z M13.8532745,13.7106158 L13.5723709,13.7106158 L13.5723709,2.81747723 L13.8532745,2.81747723 L13.8532745,13.7106158 Z M11.2865829,5.42631554 L10.743159,3.60772859 C10.6306182,3.22190658 10.4994701,2.83608457 10.2371739,2.74439299 L10.4434239,2.74439299 C10.7057201,2.78071092 10.8929144,3.18514027 11.0054552,3.57096228 L11.5488791,5.37116609 L11.2865829,5.42631554 Z M6.80826766,13.7106158 L6.52736413,13.7106158 L6.52736413,2.78071092 L6.80826766,2.78071092 L6.80826766,13.7106158 Z M3.13567255,5.38932505 L2.87382473,5.35278293 L2.98658967,2.56100984 L3.24821332,2.57871147 L3.13567255,5.38931609 L3.13567255,5.38932505 Z M29.4417391,2.85491609 C29.7979687,2.85491609 30.0416576,3.11160766 30.2102446,3.68103701 L30.6781182,5.18755875 L30.734837,5.37116609 L30.4725408,5.42631554 L29.9291168,3.71757913 C29.8168003,3.33220549 29.6289334,2.94593511 29.3666372,2.85491609 L29.4417391,2.85491609 Z M30.2660666,12.4249161 C29.9849389,13.2700927 29.6103261,13.7106158 28.9357541,13.7106158 L26.8183288,13.7106158 C26.7999457,13.7106158 26.7999457,13.4906905 26.7999457,8.75120005 L29.9105095,8.75120005 L29.9105095,7.79617288 L26.7999457,7.79617288 L26.7999457,2.81747723 L28.3923302,2.81747723 C29.1422283,2.83608457 29.4045245,3.07484136 29.6289334,3.79133592 L30.2660666,5.7937544 L31.3340829,5.59153973 L31.3340829,2.04628158 L23.3522079,2.04628158 L23.3522079,2.81747723 L24.5141576,2.81747723 L24.5141576,13.7106158 L21.8349253,13.7106158 L21.8349253,2.81747723 L22.9966508,2.81747723 L22.9966508,2.04628158 L18.3874117,2.04628158 L18.3874117,2.81747723 L19.5305299,2.81747723 L19.5305299,7.79617288 L15.539144,7.79617288 L15.539144,2.81747723 L16.7008696,2.81747723 L16.7008696,2.04628158 L2.68618207,2.04628158 L2.55503397,5.59153973 L3.62305027,5.7937544 L4.26018342,3.60772859 C4.46665761,2.89100984 4.69084239,2.78071092 5.42190897,2.78071092 L6.20902174,2.78071092 L6.20902174,13.7106158 L4.72828125,13.7106158 L4.72828125,14.4827082 L9.97487772,14.4827082 L9.97487772,13.7106158 L8.4945856,13.7106158 L8.4945856,2.78071092 L9.28192255,2.78071092 C10.0871943,2.78071092 10.1997351,2.87262668 10.4243682,3.58934543 L11.0801087,5.7937544 L12.148125,5.59153973 L12.148125,2.81747723 L13.253356,2.81747723 L13.253356,13.7106158 L12.0914062,13.7106158 L12.0914062,14.4827082 L16.7008696,14.4827082 L16.7008696,13.7106158 L15.539144,13.6931294 L15.539144,8.73304109 L19.5305299,8.73304109 L19.5305299,13.7106158 L18.3874117,13.7106158 L18.3874117,14.4827082 L31.727303,14.4827082 L31.9895992,10.6617028 L30.9406386,10.4601607 L30.2660666,12.4249161 Z" id="path96" fill="#FFFFFF" fill-rule="nonzero"></path>
                <path d="M157.525339,2.50407569 C157.525339,2.50407569 157.371548,2.55070612 157.349802,2.37629036 C157.340386,2.30387868 157.365719,2.24155531 157.448219,2.17631754 C157.463688,2.16465993 157.491711,2.15501998 157.512112,2.15300232 C157.821711,2.12811781 158.184442,2.66907569 158.418043,3.07283248 C158.52453,3.25733656 158.564211,3.31831482 158.613308,3.31831482 C158.63595,3.31831482 158.722934,3.32728221 158.81754,3.15869525 C158.945325,2.93518303 159.583803,2.29692895 160.397594,2.47201727 C160.429428,2.55182705 160.285726,2.6159439 160.189999,2.66391944 C160.189999,2.66391944 159.855067,2.93518303 160.285726,3.06251998 C160.716609,3.15869525 160.92398,2.9988515 161.291195,3.30194933 C161.307336,3.39790042 161.099517,3.44565178 161.099517,3.44565178 C161.099517,3.44565178 160.844619,3.60527134 161.594517,3.82878357 C161.961507,3.92473466 161.961507,3.9888515 161.897615,4.03637868 C161.833946,4.08390585 161.658409,4.1480227 161.913532,4.3233352 C162.184795,4.49887189 162.360108,4.73852542 162.344863,4.81811102 C162.296439,4.88222786 162.184795,4.86608656 162.041093,4.78605259 C161.881922,4.70669118 161.674102,4.75444254 161.562907,4.92975504 C161.451039,5.10529172 161.338946,5.07368167 161.195692,4.96158928 C161.051765,4.84994525 160.764585,4.69054987 160.637248,4.96158928 C160.557214,5.2646871 160.589272,5.18554987 160.812336,5.59984335 C161.035848,6.01503357 161.083824,6.350414 161.083824,6.41408248 C161.083824,6.47752678 161.051765,6.51003357 160.844619,6.41408248 C160.668858,6.36610694 160.652941,7.25993167 160.637248,7.38726862 C160.637248,7.38726862 160.637248,7.62692216 160.493545,7.41955123 C160.381453,7.27584879 159.934877,6.84474145 159.791174,6.79721428 C159.647696,6.74946292 159.439877,6.87724824 159.471935,7.05256074 C159.471935,7.22832161 159.360291,7.16420477 159.31254,7.05256074 C159.264789,6.94046835 158.929408,5.85563819 158.849598,5.79174553 C158.770013,5.72807705 158.70612,5.56845748 158.562418,5.83972107 C158.418715,6.11076047 158.168973,6.75439498 157.934476,6.43538004 C157.870808,6.4992727 157.461446,7.05256074 157.126514,7.06825368 C157.078314,7.0045852 157.157676,6.84474145 157.222017,6.79721428 C157.286134,6.71718031 157.286134,6.4934439 157.222017,6.3342727 C157.157676,6.17465314 157.157676,5.96728221 157.23771,5.77605259 C157.286134,5.67987732 157.222017,5.52025775 156.950529,5.4886477 C156.67949,5.45636509 156.726793,5.37655531 156.838885,5.23330123 C156.950529,5.08959879 157.365495,4.73852542 157.461446,4.61074009 C157.556949,4.48317895 157.445305,4.3233352 157.253627,4.30786645 C157.062397,4.29172515 156.886636,4.35584199 156.838885,4.24397379 C156.822968,4.1318814 156.982587,4.17985694 157.04648,4.08390585 C157.04648,4.08390585 157.397778,3.44565178 157.860271,3.47748602 C158.322988,3.50954444 158.344286,3.44744525 158.291378,3.25397379 C158.244748,3.08605939 157.871704,2.54442895 157.525339,2.50407569" id="path110" fill="#FFFFFF" transform="translate(159.547892, 4.828103) scale(-1, 1) rotate(-180.000000) translate(-159.547892, -4.828103) "></path>
            </g>
        </g>
    </g>
</svg>