<?xml version="1.0" encoding="UTF-8"?>
<svg width="165px" height="27px" viewBox="0 0 165 27" version="1.1" xmlns="http://www.w3.org/2000/svg" xmlns:xlink="http://www.w3.org/1999/xlink">
    <!-- Generator: Sketch 52.5 (67469) - http://www.bohemiancoding.com/sketch -->
    <title>logo-header-fp</title>
    <desc>Created with Sketch.</desc>
    <g id="Homepage" stroke="none" stroke-width="1" fill="none" fill-rule="evenodd">
        <g id="Home_Page_01" transform="translate(-735.000000, -739.000000)">
            <g id="logo-header-fp" transform="translate(735.000000, 739.000000)">
                <rect id="Rectangle" fill="#565656" x="0" y="0" width="165" height="26.1386139"></rect>
                <path d="M13.4575961,3.7742873 L13.4575961,8.18344998 L13.1577501,8.18344998 C12.9668446,6.98566489 11.8777845,4.50885968 11.1435594,4.34535251 C10.7351186,4.26342608 10.2990103,4.23715432 9.7805914,4.23715432 L7.87499545,4.23715432 L7.87499545,12.5659952 L9.20925847,12.5659952 C10.1357724,12.5659952 10.5435215,12.0495476 10.7614027,11.7225333 C11.0066055,11.3132468 11.3064515,9.79017584 11.3604031,9.08152952 L11.7422139,9.08152952 L11.7422139,16.6775265 L11.3604031,16.6775265 C11.3337732,15.8869537 10.9512706,14.2543018 10.7614027,13.90067 C10.5435215,13.5197294 10.107759,13.0572081 9.20925847,13.0572081 L7.87499545,13.0572081 L7.87499545,20.4067344 C7.87499545,21.0047627 8.06555506,21.0327629 8.50166333,21.3055053 C8.8554609,21.5222474 9.97184267,21.9847687 10.4892241,22.0940039 L10.4892241,22.366055 L3.35378753,22.366055 L3.35378753,22.0940039 C3.76292001,22.0131145 4.9329075,21.5222474 5.34169415,21.3055053 C5.75013494,21.0873805 5.96801615,21.0051084 5.96801615,20.4067344 L5.96801615,5.73395357 C5.96801615,5.13488819 5.77711071,5.05296176 5.34169415,4.83518266 C4.96022911,4.64540372 3.81687155,4.15488221 3.35378753,4.04599266 L3.35378753,3.7742873 L13.4575961,3.7742873 Z" id="Shape" fill="#FFFFFF"></path>
                <path d="M16.4356518,4.83518266 C16.0545326,4.64540372 14.9115209,4.15488221 14.4484369,4.04599266 L14.4484369,3.7742873 L21.5831817,3.7742873 L21.5831817,4.04599266 C21.2024084,4.12688204 19.9763943,4.61809491 19.5952751,4.83518266 C19.1868343,5.08027057 18.9689531,5.13454251 18.9689531,5.73395357 L18.9689531,20.4063887 C18.9689531,20.9767626 19.1868343,21.0593803 19.5952751,21.3051596 C19.9490727,21.5219017 21.1200977,21.984423 21.5831817,22.0936582 L21.5831817,22.3657093 L14.4484369,22.3657093 L14.4484369,22.0936582 C14.8292102,22.0127689 16.0275568,21.5219017 16.4356518,21.3051596 C16.8447843,21.0870348 17.0623196,21.0047627 17.0623196,20.4063887 L17.0623196,5.73395357 C17.0619738,5.13454251 16.8444384,5.05296176 16.4356518,4.83518266" id="Shape" fill="#FFFFFF"></path>
                <path d="M33.6095326,5.13454251 C33.174116,5.59775521 33.0651754,6.7678858 33.0651754,8.56508194 L33.0651754,22.5565253 L32.5474482,22.5565253 L25.5759413,7.77520057 L25.5759413,17.3028636 C25.5759413,19.5625811 25.6572144,20.3794256 25.8750956,20.7603662 C26.1199526,21.1682699 27.5092047,21.8765705 28.2437756,22.0936582 L28.2437756,22.3657093 L22.3886505,22.3657093 L22.3886505,22.0936582 C22.987305,21.9024966 24.4315462,21.1962701 24.676749,20.7873293 C24.8946302,20.4063887 24.9755575,19.5625811 24.9755575,17.4397533 L24.9755575,7.72127433 C24.9755575,6.60472429 24.7849979,5.81553431 24.4585219,5.37963042 C24.0770569,4.86214578 23.0422941,4.31873506 22.1711151,4.04599266 L22.1711151,3.7742873 L25.8474282,3.7742873 L32.4651375,18.0923993 L32.4651375,8.72824342 C32.4651375,6.76823148 32.2738862,5.54348327 31.9207803,5.16288836 C31.3214341,4.56313162 30.2863254,4.1825367 29.7146466,4.04633834 L29.7146466,3.77463298 L35.6510449,3.77463298 L35.6510449,4.04633834 C35.1066877,4.1825367 34.2088788,4.50885968 33.6095326,5.13454251" id="Shape" fill="#FFFFFF"></path>
                <path d="M41.15341,6.71361387 L39.0019194,15.8057187 L43.3318762,15.8057187 L41.15341,6.71361387 Z M42.0526021,22.3657093 L42.0526021,22.039732 C42.6246268,21.9028423 44.3669849,21.2781965 44.3669849,20.7873293 C44.3669849,20.5961676 44.3130332,20.1886096 44.2580441,19.9704848 L43.4418541,16.3778209 L38.8386815,16.3778209 C38.5391813,17.6295323 38.4305865,17.9562009 38.2673486,18.7733911 C38.1577164,19.3728022 38.0760972,19.7800145 38.0760972,20.4336975 C38.0760972,21.1966157 39.8194928,21.9574599 40.3088609,22.039732 L40.3088609,22.3657093 L34.6723087,22.3657093 L34.6723087,22.039732 C34.971463,22.0127689 36.1148207,21.3590858 36.4157042,21.0870348 C36.7971692,20.7050572 37.2329316,20.0804114 37.4774426,19.1263315 C38.703111,14.4454635 40.118993,8.67397149 41.371637,3.47423609 L42.2161861,3.47423609 C43.9595816,10.4697849 45.6472964,17.4120988 46.2743098,19.9435217 C46.4648694,20.7050572 46.5461426,20.7596748 47.1451432,21.1966157 C47.444989,21.4140492 48.3165138,21.9028423 48.7795979,22.039732 L48.7795979,22.3657093 L42.0526021,22.3657093 Z" id="Shape" fill="#FFFFFF" fill-rule="nonzero"></path>
                <path d="M60.4071917,5.13454251 C59.972121,5.59775521 59.8638719,6.7678858 59.8638719,8.56508194 L59.8638719,22.5565253 L59.3464907,22.5565253 L52.3736005,7.77520057 L52.3736005,17.3028636 C52.3736005,19.5625811 52.455911,20.3794256 52.6731006,20.7603662 C52.9189951,21.1682699 54.308247,21.8765705 55.0431639,22.0936582 L55.0431639,22.3657093 L49.1880389,22.3657093 L49.1880389,22.0936582 C49.7870392,21.9024966 51.2305886,21.1962701 51.4757914,20.7873293 C51.6936727,20.4063887 51.7749458,19.5625811 51.7749458,17.4397533 L51.7749458,7.72127433 C51.7749458,6.60472429 51.5843862,5.81553431 51.2579103,5.37963042 C50.876445,4.86214578 49.8416823,4.31873506 48.9698115,4.04599266 L48.9698115,3.7742873 L52.6468163,3.7742873 L59.2641798,18.0923993 L59.2641798,8.72824342 C59.2641798,6.76823148 59.0736202,5.54348327 58.7201686,5.16288836 C58.1204766,4.56313162 57.0857136,4.1825367 56.513689,4.04633834 L56.513689,3.77463298 L62.4507791,3.77463298 L62.4507791,4.04633834 C61.9057302,4.1825367 61.0068837,4.50885968 60.4071917,5.13454251" id="Shape" fill="#FFFFFF"></path>
                <path d="M68.5787742,22.8009218 C65.0660451,22.8009218 63.1863873,19.1536403 63.1863873,13.3009133 C63.1863873,7.01366506 65.5557592,3.33803773 68.5787742,3.33803773 C69.83211,3.33803773 70.7036347,4.23715432 71.0301109,4.99868983 L71.7930409,3.47389041 L72.1461468,3.47389041 L72.2014815,10.1980796 L71.7657192,10.1980796 C71.1930029,6.6856137 70.3771589,3.7742873 68.5521445,3.7742873 C66.2363783,3.7742873 65.392867,7.28571612 65.392867,13.0831342 C65.392867,18.5549206 66.0738321,21.8212615 68.7970013,21.8212615 C70.7039808,21.8212615 71.7933869,19.8612496 72.3373981,17.3025179 L72.8547796,17.4394076 C72.3370521,20.3244623 71.0563949,22.8009218 68.5787742,22.8009218" id="Shape" fill="#FFFFFF"></path>
                <path d="M76.2039248,4.83518266 C75.8234975,4.64540372 74.6791023,4.15488221 74.2160182,4.04599266 L74.2160182,3.7742873 L81.3514549,3.7742873 L81.3514549,4.04599266 C80.9699896,4.12688204 79.7446673,4.61809491 79.3632023,4.83518266 C78.9551073,5.08027057 78.7361886,5.13454251 78.7361886,5.73395357 L78.7361886,20.4063887 C78.7361886,20.9767626 78.9551073,21.0593803 79.3632023,21.3051596 C79.7163082,21.5219017 80.8883708,21.984423 81.3514549,22.0936582 L81.3514549,22.3657093 L74.2160182,22.3657093 L74.2160182,22.0936582 C74.5971375,22.0127689 75.7961758,21.5219017 76.2039248,21.3051596 C76.6123658,21.0870348 76.8309385,21.0047627 76.8309385,20.4063887 L76.8309385,5.73395357 C76.8309385,5.13454251 76.6123658,5.05296176 76.2039248,4.83518266" id="Shape" fill="#FFFFFF"></path>
                <path d="M88.2946027,6.71361387 L86.1438038,15.8057187 L90.4741063,15.8057187 L88.2946027,6.71361387 Z M89.1958699,22.3657093 L89.1958699,22.039732 C89.7658194,21.9028423 91.508869,21.2781965 91.508869,20.7873293 C91.508869,20.5961676 91.4535342,20.1886096 91.3995828,19.9704848 L90.5844302,16.3778209 L85.9809116,16.3778209 C85.6817574,17.6295323 85.5721249,17.9562009 85.4088869,18.7733911 C85.2996004,19.3728022 85.2183273,19.7800145 85.2183273,20.4336975 C85.2183273,21.1966157 86.9610312,21.9574599 87.4507453,22.039732 L87.4507453,22.3657093 L81.814193,22.3657093 L81.814193,22.039732 C82.1130015,22.0127689 83.2573967,21.3590858 83.5568969,21.0870348 C83.9387075,20.7050572 84.3741242,20.0804114 84.619327,19.1263315 C85.8446493,14.4454635 87.261223,8.67397149 88.5142131,3.47423609 L89.3584161,3.47423609 C91.10112,10.4697849 92.7891804,17.4120988 93.4158485,19.9435217 C93.6064081,20.7050572 93.6887186,20.7596748 94.2859899,21.1966157 C94.585836,21.4140492 95.4580525,21.9028423 95.9214823,22.039732 L95.9214823,22.3657093 L89.1958699,22.3657093 Z" id="Shape" fill="#FFFFFF" fill-rule="nonzero"></path>
                <path d="M98.6422307,4.83518266 C98.3161005,4.69932998 96.9548616,4.20949983 96.4907401,4.1002646 L96.4907401,3.7742873 L103.954036,3.7742873 L103.954036,4.1002646 C103.572225,4.1825367 102.129021,4.69932998 101.802546,4.83518266 C101.366092,5.02634431 101.175878,5.13454251 101.175878,5.73395357 L101.175878,19.3990739 C101.175878,21.8216072 101.283781,21.9024966 103.136808,21.9024966 C105.588837,21.9024966 105.751037,21.8216072 106.131119,21.1409611 C106.566881,20.3787342 107.465728,18.0661275 107.766611,17.1400478 L108.066457,17.1400478 L107.820563,22.3657093 L96.4907401,22.3657093 L96.4907401,22.0936582 C96.8718594,22.0127689 98.3157545,21.4956299 98.6422307,21.3590858 C99.0793764,21.1686156 99.2695901,21.0593803 99.2695901,20.4610063 L99.2695901,5.73395357 C99.2699361,5.13454251 99.0793764,5.02634431 98.6422307,4.83518266" id="Shape" fill="#FFFFFF"></path>
                <path d="M120.127047,4.2630804 L119.038332,4.2630804 L119.038332,13.3278764 L120.100763,13.3278764 C122.604667,13.3278764 123.695111,11.1507767 123.695111,8.86375043 C123.695111,6.55079805 122.84987,4.2630804 120.127047,4.2630804 M125.872885,8.61935387 C125.872885,12.3209073 123.205397,13.8463981 120.562809,13.8463981 L119.038332,13.8463981 L119.038332,20.4063887 C119.038332,21.0051084 119.2282,21.0324172 119.664654,21.3051596 C120.01776,21.5212103 121.134488,21.9851144 121.652561,22.0936582 L121.652561,22.3657093 L114.516087,22.3657093 L114.516087,22.0936582 C114.926257,22.0127689 116.097282,21.5212103 116.505377,21.3051596 C116.913472,21.0870348 117.131007,21.0054541 117.131007,20.4063887 L117.131007,5.73395357 C117.131007,5.13523387 116.941831,5.05296176 116.505377,4.83587402 C116.124258,4.64540372 114.978825,4.15557358 114.516087,4.04564698 L114.516087,3.77463298 L121.025547,3.77463298 C124.102514,3.7742873 125.872885,5.81553431 125.872885,8.61935387" id="Shape" fill="#FFFFFF" fill-rule="nonzero"></path>
                <path d="M133.252487,3.7742873 C130.911129,3.7742873 130.148544,6.93139296 130.148544,13.1377518 C130.148544,19.208258 130.802534,22.3653636 133.252487,22.3653636 C135.622204,22.3653636 136.302132,19.0997141 136.302132,13.0292079 C136.302132,6.93173864 135.621859,3.7742873 133.252487,3.7742873 M136.820897,20.7047115 C136.002978,22.0124232 134.860658,22.8009218 133.170522,22.8009218 C131.702072,22.8009218 130.475366,22.0124232 129.656756,20.7600205 C128.568041,19.0720596 127.941719,16.2419683 127.941719,13.2742958 C127.941719,10.3066234 128.514435,7.50245819 129.549198,5.76091669 C130.449082,4.2630804 131.6457,3.33872909 133.252141,3.33872909 C134.778001,3.33872909 135.975656,4.12722772 136.956468,5.76091669 C137.910303,7.33998805 138.535588,10.2796603 138.535588,12.9469358 C138.535934,15.7780642 138.019935,18.8000085 136.820897,20.7047115" id="Shape" fill="#FFFFFF" fill-rule="nonzero"></path>
                <path d="M144.9617,22.7193411 C143.464199,22.7193411 142.484079,21.9024966 141.993674,21.2501963 L141.230398,22.3650179 L140.877292,22.3650179 L140.715091,16.2689314 L141.041221,16.2689314 C141.884733,20.3787342 143.192712,22.2844742 144.9617,22.2844742 C146.459892,22.2844742 147.358393,20.9774539 147.358393,18.8553175 C147.358393,17.4387163 146.4343,15.9688802 145.589405,15.0434918 C144.826821,14.2273387 143.982618,13.4651118 143.274677,12.7834286 C142.075638,11.6136437 140.715437,9.89802833 140.715437,7.47584071 C140.715437,4.59044042 142.675676,3.42065551 144.55568,3.42065551 C145.45418,3.42065551 146.434992,3.88283117 147.113536,4.75360191 L147.904479,3.77463298 L148.175275,3.77463298 L148.175275,9.3276545 L147.87612,9.3276545 C147.113536,6.05993086 146.350952,3.85586804 144.581964,3.85586804 C143.30269,3.85586804 142.376522,4.9167634 142.376522,6.8501579 C142.376522,8.31930268 143.111439,9.6000512 143.95495,10.4162043 C144.69125,11.1234679 145.561738,11.9672755 146.216419,12.6206128 C147.577658,13.9822508 149.184445,15.4797414 149.184445,18.1466712 C149.184099,21.4683211 147.060276,22.7193411 144.9617,22.7193411" id="Shape" fill="#FFFFFF"></path>
                <path d="M161.577044,8.64700836 L161.276506,8.64700836 C160.242435,4.508514 160.188483,4.45389638 158.82517,4.31873506 C158.499731,4.29073489 158.145588,4.26411745 157.545896,4.26411745 L157.110825,4.26411745 L157.110825,20.4067344 C157.110825,21.0054541 157.300001,21.059726 157.737147,21.3055053 C158.090945,21.4959756 159.262315,21.9854601 159.725054,22.0946953 L159.725054,22.3653636 L152.588579,22.3653636 L152.588579,22.0946953 C152.97039,22.0131145 154.115823,21.5499018 154.577869,21.3055053 C154.985273,21.0873805 155.204191,21.0057998 155.204191,20.4067344 L155.204191,4.26377177 L154.795405,4.26377177 C154.196404,4.26377177 153.84157,4.29073489 153.516131,4.31838938 C152.181522,4.4535507 152.100249,4.48120519 151.064794,8.64666268 L150.764257,8.64666268 L150.764257,3.7742873 L161.57739,3.7742873 L161.57739,8.64700836 L161.577044,8.64700836 Z" id="Shape" fill="#FFFFFF"></path>
            </g>
        </g>
    </g>
</svg>