<?xml version="1.0" encoding="UTF-8"?>
<svg width="165px" height="34px" viewBox="0 0 165 34" version="1.1" xmlns="http://www.w3.org/2000/svg" xmlns:xlink="http://www.w3.org/1999/xlink">
    <!-- Generator: Sketch 52.5 (67469) - http://www.bohemiancoding.com/sketch -->
    <title>citybizlist</title>
    <desc>Created with Sketch.</desc>
    <g id="Homepage" stroke="none" stroke-width="1" fill="none" fill-rule="evenodd">
        <g id="Home_Page_01" transform="translate(-1125.000000, -735.000000)">
            <g id="citybizlist" transform="translate(1125.000000, 735.000000)">
                <path d="M48.2865149,10.6880792 C49.6636931,14.590901 51.022901,18.4414455 52.4490891,22.4831287 C53.9046832,18.4577822 55.2900297,14.6284752 56.7162178,10.6880792 C56.0578515,10.6880792 55.4452277,10.6521386 54.8391386,10.6995149 C54.3523069,10.7370891 54.2395842,10.5573861 54.2722574,10.1097624 C54.3098317,9.58535644 54.318,9.05278218 54.2689901,8.5300099 C54.2232475,8.03010891 54.4339901,7.96476238 54.8669109,7.96966337 C57.0478515,7.98926733 59.2304257,7.98763366 61.413,7.96966337 C61.8181485,7.96639604 62.0141881,8.04644554 61.9651782,8.49570297 C61.927604,8.81753465 61.9570099,9.14753465 61.9570099,9.47263366 C61.9570099,10.5590198 61.9586436,10.5639208 60.908198,10.6848119 C60.5275545,10.7289208 60.413198,10.9543663 60.282505,11.295802 C58.9853762,14.6889208 57.7666634,18.1098119 56.5234455,21.5241683 C55.6951782,23.7998614 54.7852277,26.0461485 54.1039901,28.3741188 C53.662901,29.8852574 53.1989406,31.391495 52.7447822,32.8993663 C52.6418614,33.240802 52.5144356,33.4548119 52.0488416,33.4352079 C50.7468119,33.3829307 49.4415149,33.4270396 48.1362178,33.4090693 C47.8323564,33.405802 47.3651287,33.5904059 47.2507723,33.2767426 C47.1070099,32.8846634 47.1004752,32.3782277 47.388,31.9894158 C47.9107723,31.2787723 48.4645842,30.5926337 48.9987921,29.8917921 C49.8221584,28.8103069 50.6389901,27.7239208 51.5701782,26.4921386 C51.0098317,26.4921386 50.6193861,26.456198 50.2371089,26.5019406 C49.6800297,26.5672871 49.4790891,26.296099 49.3010198,25.8076337 C47.7359703,21.5584752 46.1415149,17.3191188 44.558495,13.076495 C44.3640891,12.5537228 44.1664158,12.0309505 44.0144851,11.4967426 C43.8413168,10.8808515 43.5080495,10.5704554 42.8398812,10.6831782 C42.3236436,10.771396 41.9952772,10.6652079 42.0753267,10.0019406 C42.1521089,9.36154455 41.8678515,8.48426733 42.1962178,8.11832673 C42.5801287,7.69194059 43.4672079,7.99090099 44.1337426,7.98436634 C46.1905248,7.96639604 48.2489406,7.99416832 50.3040891,7.96639604 C50.8007228,7.95986139 51.0343366,8.03827723 50.9787921,8.60189109 C50.9150792,9.26842574 51.1846337,10.1571386 50.8464653,10.5573861 C50.4919604,10.975604 49.5771089,10.6488713 48.9089406,10.6864455 C48.7341386,10.6962475 48.5593366,10.6880792 48.2865149,10.6880792" id="Fill-1" fill="#FFFFFF"></path>
                <path d="M105.221317,10.8380495 C103.664436,10.8380495 102.159832,10.8331485 100.655228,10.8396832 C99.4234455,10.8445842 98.6017129,11.4196337 98.2439406,12.6154752 C98.0871089,13.1366139 97.8355248,13.2689406 97.3160198,13.2591386 C95.5238911,13.2297327 95.5238911,13.2509703 95.5238911,11.4784455 C95.5238911,10.4982475 95.5516634,9.51968317 95.5124554,8.54438614 C95.4928515,8.05755446 95.6692871,7.96770297 96.1120099,7.96933663 C100.802257,7.9840396 105.492505,7.98240594 110.181119,7.9709703 C110.597703,7.96933663 110.79701,8.07389109 110.728396,8.51007921 C110.720228,8.55908911 110.71696,8.613 110.728396,8.66037624 C111.213594,10.748198 109.826614,12.0665644 108.73696,13.5041881 C107.39899,15.2701782 106.04795,17.028 104.711614,18.7939901 C103.553347,20.3247327 102.408149,21.8636436 101.25805,23.3992871 C101.218842,23.4515644 101.204139,23.5201782 101.145327,23.652505 C102.863941,23.5348812 104.52701,23.7766634 106.191713,23.4973069 C107.25196,23.3192376 107.885822,22.7164158 108.153743,21.7394851 C108.326911,21.1121584 108.611168,20.8850792 109.28097,20.9063168 C111.027356,20.9569604 111.02899,20.9210198 111.02899,22.6608713 C111.02899,23.7390891 111.01102,24.8189406 111.037158,25.8971584 C111.04696,26.3284455 110.966911,26.5065149 110.470277,26.5048812 C105.68201,26.4852772 100.892109,26.4869109 96.1022079,26.5032475 C95.6398812,26.5048812 95.4454752,26.3823564 95.5238911,25.9167624 C95.5271584,25.8922574 95.5287921,25.8661188 95.5238911,25.8416139 C95.0435941,23.7995347 96.4501782,22.5383465 97.4973564,21.1448317 C99.023198,19.1158218 100.589881,17.1211188 102.135327,15.1084455 C103.079584,13.878297 104.01404,12.6416139 104.963198,11.4163663 C105.085723,11.257901 105.200079,11.1092376 105.221317,10.8380495" id="Fill-4" fill="#7C7C7C"></path>
                <path d="M135.714624,23.6665545 C135.714624,23.1143762 135.742396,22.5605644 135.706455,22.0116535 C135.678683,21.5999703 135.833881,21.4660099 136.216158,21.5248218 C136.265168,21.5329901 136.317446,21.5280891 136.366455,21.5248218 C137.291109,21.4725446 137.98705,21.5101188 138.666653,22.4984851 C139.932743,24.3412574 142.499228,24.6483861 144.247248,23.4884851 C145.559079,22.6177426 145.570515,20.5201188 144.286455,19.6281386 C143.283386,18.932198 142.11695,18.6936832 140.978287,18.3587822 C139.532495,17.932396 138.065465,17.5566535 136.964376,16.3902178 C135.747297,15.1045248 135.518584,13.5525446 135.781604,11.9270495 C136.211257,9.28541584 138.114475,8.16962376 140.514327,7.68115842 C143.16903,7.1420495 145.799228,7.4900198 148.421257,7.97521782 C148.917891,8.06670297 149.164574,8.24150495 149.128634,8.8279901 C149.064921,9.87843564 149.09596,10.9354158 149.118832,11.987495 C149.127,12.3648713 149.048584,12.5592772 148.630366,12.4988317 C148.458832,12.4726931 148.279129,12.4906634 148.104327,12.4955644 C147.449228,12.5135347 146.947693,12.5086337 146.462495,11.7914554 C145.318931,10.1087822 142.280317,9.92907921 140.989723,10.8978416 C139.744871,11.832297 139.844525,13.4659604 141.239673,14.1357624 C142.755713,14.8643762 144.446554,15.0669505 146.008337,15.661604 C147.491703,16.2268515 148.932594,16.9162574 149.419426,18.6054653 C150.383287,21.9544752 149.347545,25.3688317 145.41695,26.4862574 C142.355465,27.357 139.336455,26.8554653 136.328881,26.1317525 C135.879624,26.0239307 135.659079,25.8246238 135.703188,25.3214554 C135.752198,24.7725446 135.714624,24.217099 135.714624,23.6665545" id="Fill-6" fill="#FFFFFF"></path>
                <path d="M15.7455743,23.4471535 C15.7455743,23.8490347 15.6851287,24.2607178 15.7586436,24.647896 C15.9318119,25.5725495 15.4825545,25.997302 14.6608218,26.1900743 C13.5221584,26.4596287 12.3753267,26.6654703 11.2121584,26.8288366 C9.28116832,27.0983911 7.42042574,26.8925495 5.6119604,26.307698 C2.84290099,25.4140842 1.11611881,23.3981436 0.434881188,20.6437871 C-0.184277228,18.1328465 -0.169574257,15.5565594 0.655425743,13.0521535 C1.56210891,10.2961634 3.51270297,8.61022277 6.25072277,7.84893564 C8.11146535,7.32943069 10.0065149,7.30329208 11.9342376,7.63492574 C13.068,7.83096535 14.1723564,8.09235149 15.2652772,8.43215347 C15.5609703,8.52527228 15.7668119,8.63962871 15.7570099,9.03007426 C15.727604,10.2340842 15.732505,11.4380941 15.7537426,12.642104 C15.7602772,13.0047772 15.6491881,13.142005 15.2881485,13.1011634 C15.0904752,13.0766584 14.8862673,13.0782921 14.6885941,13.0995297 C13.7198317,13.1975495 13.0287921,13.0276485 12.422703,12.0425495 C11.7414653,10.9349257 10.4884455,10.662104 9.13577228,10.8058663 C8.01671287,10.9234901 7.04141584,11.2142822 6.22621782,12.0000743 C5.24765347,12.9443317 4.81963366,14.1597772 4.62522772,15.4438366 C4.37037624,17.1297772 4.51250495,18.7944802 5.0499802,20.4412129 C5.97790099,23.2837871 9.61280198,24.4126485 11.6009703,23.0534406 C12.1645842,22.667896 12.6465149,22.2496782 12.903,21.5978465 C13.0467624,21.2302723 13.2820099,21.0064604 13.747604,21.0636386 C14.3863663,21.1436881 15.2358713,20.8006188 15.6279505,21.1910644 C16.0200297,21.5815099 15.7096337,22.4261139 15.7455743,23.0714109 C15.7521089,23.1955693 15.7455743,23.3213614 15.7455743,23.4471535" id="Fill-8" fill="#FFFFFF"></path>
                <path d="M153.928173,17.0959604 C153.928173,15.2401188 153.916738,13.3842772 153.936342,11.5284356 C153.941243,11.1134851 153.841589,10.9827921 153.405401,10.9762574 C151.667183,10.9550198 151.681886,10.9370495 151.660649,9.1759604 C151.654114,8.712 151.727629,8.50779208 152.252035,8.34115842 C153.996787,7.78244554 154.761342,6.34808911 155.119114,4.68338614 C155.377233,3.47447525 155.321688,3.4630396 156.581243,3.4630396 C158.293322,3.4630396 158.293322,3.4630396 158.293322,5.14571287 C158.293322,5.89883168 158.31946,6.6519505 158.28352,7.40180198 C158.260649,7.8559604 158.375005,8.00135644 158.855302,7.99155446 C160.384411,7.95724752 161.915153,7.99808911 163.444262,7.9670495 C163.909856,7.95724752 164.055252,8.07813861 164.024213,8.547 C163.981738,9.19719802 163.988272,9.85229703 164.022579,10.502495 C164.043817,10.9125446 163.89352,11.002396 163.512876,10.997495 C161.982134,10.9778911 160.451391,11.0040297 158.922282,10.9795248 C158.469757,10.9729901 158.275351,11.0383366 158.278619,11.5725446 C158.308025,14.8578416 158.27045,18.1447723 158.303124,21.4300693 C158.317827,22.8611584 159.415649,23.3528911 160.70951,23.4705149 C161.521441,23.5456634 162.321936,23.3283861 163.094658,23.0964059 C163.509609,22.9706139 163.570054,23.091505 163.565153,23.4492772 C163.553718,24.2775446 163.55045,25.1058119 163.566787,25.9324455 C163.573322,26.1954653 163.501441,26.371901 163.244955,26.4225446 C160.90555,26.8963069 158.566144,27.3896733 156.251243,26.3114554 C154.67149,25.5746733 154.02946,24.2056634 153.949411,22.5883366 C153.857926,20.761901 153.928173,18.927297 153.928173,17.0959604" id="Fill-11" fill="#FFFFFF"></path>
                <path d="M30.6480149,17.0904059 C30.6480149,15.2345644 30.6349455,13.3787228 30.6578168,11.5212475 C30.6627178,11.0997624 30.5467277,10.9821386 30.1187079,10.9772376 C28.3870248,10.9576337 28.4033614,10.9396634 28.3788564,9.17040594 C28.3723218,8.6950099 28.4605396,8.49406931 28.9784109,8.33887129 C30.764005,7.80629703 31.4762822,6.336 31.8373218,4.67783168 C32.1003416,3.47545545 32.039896,3.46238614 33.2308366,3.46238614 C35.0131634,3.46238614 35.0131634,3.46238614 35.0131634,5.22510891 C35.0131634,5.95208911 35.0425693,6.68070297 35.0033614,7.4060495 C34.9772228,7.86837624 35.1062822,8.00070297 35.5784109,7.99090099 C37.1091535,7.95822772 38.639896,7.99906931 40.169005,7.96639604 C40.644401,7.95659406 40.7718267,8.09218812 40.7440545,8.55124752 C40.7032129,9.20144554 40.7064802,9.85654455 40.7424208,10.5067426 C40.7652921,10.9249604 40.6051931,11.0017426 40.2278168,10.9968416 C38.7738564,10.9772376 37.3166287,11.0213465 35.8626683,10.9739703 C35.2157376,10.9543663 34.9821238,11.0801584 34.9935594,11.8038713 C35.0409356,14.8620891 35.0670743,17.9252079 34.9935594,20.9834257 C34.9478168,22.8752079 36.204104,23.3685743 37.4358861,23.471495 C38.2478168,23.5401089 39.0483119,23.3293663 39.819401,23.0941188 C40.2425198,22.9650594 40.2882624,23.1055545 40.284995,23.4551584 C40.2751931,24.2817921 40.2686584,25.1100594 40.2882624,25.9383267 C40.294797,26.2078812 40.2082129,26.3761485 39.959896,26.4251584 C37.6221238,26.8956535 35.2794505,27.3922871 32.9661832,26.3091683 C31.3880644,25.5691188 30.749302,24.2001089 30.6692525,22.5827822 C30.579401,20.7563465 30.6480149,18.9217426 30.6480149,17.0904059" id="Fill-14" fill="#FFFFFF"></path>
                <path d="M120.360639,11.9628267 C120.360639,15.5715891 120.378609,19.1803515 120.345936,22.7891139 C120.339401,23.5062921 120.612223,23.7709455 121.282025,23.7872822 C122.618361,23.8199554 122.618361,23.8297574 122.618361,25.1628267 C122.618361,26.4926287 122.618361,26.4926287 121.309797,26.4926287 C118.978559,26.4926287 116.647322,26.4811931 114.316084,26.5024307 C113.871728,26.5073317 113.652817,26.4223812 113.732866,25.9355495 C113.760639,25.7640149 113.736134,25.5843119 113.737767,25.4095099 C113.741035,24.9079752 113.567866,24.2920842 113.796579,23.9359455 C114.057965,23.5324307 114.719599,23.850995 115.20153,23.7840149 C115.686728,23.7170347 116.006926,23.5683713 116.005292,22.9622822 C115.988955,16.6465396 115.990589,10.3291634 116.003658,4.01342079 C116.005292,3.35178713 115.721035,3.14757921 115.100243,3.1524802 C113.737767,3.16391584 113.737767,3.14594554 113.737767,1.80960891 C113.737767,0.452034653 113.737767,0.452034653 115.095342,0.452034653 C116.650589,0.452034653 118.204203,0.473272277 119.757817,0.44059901 C120.25445,0.429163366 120.375342,0.574559406 120.372074,1.05975743 C120.350837,4.69465842 120.360639,8.32792574 120.360639,11.9628267" id="Fill-16" fill="#FFFFFF"></path>
                <path d="M131.048064,15.5356485 C131.048064,17.790104 131.048064,20.0461931 131.048064,22.3022822 C131.048064,23.4017376 131.42054,23.8313911 132.479153,23.7660446 C133.176728,23.7235693 133.407074,23.9457475 133.313955,24.6204505 C133.266579,24.9635198 133.242074,25.335995 133.318856,25.6692624 C133.513262,26.5155 133.018262,26.7752525 132.356629,26.7752525 C131.152619,26.7752525 129.951876,26.9026782 128.751134,26.5171337 C127.537322,26.1283218 126.700886,24.9406485 126.691084,23.6271832 C126.666579,19.7178267 126.676381,15.8084703 126.686183,11.8991139 C126.68945,10.8094604 126.446035,10.6346584 125.527916,10.6738663 C124.27653,10.7294109 124.274896,10.6869356 124.274896,9.45188614 C124.274896,7.97832178 124.274896,7.97832178 125.740292,7.97832178 C127.320045,7.97832178 128.899797,7.99629208 130.476282,7.96688614 C130.936975,7.95871782 131.066035,8.07307426 131.0595,8.54356931 C131.033361,10.8731733 131.048064,13.2044109 131.048064,15.5356485" id="Fill-18" fill="#FFFFFF"></path>
                <path d="M91.0081188,15.4288069 C91.0081188,17.6603911 91.0081188,19.8919752 91.0081188,22.1251931 C91.0097525,23.4337574 91.3332178,23.7964307 92.6074752,23.7702921 C93.1237129,23.7604901 93.3360891,23.8862822 93.2756436,24.4286584 C93.229901,24.824005 93.1988614,25.2438564 93.2805446,25.6277673 C93.4569802,26.4527673 93.0273267,26.7631634 92.3346535,26.7729653 C91.1927228,26.7909356 90.0475248,26.9085594 88.9170297,26.589995 C87.3813861,26.1554406 86.6756436,24.979203 86.6576733,23.4223218 C86.6135644,19.5358366 86.6429703,15.6477178 86.6429703,11.7612327 C86.6429703,10.7467277 86.5857921,10.6895495 85.5827228,10.6879158 C84.3852475,10.6862822 84.3852475,10.6862822 84.3852475,9.45286634 C84.3852475,7.97766832 84.3852475,7.97766832 85.8686139,7.97766832 C87.3487129,7.97766832 88.8304455,8.00380693 90.3089109,7.96623267 C90.8545545,7.9515297 91.0326238,8.07568812 91.0228218,8.65727228 C90.9868812,10.914995 91.0081188,13.1727178 91.0081188,15.4288069" id="Fill-20" fill="#7C7C7C"></path>
                <path d="M24.6269851,15.5475743 C24.6269851,17.805297 24.6269851,20.0630198 24.6269851,22.3207426 C24.6269851,23.3973267 25.0190644,23.8318812 26.1005495,23.764901 C26.7883218,23.7207921 26.9794604,23.9478713 26.8928762,24.5882673 C26.8455,24.9329703 26.8193614,25.3054455 26.8977772,25.6370792 C27.0889158,26.4604455 26.6429257,26.7643069 25.9633218,26.7757426 C24.8262921,26.7937129 23.6696584,26.9407426 22.5538663,26.5911386 C21.0067871,26.1043069 20.3092129,25.1257426 20.2830743,23.4806436 C20.2177277,19.5435149 20.2618366,15.6047525 20.2618366,11.6659901 C20.2618366,10.7625743 20.1850545,10.6906931 19.2636683,10.6874257 C18.0041139,10.6841584 18.0041139,10.6841584 18.0041139,9.45564356 C18.0041139,7.97881188 18.0041139,7.97881188 19.4695099,7.97881188 C20.9986188,7.97881188 22.5293614,7.99841584 24.060104,7.96574257 C24.5289653,7.95757426 24.6433218,8.08663366 24.6384208,8.5489604 C24.6139158,10.8818317 24.6269851,13.214703 24.6269851,15.5475743" id="Fill-22" fill="#FFFFFF"></path>
                <path d="M91.0081188,2.3124505 C91.0081188,3.71740099 90.0475248,4.70740099 88.7209901,4.66492574 C87.5365842,4.62735149 86.5057426,3.53606436 86.4894059,2.33695545 C86.4730693,1.09210396 87.4483663,0.0563613861 88.8304455,0.0106188119 C90.0834653,-0.0302227723 91.0081188,0.987549505 91.0081188,2.3124505" id="Fill-24" fill="#7C7C7C"></path>
                <path d="M131.048064,2.31718812 C131.137916,3.68456436 129.98455,4.59451485 128.783807,4.65005941 C127.499748,4.71050495 126.529351,3.64535644 126.532619,2.31065347 C126.535886,1.02332673 127.470342,0.0529306931 128.754401,0.00228712871 C129.956777,-0.0467227723 131.046431,1.05436634 131.048064,2.31718812" id="Fill-26" fill="#FFFFFF"></path>
                <path d="M24.6269851,2.32355941 C24.7299059,3.90657921 23.4719851,4.58291584 22.3561931,4.64662871 C21.1717871,4.71524257 20.1066386,3.53573762 20.1115396,2.30395545 C20.1148069,1.09831188 21.1848564,-0.0125792079 22.415005,0.0135594059 C23.4229752,0.0347970297 24.7772822,0.871232673 24.6269851,2.32355941" id="Fill-28" fill="#FFFFFF"></path>
                <path d="M77.3341931,20.4150743 C76.6823614,22.5698762 75.0029554,23.4226485 73.1209752,23.6252228 C71.898995,23.7559158 70.7162228,23.4438861 69.5350842,23.177599 C69.1054307,23.0812129 69.1854802,22.7528465 69.1838465,22.4653218 C69.1805792,20.9100743 69.1822129,19.3564604 69.1822129,17.8012129 C69.1822129,16.2966089 69.1985495,14.7936386 69.1724109,13.2890347 C69.1658762,12.8430446 69.293302,12.5832921 69.6919158,12.3366089 C70.9825099,11.5393812 72.3204802,10.8614109 73.8642921,10.8499752 C76.0076584,10.8336386 76.9568168,11.9314604 77.4028069,13.6745792 C77.9729554,15.8898267 78.0154307,18.1671535 77.3341931,20.4150743 M81.7026089,12.5163119 C80.6064208,8.47789604 77.1332525,6.79032178 73.3300842,7.62839109 C71.8744901,7.94858911 70.5528564,8.54487624 69.1822129,9.32740099 C69.1822129,6.59918317 69.1577079,3.9934901 69.1985495,1.38779703 C69.2099851,0.673886139 69.0956287,0.373292079 68.2853317,0.430470297 C67.0878564,0.513787129 65.8805792,0.43210396 64.678203,0.459876238 C63.9871634,0.476212871 63.0429059,0.139678218 62.6753317,0.606905941 C62.3306287,1.04472772 62.5887475,1.94814356 62.5544406,2.64571782 C62.5348366,3.01819307 62.6279554,3.21913366 63.0445396,3.16522277 C63.2438465,3.14071782 63.4464208,3.16522277 63.6473614,3.16032178 C64.683104,3.13908416 64.8350347,3.42334158 64.8317673,4.29571782 C64.8056287,11.2387871 64.8219653,18.1818564 64.808896,25.1249257 C64.808896,25.6640347 64.8677079,25.997302 65.5244406,26.0691832 C66.1027574,26.132896 66.6810743,26.2717574 67.2626584,26.3714109 C69.9990446,26.8386386 72.738698,27.2486881 75.5012228,26.6360644 C78.3862723,25.997302 80.5263713,24.4044802 81.503302,21.5406683 C82.5178069,18.567401 82.5292426,15.5614604 81.7026089,12.5163119" id="Fill-30" fill="#7C7C7C"></path>
            </g>
        </g>
    </g>
</svg>