<?xml version="1.0" encoding="UTF-8"?>
<svg width="165px" height="54px" viewBox="0 0 165 54" version="1.1" xmlns="http://www.w3.org/2000/svg" xmlns:xlink="http://www.w3.org/1999/xlink">
    <!-- Generator: Sketch 52.5 (67469) - http://www.bohemiancoding.com/sketch -->
    <title>CTV_flat_logo</title>
    <desc>Created with Sketch.</desc>
    <g id="Homepage" stroke="none" stroke-width="1" fill="none" fill-rule="evenodd">
        <g id="Home_Page_01" transform="translate(-150.000000, -725.000000)">
            <g id="CTV_flat_logo" transform="translate(150.000000, 725.000000)">
                <path d="M26.6576894,53.3076923 C41.3701513,53.3076923 53.3076923,41.3701517 53.3076923,26.6500025 C53.3076923,11.9298554 41.3701513,0 26.6576894,0 C11.9452279,0 0,11.9298554 0,26.6500025 C0,41.3701517 11.9452279,53.3076923 26.6576894,53.3076923" id="path13224" fill="#777777"></path>
                <rect id="rect13226" fill="#696969" x="55.3217348" y="1.99075673" width="48.8570563" height="50.256049"></rect>
                <polygon id="polygon13228" fill="#A4A4A4" points="135.187078 52.8080534 164.99634 1.99087169 105.400876 1.99087169"></polygon>
                <path d="M42.2541289,32.0153625 C40.055715,38.6490373 33.8678719,43.4302042 26.5654482,43.4302042 C17.4335763,43.4302042 10.038911,35.9509848 10.038911,26.7268713 C10.038911,17.5027558 17.0569237,10.4155615 26.1887968,10.4155615 C33.7295103,10.4155615 40.3401253,15.2351629 42.4232377,22.09944 L37.8573013,22.09944 C35.9740446,17.6411188 31.4234817,14.6048481 26.2887248,14.6048481 C19.555121,14.6048481 14.3665585,19.8395323 14.3665585,26.6423173 C14.3665585,33.4451002 19.8241577,38.9641958 26.5654482,38.9641958 C31.3927346,38.9641958 35.5589594,36.1277802 37.5498308,32.0153625 L42.2541289,32.0153625 Z" id="path13230" fill="#FFFFFF"></path>
                <polygon id="polygon13232" fill="#FFFFFF" points="63.8769896 16.6034057 63.8769896 12.0989633 95.7309301 12.0989633 95.7309301 16.6034057 82.2022295 16.6034057 82.2022295 42.046587 77.6901004 42.046587 77.6901004 16.6034057"></polygon>
                <polygon id="polygon13234" fill="#FFFFFF" points="135.171704 41.2241035 152.905064 11.238046 147.662692 11.238046 135.171704 32.0153629 122.688403 11.238046 117.430658 11.238046"></polygon>
            </g>
        </g>
    </g>
</svg>