<?xml version="1.0" encoding="utf-8"?>
<!-- Generator: Adobe Illustrator 16.0.0, SVG Export Plug-In . SVG Version: 6.00 Build 0)  -->
<!DOCTYPE svg PUBLIC "-//W3C//DTD SVG 1.1//EN" "http://www.w3.org/Graphics/SVG/1.1/DTD/svg11.dtd">
<svg version="1.1" id="Capa_1" xmlns="http://www.w3.org/2000/svg" xmlns:xlink="http://www.w3.org/1999/xlink" x="0px" y="0px"
	 width="110px" height="110px" viewBox="0 0 110 110" enable-background="new 0 0 110 110" xml:space="preserve">
<path fill="#FFC300" d="M95.478,59.979c-1.118,0-2.023,0.746-2.023,1.667v38.352c0,0.921-0.906,1.668-2.024,1.668H71.19V76.653
	c0-2.763-2.72-5.003-6.073-5.003H44.876c-3.353,0-6.071,2.24-6.071,5.003v25.012H18.564c-1.118,0-2.023-0.747-2.023-1.668V61.646
	c0-0.921-0.906-1.667-2.024-1.667s-2.024,0.746-2.024,1.667v38.352c0,2.763,2.718,5.003,6.071,5.003H91.43
	c3.354,0,6.073-2.239,6.073-5.003V61.646C97.501,60.725,96.597,59.979,95.478,59.979z M67.141,101.665H42.853V76.653
	c0-0.922,0.906-1.668,2.024-1.668h20.241c1.118,0,2.023,0.746,2.023,1.668V101.665L67.141,101.665z"/>
<path fill="#FFC300" d="M108.235,47.954L59.311,6.462c-2.389-1.95-6.238-1.95-8.627,0L1.765,47.954
	c-1.754,1.489-2.252,3.701-1.261,5.609c0.919,1.868,3.124,3.086,5.57,3.081h0.692c1.447-0.012,2.842-0.453,3.927-1.243
	c0.145-0.078,0.28-0.166,0.404-0.263l43.899-37.255l43.931,37.275c0.119,0.091,0.245,0.174,0.38,0.248
	c1.085,0.787,2.477,1.226,3.921,1.238h0.691c2.448,0.008,4.656-1.211,5.577-3.081C110.486,51.655,109.989,49.443,108.235,47.954z
	 M105.769,52.266c-0.301,0.625-1.032,1.037-1.849,1.042h-0.691c-0.536,0-1.048-0.181-1.416-0.5
	c-0.016-0.013-0.037-0.017-0.052-0.028c-0.014-0.012-0.028-0.03-0.045-0.042l-45.267-38.41l-0.024-0.013l-0.011-0.025
	c-0.097-0.064-0.203-0.12-0.313-0.167c-0.104-0.069-0.219-0.129-0.339-0.178c-0.123-0.033-0.252-0.056-0.382-0.067
	c-0.243-0.073-0.51-0.073-0.752,0c-0.13,0.012-0.259,0.034-0.383,0.067c-0.12,0.05-0.233,0.109-0.338,0.178
	c-0.111,0.047-0.217,0.103-0.314,0.167l-0.016,0.02l-0.025,0.013L8.276,52.738c-0.019,0.012-0.026,0.028-0.044,0.04
	c-0.019,0.012-0.039,0.017-0.053,0.03c-0.37,0.319-0.881,0.5-1.417,0.5H6.074c-0.816-0.005-1.547-0.417-1.848-1.042
	c-0.359-0.674-0.188-1.461,0.435-1.989H4.657l48.924-41.49c0.373-0.31,0.881-0.484,1.41-0.484c0.53,0,1.038,0.174,1.411,0.484
	l48.933,41.49C105.955,50.805,106.127,51.592,105.769,52.266z"/>
<path fill="#FFC300" d="M48.925,86.657h-2.024c-1.118,0-2.024,0.747-2.024,1.668s0.907,1.668,2.024,1.668h2.024
	c1.118,0,2.024-0.747,2.024-1.668S50.042,86.657,48.925,86.657z"/>
<path fill="#FFC300" d="M54.999,65.686c-9.49,0-17.21-7.721-17.21-17.211c0-9.49,7.72-17.21,17.21-17.21
	c9.49,0,17.212,7.72,17.212,17.21C72.211,57.965,64.489,65.686,54.999,65.686z M54.999,35.265c-7.284,0-13.21,5.926-13.21,13.21
	s5.926,13.211,13.21,13.211c7.285,0,13.212-5.927,13.212-13.211S62.284,35.265,54.999,35.265z"/>
<path fill="#FFC300" d="M76.662,72.172c-0.512,0-1.023-0.195-1.414-0.586L64.323,60.662c-0.781-0.781-0.781-2.047,0-2.828
	s2.047-0.781,2.828,0l10.925,10.924c0.781,0.781,0.781,2.047,0,2.828C77.686,71.977,77.174,72.172,76.662,72.172z"/>
</svg>
