<?xml version="1.0" encoding="utf-8"?>
<!-- Generator: Adobe Illustrator 16.0.0, SVG Export Plug-In . SVG Version: 6.00 Build 0)  -->
<!DOCTYPE svg PUBLIC "-//W3C//DTD SVG 1.1//EN" "http://www.w3.org/Graphics/SVG/1.1/DTD/svg11.dtd">
<svg version="1.1" id="Capa_1" xmlns="http://www.w3.org/2000/svg" xmlns:xlink="http://www.w3.org/1999/xlink" x="0px" y="0px"
	 width="110px" height="110px" viewBox="0 0 110 110" enable-background="new 0 0 110 110" xml:space="preserve">
<g>
	<g>
		<g>
			<path fill="#FFFFFF" d="M109.484,36.652L88.15,15.198c-0.686-0.689-1.798-0.689-2.484,0L75,25.925
				c-0.33,0.331-0.516,0.781-0.516,1.25c0,0.468,0.186,0.918,0.516,1.249l1.063,1.07l-2.445,2.458
				c-1.587,1.597-4.051,2.032-6.129,1.083c-1.948-0.89-4.115-1.36-6.265-1.36c-2.554,0-5.049,0.645-7.265,1.866
				c-0.924-0.229-1.873-0.347-2.832-0.347c-1.386,0-2.747,0.241-4.045,0.716c-2.073,0.756-4.296,0.287-5.801-1.226l-4.391-4.416
				l0.523-0.525c0.329-0.332,0.514-0.781,0.514-1.249c0-0.47-0.185-0.918-0.514-1.249L26.747,14.518c-0.687-0.69-1.798-0.69-2.485,0
				L0.515,38.398c-0.686,0.69-0.686,1.809,0,2.498l10.667,10.727c0.33,0.331,0.776,0.518,1.243,0.518s0.913-0.187,1.242-0.518
				l0.636-0.639l3.097,3.114c0.781,0.786,1.299,1.767,1.498,2.837c1.028,5.549,3.671,10.592,7.642,14.588l0.583,0.587
				c-1.12,1.186-1.736,2.731-1.736,4.374c0,1.698,0.658,3.295,1.852,4.496c1.233,1.239,2.852,1.859,4.471,1.859
				c0.105,0,0.21-0.003,0.316-0.008c-0.085,1.732,0.528,3.493,1.841,4.813c1.194,1.2,2.782,1.862,4.471,1.862
				c0.047,0,0.094-0.002,0.141-0.004c-0.036,1.675,0.578,3.36,1.846,4.635C41.518,95.34,43.105,96,44.794,96
				s3.276-0.661,4.471-1.862c0.101-0.101,0.195-0.205,0.288-0.312c0.622,0.219,1.28,0.334,1.945,0.334
				c1.58,0,3.064-0.618,4.177-1.741c0.593-0.596,1.042-1.296,1.335-2.059l0.18,0.181c1.15,1.157,2.663,1.737,4.176,1.737
				c1.512,0,3.024-0.58,4.176-1.737c0.611-0.616,1.072-1.342,1.363-2.134c1.03,0.754,2.25,1.131,3.471,1.131
				c1.513,0,3.025-0.579,4.178-1.736c1.115-1.121,1.73-2.613,1.73-4.201c0-0.479-0.058-0.949-0.166-1.404
				c1.125-0.229,2.158-0.785,2.988-1.62c1.115-1.122,1.729-2.613,1.729-4.199c0-1.25-0.383-2.44-1.09-3.438l1.41-1.417
				c4.018-4.042,6.671-9.149,7.675-14.771c0.169-0.94,0.632-1.815,1.341-2.529l5.242-5.271l0.922,0.926
				c0.343,0.344,0.793,0.517,1.242,0.517s0.899-0.173,1.242-0.517l10.667-10.727c0.329-0.331,0.515-0.781,0.515-1.249
				S109.814,36.983,109.484,36.652z M12.424,47.875l-8.183-8.229l21.263-21.381l8.183,8.228L12.424,47.875z M33.695,78.481
				c-1.095,1.101-2.877,1.101-3.973,0c-0.531-0.533-0.823-1.243-0.823-1.997c0-0.756,0.292-1.465,0.823-1.999
				c0.548-0.55,1.267-0.825,1.986-0.825c0.719,0,1.439,0.275,1.986,0.825C34.79,75.587,34.79,77.381,33.695,78.481z M40.322,85.146
				c-0.53,0.533-1.235,0.827-1.986,0.827c-0.75,0-1.456-0.294-1.986-0.827c-1.095-1.102-1.095-2.895,0-3.996
				c0.548-0.551,1.267-0.826,1.987-0.826c0.719,0,1.438,0.275,1.986,0.826C41.418,82.252,41.418,84.045,40.322,85.146z M46.78,91.64
				c-0.531,0.534-1.236,0.827-1.986,0.827s-1.456-0.293-1.986-0.827c-1.096-1.102-1.096-2.894,0-3.995
				c0.548-0.551,1.267-0.826,1.986-0.826c0.719,0,1.439,0.275,1.986,0.826C47.875,88.746,47.875,90.538,46.78,91.64z M76.619,78.078
				c-0.451,0.454-1.052,0.705-1.69,0.705s-1.239-0.251-1.691-0.705L56.193,60.942c-0.686-0.69-1.798-0.69-2.484,0
				c-0.686,0.69-0.686,1.809,0,2.498l18.359,18.459c0.451,0.455,0.7,1.059,0.7,1.701c0,0.645-0.249,1.249-0.7,1.703
				c-0.934,0.938-2.452,0.938-3.385,0l-3.098-3.115c-0.017-0.018-0.033-0.035-0.051-0.053c-0.006-0.006-0.012-0.01-0.017-0.016
				L51.281,67.804c-0.686-0.689-1.798-0.689-2.484,0c-0.687,0.689-0.687,1.809,0,2.498L63.08,84.664
				c0.436,0.451,0.676,1.046,0.676,1.678c0,0.643-0.248,1.246-0.7,1.7c-0.932,0.938-2.449,0.938-3.382,0L44.187,72.469
				c-0.687-0.689-1.798-0.689-2.484,0c-0.687,0.689-0.687,1.809,0,2.498l11.48,11.545c0.003,0.003,0.005,0.007,0.009,0.01
				c0.452,0.452,0.7,1.057,0.7,1.697c0,0.643-0.249,1.247-0.703,1.702c-0.451,0.456-1.051,0.705-1.691,0.705
				c-0.154,0-0.305-0.016-0.453-0.043c0.284-1.927-0.309-3.959-1.779-5.438c-1.194-1.201-2.782-1.863-4.471-1.863
				c-0.047,0-0.094,0.003-0.141,0.004c0.036-1.674-0.578-3.36-1.846-4.635c-1.195-1.2-2.782-1.862-4.472-1.862
				c-0.105,0-0.21,0.002-0.315,0.008c0.084-1.732-0.529-3.491-1.841-4.81c-1.597-1.606-3.842-2.17-5.896-1.696l-1.26-1.267
				c-3.468-3.489-5.775-7.894-6.672-12.738c-0.329-1.774-1.182-3.396-2.467-4.688l-3.097-3.115l17.619-17.718l4.391,4.416
				c1.688,1.698,3.985,2.605,6.339,2.605c1.054,0,2.12-0.183,3.146-0.558c0.498-0.182,1.013-0.312,1.535-0.395L38.94,47.772
				c-1.331,1.338-2.064,3.118-2.064,5.01c0,1.893,0.733,3.672,2.064,5.01c1.374,1.382,3.177,2.072,4.982,2.072
				c1.804,0,3.609-0.691,4.983-2.072l5.463-5.494l1.479,1.488c0.001,0.001,0.001,0.001,0.001,0.001l0.062,0.062l0.06,0.06
				c0,0,0,0,0.001,0l0.001,0.002c0.017,0.016,0.033,0.032,0.05,0.048l20.6,20.715c0.452,0.455,0.7,1.058,0.7,1.701
				S77.072,77.624,76.619,78.078z M87.686,51.723c-1.219,1.227-2.02,2.749-2.314,4.403c-0.877,4.909-3.195,9.369-6.702,12.897
				l-1.351,1.358L66.205,59.205c0.241,0.018,0.484,0.03,0.729,0.03c1.125,0,2.276-0.198,3.423-0.671
				c0.897-0.369,1.328-1.4,0.961-2.304c-0.368-0.902-1.393-1.335-2.291-0.966c-4.522,1.861-9.942-3.266-10.546-3.857
				c-0.01-0.01-0.021-0.02-0.031-0.028l-0.062-0.063c0,0,0,0,0-0.001l-0.055-0.054c0,0,0-0.001-0.001-0.001l-1.479-1.489
				l1.678-1.687c0.687-0.69,0.687-1.808,0-2.498c-0.686-0.69-1.799-0.69-2.484,0l-2.915,2.931c-0.001,0.002-0.002,0.002-0.003,0.004
				c-0.001,0-0.002,0.002-0.003,0.003l-6.703,6.741c-1.377,1.386-3.618,1.385-4.996,0c-0.667-0.67-1.034-1.562-1.034-2.511
				c0-0.95,0.367-1.841,1.035-2.512l11.569-11.635c0.644-0.647,1.359-1.217,2.129-1.693c1.826-1.135,3.936-1.736,6.102-1.736
				c1.652,0,3.316,0.361,4.812,1.044c3.404,1.553,7.449,0.83,10.066-1.802l2.445-2.458l14.379,14.459L87.686,51.723z M97.575,46.13
				L78.727,27.175l8.182-8.229l18.85,18.955L97.575,46.13z"/>
		</g>
	</g>
	<g>
		<g>
			<ellipse fill="#FFFFFF" cx="99.346" cy="39.252" rx="1.756" ry="1.767"/>
		</g>
	</g>
	<g>
		<g>
			<ellipse fill="#FFFFFF" cx="11.508" cy="40.997" rx="1.757" ry="1.767"/>
		</g>
	</g>
</g>
</svg>
