<?xml version="1.0" encoding="utf-8"?>
<!-- Generator: Adobe Illustrator 16.0.0, SVG Export Plug-In . SVG Version: 6.00 Build 0)  -->
<!DOCTYPE svg PUBLIC "-//W3C//DTD SVG 1.1//EN" "http://www.w3.org/Graphics/SVG/1.1/DTD/svg11.dtd">
<svg version="1.1" id="Capa_1" xmlns="http://www.w3.org/2000/svg" xmlns:xlink="http://www.w3.org/1999/xlink" x="0px" y="0px"
	 width="110px" height="110px" viewBox="0 0 110 110" enable-background="new 0 0 110 110" xml:space="preserve">
<g>
	<path fill="#FFC300" d="M104.941,27.246h-1.83v-5.337c0-0.634-0.361-1.21-0.927-1.479C87.201,13.295,70.049,13.193,55,20.114
		c-15.049-6.921-32.201-6.819-47.185,0.316c-0.566,0.269-0.927,0.845-0.927,1.479v5.337h-1.83C2.27,27.246,0,29.543,0,32.365V89.88
		C0,92.703,2.27,95,5.059,95h99.883c2.789,0,5.059-2.297,5.059-5.12V32.365C110,29.543,107.73,27.246,104.941,27.246z
		 M56.614,51.532c0-0.002,0-0.005,0-0.007V22.957c13.807-6.255,29.462-6.255,43.269,0v5.917c0,0.002,0,0.004,0,0.006
		s0,0.005,0,0.007V82.14c-6.939-2.934-14.287-4.4-21.635-4.4c-7.346,0-14.694,1.467-21.634,4.4V51.532z M46.281,20.337
		c2.408,0.698,4.783,1.568,7.104,2.62v25.527l-2.657-1.792c-0.542-0.365-1.248-0.365-1.791,0l-2.656,1.792V20.337z M10.117,28.885
		c0-0.002,0-0.004,0-0.005s0-0.003,0-0.004v-5.919c10.454-4.736,21.967-5.883,32.936-3.447v7.158
		c-5.762-1.199-11.641-1.477-17.507-0.817c-0.886,0.1-1.525,0.907-1.426,1.805s0.896,1.544,1.783,1.443
		c5.749-0.646,11.512-0.341,17.15,0.907v10.606c-3.426-0.711-6.919-1.104-10.414-1.159c-0.892-0.017-1.625,0.705-1.64,1.607
		s0.697,1.645,1.588,1.66c3.516,0.056,7.03,0.471,10.465,1.23v3.629c-9.34-1.941-19.027-1.447-28.146,1.453
		c-0.851,0.27-1.324,1.187-1.057,2.047c0.217,0.698,0.854,1.145,1.54,1.145c0.16,0,0.323-0.023,0.484-0.074
		c8.806-2.801,18.174-3.219,27.178-1.229v0.615c0,0.603,0.327,1.156,0.853,1.441c0.524,0.283,1.161,0.253,1.657-0.081l4.271-2.883
		l3.552,2.396V82.14c-6.939-2.934-14.287-4.4-21.634-4.4s-14.695,1.467-21.634,4.4V28.885L10.117,28.885z M48.219,91.732H5.059
		c-1.009,0-1.83-0.83-1.83-1.853V32.365c0-1.021,0.821-1.852,1.83-1.852h1.83v54.138v1.744c0,0.901,0.723,1.633,1.614,1.633h39.716
		V91.732z M12.333,84.761c12.506-4.997,26.332-4.997,38.837,0H12.333z M58.552,91.732h-7.104v-3.704h7.104V91.732z M97.668,84.761
		H58.83C71.336,79.764,85.16,79.764,97.668,84.761z M106.771,89.88c0,1.022-0.821,1.853-1.83,1.853h-43.16v-3.704h39.716
		c0.892,0,1.614-0.731,1.614-1.633v-1.744V30.514h1.83c1.009,0,1.83,0.831,1.83,1.852V89.88z"/>
	<path fill="#FFC300" d="M66.723,68.562c-1.787,0.378-3.576,0.853-5.318,1.405c-0.851,0.271-1.323,1.188-1.057,2.048
		c0.217,0.698,0.854,1.145,1.541,1.145c0.16,0,0.322-0.023,0.484-0.075c1.642-0.521,3.328-0.968,5.012-1.324
		c0.873-0.186,1.433-1.052,1.25-1.935C68.451,68.941,67.596,68.376,66.723,68.562z"/>
	<path fill="#FFC300" d="M94.609,73.159c0.686,0,1.322-0.446,1.539-1.145c0.268-0.859-0.205-1.776-1.056-2.048
		c-6.904-2.195-14.063-3.016-21.278-2.437c-0.889,0.071-1.552,0.857-1.481,1.757c0.069,0.899,0.847,1.571,1.737,1.5
		c6.799-0.545,13.547,0.228,20.055,2.297C94.285,73.136,94.449,73.159,94.609,73.159z"/>
	<path fill="#FFC300" d="M61.889,66.168c0.16,0,0.322-0.023,0.484-0.075c10.386-3.303,21.365-3.303,31.752,0
		c0.851,0.271,1.757-0.207,2.023-1.069c0.268-0.859-0.205-1.776-1.057-2.048c-11.02-3.504-22.668-3.504-33.688,0
		c-0.851,0.271-1.323,1.188-1.057,2.048C60.564,65.722,61.201,66.168,61.889,66.168z"/>
	<path fill="#FFC300" d="M61.889,59.218c0.16,0,0.322-0.025,0.484-0.077c5.958-1.894,12.143-2.703,18.383-2.403
		c0.893,0.042,1.646-0.654,1.689-1.556c0.042-0.901-0.646-1.666-1.537-1.709c-6.619-0.316-13.182,0.541-19.504,2.551
		c-0.851,0.271-1.323,1.188-1.057,2.048C60.564,58.771,61.201,59.218,61.889,59.218z"/>
	<path fill="#FFC300" d="M95.093,56.023c-2.316-0.735-4.703-1.325-7.094-1.752c-0.878-0.157-1.716,0.438-1.87,1.325
		c-0.154,0.89,0.432,1.737,1.311,1.894c2.252,0.401,4.502,0.957,6.686,1.65c0.16,0.052,0.323,0.077,0.484,0.077
		c0.686,0,1.322-0.446,1.539-1.145C96.416,57.212,95.943,56.295,95.093,56.023z"/>
	<path fill="#FFC300" d="M61.889,52.225c0.16,0,0.322-0.023,0.484-0.074c10.386-3.304,21.365-3.304,31.752,0
		c0.851,0.271,1.757-0.208,2.023-1.07c0.268-0.859-0.205-1.776-1.057-2.047c-11.02-3.505-22.668-3.505-33.688,0
		c-0.851,0.271-1.323,1.188-1.057,2.047C60.564,51.778,61.201,52.225,61.889,52.225z"/>
	<path fill="#FFC300" d="M72.044,39.794c-3.602,0.405-7.182,1.168-10.64,2.268c-0.851,0.271-1.323,1.188-1.057,2.048
		c0.217,0.698,0.854,1.144,1.541,1.144c0.16,0,0.322-0.023,0.484-0.074c3.259-1.036,6.633-1.756,10.027-2.138
		c0.887-0.099,1.525-0.907,1.426-1.804C73.729,40.341,72.93,39.694,72.044,39.794z"/>
	<path fill="#FFC300" d="M79.085,42.722c5.107,0.081,10.167,0.907,15.04,2.457c0.16,0.051,0.324,0.075,0.484,0.075
		c0.686,0,1.322-0.446,1.539-1.144c0.268-0.861-0.205-1.778-1.057-2.049c-5.169-1.644-10.537-2.521-15.955-2.607
		c-0.889-0.018-1.627,0.705-1.641,1.606C77.482,41.963,78.193,42.706,79.085,42.722z"/>
	<path fill="#FFC300" d="M84.098,36.091c0.886,0.1,1.684-0.547,1.783-1.444c0.098-0.896-0.541-1.704-1.427-1.804
		c-7.804-0.878-15.56-0.114-23.05,2.267c-0.851,0.271-1.323,1.188-1.057,2.05c0.217,0.697,0.854,1.145,1.541,1.145
		c0.16,0,0.322-0.025,0.484-0.076C69.433,35.982,76.742,35.264,84.098,36.091z"/>
	<path fill="#FFC300" d="M95.093,35.109c-1.167-0.37-2.359-0.707-3.546-0.998c-0.867-0.214-1.74,0.324-1.951,1.199
		c-0.211,0.878,0.32,1.762,1.188,1.975c1.117,0.275,2.242,0.594,3.342,0.942c0.16,0.051,0.324,0.076,0.484,0.076
		c0.686,0,1.322-0.447,1.539-1.145C96.416,36.297,95.943,35.38,95.093,35.109z"/>
	<path fill="#FFC300" d="M61.889,31.312c0.16,0,0.322-0.026,0.484-0.076c1.098-0.35,2.222-0.667,3.34-0.942
		c0.867-0.213,1.398-1.097,1.188-1.975c-0.211-0.877-1.085-1.414-1.951-1.2c-1.187,0.292-2.379,0.629-3.545,0.999
		c-0.851,0.271-1.323,1.188-1.057,2.049C60.564,30.865,61.201,31.312,61.889,31.312z"/>
	<path fill="#FFC300" d="M72.399,29.099c7.356-0.827,14.665-0.107,21.726,2.138c0.16,0.05,0.324,0.076,0.484,0.076
		c0.686,0,1.322-0.447,1.539-1.145c0.268-0.862-0.205-1.779-1.056-2.05c-7.491-2.382-15.246-3.146-23.05-2.267
		c-0.887,0.1-1.525,0.907-1.426,1.804C70.715,28.553,71.513,29.199,72.399,29.099z"/>
	<path fill="#FFC300" d="M20.226,68.562c-1.787,0.378-3.577,0.853-5.319,1.405c-0.851,0.271-1.323,1.188-1.056,2.048
		c0.217,0.698,0.854,1.145,1.54,1.145c0.16,0,0.323-0.023,0.484-0.075c1.642-0.521,3.329-0.968,5.013-1.324
		c0.873-0.186,1.432-1.052,1.249-1.935C21.955,68.941,21.098,68.376,20.226,68.562z"/>
	<path fill="#FFC300" d="M48.111,73.159c0.688,0,1.324-0.446,1.541-1.145c0.267-0.859-0.207-1.776-1.057-2.048
		c-6.904-2.195-14.063-3.016-21.278-2.437c-0.889,0.071-1.552,0.857-1.482,1.757c0.07,0.899,0.847,1.571,1.737,1.5
		c6.8-0.545,13.547,0.228,20.054,2.297C47.789,73.136,47.951,73.159,48.111,73.159z"/>
	<path fill="#FFC300" d="M15.391,66.168c0.16,0,0.323-0.023,0.484-0.075c10.386-3.303,21.366-3.303,31.751,0
		c0.852,0.271,1.758-0.207,2.025-1.069c0.267-0.859-0.207-1.776-1.057-2.048c-11.02-3.504-22.669-3.504-33.688,0
		c-0.851,0.271-1.323,1.188-1.056,2.048C14.068,65.722,14.705,66.168,15.391,66.168z"/>
	<path fill="#FFC300" d="M15.391,59.218c0.16,0,0.323-0.025,0.484-0.077c5.958-1.894,12.143-2.703,18.383-2.403
		c0.895,0.042,1.646-0.654,1.689-1.556s-0.646-1.666-1.536-1.709c-6.621-0.316-13.182,0.541-19.504,2.551
		c-0.851,0.271-1.323,1.188-1.056,2.048C14.068,58.771,14.705,59.218,15.391,59.218z"/>
	<path fill="#FFC300" d="M40.941,57.49c2.254,0.401,4.504,0.957,6.686,1.65c0.162,0.052,0.324,0.077,0.484,0.077
		c0.688,0,1.324-0.446,1.541-1.145c0.267-0.861-0.207-1.778-1.057-2.05c-2.316-0.735-4.703-1.325-7.094-1.751
		c-0.878-0.157-1.715,0.438-1.87,1.324C39.478,56.486,40.063,57.334,40.941,57.49z"/>
	<path fill="#FFC300" d="M25.547,39.794c-3.602,0.405-7.182,1.168-10.64,2.268c-0.851,0.271-1.323,1.188-1.056,2.048
		c0.217,0.698,0.854,1.144,1.54,1.144c0.16,0,0.323-0.023,0.484-0.074c3.259-1.036,6.633-1.756,10.028-2.138
		c0.886-0.099,1.525-0.907,1.426-1.804C27.231,40.341,26.432,39.694,25.547,39.794z"/>
	<path fill="#FFC300" d="M13.851,37.159c0.217,0.697,0.854,1.145,1.54,1.145c0.16,0,0.323-0.025,0.484-0.076
		c7.06-2.245,14.369-2.964,21.725-2.137c0.886,0.1,1.685-0.547,1.782-1.444c0.1-0.897-0.539-1.704-1.426-1.805
		c-7.804-0.877-15.559-0.114-23.05,2.268C14.057,35.38,13.584,36.297,13.851,37.159z"/>
	<path fill="#FFC300" d="M15.391,31.312c0.16,0,0.323-0.026,0.484-0.076c1.098-0.35,2.222-0.667,3.341-0.942
		c0.866-0.213,1.397-1.097,1.187-1.975c-0.211-0.877-1.084-1.414-1.951-1.2c-1.187,0.292-2.379,0.629-3.545,0.999
		c-0.851,0.271-1.323,1.188-1.056,2.049C14.068,30.865,14.705,31.312,15.391,31.312z"/>
</g>
</svg>
