<?xml version="1.0" encoding="utf-8"?>
<!-- Generator: Adobe Illustrator 16.0.0, SVG Export Plug-In . SVG Version: 6.00 Build 0)  -->
<!DOCTYPE svg PUBLIC "-//W3C//DTD SVG 1.1//EN" "http://www.w3.org/Graphics/SVG/1.1/DTD/svg11.dtd">
<svg version="1.1" id="Capa_1" xmlns="http://www.w3.org/2000/svg" xmlns:xlink="http://www.w3.org/1999/xlink" x="0px" y="0px"
	 width="110px" height="110px" viewBox="0 0 110 110" enable-background="new 0 0 110 110" xml:space="preserve">
<g>
	<g>
		<g>
			<path fill="#FFFFFF" d="M89.34,7H20.66C17.54,7,15,9.523,15,12.625v84.75c0,3.102,2.54,5.625,5.66,5.625h68.68
				c3.121,0,5.66-2.523,5.66-5.625v-84.75C95,9.523,92.461,7,89.34,7z M77.83,13.645l10.508,10.442h-8.621
				c-1.04,0-1.887-0.841-1.887-1.875V13.645z M91.227,97.375c0,1.034-0.847,1.875-1.887,1.875H20.66
				c-1.04,0-1.887-0.841-1.887-1.875v-84.75c0-1.034,0.847-1.875,1.887-1.875h53.396v11.461c0,3.102,2.539,5.625,5.66,5.625h11.51
				V97.375z M91.227,21.653L80.255,10.75h9.085c1.04,0,1.887,0.841,1.887,1.875V21.653z"/>
		</g>
	</g>
	<g>
		<g>
			<path fill="#FFFFFF" d="M83.623,42.25H62.601c-1.042,0-1.887,0.839-1.887,1.875S61.559,46,62.601,46h21.022
				c1.042,0,1.887-0.839,1.887-1.875S84.665,42.25,83.623,42.25z"/>
		</g>
	</g>
	<g>
		<g>
			<path fill="#FFFFFF" d="M63.934,33.799c-0.351-0.349-0.838-0.549-1.333-0.549c-0.497,0-0.983,0.201-1.335,0.549
				c-0.351,0.349-0.552,0.833-0.552,1.326s0.201,0.977,0.552,1.326C61.617,36.799,62.104,37,62.601,37
				c0.495,0,0.982-0.201,1.333-0.549c0.352-0.349,0.554-0.833,0.554-1.326S64.285,34.148,63.934,33.799z"/>
		</g>
	</g>
	<g>
		<g>
			<path fill="#FFFFFF" d="M83.623,33.25H70.134c-1.043,0-1.887,0.839-1.887,1.875S69.091,37,70.134,37h13.489
				c1.042,0,1.887-0.839,1.887-1.875S84.665,33.25,83.623,33.25z"/>
		</g>
	</g>
	<g>
		<g>
			<path fill="#FFFFFF" d="M83.623,51.25H63.182c-1.042,0-1.887,0.839-1.887,1.875S62.14,55,63.182,55h20.441
				c1.041,0,1.887-0.839,1.887-1.875S84.665,51.25,83.623,51.25z"/>
		</g>
	</g>
	<g>
		<g>
			<path fill="#FFFFFF" d="M84.107,60.25h-57.73c-1.042,0-1.887,0.84-1.887,1.875S25.335,64,26.377,64h57.73
				c1.042,0,1.887-0.84,1.887-1.875S85.149,60.25,84.107,60.25z"/>
		</g>
	</g>
	<g>
		<g>
			<path fill="#FFFFFF" d="M83.623,69.25H26.377c-1.042,0-1.887,0.84-1.887,1.875S25.335,73,26.377,73h57.246
				c1.041,0,1.887-0.84,1.887-1.875S84.664,69.25,83.623,69.25z"/>
		</g>
	</g>
	<g>
		<g>
			<path fill="#FFFFFF" d="M84.107,78.25h-57.73c-1.042,0-1.887,0.84-1.887,1.875S25.335,82,26.377,82h57.73
				c1.042,0,1.887-0.84,1.887-1.875S85.149,78.25,84.107,78.25z"/>
		</g>
	</g>
	<g>
		<g>
			<path fill="#FFFFFF" d="M85.441,87.799c-0.351-0.348-0.838-0.549-1.333-0.549c-0.497,0-0.984,0.201-1.335,0.549
				c-0.351,0.35-0.552,0.834-0.552,1.326s0.201,0.977,0.552,1.326C83.124,90.799,83.611,91,84.108,91
				c0.495,0,0.982-0.201,1.333-0.549c0.351-0.35,0.554-0.834,0.554-1.326S85.792,88.148,85.441,87.799z"/>
		</g>
	</g>
	<g>
		<g>
			<path fill="#FFFFFF" d="M76.511,87.25H26.377c-1.042,0-1.887,0.84-1.887,1.875S25.335,91,26.377,91h50.133
				c1.042,0,1.887-0.84,1.887-1.875S77.553,87.25,76.511,87.25z"/>
		</g>
	</g>
	<g>
		<g>
			<path fill="#FFFFFF" d="M53.523,19h-27.63c-1.042,0-1.887,0.839-1.887,1.875l-0.024,32.25c0,1.036,0.845,1.875,1.887,1.875
				h27.655c1.042,0,1.887-0.839,1.887-1.875v-32.25C55.41,19.839,54.565,19,53.523,19z M51.636,51.25H27.755l0.024-2.387
				c0.305-4.11,3.766-7.363,7.979-7.363h7.874c4.414,0,8.004,3.568,8.004,7.954V51.25z M36.677,34.75v-1.219
				c0-1.654,1.354-3,3.019-3c1.665,0,3.019,1.346,3.019,3v1.219c0,1.654-1.354,3-3.019,3C38.031,37.75,36.677,36.404,36.677,34.75z
				 M51.636,40.878c-1.626-1.5-3.677-2.548-5.952-2.947c0.512-0.949,0.803-2.032,0.803-3.182v-1.219c0-3.722-3.046-6.75-6.792-6.75
				c-3.745,0-6.792,3.028-6.792,6.75v1.219c0,1.15,0.292,2.233,0.804,3.182c-2.263,0.396-4.306,1.436-5.927,2.924V22.75h23.856
				V40.878z"/>
		</g>
	</g>
</g>
</svg>
