<?xml version="1.0" encoding="utf-8"?>
<!-- Generator: Adobe Illustrator 16.0.0, SVG Export Plug-In . SVG Version: 6.00 Build 0)  -->
<!DOCTYPE svg PUBLIC "-//W3C//DTD SVG 1.1//EN" "http://www.w3.org/Graphics/SVG/1.1/DTD/svg11.dtd">
<svg version="1.1" id="Layer_1" xmlns="http://www.w3.org/2000/svg" xmlns:xlink="http://www.w3.org/1999/xlink" x="0px" y="0px"
	 width="110px" height="110px" viewBox="0 0 110 110" enable-background="new 0 0 110 110" xml:space="preserve">
<g>
	<path fill="#FFC300" d="M66.682,5C45.551,5,28.361,22.208,28.361,43.359c0,9.777,3.679,18.707,9.716,25.487l-4.673,4.676
		c-2.961-1.804-6.795-1.831-9.793,0.11c-0.543,0.354-1.051,0.767-1.507,1.226l-2.017,2.018c-0.869,0.869-0.869,2.276,0,3.146
		c0.435,0.435,1.002,0.651,1.572,0.651c0.569,0,1.137-0.217,1.571-0.649l2.018-2.02c0.236-0.239,0.5-0.451,0.78-0.632
		c1.86-1.208,4.348-0.943,5.923,0.619c0.021,0.023,0.038,0.051,0.061,0.073c0.004,0.005,0.01,0.007,0.014,0.013
		c1.787,1.86,1.772,4.822-0.059,6.655L17.551,99.16c-1.852,1.854-4.867,1.856-6.72,0c-1.853-1.853-1.853-4.873,0-6.726l8.278-8.287
		c0.868-0.868,0.868-2.277,0-3.145c-0.868-0.869-2.276-0.869-3.142,0l-8.278,8.286c-3.586,3.589-3.586,9.431,0,13.021
		c1.792,1.792,4.148,2.689,6.502,2.689c2.356,0,4.711-0.897,6.504-2.692L35.11,87.877c3.026-3.026,3.487-7.65,1.411-11.179
		l4.699-4.706c6.774,6.045,15.696,9.728,25.463,9.728C87.81,81.72,105,64.51,105,43.36C104.999,22.208,87.81,5,66.682,5z
		 M66.682,77.271c-18.68,0-33.877-15.212-33.877-33.91c0-18.698,15.197-33.91,33.877-33.91c18.677-0.001,33.874,15.21,33.874,33.909
		C100.556,62.059,85.358,77.271,66.682,77.271z"/>
	<path fill="#FFC300" d="M43.618,33.734c0.74-1.767,1.687-3.455,2.818-5.016c0.721-0.995,0.497-2.387-0.496-3.107
		c-0.993-0.72-2.383-0.498-3.104,0.497c-1.33,1.837-2.446,3.825-3.317,5.909c-0.475,1.133,0.06,2.436,1.192,2.911
		c0.28,0.118,0.571,0.174,0.857,0.174C42.438,35.101,43.262,34.586,43.618,33.734z"/>
	<path fill="#FFC300" d="M49.865,24.188c0.482,0,0.967-0.157,1.375-0.478c4.443-3.509,9.782-5.362,15.441-5.362
		c1.227,0,2.222-0.996,2.222-2.225c0-1.227-0.995-2.224-2.222-2.224c-6.666,0-12.957,2.184-18.193,6.317
		c-0.963,0.76-1.129,2.16-0.369,3.124C48.557,23.897,49.208,24.188,49.865,24.188z"/>
	<path fill="#FFC300" d="M58.537,42.954c0,4.514,3.669,8.185,8.176,8.185c4.51,0,8.179-3.671,8.179-8.185s-3.669-8.187-8.179-8.187
		C62.206,34.767,58.537,38.44,58.537,42.954z M70.447,42.954c0,2.061-1.674,3.735-3.734,3.735c-2.059,0-3.73-1.675-3.73-3.735
		s1.675-3.737,3.73-3.737C68.771,39.217,70.447,40.894,70.447,42.954z"/>
	<path fill="#FFC300" d="M58.477,56.5c-1.163-0.28-2.324,0.411-2.65,1.551c-1.217-0.587-2.559-0.925-3.946-0.925h-4.101
		c-2.096,0-4.147,0.735-5.777,2.072c-0.949,0.778-1.088,2.179-0.31,3.13c0.776,0.95,2.176,1.088,3.126,0.311
		c0.85-0.695,1.873-1.065,2.959-1.065h4.101c1.436,0,2.791,0.675,3.66,1.785v7.768c0,1.229,0.995,2.227,2.223,2.227
		c1.226,0,2.222-0.996,2.222-2.227V60.287c0-0.374,0.045-0.745,0.13-1.103C60.404,57.992,59.67,56.789,58.477,56.5z"/>
	<path fill="#FFC300" d="M75.658,66.544c-1.226,0-2.222,0.997-2.222,2.225v2.359c0,1.228,0.995,2.225,2.222,2.225
		c1.228,0,2.224-0.997,2.224-2.225v-2.359C77.882,67.539,76.887,66.544,75.658,66.544z"/>
	<path fill="#FFC300" d="M83.597,39.845c-4.509,0-8.178,3.672-8.178,8.186c0,4.512,3.669,8.185,8.178,8.185s8.18-3.673,8.18-8.185
		C91.776,43.517,88.105,39.845,83.597,39.845z M83.597,51.766c-2.059,0-3.732-1.677-3.732-3.735c0-2.061,1.674-3.737,3.732-3.737
		c2.062,0,3.735,1.675,3.735,3.737C87.332,50.092,85.658,51.766,83.597,51.766z"/>
	<path fill="#FFC300" d="M81.553,56.238c-1.479,0-2.912,0.379-4.189,1.041c-1.248-3.56-4.629-6.126-8.606-6.126h-4.08
		c-1.492,0-2.973,0.367-4.282,1.062c-1.084,0.576-1.497,1.923-0.923,3.007c0.574,1.086,1.92,1.499,3.006,0.924
		c0.681-0.361,1.42-0.544,2.199-0.544h4.08c2.581,0,4.68,2.104,4.68,4.687v2.914c0,1.229,0.994,2.226,2.224,2.226
		c1.226,0,2.222-0.995,2.222-2.226v-0.73c0.87-1.11,2.23-1.784,3.672-1.784h4.091c1.198,0,2.334,0.451,3.206,1.271
		c0.893,0.846,2.3,0.801,3.141-0.093c0.84-0.894,0.798-2.305-0.097-3.146c-1.696-1.6-3.918-2.48-6.25-2.48L81.553,56.238
		L81.553,56.238z"/>
	<path fill="#FFC300" d="M41.652,48.915c0,4.514,3.669,8.187,8.177,8.187c4.51,0,8.179-3.673,8.179-8.187
		c0-4.513-3.669-8.185-8.179-8.185C45.321,40.73,41.652,44.402,41.652,48.915z M53.564,48.915c0,2.062-1.675,3.739-3.733,3.739
		c-2.059,0-3.734-1.676-3.734-3.739c0-2.059,1.675-3.735,3.734-3.735C51.89,45.179,53.564,46.856,53.564,48.915z"/>
</g>
</svg>
